G04 #@! TF.GenerationSoftware,KiCad,Pcbnew,(6.0.11)*
G04 #@! TF.CreationDate,2023-02-11T18:44:03+01:00*
G04 #@! TF.ProjectId,udb-s-panel,7564622d-732d-4706-916e-656c2e6b6963,rev?*
G04 #@! TF.SameCoordinates,Original*
G04 #@! TF.FileFunction,Soldermask,Top*
G04 #@! TF.FilePolarity,Negative*
%FSLAX46Y46*%
G04 Gerber Fmt 4.6, Leading zero omitted, Abs format (unit mm)*
G04 Created by KiCad (PCBNEW (6.0.11)) date 2023-02-11 18:44:03*
%MOMM*%
%LPD*%
G01*
G04 APERTURE LIST*
G04 Aperture macros list*
%AMRoundRect*
0 Rectangle with rounded corners*
0 $1 Rounding radius*
0 $2 $3 $4 $5 $6 $7 $8 $9 X,Y pos of 4 corners*
0 Add a 4 corners polygon primitive as box body*
4,1,4,$2,$3,$4,$5,$6,$7,$8,$9,$2,$3,0*
0 Add four circle primitives for the rounded corners*
1,1,$1+$1,$2,$3*
1,1,$1+$1,$4,$5*
1,1,$1+$1,$6,$7*
1,1,$1+$1,$8,$9*
0 Add four rect primitives between the rounded corners*
20,1,$1+$1,$2,$3,$4,$5,0*
20,1,$1+$1,$4,$5,$6,$7,0*
20,1,$1+$1,$6,$7,$8,$9,0*
20,1,$1+$1,$8,$9,$2,$3,0*%
G04 Aperture macros list end*
%ADD10C,6.000000*%
%ADD11C,3.600000*%
%ADD12RoundRect,0.135000X0.185000X-0.135000X0.185000X0.135000X-0.185000X0.135000X-0.185000X-0.135000X0*%
%ADD13RoundRect,0.135000X-0.185000X0.135000X-0.185000X-0.135000X0.185000X-0.135000X0.185000X0.135000X0*%
%ADD14C,2.000000*%
%ADD15C,0.650000*%
%ADD16RoundRect,0.060000X0.240000X0.665000X-0.240000X0.665000X-0.240000X-0.665000X0.240000X-0.665000X0*%
%ADD17RoundRect,0.060000X0.090000X0.665000X-0.090000X0.665000X-0.090000X-0.665000X0.090000X-0.665000X0*%
%ADD18O,1.300000X1.700000*%
%ADD19O,1.100000X2.200000*%
%ADD20RoundRect,0.125000X-0.150000X0.000000X-0.150000X0.000000X0.150000X0.000000X0.150000X0.000000X0*%
%ADD21R,0.550000X0.250000*%
%ADD22R,0.550000X0.300000*%
%ADD23RoundRect,0.250000X0.625000X-0.375000X0.625000X0.375000X-0.625000X0.375000X-0.625000X-0.375000X0*%
%ADD24RoundRect,0.100000X-0.250000X-0.400000X0.250000X-0.400000X0.250000X0.400000X-0.250000X0.400000X0*%
%ADD25RoundRect,0.125000X-0.250000X-0.475000X0.250000X-0.475000X0.250000X0.475000X-0.250000X0.475000X0*%
%ADD26RoundRect,0.218750X-0.381250X0.218750X-0.381250X-0.218750X0.381250X-0.218750X0.381250X0.218750X0*%
%ADD27R,0.700000X0.600000*%
G04 APERTURE END LIST*
D10*
G04 #@! TO.C,H1*
X124498604Y10500001D03*
D11*
X124498604Y10500001D03*
G04 #@! TD*
D12*
G04 #@! TO.C,R1*
X26517352Y73667515D03*
X26517352Y74687515D03*
G04 #@! TD*
D13*
G04 #@! TO.C,R2*
X25317352Y74687515D03*
X25317352Y73667515D03*
G04 #@! TD*
G04 #@! TO.C,R2*
X25317352Y92687519D03*
X25317352Y91667519D03*
G04 #@! TD*
D12*
G04 #@! TO.C,R1*
X26517352Y82667517D03*
X26517352Y83687517D03*
G04 #@! TD*
D10*
G04 #@! TO.C,H1*
X83498603Y76500015D03*
D11*
X83498603Y76500015D03*
G04 #@! TD*
D14*
G04 #@! TO.C,REF\u002A\u002A*
X128997205Y101150020D03*
G04 #@! TD*
D13*
G04 #@! TO.C,R2*
X25317352Y17687503D03*
X25317352Y16667503D03*
G04 #@! TD*
D11*
G04 #@! TO.C,H1*
X42498602Y28500005D03*
D10*
X42498602Y28500005D03*
G04 #@! TD*
D15*
G04 #@! TO.C,J1*
X112708604Y76050015D03*
X118488604Y76050015D03*
D16*
X118823604Y74605015D03*
X118048604Y74605015D03*
D17*
X116848604Y74605015D03*
X115848604Y74605015D03*
X115348604Y74605015D03*
X114348604Y74605015D03*
D16*
X112373604Y74605015D03*
X113148604Y74605015D03*
D17*
X113848604Y74605015D03*
X114848604Y74605015D03*
X116348604Y74605015D03*
X117348604Y74605015D03*
D18*
X111278604Y79700015D03*
D19*
X119918604Y75520015D03*
X111278604Y75520015D03*
D18*
X119918604Y79700015D03*
G04 #@! TD*
D15*
G04 #@! TO.C,J1*
X36488602Y10050001D03*
X30708602Y10050001D03*
D16*
X36823602Y8605001D03*
X36048602Y8605001D03*
D17*
X34848602Y8605001D03*
X33848602Y8605001D03*
X33348602Y8605001D03*
X32348602Y8605001D03*
D16*
X30373602Y8605001D03*
X31148602Y8605001D03*
D17*
X31848602Y8605001D03*
X32848602Y8605001D03*
X34348602Y8605001D03*
X35348602Y8605001D03*
D18*
X37918602Y13700001D03*
D19*
X37918602Y9520001D03*
X29278602Y9520001D03*
D18*
X29278602Y13700001D03*
G04 #@! TD*
D10*
G04 #@! TO.C,H1*
X83498603Y67500013D03*
D11*
X83498603Y67500013D03*
G04 #@! TD*
D14*
G04 #@! TO.C,REF\u002A\u002A*
X5000000Y101150020D03*
G04 #@! TD*
D20*
G04 #@! TO.C,U1*
X21532352Y79677515D03*
D21*
X21532352Y79177515D03*
D22*
X21532352Y78677515D03*
D21*
X21532352Y78177515D03*
X21532352Y77677515D03*
X22302352Y77677515D03*
X22302352Y78177515D03*
D22*
X22302352Y78677515D03*
D21*
X22302352Y79177515D03*
X22302352Y79677515D03*
G04 #@! TD*
D23*
G04 #@! TO.C,F1*
X103617354Y91277519D03*
X103617354Y94077519D03*
G04 #@! TD*
D24*
G04 #@! TO.C,J2*
X19448602Y34000007D03*
D25*
X15898602Y38000007D03*
X17098602Y38000007D03*
X14698602Y38000007D03*
D24*
X13548602Y34000007D03*
D25*
X18298602Y38000007D03*
G04 #@! TD*
D13*
G04 #@! TO.C,R2*
X25317352Y8687501D03*
X25317352Y7667501D03*
G04 #@! TD*
D12*
G04 #@! TO.C,R1*
X67517353Y7667501D03*
X67517353Y8687501D03*
G04 #@! TD*
G04 #@! TO.C,R1*
X67517353Y34667507D03*
X67517353Y35687507D03*
G04 #@! TD*
D15*
G04 #@! TO.C,J1*
X118488604Y58050011D03*
X112708604Y58050011D03*
D16*
X118823604Y56605011D03*
X118048604Y56605011D03*
D17*
X116848604Y56605011D03*
X115848604Y56605011D03*
X115348604Y56605011D03*
X114348604Y56605011D03*
D16*
X112373604Y56605011D03*
X113148604Y56605011D03*
D17*
X113848604Y56605011D03*
X114848604Y56605011D03*
X116348604Y56605011D03*
X117348604Y56605011D03*
D19*
X119918604Y57520011D03*
X111278604Y57520011D03*
D18*
X111278604Y61700011D03*
X119918604Y61700011D03*
G04 #@! TD*
D26*
G04 #@! TO.C,FB1*
X27217352Y80040015D03*
X27217352Y77915015D03*
G04 #@! TD*
D10*
G04 #@! TO.C,H1*
X124498604Y28500005D03*
D11*
X124498604Y28500005D03*
G04 #@! TD*
G04 #@! TO.C,H1*
X42498602Y67500013D03*
D10*
X42498602Y67500013D03*
G04 #@! TD*
D11*
G04 #@! TO.C,H1*
X42498602Y37500007D03*
D10*
X42498602Y37500007D03*
G04 #@! TD*
D26*
G04 #@! TO.C,FB1*
X68217353Y89040017D03*
X68217353Y86915017D03*
G04 #@! TD*
D13*
G04 #@! TO.C,R2*
X25317352Y83687517D03*
X25317352Y82667517D03*
G04 #@! TD*
D15*
G04 #@! TO.C,J1*
X30708602Y19050003D03*
X36488602Y19050003D03*
D16*
X36823602Y17605003D03*
X36048602Y17605003D03*
D17*
X34848602Y17605003D03*
X33848602Y17605003D03*
X33348602Y17605003D03*
X32348602Y17605003D03*
D16*
X30373602Y17605003D03*
X31148602Y17605003D03*
D17*
X31848602Y17605003D03*
X32848602Y17605003D03*
X34348602Y17605003D03*
X35348602Y17605003D03*
D19*
X37918602Y18520003D03*
D18*
X29278602Y22700003D03*
D19*
X29278602Y18520003D03*
D18*
X37918602Y22700003D03*
G04 #@! TD*
D27*
G04 #@! TO.C,D1*
X64817353Y73077515D03*
X64817353Y74477515D03*
G04 #@! TD*
D25*
G04 #@! TO.C,J2*
X17098602Y77000015D03*
X14698602Y77000015D03*
D24*
X13548602Y73000015D03*
D25*
X15898602Y77000015D03*
D24*
X19448602Y73000015D03*
D25*
X18298602Y77000015D03*
G04 #@! TD*
D12*
G04 #@! TO.C,R1*
X67517353Y91667519D03*
X67517353Y92687519D03*
G04 #@! TD*
D13*
G04 #@! TO.C,R2*
X107317354Y92687519D03*
X107317354Y91667519D03*
G04 #@! TD*
D26*
G04 #@! TO.C,FB1*
X109217354Y23040003D03*
X109217354Y20915003D03*
G04 #@! TD*
G04 #@! TO.C,FB1*
X27217352Y50040009D03*
X27217352Y47915009D03*
G04 #@! TD*
D20*
G04 #@! TO.C,U1*
X62532353Y31677505D03*
D21*
X62532353Y31177505D03*
D22*
X62532353Y30677505D03*
D21*
X62532353Y30177505D03*
X62532353Y29677505D03*
X63302353Y29677505D03*
X63302353Y30177505D03*
D22*
X63302353Y30677505D03*
D21*
X63302353Y31177505D03*
X63302353Y31677505D03*
G04 #@! TD*
D15*
G04 #@! TO.C,J1*
X30708602Y58050011D03*
X36488602Y58050011D03*
D16*
X36823602Y56605011D03*
X36048602Y56605011D03*
D17*
X34848602Y56605011D03*
X33848602Y56605011D03*
X33348602Y56605011D03*
X32348602Y56605011D03*
D16*
X30373602Y56605011D03*
X31148602Y56605011D03*
D17*
X31848602Y56605011D03*
X32848602Y56605011D03*
X34348602Y56605011D03*
X35348602Y56605011D03*
D18*
X37918602Y61700011D03*
X29278602Y61700011D03*
D19*
X37918602Y57520011D03*
X29278602Y57520011D03*
G04 #@! TD*
D23*
G04 #@! TO.C,F1*
X62617353Y64277513D03*
X62617353Y67077513D03*
G04 #@! TD*
G04 #@! TO.C,F1*
X103617354Y82277517D03*
X103617354Y85077517D03*
G04 #@! TD*
D20*
G04 #@! TO.C,U1*
X103532354Y22677503D03*
D21*
X103532354Y22177503D03*
D22*
X103532354Y21677503D03*
D21*
X103532354Y21177503D03*
X103532354Y20677503D03*
X104302354Y20677503D03*
X104302354Y21177503D03*
D22*
X104302354Y21677503D03*
D21*
X104302354Y22177503D03*
X104302354Y22677503D03*
G04 #@! TD*
D20*
G04 #@! TO.C,U1*
X103532354Y88677517D03*
D21*
X103532354Y88177517D03*
D22*
X103532354Y87677517D03*
D21*
X103532354Y87177517D03*
X103532354Y86677517D03*
X104302354Y86677517D03*
X104302354Y87177517D03*
D22*
X104302354Y87677517D03*
D21*
X104302354Y88177517D03*
X104302354Y88677517D03*
G04 #@! TD*
D27*
G04 #@! TO.C,D1*
X64817353Y55077511D03*
X64817353Y56477511D03*
G04 #@! TD*
D25*
G04 #@! TO.C,J2*
X96698604Y47000009D03*
X97898604Y47000009D03*
X100298604Y47000009D03*
D24*
X95548604Y43000009D03*
D25*
X99098604Y47000009D03*
D24*
X101448604Y43000009D03*
G04 #@! TD*
D27*
G04 #@! TO.C,D1*
X105817354Y91077519D03*
X105817354Y92477519D03*
G04 #@! TD*
D13*
G04 #@! TO.C,R2*
X66317353Y44687509D03*
X66317353Y43667509D03*
G04 #@! TD*
D23*
G04 #@! TO.C,F1*
X21617352Y7277501D03*
X21617352Y10077501D03*
G04 #@! TD*
D25*
G04 #@! TO.C,J2*
X15898602Y20000003D03*
X17098602Y20000003D03*
D24*
X13548602Y16000003D03*
D25*
X14698602Y20000003D03*
D24*
X19448602Y16000003D03*
D25*
X18298602Y20000003D03*
G04 #@! TD*
D13*
G04 #@! TO.C,R2*
X66317353Y56687511D03*
X66317353Y55667511D03*
G04 #@! TD*
D12*
G04 #@! TO.C,R1*
X26517352Y7667501D03*
X26517352Y8687501D03*
G04 #@! TD*
D23*
G04 #@! TO.C,F1*
X21617352Y43277509D03*
X21617352Y46077509D03*
G04 #@! TD*
D13*
G04 #@! TO.C,R2*
X66317353Y35687507D03*
X66317353Y34667507D03*
G04 #@! TD*
G04 #@! TO.C,R2*
X25317352Y44687509D03*
X25317352Y43667509D03*
G04 #@! TD*
D15*
G04 #@! TO.C,J1*
X36488602Y76050015D03*
X30708602Y76050015D03*
D16*
X36823602Y74605015D03*
X36048602Y74605015D03*
D17*
X34848602Y74605015D03*
X33848602Y74605015D03*
X33348602Y74605015D03*
X32348602Y74605015D03*
D16*
X30373602Y74605015D03*
X31148602Y74605015D03*
D17*
X31848602Y74605015D03*
X32848602Y74605015D03*
X34348602Y74605015D03*
X35348602Y74605015D03*
D19*
X37918602Y75520015D03*
X29278602Y75520015D03*
D18*
X37918602Y79700015D03*
X29278602Y79700015D03*
G04 #@! TD*
D25*
G04 #@! TO.C,J2*
X15898602Y59000011D03*
D24*
X13548602Y55000011D03*
D25*
X14698602Y59000011D03*
X17098602Y59000011D03*
D24*
X19448602Y55000011D03*
D25*
X18298602Y59000011D03*
G04 #@! TD*
D27*
G04 #@! TO.C,D1*
X23817352Y25077505D03*
X23817352Y26477505D03*
G04 #@! TD*
D26*
G04 #@! TO.C,FB1*
X109217354Y32040005D03*
X109217354Y29915005D03*
G04 #@! TD*
D23*
G04 #@! TO.C,F1*
X21617352Y16277503D03*
X21617352Y19077503D03*
G04 #@! TD*
G04 #@! TO.C,F1*
X62617353Y43277509D03*
X62617353Y46077509D03*
G04 #@! TD*
D11*
G04 #@! TO.C,H1*
X42498602Y58500011D03*
D10*
X42498602Y58500011D03*
G04 #@! TD*
D27*
G04 #@! TO.C,D1*
X23817352Y91077519D03*
X23817352Y92477519D03*
G04 #@! TD*
D20*
G04 #@! TO.C,U1*
X21532352Y88677517D03*
D21*
X21532352Y88177517D03*
D22*
X21532352Y87677517D03*
D21*
X21532352Y87177517D03*
X21532352Y86677517D03*
X22302352Y86677517D03*
X22302352Y87177517D03*
D22*
X22302352Y87677517D03*
D21*
X22302352Y88177517D03*
X22302352Y88677517D03*
G04 #@! TD*
D26*
G04 #@! TO.C,FB1*
X68217353Y98040019D03*
X68217353Y95915019D03*
G04 #@! TD*
G04 #@! TO.C,FB1*
X27217352Y98040019D03*
X27217352Y95915019D03*
G04 #@! TD*
D27*
G04 #@! TO.C,D1*
X23817352Y7077501D03*
X23817352Y8477501D03*
G04 #@! TD*
D23*
G04 #@! TO.C,F1*
X21617352Y91277519D03*
X21617352Y94077519D03*
G04 #@! TD*
D26*
G04 #@! TO.C,FB1*
X68217353Y50040009D03*
X68217353Y47915009D03*
G04 #@! TD*
D27*
G04 #@! TO.C,D1*
X105817354Y55077511D03*
X105817354Y56477511D03*
G04 #@! TD*
G04 #@! TO.C,D1*
X23817352Y43077509D03*
X23817352Y44477509D03*
G04 #@! TD*
D12*
G04 #@! TO.C,R1*
X26517352Y34667507D03*
X26517352Y35687507D03*
G04 #@! TD*
D14*
G04 #@! TO.C,REF\u002A\u002A*
X131497205Y102500020D03*
G04 #@! TD*
D15*
G04 #@! TO.C,J1*
X77488603Y94050019D03*
X71708603Y94050019D03*
D16*
X77823603Y92605019D03*
X77048603Y92605019D03*
D17*
X75848603Y92605019D03*
X74848603Y92605019D03*
X74348603Y92605019D03*
X73348603Y92605019D03*
D16*
X71373603Y92605019D03*
X72148603Y92605019D03*
D17*
X72848603Y92605019D03*
X73848603Y92605019D03*
X75348603Y92605019D03*
X76348603Y92605019D03*
D19*
X70278603Y93520019D03*
X78918603Y93520019D03*
D18*
X70278603Y97700019D03*
X78918603Y97700019D03*
G04 #@! TD*
D15*
G04 #@! TO.C,J1*
X36488602Y37050007D03*
X30708602Y37050007D03*
D16*
X36823602Y35605007D03*
X36048602Y35605007D03*
D17*
X34848602Y35605007D03*
X33848602Y35605007D03*
X33348602Y35605007D03*
X32348602Y35605007D03*
D16*
X30373602Y35605007D03*
X31148602Y35605007D03*
D17*
X31848602Y35605007D03*
X32848602Y35605007D03*
X34348602Y35605007D03*
X35348602Y35605007D03*
D18*
X29278602Y40700007D03*
D19*
X29278602Y36520007D03*
D18*
X37918602Y40700007D03*
D19*
X37918602Y36520007D03*
G04 #@! TD*
D20*
G04 #@! TO.C,U1*
X62532353Y49677509D03*
D21*
X62532353Y49177509D03*
D22*
X62532353Y48677509D03*
D21*
X62532353Y48177509D03*
X62532353Y47677509D03*
X63302353Y47677509D03*
X63302353Y48177509D03*
D22*
X63302353Y48677509D03*
D21*
X63302353Y49177509D03*
X63302353Y49677509D03*
G04 #@! TD*
D20*
G04 #@! TO.C,U1*
X103532354Y49677509D03*
D21*
X103532354Y49177509D03*
D22*
X103532354Y48677509D03*
D21*
X103532354Y48177509D03*
X103532354Y47677509D03*
X104302354Y47677509D03*
X104302354Y48177509D03*
D22*
X104302354Y48677509D03*
D21*
X104302354Y49177509D03*
X104302354Y49677509D03*
G04 #@! TD*
D15*
G04 #@! TO.C,J1*
X77488603Y67050013D03*
X71708603Y67050013D03*
D16*
X77823603Y65605013D03*
X77048603Y65605013D03*
D17*
X75848603Y65605013D03*
X74848603Y65605013D03*
X74348603Y65605013D03*
X73348603Y65605013D03*
D16*
X71373603Y65605013D03*
X72148603Y65605013D03*
D17*
X72848603Y65605013D03*
X73848603Y65605013D03*
X75348603Y65605013D03*
X76348603Y65605013D03*
D18*
X70278603Y70700013D03*
X78918603Y70700013D03*
D19*
X78918603Y66520013D03*
X70278603Y66520013D03*
G04 #@! TD*
D12*
G04 #@! TO.C,R1*
X26517352Y55667511D03*
X26517352Y56687511D03*
G04 #@! TD*
D11*
G04 #@! TO.C,H1*
X83498603Y94500019D03*
D10*
X83498603Y94500019D03*
G04 #@! TD*
D26*
G04 #@! TO.C,FB1*
X109217354Y98040019D03*
X109217354Y95915019D03*
G04 #@! TD*
D24*
G04 #@! TO.C,J2*
X101448604Y25000005D03*
X95548604Y25000005D03*
D25*
X100298604Y29000005D03*
X99098604Y29000005D03*
X97898604Y29000005D03*
X96698604Y29000005D03*
G04 #@! TD*
D24*
G04 #@! TO.C,J2*
X95548604Y7000001D03*
D25*
X99098604Y11000001D03*
X96698604Y11000001D03*
D24*
X101448604Y7000001D03*
D25*
X97898604Y11000001D03*
X100298604Y11000001D03*
G04 #@! TD*
D10*
G04 #@! TO.C,H1*
X83498603Y58500011D03*
D11*
X83498603Y58500011D03*
G04 #@! TD*
D10*
G04 #@! TO.C,H1*
X83498603Y10500001D03*
D11*
X83498603Y10500001D03*
G04 #@! TD*
D12*
G04 #@! TO.C,R1*
X26517352Y64667513D03*
X26517352Y65687513D03*
G04 #@! TD*
D26*
G04 #@! TO.C,FB1*
X68217353Y32040005D03*
X68217353Y29915005D03*
G04 #@! TD*
G04 #@! TO.C,FB1*
X27217352Y32040005D03*
X27217352Y29915005D03*
G04 #@! TD*
D27*
G04 #@! TO.C,D1*
X23817352Y64077513D03*
X23817352Y65477513D03*
G04 #@! TD*
D24*
G04 #@! TO.C,J2*
X13548602Y82000017D03*
D25*
X15898602Y86000017D03*
X17098602Y86000017D03*
X18298602Y86000017D03*
D24*
X19448602Y82000017D03*
D25*
X14698602Y86000017D03*
G04 #@! TD*
D15*
G04 #@! TO.C,J1*
X36488602Y67050013D03*
X30708602Y67050013D03*
D16*
X36823602Y65605013D03*
X36048602Y65605013D03*
D17*
X34848602Y65605013D03*
X33848602Y65605013D03*
X33348602Y65605013D03*
X32348602Y65605013D03*
D16*
X30373602Y65605013D03*
X31148602Y65605013D03*
D17*
X31848602Y65605013D03*
X32848602Y65605013D03*
X34348602Y65605013D03*
X35348602Y65605013D03*
D18*
X29278602Y70700013D03*
D19*
X29278602Y66520013D03*
D18*
X37918602Y70700013D03*
D19*
X37918602Y66520013D03*
G04 #@! TD*
D11*
G04 #@! TO.C,H1*
X124498604Y37500007D03*
D10*
X124498604Y37500007D03*
G04 #@! TD*
D26*
G04 #@! TO.C,FB1*
X109217354Y41040007D03*
X109217354Y38915007D03*
G04 #@! TD*
D25*
G04 #@! TO.C,J2*
X15898602Y47000009D03*
D24*
X19448602Y43000009D03*
X13548602Y43000009D03*
D25*
X18298602Y47000009D03*
X17098602Y47000009D03*
X14698602Y47000009D03*
G04 #@! TD*
D26*
G04 #@! TO.C,FB1*
X27217352Y71040013D03*
X27217352Y68915013D03*
G04 #@! TD*
D27*
G04 #@! TO.C,D1*
X64817353Y43077509D03*
X64817353Y44477509D03*
G04 #@! TD*
D13*
G04 #@! TO.C,R2*
X25317352Y35687507D03*
X25317352Y34667507D03*
G04 #@! TD*
G04 #@! TO.C,R2*
X107317354Y74687515D03*
X107317354Y73667515D03*
G04 #@! TD*
D20*
G04 #@! TO.C,U1*
X103532354Y61677511D03*
D21*
X103532354Y61177511D03*
D22*
X103532354Y60677511D03*
D21*
X103532354Y60177511D03*
X103532354Y59677511D03*
X104302354Y59677511D03*
X104302354Y60177511D03*
D22*
X104302354Y60677511D03*
D21*
X104302354Y61177511D03*
X104302354Y61677511D03*
G04 #@! TD*
D10*
G04 #@! TO.C,H1*
X42498602Y76500015D03*
D11*
X42498602Y76500015D03*
G04 #@! TD*
D23*
G04 #@! TO.C,F1*
X21617352Y73277515D03*
X21617352Y76077515D03*
G04 #@! TD*
D27*
G04 #@! TO.C,D1*
X105817354Y34077507D03*
X105817354Y35477507D03*
G04 #@! TD*
D20*
G04 #@! TO.C,U1*
X62532353Y70677513D03*
D21*
X62532353Y70177513D03*
D22*
X62532353Y69677513D03*
D21*
X62532353Y69177513D03*
X62532353Y68677513D03*
X63302353Y68677513D03*
X63302353Y69177513D03*
D22*
X63302353Y69677513D03*
D21*
X63302353Y70177513D03*
X63302353Y70677513D03*
G04 #@! TD*
D10*
G04 #@! TO.C,H1*
X42498602Y10500001D03*
D11*
X42498602Y10500001D03*
G04 #@! TD*
D27*
G04 #@! TO.C,D1*
X105817354Y16077503D03*
X105817354Y17477503D03*
G04 #@! TD*
D13*
G04 #@! TO.C,R2*
X107317354Y8687501D03*
X107317354Y7667501D03*
G04 #@! TD*
D27*
G04 #@! TO.C,D1*
X105817354Y73077515D03*
X105817354Y74477515D03*
G04 #@! TD*
D15*
G04 #@! TO.C,J1*
X112708604Y85050017D03*
X118488604Y85050017D03*
D16*
X118823604Y83605017D03*
X118048604Y83605017D03*
D17*
X116848604Y83605017D03*
X115848604Y83605017D03*
X115348604Y83605017D03*
X114348604Y83605017D03*
D16*
X112373604Y83605017D03*
X113148604Y83605017D03*
D17*
X113848604Y83605017D03*
X114848604Y83605017D03*
X116348604Y83605017D03*
X117348604Y83605017D03*
D18*
X111278604Y88700017D03*
D19*
X119918604Y84520017D03*
X111278604Y84520017D03*
D18*
X119918604Y88700017D03*
G04 #@! TD*
D25*
G04 #@! TO.C,J2*
X97898604Y38000007D03*
D24*
X101448604Y34000007D03*
D25*
X100298604Y38000007D03*
D24*
X95548604Y34000007D03*
D25*
X99098604Y38000007D03*
X96698604Y38000007D03*
G04 #@! TD*
D27*
G04 #@! TO.C,D1*
X23817352Y16077503D03*
X23817352Y17477503D03*
G04 #@! TD*
D12*
G04 #@! TO.C,R1*
X108517354Y25667505D03*
X108517354Y26687505D03*
G04 #@! TD*
D27*
G04 #@! TO.C,D1*
X105817354Y64077513D03*
X105817354Y65477513D03*
G04 #@! TD*
D20*
G04 #@! TO.C,U1*
X103532354Y97677519D03*
D21*
X103532354Y97177519D03*
D22*
X103532354Y96677519D03*
D21*
X103532354Y96177519D03*
X103532354Y95677519D03*
X104302354Y95677519D03*
X104302354Y96177519D03*
D22*
X104302354Y96677519D03*
D21*
X104302354Y97177519D03*
X104302354Y97677519D03*
G04 #@! TD*
D20*
G04 #@! TO.C,U1*
X21532352Y22677503D03*
D21*
X21532352Y22177503D03*
D22*
X21532352Y21677503D03*
D21*
X21532352Y21177503D03*
X21532352Y20677503D03*
X22302352Y20677503D03*
X22302352Y21177503D03*
D22*
X22302352Y21677503D03*
D21*
X22302352Y22177503D03*
X22302352Y22677503D03*
G04 #@! TD*
D25*
G04 #@! TO.C,J2*
X56898603Y47000009D03*
D24*
X60448603Y43000009D03*
X54548603Y43000009D03*
D25*
X55698603Y47000009D03*
X58098603Y47000009D03*
X59298603Y47000009D03*
G04 #@! TD*
D13*
G04 #@! TO.C,R2*
X107317354Y44687509D03*
X107317354Y43667509D03*
G04 #@! TD*
D23*
G04 #@! TO.C,F1*
X62617353Y73277515D03*
X62617353Y76077515D03*
G04 #@! TD*
D10*
G04 #@! TO.C,H1*
X42498602Y19500003D03*
D11*
X42498602Y19500003D03*
G04 #@! TD*
D23*
G04 #@! TO.C,F1*
X62617353Y34277507D03*
X62617353Y37077507D03*
G04 #@! TD*
D20*
G04 #@! TO.C,U1*
X21532352Y70677513D03*
D21*
X21532352Y70177513D03*
D22*
X21532352Y69677513D03*
D21*
X21532352Y69177513D03*
X21532352Y68677513D03*
X22302352Y68677513D03*
X22302352Y69177513D03*
D22*
X22302352Y69677513D03*
D21*
X22302352Y70177513D03*
X22302352Y70677513D03*
G04 #@! TD*
D26*
G04 #@! TO.C,FB1*
X68217353Y14040001D03*
X68217353Y11915001D03*
G04 #@! TD*
D12*
G04 #@! TO.C,R1*
X108517354Y64667513D03*
X108517354Y65687513D03*
G04 #@! TD*
D23*
G04 #@! TO.C,F1*
X103617354Y25277505D03*
X103617354Y28077505D03*
G04 #@! TD*
D26*
G04 #@! TO.C,FB1*
X27217352Y14040001D03*
X27217352Y11915001D03*
G04 #@! TD*
D23*
G04 #@! TO.C,F1*
X62617353Y55277511D03*
X62617353Y58077511D03*
G04 #@! TD*
D12*
G04 #@! TO.C,R1*
X26517352Y91667519D03*
X26517352Y92687519D03*
G04 #@! TD*
D26*
G04 #@! TO.C,FB1*
X68217353Y71040013D03*
X68217353Y68915013D03*
G04 #@! TD*
D23*
G04 #@! TO.C,F1*
X62617353Y25277505D03*
X62617353Y28077505D03*
G04 #@! TD*
D27*
G04 #@! TO.C,D1*
X64817353Y16077503D03*
X64817353Y17477503D03*
G04 #@! TD*
D15*
G04 #@! TO.C,J1*
X30708602Y94050019D03*
X36488602Y94050019D03*
D16*
X36823602Y92605019D03*
X36048602Y92605019D03*
D17*
X34848602Y92605019D03*
X33848602Y92605019D03*
X33348602Y92605019D03*
X32348602Y92605019D03*
D16*
X30373602Y92605019D03*
X31148602Y92605019D03*
D17*
X31848602Y92605019D03*
X32848602Y92605019D03*
X34348602Y92605019D03*
X35348602Y92605019D03*
D18*
X37918602Y97700019D03*
D19*
X29278602Y93520019D03*
D18*
X29278602Y97700019D03*
D19*
X37918602Y93520019D03*
G04 #@! TD*
D12*
G04 #@! TO.C,R1*
X67517353Y55667511D03*
X67517353Y56687511D03*
G04 #@! TD*
G04 #@! TO.C,R1*
X108517354Y91667519D03*
X108517354Y92687519D03*
G04 #@! TD*
G04 #@! TO.C,R1*
X108517354Y43667509D03*
X108517354Y44687509D03*
G04 #@! TD*
G04 #@! TO.C,R1*
X67517353Y64667513D03*
X67517353Y65687513D03*
G04 #@! TD*
D25*
G04 #@! TO.C,J2*
X58098603Y38000007D03*
D24*
X60448603Y34000007D03*
X54548603Y34000007D03*
D25*
X59298603Y38000007D03*
X55698603Y38000007D03*
X56898603Y38000007D03*
G04 #@! TD*
D15*
G04 #@! TO.C,J1*
X77488603Y10050001D03*
X71708603Y10050001D03*
D16*
X77823603Y8605001D03*
X77048603Y8605001D03*
D17*
X75848603Y8605001D03*
X74848603Y8605001D03*
X74348603Y8605001D03*
X73348603Y8605001D03*
D16*
X71373603Y8605001D03*
X72148603Y8605001D03*
D17*
X72848603Y8605001D03*
X73848603Y8605001D03*
X75348603Y8605001D03*
X76348603Y8605001D03*
D18*
X70278603Y13700001D03*
D19*
X70278603Y9520001D03*
D18*
X78918603Y13700001D03*
D19*
X78918603Y9520001D03*
G04 #@! TD*
D25*
G04 #@! TO.C,J2*
X18298602Y95000019D03*
X14698602Y95000019D03*
X17098602Y95000019D03*
X15898602Y95000019D03*
D24*
X19448602Y91000019D03*
X13548602Y91000019D03*
G04 #@! TD*
D12*
G04 #@! TO.C,R1*
X108517354Y82667517D03*
X108517354Y83687517D03*
G04 #@! TD*
D27*
G04 #@! TO.C,D1*
X23817352Y34077507D03*
X23817352Y35477507D03*
G04 #@! TD*
G04 #@! TO.C,D1*
X105817354Y43077509D03*
X105817354Y44477509D03*
G04 #@! TD*
D23*
G04 #@! TO.C,F1*
X21617352Y55277511D03*
X21617352Y58077511D03*
G04 #@! TD*
D26*
G04 #@! TO.C,FB1*
X27217352Y62040011D03*
X27217352Y59915011D03*
G04 #@! TD*
D15*
G04 #@! TO.C,J1*
X112708604Y67050013D03*
X118488604Y67050013D03*
D16*
X118823604Y65605013D03*
X118048604Y65605013D03*
D17*
X116848604Y65605013D03*
X115848604Y65605013D03*
X115348604Y65605013D03*
X114348604Y65605013D03*
D16*
X112373604Y65605013D03*
X113148604Y65605013D03*
D17*
X113848604Y65605013D03*
X114848604Y65605013D03*
X116348604Y65605013D03*
X117348604Y65605013D03*
D18*
X119918604Y70700013D03*
D19*
X111278604Y66520013D03*
D18*
X111278604Y70700013D03*
D19*
X119918604Y66520013D03*
G04 #@! TD*
D23*
G04 #@! TO.C,F1*
X21617352Y64277513D03*
X21617352Y67077513D03*
G04 #@! TD*
D27*
G04 #@! TO.C,D1*
X105817354Y7077501D03*
X105817354Y8477501D03*
G04 #@! TD*
D23*
G04 #@! TO.C,F1*
X62617353Y91277519D03*
X62617353Y94077519D03*
G04 #@! TD*
D26*
G04 #@! TO.C,FB1*
X109217354Y89040017D03*
X109217354Y86915017D03*
G04 #@! TD*
D25*
G04 #@! TO.C,J2*
X58098603Y86000017D03*
D24*
X60448603Y82000017D03*
D25*
X55698603Y86000017D03*
X59298603Y86000017D03*
D24*
X54548603Y82000017D03*
D25*
X56898603Y86000017D03*
G04 #@! TD*
D12*
G04 #@! TO.C,R1*
X67517353Y82667517D03*
X67517353Y83687517D03*
G04 #@! TD*
D27*
G04 #@! TO.C,D1*
X64817353Y25077505D03*
X64817353Y26477505D03*
G04 #@! TD*
D15*
G04 #@! TO.C,J1*
X112708604Y28050005D03*
X118488604Y28050005D03*
D16*
X118823604Y26605005D03*
X118048604Y26605005D03*
D17*
X116848604Y26605005D03*
X115848604Y26605005D03*
X115348604Y26605005D03*
X114348604Y26605005D03*
D16*
X112373604Y26605005D03*
X113148604Y26605005D03*
D17*
X113848604Y26605005D03*
X114848604Y26605005D03*
X116348604Y26605005D03*
X117348604Y26605005D03*
D19*
X111278604Y27520005D03*
X119918604Y27520005D03*
D18*
X119918604Y31700005D03*
X111278604Y31700005D03*
G04 #@! TD*
D13*
G04 #@! TO.C,R2*
X66317353Y92687519D03*
X66317353Y91667519D03*
G04 #@! TD*
D23*
G04 #@! TO.C,F1*
X62617353Y7277501D03*
X62617353Y10077501D03*
G04 #@! TD*
D26*
G04 #@! TO.C,FB1*
X68217353Y23040003D03*
X68217353Y20915003D03*
G04 #@! TD*
D25*
G04 #@! TO.C,J2*
X96698604Y20000003D03*
X100298604Y20000003D03*
D24*
X95548604Y16000003D03*
D25*
X99098604Y20000003D03*
D24*
X101448604Y16000003D03*
D25*
X97898604Y20000003D03*
G04 #@! TD*
D13*
G04 #@! TO.C,R2*
X66317353Y65687513D03*
X66317353Y64667513D03*
G04 #@! TD*
D23*
G04 #@! TO.C,F1*
X21617352Y82277517D03*
X21617352Y85077517D03*
G04 #@! TD*
D15*
G04 #@! TO.C,J1*
X36488602Y46050009D03*
X30708602Y46050009D03*
D16*
X36823602Y44605009D03*
X36048602Y44605009D03*
D17*
X34848602Y44605009D03*
X33848602Y44605009D03*
X33348602Y44605009D03*
X32348602Y44605009D03*
D16*
X30373602Y44605009D03*
X31148602Y44605009D03*
D17*
X31848602Y44605009D03*
X32848602Y44605009D03*
X34348602Y44605009D03*
X35348602Y44605009D03*
D18*
X29278602Y49700009D03*
X37918602Y49700009D03*
D19*
X29278602Y45520009D03*
X37918602Y45520009D03*
G04 #@! TD*
D27*
G04 #@! TO.C,D1*
X23817352Y73077515D03*
X23817352Y74477515D03*
G04 #@! TD*
D20*
G04 #@! TO.C,U1*
X103532354Y79677515D03*
D21*
X103532354Y79177515D03*
D22*
X103532354Y78677515D03*
D21*
X103532354Y78177515D03*
X103532354Y77677515D03*
X104302354Y77677515D03*
X104302354Y78177515D03*
D22*
X104302354Y78677515D03*
D21*
X104302354Y79177515D03*
X104302354Y79677515D03*
G04 #@! TD*
D23*
G04 #@! TO.C,F1*
X103617354Y43277509D03*
X103617354Y46077509D03*
G04 #@! TD*
D20*
G04 #@! TO.C,U1*
X62532353Y79677515D03*
D21*
X62532353Y79177515D03*
D22*
X62532353Y78677515D03*
D21*
X62532353Y78177515D03*
X62532353Y77677515D03*
X63302353Y77677515D03*
X63302353Y78177515D03*
D22*
X63302353Y78677515D03*
D21*
X63302353Y79177515D03*
X63302353Y79677515D03*
G04 #@! TD*
D27*
G04 #@! TO.C,D1*
X105817354Y82077517D03*
X105817354Y83477517D03*
G04 #@! TD*
D26*
G04 #@! TO.C,FB1*
X27217352Y23040003D03*
X27217352Y20915003D03*
G04 #@! TD*
G04 #@! TO.C,FB1*
X109217354Y71040013D03*
X109217354Y68915013D03*
G04 #@! TD*
D25*
G04 #@! TO.C,J2*
X99098604Y95000019D03*
X96698604Y95000019D03*
X97898604Y95000019D03*
X100298604Y95000019D03*
D24*
X101448604Y91000019D03*
X95548604Y91000019D03*
G04 #@! TD*
D15*
G04 #@! TO.C,J1*
X77488603Y19050003D03*
X71708603Y19050003D03*
D16*
X77823603Y17605003D03*
X77048603Y17605003D03*
D17*
X75848603Y17605003D03*
X74848603Y17605003D03*
X74348603Y17605003D03*
X73348603Y17605003D03*
D16*
X71373603Y17605003D03*
X72148603Y17605003D03*
D17*
X72848603Y17605003D03*
X73848603Y17605003D03*
X75348603Y17605003D03*
X76348603Y17605003D03*
D19*
X70278603Y18520003D03*
D18*
X70278603Y22700003D03*
X78918603Y22700003D03*
D19*
X78918603Y18520003D03*
G04 #@! TD*
D13*
G04 #@! TO.C,R2*
X66317353Y83687517D03*
X66317353Y82667517D03*
G04 #@! TD*
D11*
G04 #@! TO.C,H1*
X124498604Y76500015D03*
D10*
X124498604Y76500015D03*
G04 #@! TD*
D11*
G04 #@! TO.C,H1*
X83498603Y37500007D03*
D10*
X83498603Y37500007D03*
G04 #@! TD*
D13*
G04 #@! TO.C,R2*
X107317354Y83687517D03*
X107317354Y82667517D03*
G04 #@! TD*
D12*
G04 #@! TO.C,R1*
X26517352Y43667509D03*
X26517352Y44687509D03*
G04 #@! TD*
D23*
G04 #@! TO.C,F1*
X62617353Y16277503D03*
X62617353Y19077503D03*
G04 #@! TD*
D15*
G04 #@! TO.C,J1*
X112708604Y94050019D03*
X118488604Y94050019D03*
D16*
X118823604Y92605019D03*
X118048604Y92605019D03*
D17*
X116848604Y92605019D03*
X115848604Y92605019D03*
X115348604Y92605019D03*
X114348604Y92605019D03*
D16*
X112373604Y92605019D03*
X113148604Y92605019D03*
D17*
X113848604Y92605019D03*
X114848604Y92605019D03*
X116348604Y92605019D03*
X117348604Y92605019D03*
D18*
X119918604Y97700019D03*
X111278604Y97700019D03*
D19*
X111278604Y93520019D03*
X119918604Y93520019D03*
G04 #@! TD*
D13*
G04 #@! TO.C,R2*
X66317353Y74687515D03*
X66317353Y73667515D03*
G04 #@! TD*
D10*
G04 #@! TO.C,H1*
X42498602Y46500009D03*
D11*
X42498602Y46500009D03*
G04 #@! TD*
D23*
G04 #@! TO.C,F1*
X62617353Y82277517D03*
X62617353Y85077517D03*
G04 #@! TD*
D20*
G04 #@! TO.C,U1*
X62532353Y88677517D03*
D21*
X62532353Y88177517D03*
D22*
X62532353Y87677517D03*
D21*
X62532353Y87177517D03*
X62532353Y86677517D03*
X63302353Y86677517D03*
X63302353Y87177517D03*
D22*
X63302353Y87677517D03*
D21*
X63302353Y88177517D03*
X63302353Y88677517D03*
G04 #@! TD*
D15*
G04 #@! TO.C,J1*
X71708603Y37050007D03*
X77488603Y37050007D03*
D16*
X77823603Y35605007D03*
X77048603Y35605007D03*
D17*
X75848603Y35605007D03*
X74848603Y35605007D03*
X74348603Y35605007D03*
X73348603Y35605007D03*
D16*
X71373603Y35605007D03*
X72148603Y35605007D03*
D17*
X72848603Y35605007D03*
X73848603Y35605007D03*
X75348603Y35605007D03*
X76348603Y35605007D03*
D18*
X70278603Y40700007D03*
D19*
X70278603Y36520007D03*
X78918603Y36520007D03*
D18*
X78918603Y40700007D03*
G04 #@! TD*
D13*
G04 #@! TO.C,R2*
X107317354Y56687511D03*
X107317354Y55667511D03*
G04 #@! TD*
D20*
G04 #@! TO.C,U1*
X21532352Y40677507D03*
D21*
X21532352Y40177507D03*
D22*
X21532352Y39677507D03*
D21*
X21532352Y39177507D03*
X21532352Y38677507D03*
X22302352Y38677507D03*
X22302352Y39177507D03*
D22*
X22302352Y39677507D03*
D21*
X22302352Y40177507D03*
X22302352Y40677507D03*
G04 #@! TD*
D12*
G04 #@! TO.C,R1*
X108517354Y7667501D03*
X108517354Y8687501D03*
G04 #@! TD*
D27*
G04 #@! TO.C,D1*
X64817353Y7077501D03*
X64817353Y8477501D03*
G04 #@! TD*
D20*
G04 #@! TO.C,U1*
X103532354Y40677507D03*
D21*
X103532354Y40177507D03*
D22*
X103532354Y39677507D03*
D21*
X103532354Y39177507D03*
X103532354Y38677507D03*
X104302354Y38677507D03*
X104302354Y39177507D03*
D22*
X104302354Y39677507D03*
D21*
X104302354Y40177507D03*
X104302354Y40677507D03*
G04 #@! TD*
D10*
G04 #@! TO.C,H1*
X124498604Y67500013D03*
D11*
X124498604Y67500013D03*
G04 #@! TD*
D25*
G04 #@! TO.C,J2*
X58098603Y20000003D03*
D24*
X60448603Y16000003D03*
X54548603Y16000003D03*
D25*
X56898603Y20000003D03*
X59298603Y20000003D03*
X55698603Y20000003D03*
G04 #@! TD*
D20*
G04 #@! TO.C,U1*
X62532353Y40677507D03*
D21*
X62532353Y40177507D03*
D22*
X62532353Y39677507D03*
D21*
X62532353Y39177507D03*
X62532353Y38677507D03*
X63302353Y38677507D03*
X63302353Y39177507D03*
D22*
X63302353Y39677507D03*
D21*
X63302353Y40177507D03*
X63302353Y40677507D03*
G04 #@! TD*
D20*
G04 #@! TO.C,U1*
X21532352Y97677519D03*
D21*
X21532352Y97177519D03*
D22*
X21532352Y96677519D03*
D21*
X21532352Y96177519D03*
X21532352Y95677519D03*
X22302352Y95677519D03*
X22302352Y96177519D03*
D22*
X22302352Y96677519D03*
D21*
X22302352Y97177519D03*
X22302352Y97677519D03*
G04 #@! TD*
D12*
G04 #@! TO.C,R1*
X108517354Y55667511D03*
X108517354Y56687511D03*
G04 #@! TD*
D25*
G04 #@! TO.C,J2*
X96698604Y86000017D03*
X99098604Y86000017D03*
X100298604Y86000017D03*
X97898604Y86000017D03*
D24*
X95548604Y82000017D03*
X101448604Y82000017D03*
G04 #@! TD*
D15*
G04 #@! TO.C,J1*
X112708604Y10050001D03*
X118488604Y10050001D03*
D16*
X118823604Y8605001D03*
X118048604Y8605001D03*
D17*
X116848604Y8605001D03*
X115848604Y8605001D03*
X115348604Y8605001D03*
X114348604Y8605001D03*
D16*
X112373604Y8605001D03*
X113148604Y8605001D03*
D17*
X113848604Y8605001D03*
X114848604Y8605001D03*
X116348604Y8605001D03*
X117348604Y8605001D03*
D18*
X119918604Y13700001D03*
X111278604Y13700001D03*
D19*
X119918604Y9520001D03*
X111278604Y9520001D03*
G04 #@! TD*
D26*
G04 #@! TO.C,FB1*
X68217353Y62040011D03*
X68217353Y59915011D03*
G04 #@! TD*
D12*
G04 #@! TO.C,R1*
X67517353Y25667505D03*
X67517353Y26687505D03*
G04 #@! TD*
D11*
G04 #@! TO.C,H1*
X83498603Y46500009D03*
D10*
X83498603Y46500009D03*
G04 #@! TD*
D27*
G04 #@! TO.C,D1*
X64817353Y64077513D03*
X64817353Y65477513D03*
G04 #@! TD*
G04 #@! TO.C,D1*
X64817353Y34077507D03*
X64817353Y35477507D03*
G04 #@! TD*
D13*
G04 #@! TO.C,R2*
X107317354Y17687503D03*
X107317354Y16667503D03*
G04 #@! TD*
D23*
G04 #@! TO.C,F1*
X103617354Y16277503D03*
X103617354Y19077503D03*
G04 #@! TD*
D26*
G04 #@! TO.C,FB1*
X109217354Y50040009D03*
X109217354Y47915009D03*
G04 #@! TD*
D11*
G04 #@! TO.C,H1*
X83498603Y28500005D03*
D10*
X83498603Y28500005D03*
G04 #@! TD*
G04 #@! TO.C,H1*
X124498604Y58500011D03*
D11*
X124498604Y58500011D03*
G04 #@! TD*
D20*
G04 #@! TO.C,U1*
X103532354Y31677505D03*
D21*
X103532354Y31177505D03*
D22*
X103532354Y30677505D03*
D21*
X103532354Y30177505D03*
X103532354Y29677505D03*
X104302354Y29677505D03*
X104302354Y30177505D03*
D22*
X104302354Y30677505D03*
D21*
X104302354Y31177505D03*
X104302354Y31677505D03*
G04 #@! TD*
D11*
G04 #@! TO.C,H1*
X124498604Y46500009D03*
D10*
X124498604Y46500009D03*
G04 #@! TD*
D26*
G04 #@! TO.C,FB1*
X109217354Y62040011D03*
X109217354Y59915011D03*
G04 #@! TD*
D13*
G04 #@! TO.C,R2*
X107317354Y65687513D03*
X107317354Y64667513D03*
G04 #@! TD*
D25*
G04 #@! TO.C,J2*
X58098603Y68000013D03*
D24*
X60448603Y64000013D03*
D25*
X55698603Y68000013D03*
D24*
X54548603Y64000013D03*
D25*
X56898603Y68000013D03*
X59298603Y68000013D03*
G04 #@! TD*
D20*
G04 #@! TO.C,U1*
X62532353Y22677503D03*
D21*
X62532353Y22177503D03*
D22*
X62532353Y21677503D03*
D21*
X62532353Y21177503D03*
X62532353Y20677503D03*
X63302353Y20677503D03*
X63302353Y21177503D03*
D22*
X63302353Y21677503D03*
D21*
X63302353Y22177503D03*
X63302353Y22677503D03*
G04 #@! TD*
D26*
G04 #@! TO.C,FB1*
X109217354Y14040001D03*
X109217354Y11915001D03*
G04 #@! TD*
D20*
G04 #@! TO.C,U1*
X62532353Y61677511D03*
D21*
X62532353Y61177511D03*
D22*
X62532353Y60677511D03*
D21*
X62532353Y60177511D03*
X62532353Y59677511D03*
X63302353Y59677511D03*
X63302353Y60177511D03*
D22*
X63302353Y60677511D03*
D21*
X63302353Y61177511D03*
X63302353Y61677511D03*
G04 #@! TD*
D12*
G04 #@! TO.C,R1*
X108517354Y16667503D03*
X108517354Y17687503D03*
G04 #@! TD*
D23*
G04 #@! TO.C,F1*
X103617354Y64277513D03*
X103617354Y67077513D03*
G04 #@! TD*
D25*
G04 #@! TO.C,J2*
X59298603Y11000001D03*
X58098603Y11000001D03*
D24*
X60448603Y7000001D03*
D25*
X56898603Y11000001D03*
X55698603Y11000001D03*
D24*
X54548603Y7000001D03*
G04 #@! TD*
D13*
G04 #@! TO.C,R2*
X66317353Y17687503D03*
X66317353Y16667503D03*
G04 #@! TD*
D26*
G04 #@! TO.C,FB1*
X68217353Y41040007D03*
X68217353Y38915007D03*
G04 #@! TD*
D25*
G04 #@! TO.C,J2*
X100298604Y59000011D03*
X97898604Y59000011D03*
X99098604Y59000011D03*
D24*
X95548604Y55000011D03*
D25*
X96698604Y59000011D03*
D24*
X101448604Y55000011D03*
G04 #@! TD*
D13*
G04 #@! TO.C,R2*
X25317352Y65687513D03*
X25317352Y64667513D03*
G04 #@! TD*
D25*
G04 #@! TO.C,J2*
X58098603Y29000005D03*
D24*
X60448603Y25000005D03*
D25*
X56898603Y29000005D03*
X59298603Y29000005D03*
D24*
X54548603Y25000005D03*
D25*
X55698603Y29000005D03*
G04 #@! TD*
D12*
G04 #@! TO.C,R1*
X26517352Y16667503D03*
X26517352Y17687503D03*
G04 #@! TD*
D11*
G04 #@! TO.C,H1*
X83498603Y19500003D03*
D10*
X83498603Y19500003D03*
G04 #@! TD*
D14*
G04 #@! TO.C,REF\u002A\u002A*
X2500000Y102500020D03*
G04 #@! TD*
D12*
G04 #@! TO.C,R1*
X108517354Y34667507D03*
X108517354Y35687507D03*
G04 #@! TD*
G04 #@! TO.C,R1*
X67517353Y43667509D03*
X67517353Y44687509D03*
G04 #@! TD*
D27*
G04 #@! TO.C,D1*
X64817353Y82077517D03*
X64817353Y83477517D03*
G04 #@! TD*
G04 #@! TO.C,D1*
X64817353Y91077519D03*
X64817353Y92477519D03*
G04 #@! TD*
D10*
G04 #@! TO.C,H1*
X42498602Y94500019D03*
D11*
X42498602Y94500019D03*
G04 #@! TD*
D14*
G04 #@! TO.C,REF\u002A\u002A*
X5000000Y3850000D03*
G04 #@! TD*
D23*
G04 #@! TO.C,F1*
X21617352Y34277507D03*
X21617352Y37077507D03*
G04 #@! TD*
D15*
G04 #@! TO.C,J1*
X30708602Y85050017D03*
X36488602Y85050017D03*
D16*
X36823602Y83605017D03*
X36048602Y83605017D03*
D17*
X34848602Y83605017D03*
X33848602Y83605017D03*
X33348602Y83605017D03*
X32348602Y83605017D03*
D16*
X30373602Y83605017D03*
X31148602Y83605017D03*
D17*
X31848602Y83605017D03*
X32848602Y83605017D03*
X34348602Y83605017D03*
X35348602Y83605017D03*
D18*
X37918602Y88700017D03*
X29278602Y88700017D03*
D19*
X37918602Y84520017D03*
X29278602Y84520017D03*
G04 #@! TD*
D20*
G04 #@! TO.C,U1*
X62532353Y13677501D03*
D21*
X62532353Y13177501D03*
D22*
X62532353Y12677501D03*
D21*
X62532353Y12177501D03*
X62532353Y11677501D03*
X63302353Y11677501D03*
X63302353Y12177501D03*
D22*
X63302353Y12677501D03*
D21*
X63302353Y13177501D03*
X63302353Y13677501D03*
G04 #@! TD*
D20*
G04 #@! TO.C,U1*
X21532352Y13677501D03*
D21*
X21532352Y13177501D03*
D22*
X21532352Y12677501D03*
D21*
X21532352Y12177501D03*
X21532352Y11677501D03*
X22302352Y11677501D03*
X22302352Y12177501D03*
D22*
X22302352Y12677501D03*
D21*
X22302352Y13177501D03*
X22302352Y13677501D03*
G04 #@! TD*
D10*
G04 #@! TO.C,H1*
X83498603Y85500017D03*
D11*
X83498603Y85500017D03*
G04 #@! TD*
D27*
G04 #@! TO.C,D1*
X105817354Y25077505D03*
X105817354Y26477505D03*
G04 #@! TD*
D26*
G04 #@! TO.C,FB1*
X109217354Y80040015D03*
X109217354Y77915015D03*
G04 #@! TD*
D13*
G04 #@! TO.C,R2*
X25317352Y56687511D03*
X25317352Y55667511D03*
G04 #@! TD*
D26*
G04 #@! TO.C,FB1*
X68217353Y80040015D03*
X68217353Y77915015D03*
G04 #@! TD*
D12*
G04 #@! TO.C,R1*
X67517353Y73667515D03*
X67517353Y74687515D03*
G04 #@! TD*
D23*
G04 #@! TO.C,F1*
X103617354Y73277515D03*
X103617354Y76077515D03*
G04 #@! TD*
D15*
G04 #@! TO.C,J1*
X77488603Y76050015D03*
X71708603Y76050015D03*
D16*
X77823603Y74605015D03*
X77048603Y74605015D03*
D17*
X75848603Y74605015D03*
X74848603Y74605015D03*
X74348603Y74605015D03*
X73348603Y74605015D03*
D16*
X71373603Y74605015D03*
X72148603Y74605015D03*
D17*
X72848603Y74605015D03*
X73848603Y74605015D03*
X75348603Y74605015D03*
X76348603Y74605015D03*
D18*
X78918603Y79700015D03*
D19*
X70278603Y75520015D03*
D18*
X70278603Y79700015D03*
D19*
X78918603Y75520015D03*
G04 #@! TD*
D20*
G04 #@! TO.C,U1*
X21532352Y61677511D03*
D21*
X21532352Y61177511D03*
D22*
X21532352Y60677511D03*
D21*
X21532352Y60177511D03*
X21532352Y59677511D03*
X22302352Y59677511D03*
X22302352Y60177511D03*
D22*
X22302352Y60677511D03*
D21*
X22302352Y61177511D03*
X22302352Y61677511D03*
G04 #@! TD*
D23*
G04 #@! TO.C,F1*
X103617354Y34277507D03*
X103617354Y37077507D03*
G04 #@! TD*
D15*
G04 #@! TO.C,J1*
X71708603Y46050009D03*
X77488603Y46050009D03*
D16*
X77823603Y44605009D03*
X77048603Y44605009D03*
D17*
X75848603Y44605009D03*
X74848603Y44605009D03*
X74348603Y44605009D03*
X73348603Y44605009D03*
D16*
X71373603Y44605009D03*
X72148603Y44605009D03*
D17*
X72848603Y44605009D03*
X73848603Y44605009D03*
X75348603Y44605009D03*
X76348603Y44605009D03*
D19*
X78918603Y45520009D03*
D18*
X70278603Y49700009D03*
X78918603Y49700009D03*
D19*
X70278603Y45520009D03*
G04 #@! TD*
D13*
G04 #@! TO.C,R2*
X107317354Y26687505D03*
X107317354Y25667505D03*
G04 #@! TD*
D11*
G04 #@! TO.C,H1*
X124498604Y85500017D03*
D10*
X124498604Y85500017D03*
G04 #@! TD*
D23*
G04 #@! TO.C,F1*
X21617352Y25277505D03*
X21617352Y28077505D03*
G04 #@! TD*
D15*
G04 #@! TO.C,J1*
X118488604Y46050009D03*
X112708604Y46050009D03*
D16*
X118823604Y44605009D03*
X118048604Y44605009D03*
D17*
X116848604Y44605009D03*
X115848604Y44605009D03*
X115348604Y44605009D03*
X114348604Y44605009D03*
D16*
X112373604Y44605009D03*
X113148604Y44605009D03*
D17*
X113848604Y44605009D03*
X114848604Y44605009D03*
X116348604Y44605009D03*
X117348604Y44605009D03*
D19*
X119918604Y45520009D03*
X111278604Y45520009D03*
D18*
X111278604Y49700009D03*
X119918604Y49700009D03*
G04 #@! TD*
D15*
G04 #@! TO.C,J1*
X71708603Y58050011D03*
X77488603Y58050011D03*
D16*
X77823603Y56605011D03*
X77048603Y56605011D03*
D17*
X75848603Y56605011D03*
X74848603Y56605011D03*
X74348603Y56605011D03*
X73348603Y56605011D03*
D16*
X71373603Y56605011D03*
X72148603Y56605011D03*
D17*
X72848603Y56605011D03*
X73848603Y56605011D03*
X75348603Y56605011D03*
X76348603Y56605011D03*
D18*
X78918603Y61700011D03*
D19*
X70278603Y57520011D03*
X78918603Y57520011D03*
D18*
X70278603Y61700011D03*
G04 #@! TD*
D23*
G04 #@! TO.C,F1*
X103617354Y55277511D03*
X103617354Y58077511D03*
G04 #@! TD*
D25*
G04 #@! TO.C,J2*
X56898603Y59000011D03*
D24*
X54548603Y55000011D03*
D25*
X55698603Y59000011D03*
X59298603Y59000011D03*
D24*
X60448603Y55000011D03*
D25*
X58098603Y59000011D03*
G04 #@! TD*
D20*
G04 #@! TO.C,U1*
X103532354Y13677501D03*
D21*
X103532354Y13177501D03*
D22*
X103532354Y12677501D03*
D21*
X103532354Y12177501D03*
X103532354Y11677501D03*
X104302354Y11677501D03*
X104302354Y12177501D03*
D22*
X104302354Y12677501D03*
D21*
X104302354Y13177501D03*
X104302354Y13677501D03*
G04 #@! TD*
D20*
G04 #@! TO.C,U1*
X62532353Y97677519D03*
D21*
X62532353Y97177519D03*
D22*
X62532353Y96677519D03*
D21*
X62532353Y96177519D03*
X62532353Y95677519D03*
X63302353Y95677519D03*
X63302353Y96177519D03*
D22*
X63302353Y96677519D03*
D21*
X63302353Y97177519D03*
X63302353Y97677519D03*
G04 #@! TD*
D10*
G04 #@! TO.C,H1*
X124498604Y19500003D03*
D11*
X124498604Y19500003D03*
G04 #@! TD*
D25*
G04 #@! TO.C,J2*
X59298603Y95000019D03*
X58098603Y95000019D03*
X55698603Y95000019D03*
D24*
X54548603Y91000019D03*
D25*
X56898603Y95000019D03*
D24*
X60448603Y91000019D03*
G04 #@! TD*
G04 #@! TO.C,J2*
X13548602Y64000013D03*
D25*
X15898602Y68000013D03*
X18298602Y68000013D03*
X17098602Y68000013D03*
X14698602Y68000013D03*
D24*
X19448602Y64000013D03*
G04 #@! TD*
D15*
G04 #@! TO.C,J1*
X71708603Y85050017D03*
X77488603Y85050017D03*
D16*
X77823603Y83605017D03*
X77048603Y83605017D03*
D17*
X75848603Y83605017D03*
X74848603Y83605017D03*
X74348603Y83605017D03*
X73348603Y83605017D03*
D16*
X71373603Y83605017D03*
X72148603Y83605017D03*
D17*
X72848603Y83605017D03*
X73848603Y83605017D03*
X75348603Y83605017D03*
X76348603Y83605017D03*
D18*
X70278603Y88700017D03*
X78918603Y88700017D03*
D19*
X78918603Y84520017D03*
X70278603Y84520017D03*
G04 #@! TD*
D13*
G04 #@! TO.C,R2*
X66317353Y26687505D03*
X66317353Y25667505D03*
G04 #@! TD*
D25*
G04 #@! TO.C,J2*
X14698602Y29000005D03*
X17098602Y29000005D03*
D24*
X13548602Y25000005D03*
X19448602Y25000005D03*
D25*
X18298602Y29000005D03*
X15898602Y29000005D03*
G04 #@! TD*
D15*
G04 #@! TO.C,J1*
X118488604Y19050003D03*
X112708604Y19050003D03*
D16*
X118823604Y17605003D03*
X118048604Y17605003D03*
D17*
X116848604Y17605003D03*
X115848604Y17605003D03*
X115348604Y17605003D03*
X114348604Y17605003D03*
D16*
X112373604Y17605003D03*
X113148604Y17605003D03*
D17*
X113848604Y17605003D03*
X114848604Y17605003D03*
X116348604Y17605003D03*
X117348604Y17605003D03*
D19*
X111278604Y18520003D03*
D18*
X111278604Y22700003D03*
X119918604Y22700003D03*
D19*
X119918604Y18520003D03*
G04 #@! TD*
D12*
G04 #@! TO.C,R1*
X67517353Y16667503D03*
X67517353Y17687503D03*
G04 #@! TD*
D25*
G04 #@! TO.C,J2*
X99098604Y68000013D03*
X100298604Y68000013D03*
D24*
X95548604Y64000013D03*
D25*
X96698604Y68000013D03*
D24*
X101448604Y64000013D03*
D25*
X97898604Y68000013D03*
G04 #@! TD*
D11*
G04 #@! TO.C,H1*
X42498602Y85500017D03*
D10*
X42498602Y85500017D03*
G04 #@! TD*
D25*
G04 #@! TO.C,J2*
X18298602Y11000001D03*
X14698602Y11000001D03*
D24*
X13548602Y7000001D03*
D25*
X15898602Y11000001D03*
D24*
X19448602Y7000001D03*
D25*
X17098602Y11000001D03*
G04 #@! TD*
D23*
G04 #@! TO.C,F1*
X103617354Y7277501D03*
X103617354Y10077501D03*
G04 #@! TD*
D20*
G04 #@! TO.C,U1*
X103532354Y70677513D03*
D21*
X103532354Y70177513D03*
D22*
X103532354Y69677513D03*
D21*
X103532354Y69177513D03*
X103532354Y68677513D03*
X104302354Y68677513D03*
X104302354Y69177513D03*
D22*
X104302354Y69677513D03*
D21*
X104302354Y70177513D03*
X104302354Y70677513D03*
G04 #@! TD*
D27*
G04 #@! TO.C,D1*
X23817352Y55077511D03*
X23817352Y56477511D03*
G04 #@! TD*
D20*
G04 #@! TO.C,U1*
X21532352Y31677505D03*
D21*
X21532352Y31177505D03*
D22*
X21532352Y30677505D03*
D21*
X21532352Y30177505D03*
X21532352Y29677505D03*
X22302352Y29677505D03*
X22302352Y30177505D03*
D22*
X22302352Y30677505D03*
D21*
X22302352Y31177505D03*
X22302352Y31677505D03*
G04 #@! TD*
D13*
G04 #@! TO.C,R2*
X66317353Y8687501D03*
X66317353Y7667501D03*
G04 #@! TD*
D26*
G04 #@! TO.C,FB1*
X27217352Y89040017D03*
X27217352Y86915017D03*
G04 #@! TD*
D11*
G04 #@! TO.C,H1*
X124498604Y94500019D03*
D10*
X124498604Y94500019D03*
G04 #@! TD*
D15*
G04 #@! TO.C,J1*
X77488603Y28050005D03*
X71708603Y28050005D03*
D16*
X77823603Y26605005D03*
X77048603Y26605005D03*
D17*
X75848603Y26605005D03*
X74848603Y26605005D03*
X74348603Y26605005D03*
X73348603Y26605005D03*
D16*
X71373603Y26605005D03*
X72148603Y26605005D03*
D17*
X72848603Y26605005D03*
X73848603Y26605005D03*
X75348603Y26605005D03*
X76348603Y26605005D03*
D18*
X78918603Y31700005D03*
D19*
X78918603Y27520005D03*
D18*
X70278603Y31700005D03*
D19*
X70278603Y27520005D03*
G04 #@! TD*
D12*
G04 #@! TO.C,R1*
X108517354Y73667515D03*
X108517354Y74687515D03*
G04 #@! TD*
D13*
G04 #@! TO.C,R2*
X25317352Y26687505D03*
X25317352Y25667505D03*
G04 #@! TD*
D25*
G04 #@! TO.C,J2*
X59298603Y77000015D03*
X56898603Y77000015D03*
X58098603Y77000015D03*
D24*
X54548603Y73000015D03*
X60448603Y73000015D03*
D25*
X55698603Y77000015D03*
G04 #@! TD*
D13*
G04 #@! TO.C,R2*
X107317354Y35687507D03*
X107317354Y34667507D03*
G04 #@! TD*
D15*
G04 #@! TO.C,J1*
X36488602Y28050005D03*
X30708602Y28050005D03*
D16*
X36823602Y26605005D03*
X36048602Y26605005D03*
D17*
X34848602Y26605005D03*
X33848602Y26605005D03*
X33348602Y26605005D03*
X32348602Y26605005D03*
D16*
X30373602Y26605005D03*
X31148602Y26605005D03*
D17*
X31848602Y26605005D03*
X32848602Y26605005D03*
X34348602Y26605005D03*
X35348602Y26605005D03*
D19*
X29278602Y27520005D03*
D18*
X29278602Y31700005D03*
D19*
X37918602Y27520005D03*
D18*
X37918602Y31700005D03*
G04 #@! TD*
D12*
G04 #@! TO.C,R1*
X26517352Y25667505D03*
X26517352Y26687505D03*
G04 #@! TD*
D20*
G04 #@! TO.C,U1*
X21532352Y49677509D03*
D21*
X21532352Y49177509D03*
D22*
X21532352Y48677509D03*
D21*
X21532352Y48177509D03*
X21532352Y47677509D03*
X22302352Y47677509D03*
X22302352Y48177509D03*
D22*
X22302352Y48677509D03*
D21*
X22302352Y49177509D03*
X22302352Y49677509D03*
G04 #@! TD*
D26*
G04 #@! TO.C,FB1*
X27217352Y41040007D03*
X27217352Y38915007D03*
G04 #@! TD*
D27*
G04 #@! TO.C,D1*
X23817352Y82077517D03*
X23817352Y83477517D03*
G04 #@! TD*
D15*
G04 #@! TO.C,J1*
X112708604Y37050007D03*
X118488604Y37050007D03*
D16*
X118823604Y35605007D03*
X118048604Y35605007D03*
D17*
X116848604Y35605007D03*
X115848604Y35605007D03*
X115348604Y35605007D03*
X114348604Y35605007D03*
D16*
X112373604Y35605007D03*
X113148604Y35605007D03*
D17*
X113848604Y35605007D03*
X114848604Y35605007D03*
X116348604Y35605007D03*
X117348604Y35605007D03*
D19*
X119918604Y36520007D03*
D18*
X111278604Y40700007D03*
D19*
X111278604Y36520007D03*
D18*
X119918604Y40700007D03*
G04 #@! TD*
D14*
G04 #@! TO.C,REF\u002A\u002A*
X2500000Y2500000D03*
G04 #@! TD*
D25*
G04 #@! TO.C,J2*
X100298604Y77000015D03*
D24*
X95548604Y73000015D03*
X101448604Y73000015D03*
D25*
X97898604Y77000015D03*
X96698604Y77000015D03*
X99098604Y77000015D03*
G04 #@! TD*
M02*
