G04 #@! TF.GenerationSoftware,KiCad,Pcbnew,(6.0.11)*
G04 #@! TF.CreationDate,2023-02-11T18:44:03+01:00*
G04 #@! TF.ProjectId,udb-s-panel,7564622d-732d-4706-916e-656c2e6b6963,rev?*
G04 #@! TF.SameCoordinates,Original*
G04 #@! TF.FileFunction,Legend,Bot*
G04 #@! TF.FilePolarity,Positive*
%FSLAX46Y46*%
G04 Gerber Fmt 4.6, Leading zero omitted, Abs format (unit mm)*
G04 Created by KiCad (PCBNEW (6.0.11)) date 2023-02-11 18:44:03*
%MOMM*%
%LPD*%
G01*
G04 APERTURE LIST*
%ADD10C,0.200000*%
G04 APERTURE END LIST*
D10*
X12498602Y94500019D02*
G75*
G03*
X12498602Y94500019I-3000000J0D01*
G01*
X53498603Y94500019D02*
G75*
G03*
X53498603Y94500019I-3000000J0D01*
G01*
X94498604Y94500019D02*
G75*
G03*
X94498604Y94500019I-3000000J0D01*
G01*
X12498602Y85500017D02*
G75*
G03*
X12498602Y85500017I-3000000J0D01*
G01*
X53498603Y85500017D02*
G75*
G03*
X53498603Y85500017I-3000000J0D01*
G01*
X94498604Y85500017D02*
G75*
G03*
X94498604Y85500017I-3000000J0D01*
G01*
X12498602Y76500015D02*
G75*
G03*
X12498602Y76500015I-3000000J0D01*
G01*
X53498603Y76500015D02*
G75*
G03*
X53498603Y76500015I-3000000J0D01*
G01*
X94498604Y76500015D02*
G75*
G03*
X94498604Y76500015I-3000000J0D01*
G01*
X12498602Y67500013D02*
G75*
G03*
X12498602Y67500013I-3000000J0D01*
G01*
X53498603Y67500013D02*
G75*
G03*
X53498603Y67500013I-3000000J0D01*
G01*
X94498604Y67500013D02*
G75*
G03*
X94498604Y67500013I-3000000J0D01*
G01*
X12498602Y58500011D02*
G75*
G03*
X12498602Y58500011I-3000000J0D01*
G01*
X53498603Y58500011D02*
G75*
G03*
X53498603Y58500011I-3000000J0D01*
G01*
X94498604Y58500011D02*
G75*
G03*
X94498604Y58500011I-3000000J0D01*
G01*
X12498602Y46500009D02*
G75*
G03*
X12498602Y46500009I-3000000J0D01*
G01*
X53498603Y46500009D02*
G75*
G03*
X53498603Y46500009I-3000000J0D01*
G01*
X94498604Y46500009D02*
G75*
G03*
X94498604Y46500009I-3000000J0D01*
G01*
X12498602Y37500007D02*
G75*
G03*
X12498602Y37500007I-3000000J0D01*
G01*
X53498603Y37500007D02*
G75*
G03*
X53498603Y37500007I-3000000J0D01*
G01*
X94498604Y37500007D02*
G75*
G03*
X94498604Y37500007I-3000000J0D01*
G01*
X12498602Y28500005D02*
G75*
G03*
X12498602Y28500005I-3000000J0D01*
G01*
X53498603Y28500005D02*
G75*
G03*
X53498603Y28500005I-3000000J0D01*
G01*
X94498604Y28500005D02*
G75*
G03*
X94498604Y28500005I-3000000J0D01*
G01*
X12498602Y19500003D02*
G75*
G03*
X12498602Y19500003I-3000000J0D01*
G01*
X53498603Y19500003D02*
G75*
G03*
X53498603Y19500003I-3000000J0D01*
G01*
X94498604Y19500003D02*
G75*
G03*
X94498604Y19500003I-3000000J0D01*
G01*
X12498602Y10500001D02*
G75*
G03*
X12498602Y10500001I-3000000J0D01*
G01*
X53498603Y10500001D02*
G75*
G03*
X53498603Y10500001I-3000000J0D01*
G01*
X94498604Y10500001D02*
G75*
G03*
X94498604Y10500001I-3000000J0D01*
G01*
M02*
