G04 #@! TF.GenerationSoftware,KiCad,Pcbnew,(6.0.11)*
G04 #@! TF.CreationDate,2023-02-11T18:44:03+01:00*
G04 #@! TF.ProjectId,udb-s-panel,7564622d-732d-4706-916e-656c2e6b6963,rev?*
G04 #@! TF.SameCoordinates,Original*
G04 #@! TF.FileFunction,Legend,Top*
G04 #@! TF.FilePolarity,Positive*
%FSLAX46Y46*%
G04 Gerber Fmt 4.6, Leading zero omitted, Abs format (unit mm)*
G04 Created by KiCad (PCBNEW (6.0.11)) date 2023-02-11 18:44:03*
%MOMM*%
%LPD*%
G01*
G04 APERTURE LIST*
%ADD10C,0.200000*%
%ADD11C,0.500000*%
%ADD12C,0.300000*%
%ADD13C,0.120000*%
%ADD14C,0.400000*%
G04 APERTURE END LIST*
D10*
X12498602Y94500019D02*
G75*
G03*
X12498602Y94500019I-3000000J0D01*
G01*
X53498603Y94500019D02*
G75*
G03*
X53498603Y94500019I-3000000J0D01*
G01*
X94498604Y94500019D02*
G75*
G03*
X94498604Y94500019I-3000000J0D01*
G01*
X12498602Y85500017D02*
G75*
G03*
X12498602Y85500017I-3000000J0D01*
G01*
X53498603Y85500017D02*
G75*
G03*
X53498603Y85500017I-3000000J0D01*
G01*
X94498604Y85500017D02*
G75*
G03*
X94498604Y85500017I-3000000J0D01*
G01*
X12498602Y76500015D02*
G75*
G03*
X12498602Y76500015I-3000000J0D01*
G01*
X53498603Y76500015D02*
G75*
G03*
X53498603Y76500015I-3000000J0D01*
G01*
X94498604Y76500015D02*
G75*
G03*
X94498604Y76500015I-3000000J0D01*
G01*
X12498602Y67500013D02*
G75*
G03*
X12498602Y67500013I-3000000J0D01*
G01*
X53498603Y67500013D02*
G75*
G03*
X53498603Y67500013I-3000000J0D01*
G01*
X94498604Y67500013D02*
G75*
G03*
X94498604Y67500013I-3000000J0D01*
G01*
X12498602Y58500011D02*
G75*
G03*
X12498602Y58500011I-3000000J0D01*
G01*
X53498603Y58500011D02*
G75*
G03*
X53498603Y58500011I-3000000J0D01*
G01*
X94498604Y58500011D02*
G75*
G03*
X94498604Y58500011I-3000000J0D01*
G01*
X12498602Y46500009D02*
G75*
G03*
X12498602Y46500009I-3000000J0D01*
G01*
X53498603Y46500009D02*
G75*
G03*
X53498603Y46500009I-3000000J0D01*
G01*
X94498604Y46500009D02*
G75*
G03*
X94498604Y46500009I-3000000J0D01*
G01*
X12498602Y37500007D02*
G75*
G03*
X12498602Y37500007I-3000000J0D01*
G01*
X53498603Y37500007D02*
G75*
G03*
X53498603Y37500007I-3000000J0D01*
G01*
X94498604Y37500007D02*
G75*
G03*
X94498604Y37500007I-3000000J0D01*
G01*
X12498602Y28500005D02*
G75*
G03*
X12498602Y28500005I-3000000J0D01*
G01*
X53498603Y28500005D02*
G75*
G03*
X53498603Y28500005I-3000000J0D01*
G01*
X94498604Y28500005D02*
G75*
G03*
X94498604Y28500005I-3000000J0D01*
G01*
X12498602Y19500003D02*
G75*
G03*
X12498602Y19500003I-3000000J0D01*
G01*
X53498603Y19500003D02*
G75*
G03*
X53498603Y19500003I-3000000J0D01*
G01*
X94498604Y19500003D02*
G75*
G03*
X94498604Y19500003I-3000000J0D01*
G01*
X12498602Y10500001D02*
G75*
G03*
X12498602Y10500001I-3000000J0D01*
G01*
X53498603Y10500001D02*
G75*
G03*
X53498603Y10500001I-3000000J0D01*
G01*
X94498604Y10500001D02*
G75*
G03*
X94498604Y10500001I-3000000J0D01*
G01*
D11*
X16748602Y92100019D02*
G75*
G03*
X16748602Y92100019I-250000J0D01*
G01*
X57748603Y92100019D02*
G75*
G03*
X57748603Y92100019I-250000J0D01*
G01*
X98748604Y92100019D02*
G75*
G03*
X98748604Y92100019I-250000J0D01*
G01*
X16748602Y83100017D02*
G75*
G03*
X16748602Y83100017I-250000J0D01*
G01*
X57748603Y83100017D02*
G75*
G03*
X57748603Y83100017I-250000J0D01*
G01*
X98748604Y83100017D02*
G75*
G03*
X98748604Y83100017I-250000J0D01*
G01*
X16748602Y74100015D02*
G75*
G03*
X16748602Y74100015I-250000J0D01*
G01*
X57748603Y74100015D02*
G75*
G03*
X57748603Y74100015I-250000J0D01*
G01*
X98748604Y74100015D02*
G75*
G03*
X98748604Y74100015I-250000J0D01*
G01*
X16748602Y65100013D02*
G75*
G03*
X16748602Y65100013I-250000J0D01*
G01*
X57748603Y65100013D02*
G75*
G03*
X57748603Y65100013I-250000J0D01*
G01*
X98748604Y65100013D02*
G75*
G03*
X98748604Y65100013I-250000J0D01*
G01*
X16748602Y56100011D02*
G75*
G03*
X16748602Y56100011I-250000J0D01*
G01*
X57748603Y56100011D02*
G75*
G03*
X57748603Y56100011I-250000J0D01*
G01*
X98748604Y56100011D02*
G75*
G03*
X98748604Y56100011I-250000J0D01*
G01*
X16748602Y44100009D02*
G75*
G03*
X16748602Y44100009I-250000J0D01*
G01*
X57748603Y44100009D02*
G75*
G03*
X57748603Y44100009I-250000J0D01*
G01*
X98748604Y44100009D02*
G75*
G03*
X98748604Y44100009I-250000J0D01*
G01*
X16748602Y35100007D02*
G75*
G03*
X16748602Y35100007I-250000J0D01*
G01*
X57748603Y35100007D02*
G75*
G03*
X57748603Y35100007I-250000J0D01*
G01*
X98748604Y35100007D02*
G75*
G03*
X98748604Y35100007I-250000J0D01*
G01*
X16748602Y26100005D02*
G75*
G03*
X16748602Y26100005I-250000J0D01*
G01*
X57748603Y26100005D02*
G75*
G03*
X57748603Y26100005I-250000J0D01*
G01*
X98748604Y26100005D02*
G75*
G03*
X98748604Y26100005I-250000J0D01*
G01*
X16748602Y17100003D02*
G75*
G03*
X16748602Y17100003I-250000J0D01*
G01*
X57748603Y17100003D02*
G75*
G03*
X57748603Y17100003I-250000J0D01*
G01*
X98748604Y17100003D02*
G75*
G03*
X98748604Y17100003I-250000J0D01*
G01*
X16748602Y8100001D02*
G75*
G03*
X16748602Y8100001I-250000J0D01*
G01*
X57748603Y8100001D02*
G75*
G03*
X57748603Y8100001I-250000J0D01*
G01*
X98748604Y8100001D02*
G75*
G03*
X98748604Y8100001I-250000J0D01*
G01*
D12*
X116148604Y28000005D02*
G75*
G03*
X116148604Y28000005I-150000J0D01*
G01*
X34148602Y94000019D02*
G75*
G03*
X34148602Y94000019I-150000J0D01*
G01*
X75148603Y94000019D02*
G75*
G03*
X75148603Y94000019I-150000J0D01*
G01*
X116148604Y94000019D02*
G75*
G03*
X116148604Y94000019I-150000J0D01*
G01*
X34148602Y85000017D02*
G75*
G03*
X34148602Y85000017I-150000J0D01*
G01*
X75148603Y85000017D02*
G75*
G03*
X75148603Y85000017I-150000J0D01*
G01*
X116148604Y85000017D02*
G75*
G03*
X116148604Y85000017I-150000J0D01*
G01*
X34148602Y76000015D02*
G75*
G03*
X34148602Y76000015I-150000J0D01*
G01*
X75148603Y76000015D02*
G75*
G03*
X75148603Y76000015I-150000J0D01*
G01*
X116148604Y76000015D02*
G75*
G03*
X116148604Y76000015I-150000J0D01*
G01*
X34148602Y67000013D02*
G75*
G03*
X34148602Y67000013I-150000J0D01*
G01*
X75148603Y67000013D02*
G75*
G03*
X75148603Y67000013I-150000J0D01*
G01*
X116148604Y67000013D02*
G75*
G03*
X116148604Y67000013I-150000J0D01*
G01*
X34148602Y58000011D02*
G75*
G03*
X34148602Y58000011I-150000J0D01*
G01*
X75148603Y58000011D02*
G75*
G03*
X75148603Y58000011I-150000J0D01*
G01*
X116148604Y58000011D02*
G75*
G03*
X116148604Y58000011I-150000J0D01*
G01*
X34148602Y46000009D02*
G75*
G03*
X34148602Y46000009I-150000J0D01*
G01*
X75148603Y46000009D02*
G75*
G03*
X75148603Y46000009I-150000J0D01*
G01*
X116148604Y46000009D02*
G75*
G03*
X116148604Y46000009I-150000J0D01*
G01*
X34148602Y37000007D02*
G75*
G03*
X34148602Y37000007I-150000J0D01*
G01*
X75148603Y37000007D02*
G75*
G03*
X75148603Y37000007I-150000J0D01*
G01*
X116148604Y37000007D02*
G75*
G03*
X116148604Y37000007I-150000J0D01*
G01*
X34148602Y28000005D02*
G75*
G03*
X34148602Y28000005I-150000J0D01*
G01*
X75148603Y28000005D02*
G75*
G03*
X75148603Y28000005I-150000J0D01*
G01*
X34148602Y19000003D02*
G75*
G03*
X34148602Y19000003I-150000J0D01*
G01*
X75148603Y19000003D02*
G75*
G03*
X75148603Y19000003I-150000J0D01*
G01*
X116148604Y19000003D02*
G75*
G03*
X116148604Y19000003I-150000J0D01*
G01*
X34148602Y10000001D02*
G75*
G03*
X34148602Y10000001I-150000J0D01*
G01*
X75148603Y10000001D02*
G75*
G03*
X75148603Y10000001I-150000J0D01*
G01*
X116148604Y10000001D02*
G75*
G03*
X116148604Y10000001I-150000J0D01*
G01*
X33348602Y94000019D02*
G75*
G03*
X33348602Y94000019I-150000J0D01*
G01*
X74348603Y94000019D02*
G75*
G03*
X74348603Y94000019I-150000J0D01*
G01*
X115348604Y94000019D02*
G75*
G03*
X115348604Y94000019I-150000J0D01*
G01*
X33348602Y85000017D02*
G75*
G03*
X33348602Y85000017I-150000J0D01*
G01*
X74348603Y85000017D02*
G75*
G03*
X74348603Y85000017I-150000J0D01*
G01*
X115348604Y85000017D02*
G75*
G03*
X115348604Y85000017I-150000J0D01*
G01*
X33348602Y76000015D02*
G75*
G03*
X33348602Y76000015I-150000J0D01*
G01*
X74348603Y76000015D02*
G75*
G03*
X74348603Y76000015I-150000J0D01*
G01*
X115348604Y76000015D02*
G75*
G03*
X115348604Y76000015I-150000J0D01*
G01*
X33348602Y67000013D02*
G75*
G03*
X33348602Y67000013I-150000J0D01*
G01*
X74348603Y67000013D02*
G75*
G03*
X74348603Y67000013I-150000J0D01*
G01*
X115348604Y67000013D02*
G75*
G03*
X115348604Y67000013I-150000J0D01*
G01*
X33348602Y58000011D02*
G75*
G03*
X33348602Y58000011I-150000J0D01*
G01*
X74348603Y58000011D02*
G75*
G03*
X74348603Y58000011I-150000J0D01*
G01*
X115348604Y58000011D02*
G75*
G03*
X115348604Y58000011I-150000J0D01*
G01*
X33348602Y46000009D02*
G75*
G03*
X33348602Y46000009I-150000J0D01*
G01*
X74348603Y46000009D02*
G75*
G03*
X74348603Y46000009I-150000J0D01*
G01*
X115348604Y46000009D02*
G75*
G03*
X115348604Y46000009I-150000J0D01*
G01*
X33348602Y37000007D02*
G75*
G03*
X33348602Y37000007I-150000J0D01*
G01*
X74348603Y37000007D02*
G75*
G03*
X74348603Y37000007I-150000J0D01*
G01*
X115348604Y37000007D02*
G75*
G03*
X115348604Y37000007I-150000J0D01*
G01*
X33348602Y28000005D02*
G75*
G03*
X33348602Y28000005I-150000J0D01*
G01*
X74348603Y28000005D02*
G75*
G03*
X74348603Y28000005I-150000J0D01*
G01*
X115348604Y28000005D02*
G75*
G03*
X115348604Y28000005I-150000J0D01*
G01*
X33348602Y19000003D02*
G75*
G03*
X33348602Y19000003I-150000J0D01*
G01*
X74348603Y19000003D02*
G75*
G03*
X74348603Y19000003I-150000J0D01*
G01*
X115348604Y19000003D02*
G75*
G03*
X115348604Y19000003I-150000J0D01*
G01*
X33348602Y10000001D02*
G75*
G03*
X33348602Y10000001I-150000J0D01*
G01*
X74348603Y10000001D02*
G75*
G03*
X74348603Y10000001I-150000J0D01*
G01*
X115348604Y10000001D02*
G75*
G03*
X115348604Y10000001I-150000J0D01*
G01*
X58391459Y103321449D02*
X58391459Y102107163D01*
X58462887Y101964306D01*
X58534316Y101892878D01*
X58677173Y101821449D01*
X58962887Y101821449D01*
X59105744Y101892878D01*
X59177173Y101964306D01*
X59248601Y102107163D01*
X59248601Y103321449D01*
X59962887Y101821449D02*
X59962887Y103321449D01*
X60320030Y103321449D01*
X60534316Y103250020D01*
X60677173Y103107163D01*
X60748601Y102964306D01*
X60820030Y102678592D01*
X60820030Y102464306D01*
X60748601Y102178592D01*
X60677173Y102035735D01*
X60534316Y101892878D01*
X60320030Y101821449D01*
X59962887Y101821449D01*
X61962887Y102607163D02*
X62177173Y102535735D01*
X62248601Y102464306D01*
X62320030Y102321449D01*
X62320030Y102107163D01*
X62248601Y101964306D01*
X62177173Y101892878D01*
X62034316Y101821449D01*
X61462887Y101821449D01*
X61462887Y103321449D01*
X61962887Y103321449D01*
X62105744Y103250020D01*
X62177173Y103178592D01*
X62248601Y103035735D01*
X62248601Y102892878D01*
X62177173Y102750020D01*
X62105744Y102678592D01*
X61962887Y102607163D01*
X61462887Y102607163D01*
X62962887Y102392878D02*
X64105744Y102392878D01*
X64748601Y101892878D02*
X64962887Y101821449D01*
X65320030Y101821449D01*
X65462887Y101892878D01*
X65534316Y101964306D01*
X65605744Y102107163D01*
X65605744Y102250020D01*
X65534316Y102392878D01*
X65462887Y102464306D01*
X65320030Y102535735D01*
X65034316Y102607163D01*
X64891459Y102678592D01*
X64820030Y102750020D01*
X64748601Y102892878D01*
X64748601Y103035735D01*
X64820030Y103178592D01*
X64891459Y103250020D01*
X65034316Y103321449D01*
X65391459Y103321449D01*
X65605744Y103250020D01*
X67034316Y101821449D02*
X66177173Y101821449D01*
X66605744Y101821449D02*
X66605744Y103321449D01*
X66462887Y103107163D01*
X66320030Y102964306D01*
X66177173Y102892878D01*
X69677173Y101821449D02*
X69177173Y102535735D01*
X68820030Y101821449D02*
X68820030Y103321449D01*
X69391459Y103321449D01*
X69534316Y103250020D01*
X69605744Y103178592D01*
X69677173Y103035735D01*
X69677173Y102821449D01*
X69605744Y102678592D01*
X69534316Y102607163D01*
X69391459Y102535735D01*
X68820030Y102535735D01*
X70891459Y101892878D02*
X70748601Y101821449D01*
X70462887Y101821449D01*
X70320030Y101892878D01*
X70248601Y102035735D01*
X70248601Y102607163D01*
X70320030Y102750020D01*
X70462887Y102821449D01*
X70748601Y102821449D01*
X70891459Y102750020D01*
X70962887Y102607163D01*
X70962887Y102464306D01*
X70248601Y102321449D01*
X71462887Y102821449D02*
X71820030Y101821449D01*
X72177173Y102821449D01*
X73534316Y101821449D02*
X72677173Y101821449D01*
X73105744Y101821449D02*
X73105744Y103321449D01*
X72962887Y103107163D01*
X72820030Y102964306D01*
X72677173Y102892878D01*
X74177173Y101964306D02*
X74248602Y101892878D01*
X74177173Y101821449D01*
X74105744Y101892878D01*
X74177173Y101964306D01*
X74177173Y101821449D01*
X75177173Y103321449D02*
X75320030Y103321449D01*
X75462887Y103250020D01*
X75534316Y103178592D01*
X75605744Y103035735D01*
X75677173Y102750020D01*
X75677173Y102392878D01*
X75605744Y102107163D01*
X75534316Y101964306D01*
X75462887Y101892878D01*
X75320030Y101821449D01*
X75177173Y101821449D01*
X75034316Y101892878D01*
X74962887Y101964306D01*
X74891459Y102107163D01*
X74820030Y102392878D01*
X74820030Y102750020D01*
X74891459Y103035735D01*
X74962887Y103178592D01*
X75034316Y103250020D01*
X75177173Y103321449D01*
D10*
X28836697Y91438115D02*
X28836697Y90790496D01*
X28874792Y90714305D01*
X28912887Y90676210D01*
X28989078Y90638115D01*
X29141459Y90638115D01*
X29217649Y90676210D01*
X29255744Y90714305D01*
X29293840Y90790496D01*
X29293840Y91438115D01*
X29674792Y91171448D02*
X29674792Y90638115D01*
X29674792Y91095258D02*
X29712887Y91133353D01*
X29789078Y91171448D01*
X29903363Y91171448D01*
X29979554Y91133353D01*
X30017649Y91057162D01*
X30017649Y90638115D01*
X30398602Y90638115D02*
X30398602Y91171448D01*
X30398602Y91438115D02*
X30360506Y91400019D01*
X30398602Y91361924D01*
X30436697Y91400019D01*
X30398602Y91438115D01*
X30398602Y91361924D01*
X30665268Y91171448D02*
X30970030Y91171448D01*
X30779554Y90638115D02*
X30779554Y91323829D01*
X30817649Y91400019D01*
X30893840Y91438115D01*
X30970030Y91438115D01*
X31236697Y90638115D02*
X31236697Y91171448D01*
X31236697Y91438115D02*
X31198602Y91400019D01*
X31236697Y91361924D01*
X31274792Y91400019D01*
X31236697Y91438115D01*
X31236697Y91361924D01*
X31922411Y90676210D02*
X31846221Y90638115D01*
X31693840Y90638115D01*
X31617649Y90676210D01*
X31579554Y90752400D01*
X31579554Y91057162D01*
X31617649Y91133353D01*
X31693840Y91171448D01*
X31846221Y91171448D01*
X31922411Y91133353D01*
X31960506Y91057162D01*
X31960506Y90980972D01*
X31579554Y90904781D01*
X32646221Y90638115D02*
X32646221Y91438115D01*
X32646221Y90676210D02*
X32570030Y90638115D01*
X32417649Y90638115D01*
X32341459Y90676210D01*
X32303363Y90714305D01*
X32265268Y90790496D01*
X32265268Y91019067D01*
X32303363Y91095258D01*
X32341459Y91133353D01*
X32417649Y91171448D01*
X32570030Y91171448D01*
X32646221Y91133353D01*
X33027173Y90942877D02*
X33636697Y90942877D01*
X33979554Y90676210D02*
X34093840Y90638115D01*
X34284316Y90638115D01*
X34360506Y90676210D01*
X34398602Y90714305D01*
X34436697Y90790496D01*
X34436697Y90866686D01*
X34398602Y90942877D01*
X34360506Y90980972D01*
X34284316Y91019067D01*
X34131935Y91057162D01*
X34055744Y91095258D01*
X34017649Y91133353D01*
X33979554Y91209543D01*
X33979554Y91285734D01*
X34017649Y91361924D01*
X34055744Y91400019D01*
X34131935Y91438115D01*
X34322411Y91438115D01*
X34436697Y91400019D01*
X35198602Y90638115D02*
X34741459Y90638115D01*
X34970030Y90638115D02*
X34970030Y91438115D01*
X34893840Y91323829D01*
X34817649Y91247639D01*
X34741459Y91209543D01*
X36036697Y91438115D02*
X36303363Y90638115D01*
X36570030Y91438115D01*
X37255744Y90638115D02*
X36798602Y90638115D01*
X37027173Y90638115D02*
X37027173Y91438115D01*
X36950982Y91323829D01*
X36874792Y91247639D01*
X36798602Y91209543D01*
X37598602Y90714305D02*
X37636697Y90676210D01*
X37598602Y90638115D01*
X37560506Y90676210D01*
X37598602Y90714305D01*
X37598602Y90638115D01*
X38131935Y91438115D02*
X38208125Y91438115D01*
X38284316Y91400019D01*
X38322411Y91361924D01*
X38360506Y91285734D01*
X38398602Y91133353D01*
X38398602Y90942877D01*
X38360506Y90790496D01*
X38322411Y90714305D01*
X38284316Y90676210D01*
X38208125Y90638115D01*
X38131935Y90638115D01*
X38055744Y90676210D01*
X38017649Y90714305D01*
X37979554Y90790496D01*
X37941459Y90942877D01*
X37941459Y91133353D01*
X37979554Y91285734D01*
X38017649Y91361924D01*
X38055744Y91400019D01*
X38131935Y91438115D01*
X69836698Y91438115D02*
X69836698Y90790496D01*
X69874793Y90714305D01*
X69912888Y90676210D01*
X69989079Y90638115D01*
X70141460Y90638115D01*
X70217650Y90676210D01*
X70255745Y90714305D01*
X70293841Y90790496D01*
X70293841Y91438115D01*
X70674793Y91171448D02*
X70674793Y90638115D01*
X70674793Y91095258D02*
X70712888Y91133353D01*
X70789079Y91171448D01*
X70903364Y91171448D01*
X70979555Y91133353D01*
X71017650Y91057162D01*
X71017650Y90638115D01*
X71398603Y90638115D02*
X71398603Y91171448D01*
X71398603Y91438115D02*
X71360507Y91400019D01*
X71398603Y91361924D01*
X71436698Y91400019D01*
X71398603Y91438115D01*
X71398603Y91361924D01*
X71665269Y91171448D02*
X71970031Y91171448D01*
X71779555Y90638115D02*
X71779555Y91323829D01*
X71817650Y91400019D01*
X71893841Y91438115D01*
X71970031Y91438115D01*
X72236698Y90638115D02*
X72236698Y91171448D01*
X72236698Y91438115D02*
X72198603Y91400019D01*
X72236698Y91361924D01*
X72274793Y91400019D01*
X72236698Y91438115D01*
X72236698Y91361924D01*
X72922412Y90676210D02*
X72846222Y90638115D01*
X72693841Y90638115D01*
X72617650Y90676210D01*
X72579555Y90752400D01*
X72579555Y91057162D01*
X72617650Y91133353D01*
X72693841Y91171448D01*
X72846222Y91171448D01*
X72922412Y91133353D01*
X72960507Y91057162D01*
X72960507Y90980972D01*
X72579555Y90904781D01*
X73646222Y90638115D02*
X73646222Y91438115D01*
X73646222Y90676210D02*
X73570031Y90638115D01*
X73417650Y90638115D01*
X73341460Y90676210D01*
X73303364Y90714305D01*
X73265269Y90790496D01*
X73265269Y91019067D01*
X73303364Y91095258D01*
X73341460Y91133353D01*
X73417650Y91171448D01*
X73570031Y91171448D01*
X73646222Y91133353D01*
X74027174Y90942877D02*
X74636698Y90942877D01*
X74979555Y90676210D02*
X75093841Y90638115D01*
X75284317Y90638115D01*
X75360507Y90676210D01*
X75398603Y90714305D01*
X75436698Y90790496D01*
X75436698Y90866686D01*
X75398603Y90942877D01*
X75360507Y90980972D01*
X75284317Y91019067D01*
X75131936Y91057162D01*
X75055745Y91095258D01*
X75017650Y91133353D01*
X74979555Y91209543D01*
X74979555Y91285734D01*
X75017650Y91361924D01*
X75055745Y91400019D01*
X75131936Y91438115D01*
X75322412Y91438115D01*
X75436698Y91400019D01*
X76198603Y90638115D02*
X75741460Y90638115D01*
X75970031Y90638115D02*
X75970031Y91438115D01*
X75893841Y91323829D01*
X75817650Y91247639D01*
X75741460Y91209543D01*
X77036698Y91438115D02*
X77303364Y90638115D01*
X77570031Y91438115D01*
X78255745Y90638115D02*
X77798603Y90638115D01*
X78027174Y90638115D02*
X78027174Y91438115D01*
X77950983Y91323829D01*
X77874793Y91247639D01*
X77798603Y91209543D01*
X78598603Y90714305D02*
X78636698Y90676210D01*
X78598603Y90638115D01*
X78560507Y90676210D01*
X78598603Y90714305D01*
X78598603Y90638115D01*
X79131936Y91438115D02*
X79208126Y91438115D01*
X79284317Y91400019D01*
X79322412Y91361924D01*
X79360507Y91285734D01*
X79398603Y91133353D01*
X79398603Y90942877D01*
X79360507Y90790496D01*
X79322412Y90714305D01*
X79284317Y90676210D01*
X79208126Y90638115D01*
X79131936Y90638115D01*
X79055745Y90676210D01*
X79017650Y90714305D01*
X78979555Y90790496D01*
X78941460Y90942877D01*
X78941460Y91133353D01*
X78979555Y91285734D01*
X79017650Y91361924D01*
X79055745Y91400019D01*
X79131936Y91438115D01*
X110836699Y91438115D02*
X110836699Y90790496D01*
X110874794Y90714305D01*
X110912889Y90676210D01*
X110989080Y90638115D01*
X111141461Y90638115D01*
X111217651Y90676210D01*
X111255746Y90714305D01*
X111293842Y90790496D01*
X111293842Y91438115D01*
X111674794Y91171448D02*
X111674794Y90638115D01*
X111674794Y91095258D02*
X111712889Y91133353D01*
X111789080Y91171448D01*
X111903365Y91171448D01*
X111979556Y91133353D01*
X112017651Y91057162D01*
X112017651Y90638115D01*
X112398604Y90638115D02*
X112398604Y91171448D01*
X112398604Y91438115D02*
X112360508Y91400019D01*
X112398604Y91361924D01*
X112436699Y91400019D01*
X112398604Y91438115D01*
X112398604Y91361924D01*
X112665270Y91171448D02*
X112970032Y91171448D01*
X112779556Y90638115D02*
X112779556Y91323829D01*
X112817651Y91400019D01*
X112893842Y91438115D01*
X112970032Y91438115D01*
X113236699Y90638115D02*
X113236699Y91171448D01*
X113236699Y91438115D02*
X113198604Y91400019D01*
X113236699Y91361924D01*
X113274794Y91400019D01*
X113236699Y91438115D01*
X113236699Y91361924D01*
X113922413Y90676210D02*
X113846223Y90638115D01*
X113693842Y90638115D01*
X113617651Y90676210D01*
X113579556Y90752400D01*
X113579556Y91057162D01*
X113617651Y91133353D01*
X113693842Y91171448D01*
X113846223Y91171448D01*
X113922413Y91133353D01*
X113960508Y91057162D01*
X113960508Y90980972D01*
X113579556Y90904781D01*
X114646223Y90638115D02*
X114646223Y91438115D01*
X114646223Y90676210D02*
X114570032Y90638115D01*
X114417651Y90638115D01*
X114341461Y90676210D01*
X114303365Y90714305D01*
X114265270Y90790496D01*
X114265270Y91019067D01*
X114303365Y91095258D01*
X114341461Y91133353D01*
X114417651Y91171448D01*
X114570032Y91171448D01*
X114646223Y91133353D01*
X115027175Y90942877D02*
X115636699Y90942877D01*
X115979556Y90676210D02*
X116093842Y90638115D01*
X116284318Y90638115D01*
X116360508Y90676210D01*
X116398604Y90714305D01*
X116436699Y90790496D01*
X116436699Y90866686D01*
X116398604Y90942877D01*
X116360508Y90980972D01*
X116284318Y91019067D01*
X116131937Y91057162D01*
X116055746Y91095258D01*
X116017651Y91133353D01*
X115979556Y91209543D01*
X115979556Y91285734D01*
X116017651Y91361924D01*
X116055746Y91400019D01*
X116131937Y91438115D01*
X116322413Y91438115D01*
X116436699Y91400019D01*
X117198604Y90638115D02*
X116741461Y90638115D01*
X116970032Y90638115D02*
X116970032Y91438115D01*
X116893842Y91323829D01*
X116817651Y91247639D01*
X116741461Y91209543D01*
X118036699Y91438115D02*
X118303365Y90638115D01*
X118570032Y91438115D01*
X119255746Y90638115D02*
X118798604Y90638115D01*
X119027175Y90638115D02*
X119027175Y91438115D01*
X118950984Y91323829D01*
X118874794Y91247639D01*
X118798604Y91209543D01*
X119598604Y90714305D02*
X119636699Y90676210D01*
X119598604Y90638115D01*
X119560508Y90676210D01*
X119598604Y90714305D01*
X119598604Y90638115D01*
X120131937Y91438115D02*
X120208127Y91438115D01*
X120284318Y91400019D01*
X120322413Y91361924D01*
X120360508Y91285734D01*
X120398604Y91133353D01*
X120398604Y90942877D01*
X120360508Y90790496D01*
X120322413Y90714305D01*
X120284318Y90676210D01*
X120208127Y90638115D01*
X120131937Y90638115D01*
X120055746Y90676210D01*
X120017651Y90714305D01*
X119979556Y90790496D01*
X119941461Y90942877D01*
X119941461Y91133353D01*
X119979556Y91285734D01*
X120017651Y91361924D01*
X120055746Y91400019D01*
X120131937Y91438115D01*
X28836697Y82438113D02*
X28836697Y81790494D01*
X28874792Y81714303D01*
X28912887Y81676208D01*
X28989078Y81638113D01*
X29141459Y81638113D01*
X29217649Y81676208D01*
X29255744Y81714303D01*
X29293840Y81790494D01*
X29293840Y82438113D01*
X29674792Y82171446D02*
X29674792Y81638113D01*
X29674792Y82095256D02*
X29712887Y82133351D01*
X29789078Y82171446D01*
X29903363Y82171446D01*
X29979554Y82133351D01*
X30017649Y82057160D01*
X30017649Y81638113D01*
X30398602Y81638113D02*
X30398602Y82171446D01*
X30398602Y82438113D02*
X30360506Y82400017D01*
X30398602Y82361922D01*
X30436697Y82400017D01*
X30398602Y82438113D01*
X30398602Y82361922D01*
X30665268Y82171446D02*
X30970030Y82171446D01*
X30779554Y81638113D02*
X30779554Y82323827D01*
X30817649Y82400017D01*
X30893840Y82438113D01*
X30970030Y82438113D01*
X31236697Y81638113D02*
X31236697Y82171446D01*
X31236697Y82438113D02*
X31198602Y82400017D01*
X31236697Y82361922D01*
X31274792Y82400017D01*
X31236697Y82438113D01*
X31236697Y82361922D01*
X31922411Y81676208D02*
X31846221Y81638113D01*
X31693840Y81638113D01*
X31617649Y81676208D01*
X31579554Y81752398D01*
X31579554Y82057160D01*
X31617649Y82133351D01*
X31693840Y82171446D01*
X31846221Y82171446D01*
X31922411Y82133351D01*
X31960506Y82057160D01*
X31960506Y81980970D01*
X31579554Y81904779D01*
X32646221Y81638113D02*
X32646221Y82438113D01*
X32646221Y81676208D02*
X32570030Y81638113D01*
X32417649Y81638113D01*
X32341459Y81676208D01*
X32303363Y81714303D01*
X32265268Y81790494D01*
X32265268Y82019065D01*
X32303363Y82095256D01*
X32341459Y82133351D01*
X32417649Y82171446D01*
X32570030Y82171446D01*
X32646221Y82133351D01*
X33027173Y81942875D02*
X33636697Y81942875D01*
X33979554Y81676208D02*
X34093840Y81638113D01*
X34284316Y81638113D01*
X34360506Y81676208D01*
X34398602Y81714303D01*
X34436697Y81790494D01*
X34436697Y81866684D01*
X34398602Y81942875D01*
X34360506Y81980970D01*
X34284316Y82019065D01*
X34131935Y82057160D01*
X34055744Y82095256D01*
X34017649Y82133351D01*
X33979554Y82209541D01*
X33979554Y82285732D01*
X34017649Y82361922D01*
X34055744Y82400017D01*
X34131935Y82438113D01*
X34322411Y82438113D01*
X34436697Y82400017D01*
X35198602Y81638113D02*
X34741459Y81638113D01*
X34970030Y81638113D02*
X34970030Y82438113D01*
X34893840Y82323827D01*
X34817649Y82247637D01*
X34741459Y82209541D01*
X36036697Y82438113D02*
X36303363Y81638113D01*
X36570030Y82438113D01*
X37255744Y81638113D02*
X36798602Y81638113D01*
X37027173Y81638113D02*
X37027173Y82438113D01*
X36950982Y82323827D01*
X36874792Y82247637D01*
X36798602Y82209541D01*
X37598602Y81714303D02*
X37636697Y81676208D01*
X37598602Y81638113D01*
X37560506Y81676208D01*
X37598602Y81714303D01*
X37598602Y81638113D01*
X38131935Y82438113D02*
X38208125Y82438113D01*
X38284316Y82400017D01*
X38322411Y82361922D01*
X38360506Y82285732D01*
X38398602Y82133351D01*
X38398602Y81942875D01*
X38360506Y81790494D01*
X38322411Y81714303D01*
X38284316Y81676208D01*
X38208125Y81638113D01*
X38131935Y81638113D01*
X38055744Y81676208D01*
X38017649Y81714303D01*
X37979554Y81790494D01*
X37941459Y81942875D01*
X37941459Y82133351D01*
X37979554Y82285732D01*
X38017649Y82361922D01*
X38055744Y82400017D01*
X38131935Y82438113D01*
X69836698Y82438113D02*
X69836698Y81790494D01*
X69874793Y81714303D01*
X69912888Y81676208D01*
X69989079Y81638113D01*
X70141460Y81638113D01*
X70217650Y81676208D01*
X70255745Y81714303D01*
X70293841Y81790494D01*
X70293841Y82438113D01*
X70674793Y82171446D02*
X70674793Y81638113D01*
X70674793Y82095256D02*
X70712888Y82133351D01*
X70789079Y82171446D01*
X70903364Y82171446D01*
X70979555Y82133351D01*
X71017650Y82057160D01*
X71017650Y81638113D01*
X71398603Y81638113D02*
X71398603Y82171446D01*
X71398603Y82438113D02*
X71360507Y82400017D01*
X71398603Y82361922D01*
X71436698Y82400017D01*
X71398603Y82438113D01*
X71398603Y82361922D01*
X71665269Y82171446D02*
X71970031Y82171446D01*
X71779555Y81638113D02*
X71779555Y82323827D01*
X71817650Y82400017D01*
X71893841Y82438113D01*
X71970031Y82438113D01*
X72236698Y81638113D02*
X72236698Y82171446D01*
X72236698Y82438113D02*
X72198603Y82400017D01*
X72236698Y82361922D01*
X72274793Y82400017D01*
X72236698Y82438113D01*
X72236698Y82361922D01*
X72922412Y81676208D02*
X72846222Y81638113D01*
X72693841Y81638113D01*
X72617650Y81676208D01*
X72579555Y81752398D01*
X72579555Y82057160D01*
X72617650Y82133351D01*
X72693841Y82171446D01*
X72846222Y82171446D01*
X72922412Y82133351D01*
X72960507Y82057160D01*
X72960507Y81980970D01*
X72579555Y81904779D01*
X73646222Y81638113D02*
X73646222Y82438113D01*
X73646222Y81676208D02*
X73570031Y81638113D01*
X73417650Y81638113D01*
X73341460Y81676208D01*
X73303364Y81714303D01*
X73265269Y81790494D01*
X73265269Y82019065D01*
X73303364Y82095256D01*
X73341460Y82133351D01*
X73417650Y82171446D01*
X73570031Y82171446D01*
X73646222Y82133351D01*
X74027174Y81942875D02*
X74636698Y81942875D01*
X74979555Y81676208D02*
X75093841Y81638113D01*
X75284317Y81638113D01*
X75360507Y81676208D01*
X75398603Y81714303D01*
X75436698Y81790494D01*
X75436698Y81866684D01*
X75398603Y81942875D01*
X75360507Y81980970D01*
X75284317Y82019065D01*
X75131936Y82057160D01*
X75055745Y82095256D01*
X75017650Y82133351D01*
X74979555Y82209541D01*
X74979555Y82285732D01*
X75017650Y82361922D01*
X75055745Y82400017D01*
X75131936Y82438113D01*
X75322412Y82438113D01*
X75436698Y82400017D01*
X76198603Y81638113D02*
X75741460Y81638113D01*
X75970031Y81638113D02*
X75970031Y82438113D01*
X75893841Y82323827D01*
X75817650Y82247637D01*
X75741460Y82209541D01*
X77036698Y82438113D02*
X77303364Y81638113D01*
X77570031Y82438113D01*
X78255745Y81638113D02*
X77798603Y81638113D01*
X78027174Y81638113D02*
X78027174Y82438113D01*
X77950983Y82323827D01*
X77874793Y82247637D01*
X77798603Y82209541D01*
X78598603Y81714303D02*
X78636698Y81676208D01*
X78598603Y81638113D01*
X78560507Y81676208D01*
X78598603Y81714303D01*
X78598603Y81638113D01*
X79131936Y82438113D02*
X79208126Y82438113D01*
X79284317Y82400017D01*
X79322412Y82361922D01*
X79360507Y82285732D01*
X79398603Y82133351D01*
X79398603Y81942875D01*
X79360507Y81790494D01*
X79322412Y81714303D01*
X79284317Y81676208D01*
X79208126Y81638113D01*
X79131936Y81638113D01*
X79055745Y81676208D01*
X79017650Y81714303D01*
X78979555Y81790494D01*
X78941460Y81942875D01*
X78941460Y82133351D01*
X78979555Y82285732D01*
X79017650Y82361922D01*
X79055745Y82400017D01*
X79131936Y82438113D01*
X110836699Y82438113D02*
X110836699Y81790494D01*
X110874794Y81714303D01*
X110912889Y81676208D01*
X110989080Y81638113D01*
X111141461Y81638113D01*
X111217651Y81676208D01*
X111255746Y81714303D01*
X111293842Y81790494D01*
X111293842Y82438113D01*
X111674794Y82171446D02*
X111674794Y81638113D01*
X111674794Y82095256D02*
X111712889Y82133351D01*
X111789080Y82171446D01*
X111903365Y82171446D01*
X111979556Y82133351D01*
X112017651Y82057160D01*
X112017651Y81638113D01*
X112398604Y81638113D02*
X112398604Y82171446D01*
X112398604Y82438113D02*
X112360508Y82400017D01*
X112398604Y82361922D01*
X112436699Y82400017D01*
X112398604Y82438113D01*
X112398604Y82361922D01*
X112665270Y82171446D02*
X112970032Y82171446D01*
X112779556Y81638113D02*
X112779556Y82323827D01*
X112817651Y82400017D01*
X112893842Y82438113D01*
X112970032Y82438113D01*
X113236699Y81638113D02*
X113236699Y82171446D01*
X113236699Y82438113D02*
X113198604Y82400017D01*
X113236699Y82361922D01*
X113274794Y82400017D01*
X113236699Y82438113D01*
X113236699Y82361922D01*
X113922413Y81676208D02*
X113846223Y81638113D01*
X113693842Y81638113D01*
X113617651Y81676208D01*
X113579556Y81752398D01*
X113579556Y82057160D01*
X113617651Y82133351D01*
X113693842Y82171446D01*
X113846223Y82171446D01*
X113922413Y82133351D01*
X113960508Y82057160D01*
X113960508Y81980970D01*
X113579556Y81904779D01*
X114646223Y81638113D02*
X114646223Y82438113D01*
X114646223Y81676208D02*
X114570032Y81638113D01*
X114417651Y81638113D01*
X114341461Y81676208D01*
X114303365Y81714303D01*
X114265270Y81790494D01*
X114265270Y82019065D01*
X114303365Y82095256D01*
X114341461Y82133351D01*
X114417651Y82171446D01*
X114570032Y82171446D01*
X114646223Y82133351D01*
X115027175Y81942875D02*
X115636699Y81942875D01*
X115979556Y81676208D02*
X116093842Y81638113D01*
X116284318Y81638113D01*
X116360508Y81676208D01*
X116398604Y81714303D01*
X116436699Y81790494D01*
X116436699Y81866684D01*
X116398604Y81942875D01*
X116360508Y81980970D01*
X116284318Y82019065D01*
X116131937Y82057160D01*
X116055746Y82095256D01*
X116017651Y82133351D01*
X115979556Y82209541D01*
X115979556Y82285732D01*
X116017651Y82361922D01*
X116055746Y82400017D01*
X116131937Y82438113D01*
X116322413Y82438113D01*
X116436699Y82400017D01*
X117198604Y81638113D02*
X116741461Y81638113D01*
X116970032Y81638113D02*
X116970032Y82438113D01*
X116893842Y82323827D01*
X116817651Y82247637D01*
X116741461Y82209541D01*
X118036699Y82438113D02*
X118303365Y81638113D01*
X118570032Y82438113D01*
X119255746Y81638113D02*
X118798604Y81638113D01*
X119027175Y81638113D02*
X119027175Y82438113D01*
X118950984Y82323827D01*
X118874794Y82247637D01*
X118798604Y82209541D01*
X119598604Y81714303D02*
X119636699Y81676208D01*
X119598604Y81638113D01*
X119560508Y81676208D01*
X119598604Y81714303D01*
X119598604Y81638113D01*
X120131937Y82438113D02*
X120208127Y82438113D01*
X120284318Y82400017D01*
X120322413Y82361922D01*
X120360508Y82285732D01*
X120398604Y82133351D01*
X120398604Y81942875D01*
X120360508Y81790494D01*
X120322413Y81714303D01*
X120284318Y81676208D01*
X120208127Y81638113D01*
X120131937Y81638113D01*
X120055746Y81676208D01*
X120017651Y81714303D01*
X119979556Y81790494D01*
X119941461Y81942875D01*
X119941461Y82133351D01*
X119979556Y82285732D01*
X120017651Y82361922D01*
X120055746Y82400017D01*
X120131937Y82438113D01*
X28836697Y73438111D02*
X28836697Y72790492D01*
X28874792Y72714301D01*
X28912887Y72676206D01*
X28989078Y72638111D01*
X29141459Y72638111D01*
X29217649Y72676206D01*
X29255744Y72714301D01*
X29293840Y72790492D01*
X29293840Y73438111D01*
X29674792Y73171444D02*
X29674792Y72638111D01*
X29674792Y73095254D02*
X29712887Y73133349D01*
X29789078Y73171444D01*
X29903363Y73171444D01*
X29979554Y73133349D01*
X30017649Y73057158D01*
X30017649Y72638111D01*
X30398602Y72638111D02*
X30398602Y73171444D01*
X30398602Y73438111D02*
X30360506Y73400015D01*
X30398602Y73361920D01*
X30436697Y73400015D01*
X30398602Y73438111D01*
X30398602Y73361920D01*
X30665268Y73171444D02*
X30970030Y73171444D01*
X30779554Y72638111D02*
X30779554Y73323825D01*
X30817649Y73400015D01*
X30893840Y73438111D01*
X30970030Y73438111D01*
X31236697Y72638111D02*
X31236697Y73171444D01*
X31236697Y73438111D02*
X31198602Y73400015D01*
X31236697Y73361920D01*
X31274792Y73400015D01*
X31236697Y73438111D01*
X31236697Y73361920D01*
X31922411Y72676206D02*
X31846221Y72638111D01*
X31693840Y72638111D01*
X31617649Y72676206D01*
X31579554Y72752396D01*
X31579554Y73057158D01*
X31617649Y73133349D01*
X31693840Y73171444D01*
X31846221Y73171444D01*
X31922411Y73133349D01*
X31960506Y73057158D01*
X31960506Y72980968D01*
X31579554Y72904777D01*
X32646221Y72638111D02*
X32646221Y73438111D01*
X32646221Y72676206D02*
X32570030Y72638111D01*
X32417649Y72638111D01*
X32341459Y72676206D01*
X32303363Y72714301D01*
X32265268Y72790492D01*
X32265268Y73019063D01*
X32303363Y73095254D01*
X32341459Y73133349D01*
X32417649Y73171444D01*
X32570030Y73171444D01*
X32646221Y73133349D01*
X33027173Y72942873D02*
X33636697Y72942873D01*
X33979554Y72676206D02*
X34093840Y72638111D01*
X34284316Y72638111D01*
X34360506Y72676206D01*
X34398602Y72714301D01*
X34436697Y72790492D01*
X34436697Y72866682D01*
X34398602Y72942873D01*
X34360506Y72980968D01*
X34284316Y73019063D01*
X34131935Y73057158D01*
X34055744Y73095254D01*
X34017649Y73133349D01*
X33979554Y73209539D01*
X33979554Y73285730D01*
X34017649Y73361920D01*
X34055744Y73400015D01*
X34131935Y73438111D01*
X34322411Y73438111D01*
X34436697Y73400015D01*
X35198602Y72638111D02*
X34741459Y72638111D01*
X34970030Y72638111D02*
X34970030Y73438111D01*
X34893840Y73323825D01*
X34817649Y73247635D01*
X34741459Y73209539D01*
X36036697Y73438111D02*
X36303363Y72638111D01*
X36570030Y73438111D01*
X37255744Y72638111D02*
X36798602Y72638111D01*
X37027173Y72638111D02*
X37027173Y73438111D01*
X36950982Y73323825D01*
X36874792Y73247635D01*
X36798602Y73209539D01*
X37598602Y72714301D02*
X37636697Y72676206D01*
X37598602Y72638111D01*
X37560506Y72676206D01*
X37598602Y72714301D01*
X37598602Y72638111D01*
X38131935Y73438111D02*
X38208125Y73438111D01*
X38284316Y73400015D01*
X38322411Y73361920D01*
X38360506Y73285730D01*
X38398602Y73133349D01*
X38398602Y72942873D01*
X38360506Y72790492D01*
X38322411Y72714301D01*
X38284316Y72676206D01*
X38208125Y72638111D01*
X38131935Y72638111D01*
X38055744Y72676206D01*
X38017649Y72714301D01*
X37979554Y72790492D01*
X37941459Y72942873D01*
X37941459Y73133349D01*
X37979554Y73285730D01*
X38017649Y73361920D01*
X38055744Y73400015D01*
X38131935Y73438111D01*
X69836698Y73438111D02*
X69836698Y72790492D01*
X69874793Y72714301D01*
X69912888Y72676206D01*
X69989079Y72638111D01*
X70141460Y72638111D01*
X70217650Y72676206D01*
X70255745Y72714301D01*
X70293841Y72790492D01*
X70293841Y73438111D01*
X70674793Y73171444D02*
X70674793Y72638111D01*
X70674793Y73095254D02*
X70712888Y73133349D01*
X70789079Y73171444D01*
X70903364Y73171444D01*
X70979555Y73133349D01*
X71017650Y73057158D01*
X71017650Y72638111D01*
X71398603Y72638111D02*
X71398603Y73171444D01*
X71398603Y73438111D02*
X71360507Y73400015D01*
X71398603Y73361920D01*
X71436698Y73400015D01*
X71398603Y73438111D01*
X71398603Y73361920D01*
X71665269Y73171444D02*
X71970031Y73171444D01*
X71779555Y72638111D02*
X71779555Y73323825D01*
X71817650Y73400015D01*
X71893841Y73438111D01*
X71970031Y73438111D01*
X72236698Y72638111D02*
X72236698Y73171444D01*
X72236698Y73438111D02*
X72198603Y73400015D01*
X72236698Y73361920D01*
X72274793Y73400015D01*
X72236698Y73438111D01*
X72236698Y73361920D01*
X72922412Y72676206D02*
X72846222Y72638111D01*
X72693841Y72638111D01*
X72617650Y72676206D01*
X72579555Y72752396D01*
X72579555Y73057158D01*
X72617650Y73133349D01*
X72693841Y73171444D01*
X72846222Y73171444D01*
X72922412Y73133349D01*
X72960507Y73057158D01*
X72960507Y72980968D01*
X72579555Y72904777D01*
X73646222Y72638111D02*
X73646222Y73438111D01*
X73646222Y72676206D02*
X73570031Y72638111D01*
X73417650Y72638111D01*
X73341460Y72676206D01*
X73303364Y72714301D01*
X73265269Y72790492D01*
X73265269Y73019063D01*
X73303364Y73095254D01*
X73341460Y73133349D01*
X73417650Y73171444D01*
X73570031Y73171444D01*
X73646222Y73133349D01*
X74027174Y72942873D02*
X74636698Y72942873D01*
X74979555Y72676206D02*
X75093841Y72638111D01*
X75284317Y72638111D01*
X75360507Y72676206D01*
X75398603Y72714301D01*
X75436698Y72790492D01*
X75436698Y72866682D01*
X75398603Y72942873D01*
X75360507Y72980968D01*
X75284317Y73019063D01*
X75131936Y73057158D01*
X75055745Y73095254D01*
X75017650Y73133349D01*
X74979555Y73209539D01*
X74979555Y73285730D01*
X75017650Y73361920D01*
X75055745Y73400015D01*
X75131936Y73438111D01*
X75322412Y73438111D01*
X75436698Y73400015D01*
X76198603Y72638111D02*
X75741460Y72638111D01*
X75970031Y72638111D02*
X75970031Y73438111D01*
X75893841Y73323825D01*
X75817650Y73247635D01*
X75741460Y73209539D01*
X77036698Y73438111D02*
X77303364Y72638111D01*
X77570031Y73438111D01*
X78255745Y72638111D02*
X77798603Y72638111D01*
X78027174Y72638111D02*
X78027174Y73438111D01*
X77950983Y73323825D01*
X77874793Y73247635D01*
X77798603Y73209539D01*
X78598603Y72714301D02*
X78636698Y72676206D01*
X78598603Y72638111D01*
X78560507Y72676206D01*
X78598603Y72714301D01*
X78598603Y72638111D01*
X79131936Y73438111D02*
X79208126Y73438111D01*
X79284317Y73400015D01*
X79322412Y73361920D01*
X79360507Y73285730D01*
X79398603Y73133349D01*
X79398603Y72942873D01*
X79360507Y72790492D01*
X79322412Y72714301D01*
X79284317Y72676206D01*
X79208126Y72638111D01*
X79131936Y72638111D01*
X79055745Y72676206D01*
X79017650Y72714301D01*
X78979555Y72790492D01*
X78941460Y72942873D01*
X78941460Y73133349D01*
X78979555Y73285730D01*
X79017650Y73361920D01*
X79055745Y73400015D01*
X79131936Y73438111D01*
X110836699Y73438111D02*
X110836699Y72790492D01*
X110874794Y72714301D01*
X110912889Y72676206D01*
X110989080Y72638111D01*
X111141461Y72638111D01*
X111217651Y72676206D01*
X111255746Y72714301D01*
X111293842Y72790492D01*
X111293842Y73438111D01*
X111674794Y73171444D02*
X111674794Y72638111D01*
X111674794Y73095254D02*
X111712889Y73133349D01*
X111789080Y73171444D01*
X111903365Y73171444D01*
X111979556Y73133349D01*
X112017651Y73057158D01*
X112017651Y72638111D01*
X112398604Y72638111D02*
X112398604Y73171444D01*
X112398604Y73438111D02*
X112360508Y73400015D01*
X112398604Y73361920D01*
X112436699Y73400015D01*
X112398604Y73438111D01*
X112398604Y73361920D01*
X112665270Y73171444D02*
X112970032Y73171444D01*
X112779556Y72638111D02*
X112779556Y73323825D01*
X112817651Y73400015D01*
X112893842Y73438111D01*
X112970032Y73438111D01*
X113236699Y72638111D02*
X113236699Y73171444D01*
X113236699Y73438111D02*
X113198604Y73400015D01*
X113236699Y73361920D01*
X113274794Y73400015D01*
X113236699Y73438111D01*
X113236699Y73361920D01*
X113922413Y72676206D02*
X113846223Y72638111D01*
X113693842Y72638111D01*
X113617651Y72676206D01*
X113579556Y72752396D01*
X113579556Y73057158D01*
X113617651Y73133349D01*
X113693842Y73171444D01*
X113846223Y73171444D01*
X113922413Y73133349D01*
X113960508Y73057158D01*
X113960508Y72980968D01*
X113579556Y72904777D01*
X114646223Y72638111D02*
X114646223Y73438111D01*
X114646223Y72676206D02*
X114570032Y72638111D01*
X114417651Y72638111D01*
X114341461Y72676206D01*
X114303365Y72714301D01*
X114265270Y72790492D01*
X114265270Y73019063D01*
X114303365Y73095254D01*
X114341461Y73133349D01*
X114417651Y73171444D01*
X114570032Y73171444D01*
X114646223Y73133349D01*
X115027175Y72942873D02*
X115636699Y72942873D01*
X115979556Y72676206D02*
X116093842Y72638111D01*
X116284318Y72638111D01*
X116360508Y72676206D01*
X116398604Y72714301D01*
X116436699Y72790492D01*
X116436699Y72866682D01*
X116398604Y72942873D01*
X116360508Y72980968D01*
X116284318Y73019063D01*
X116131937Y73057158D01*
X116055746Y73095254D01*
X116017651Y73133349D01*
X115979556Y73209539D01*
X115979556Y73285730D01*
X116017651Y73361920D01*
X116055746Y73400015D01*
X116131937Y73438111D01*
X116322413Y73438111D01*
X116436699Y73400015D01*
X117198604Y72638111D02*
X116741461Y72638111D01*
X116970032Y72638111D02*
X116970032Y73438111D01*
X116893842Y73323825D01*
X116817651Y73247635D01*
X116741461Y73209539D01*
X118036699Y73438111D02*
X118303365Y72638111D01*
X118570032Y73438111D01*
X119255746Y72638111D02*
X118798604Y72638111D01*
X119027175Y72638111D02*
X119027175Y73438111D01*
X118950984Y73323825D01*
X118874794Y73247635D01*
X118798604Y73209539D01*
X119598604Y72714301D02*
X119636699Y72676206D01*
X119598604Y72638111D01*
X119560508Y72676206D01*
X119598604Y72714301D01*
X119598604Y72638111D01*
X120131937Y73438111D02*
X120208127Y73438111D01*
X120284318Y73400015D01*
X120322413Y73361920D01*
X120360508Y73285730D01*
X120398604Y73133349D01*
X120398604Y72942873D01*
X120360508Y72790492D01*
X120322413Y72714301D01*
X120284318Y72676206D01*
X120208127Y72638111D01*
X120131937Y72638111D01*
X120055746Y72676206D01*
X120017651Y72714301D01*
X119979556Y72790492D01*
X119941461Y72942873D01*
X119941461Y73133349D01*
X119979556Y73285730D01*
X120017651Y73361920D01*
X120055746Y73400015D01*
X120131937Y73438111D01*
X28836697Y64438109D02*
X28836697Y63790490D01*
X28874792Y63714299D01*
X28912887Y63676204D01*
X28989078Y63638109D01*
X29141459Y63638109D01*
X29217649Y63676204D01*
X29255744Y63714299D01*
X29293840Y63790490D01*
X29293840Y64438109D01*
X29674792Y64171442D02*
X29674792Y63638109D01*
X29674792Y64095252D02*
X29712887Y64133347D01*
X29789078Y64171442D01*
X29903363Y64171442D01*
X29979554Y64133347D01*
X30017649Y64057156D01*
X30017649Y63638109D01*
X30398602Y63638109D02*
X30398602Y64171442D01*
X30398602Y64438109D02*
X30360506Y64400013D01*
X30398602Y64361918D01*
X30436697Y64400013D01*
X30398602Y64438109D01*
X30398602Y64361918D01*
X30665268Y64171442D02*
X30970030Y64171442D01*
X30779554Y63638109D02*
X30779554Y64323823D01*
X30817649Y64400013D01*
X30893840Y64438109D01*
X30970030Y64438109D01*
X31236697Y63638109D02*
X31236697Y64171442D01*
X31236697Y64438109D02*
X31198602Y64400013D01*
X31236697Y64361918D01*
X31274792Y64400013D01*
X31236697Y64438109D01*
X31236697Y64361918D01*
X31922411Y63676204D02*
X31846221Y63638109D01*
X31693840Y63638109D01*
X31617649Y63676204D01*
X31579554Y63752394D01*
X31579554Y64057156D01*
X31617649Y64133347D01*
X31693840Y64171442D01*
X31846221Y64171442D01*
X31922411Y64133347D01*
X31960506Y64057156D01*
X31960506Y63980966D01*
X31579554Y63904775D01*
X32646221Y63638109D02*
X32646221Y64438109D01*
X32646221Y63676204D02*
X32570030Y63638109D01*
X32417649Y63638109D01*
X32341459Y63676204D01*
X32303363Y63714299D01*
X32265268Y63790490D01*
X32265268Y64019061D01*
X32303363Y64095252D01*
X32341459Y64133347D01*
X32417649Y64171442D01*
X32570030Y64171442D01*
X32646221Y64133347D01*
X33027173Y63942871D02*
X33636697Y63942871D01*
X33979554Y63676204D02*
X34093840Y63638109D01*
X34284316Y63638109D01*
X34360506Y63676204D01*
X34398602Y63714299D01*
X34436697Y63790490D01*
X34436697Y63866680D01*
X34398602Y63942871D01*
X34360506Y63980966D01*
X34284316Y64019061D01*
X34131935Y64057156D01*
X34055744Y64095252D01*
X34017649Y64133347D01*
X33979554Y64209537D01*
X33979554Y64285728D01*
X34017649Y64361918D01*
X34055744Y64400013D01*
X34131935Y64438109D01*
X34322411Y64438109D01*
X34436697Y64400013D01*
X35198602Y63638109D02*
X34741459Y63638109D01*
X34970030Y63638109D02*
X34970030Y64438109D01*
X34893840Y64323823D01*
X34817649Y64247633D01*
X34741459Y64209537D01*
X36036697Y64438109D02*
X36303363Y63638109D01*
X36570030Y64438109D01*
X37255744Y63638109D02*
X36798602Y63638109D01*
X37027173Y63638109D02*
X37027173Y64438109D01*
X36950982Y64323823D01*
X36874792Y64247633D01*
X36798602Y64209537D01*
X37598602Y63714299D02*
X37636697Y63676204D01*
X37598602Y63638109D01*
X37560506Y63676204D01*
X37598602Y63714299D01*
X37598602Y63638109D01*
X38131935Y64438109D02*
X38208125Y64438109D01*
X38284316Y64400013D01*
X38322411Y64361918D01*
X38360506Y64285728D01*
X38398602Y64133347D01*
X38398602Y63942871D01*
X38360506Y63790490D01*
X38322411Y63714299D01*
X38284316Y63676204D01*
X38208125Y63638109D01*
X38131935Y63638109D01*
X38055744Y63676204D01*
X38017649Y63714299D01*
X37979554Y63790490D01*
X37941459Y63942871D01*
X37941459Y64133347D01*
X37979554Y64285728D01*
X38017649Y64361918D01*
X38055744Y64400013D01*
X38131935Y64438109D01*
X69836698Y64438109D02*
X69836698Y63790490D01*
X69874793Y63714299D01*
X69912888Y63676204D01*
X69989079Y63638109D01*
X70141460Y63638109D01*
X70217650Y63676204D01*
X70255745Y63714299D01*
X70293841Y63790490D01*
X70293841Y64438109D01*
X70674793Y64171442D02*
X70674793Y63638109D01*
X70674793Y64095252D02*
X70712888Y64133347D01*
X70789079Y64171442D01*
X70903364Y64171442D01*
X70979555Y64133347D01*
X71017650Y64057156D01*
X71017650Y63638109D01*
X71398603Y63638109D02*
X71398603Y64171442D01*
X71398603Y64438109D02*
X71360507Y64400013D01*
X71398603Y64361918D01*
X71436698Y64400013D01*
X71398603Y64438109D01*
X71398603Y64361918D01*
X71665269Y64171442D02*
X71970031Y64171442D01*
X71779555Y63638109D02*
X71779555Y64323823D01*
X71817650Y64400013D01*
X71893841Y64438109D01*
X71970031Y64438109D01*
X72236698Y63638109D02*
X72236698Y64171442D01*
X72236698Y64438109D02*
X72198603Y64400013D01*
X72236698Y64361918D01*
X72274793Y64400013D01*
X72236698Y64438109D01*
X72236698Y64361918D01*
X72922412Y63676204D02*
X72846222Y63638109D01*
X72693841Y63638109D01*
X72617650Y63676204D01*
X72579555Y63752394D01*
X72579555Y64057156D01*
X72617650Y64133347D01*
X72693841Y64171442D01*
X72846222Y64171442D01*
X72922412Y64133347D01*
X72960507Y64057156D01*
X72960507Y63980966D01*
X72579555Y63904775D01*
X73646222Y63638109D02*
X73646222Y64438109D01*
X73646222Y63676204D02*
X73570031Y63638109D01*
X73417650Y63638109D01*
X73341460Y63676204D01*
X73303364Y63714299D01*
X73265269Y63790490D01*
X73265269Y64019061D01*
X73303364Y64095252D01*
X73341460Y64133347D01*
X73417650Y64171442D01*
X73570031Y64171442D01*
X73646222Y64133347D01*
X74027174Y63942871D02*
X74636698Y63942871D01*
X74979555Y63676204D02*
X75093841Y63638109D01*
X75284317Y63638109D01*
X75360507Y63676204D01*
X75398603Y63714299D01*
X75436698Y63790490D01*
X75436698Y63866680D01*
X75398603Y63942871D01*
X75360507Y63980966D01*
X75284317Y64019061D01*
X75131936Y64057156D01*
X75055745Y64095252D01*
X75017650Y64133347D01*
X74979555Y64209537D01*
X74979555Y64285728D01*
X75017650Y64361918D01*
X75055745Y64400013D01*
X75131936Y64438109D01*
X75322412Y64438109D01*
X75436698Y64400013D01*
X76198603Y63638109D02*
X75741460Y63638109D01*
X75970031Y63638109D02*
X75970031Y64438109D01*
X75893841Y64323823D01*
X75817650Y64247633D01*
X75741460Y64209537D01*
X77036698Y64438109D02*
X77303364Y63638109D01*
X77570031Y64438109D01*
X78255745Y63638109D02*
X77798603Y63638109D01*
X78027174Y63638109D02*
X78027174Y64438109D01*
X77950983Y64323823D01*
X77874793Y64247633D01*
X77798603Y64209537D01*
X78598603Y63714299D02*
X78636698Y63676204D01*
X78598603Y63638109D01*
X78560507Y63676204D01*
X78598603Y63714299D01*
X78598603Y63638109D01*
X79131936Y64438109D02*
X79208126Y64438109D01*
X79284317Y64400013D01*
X79322412Y64361918D01*
X79360507Y64285728D01*
X79398603Y64133347D01*
X79398603Y63942871D01*
X79360507Y63790490D01*
X79322412Y63714299D01*
X79284317Y63676204D01*
X79208126Y63638109D01*
X79131936Y63638109D01*
X79055745Y63676204D01*
X79017650Y63714299D01*
X78979555Y63790490D01*
X78941460Y63942871D01*
X78941460Y64133347D01*
X78979555Y64285728D01*
X79017650Y64361918D01*
X79055745Y64400013D01*
X79131936Y64438109D01*
X110836699Y64438109D02*
X110836699Y63790490D01*
X110874794Y63714299D01*
X110912889Y63676204D01*
X110989080Y63638109D01*
X111141461Y63638109D01*
X111217651Y63676204D01*
X111255746Y63714299D01*
X111293842Y63790490D01*
X111293842Y64438109D01*
X111674794Y64171442D02*
X111674794Y63638109D01*
X111674794Y64095252D02*
X111712889Y64133347D01*
X111789080Y64171442D01*
X111903365Y64171442D01*
X111979556Y64133347D01*
X112017651Y64057156D01*
X112017651Y63638109D01*
X112398604Y63638109D02*
X112398604Y64171442D01*
X112398604Y64438109D02*
X112360508Y64400013D01*
X112398604Y64361918D01*
X112436699Y64400013D01*
X112398604Y64438109D01*
X112398604Y64361918D01*
X112665270Y64171442D02*
X112970032Y64171442D01*
X112779556Y63638109D02*
X112779556Y64323823D01*
X112817651Y64400013D01*
X112893842Y64438109D01*
X112970032Y64438109D01*
X113236699Y63638109D02*
X113236699Y64171442D01*
X113236699Y64438109D02*
X113198604Y64400013D01*
X113236699Y64361918D01*
X113274794Y64400013D01*
X113236699Y64438109D01*
X113236699Y64361918D01*
X113922413Y63676204D02*
X113846223Y63638109D01*
X113693842Y63638109D01*
X113617651Y63676204D01*
X113579556Y63752394D01*
X113579556Y64057156D01*
X113617651Y64133347D01*
X113693842Y64171442D01*
X113846223Y64171442D01*
X113922413Y64133347D01*
X113960508Y64057156D01*
X113960508Y63980966D01*
X113579556Y63904775D01*
X114646223Y63638109D02*
X114646223Y64438109D01*
X114646223Y63676204D02*
X114570032Y63638109D01*
X114417651Y63638109D01*
X114341461Y63676204D01*
X114303365Y63714299D01*
X114265270Y63790490D01*
X114265270Y64019061D01*
X114303365Y64095252D01*
X114341461Y64133347D01*
X114417651Y64171442D01*
X114570032Y64171442D01*
X114646223Y64133347D01*
X115027175Y63942871D02*
X115636699Y63942871D01*
X115979556Y63676204D02*
X116093842Y63638109D01*
X116284318Y63638109D01*
X116360508Y63676204D01*
X116398604Y63714299D01*
X116436699Y63790490D01*
X116436699Y63866680D01*
X116398604Y63942871D01*
X116360508Y63980966D01*
X116284318Y64019061D01*
X116131937Y64057156D01*
X116055746Y64095252D01*
X116017651Y64133347D01*
X115979556Y64209537D01*
X115979556Y64285728D01*
X116017651Y64361918D01*
X116055746Y64400013D01*
X116131937Y64438109D01*
X116322413Y64438109D01*
X116436699Y64400013D01*
X117198604Y63638109D02*
X116741461Y63638109D01*
X116970032Y63638109D02*
X116970032Y64438109D01*
X116893842Y64323823D01*
X116817651Y64247633D01*
X116741461Y64209537D01*
X118036699Y64438109D02*
X118303365Y63638109D01*
X118570032Y64438109D01*
X119255746Y63638109D02*
X118798604Y63638109D01*
X119027175Y63638109D02*
X119027175Y64438109D01*
X118950984Y64323823D01*
X118874794Y64247633D01*
X118798604Y64209537D01*
X119598604Y63714299D02*
X119636699Y63676204D01*
X119598604Y63638109D01*
X119560508Y63676204D01*
X119598604Y63714299D01*
X119598604Y63638109D01*
X120131937Y64438109D02*
X120208127Y64438109D01*
X120284318Y64400013D01*
X120322413Y64361918D01*
X120360508Y64285728D01*
X120398604Y64133347D01*
X120398604Y63942871D01*
X120360508Y63790490D01*
X120322413Y63714299D01*
X120284318Y63676204D01*
X120208127Y63638109D01*
X120131937Y63638109D01*
X120055746Y63676204D01*
X120017651Y63714299D01*
X119979556Y63790490D01*
X119941461Y63942871D01*
X119941461Y64133347D01*
X119979556Y64285728D01*
X120017651Y64361918D01*
X120055746Y64400013D01*
X120131937Y64438109D01*
X28836697Y55438107D02*
X28836697Y54790488D01*
X28874792Y54714297D01*
X28912887Y54676202D01*
X28989078Y54638107D01*
X29141459Y54638107D01*
X29217649Y54676202D01*
X29255744Y54714297D01*
X29293840Y54790488D01*
X29293840Y55438107D01*
X29674792Y55171440D02*
X29674792Y54638107D01*
X29674792Y55095250D02*
X29712887Y55133345D01*
X29789078Y55171440D01*
X29903363Y55171440D01*
X29979554Y55133345D01*
X30017649Y55057154D01*
X30017649Y54638107D01*
X30398602Y54638107D02*
X30398602Y55171440D01*
X30398602Y55438107D02*
X30360506Y55400011D01*
X30398602Y55361916D01*
X30436697Y55400011D01*
X30398602Y55438107D01*
X30398602Y55361916D01*
X30665268Y55171440D02*
X30970030Y55171440D01*
X30779554Y54638107D02*
X30779554Y55323821D01*
X30817649Y55400011D01*
X30893840Y55438107D01*
X30970030Y55438107D01*
X31236697Y54638107D02*
X31236697Y55171440D01*
X31236697Y55438107D02*
X31198602Y55400011D01*
X31236697Y55361916D01*
X31274792Y55400011D01*
X31236697Y55438107D01*
X31236697Y55361916D01*
X31922411Y54676202D02*
X31846221Y54638107D01*
X31693840Y54638107D01*
X31617649Y54676202D01*
X31579554Y54752392D01*
X31579554Y55057154D01*
X31617649Y55133345D01*
X31693840Y55171440D01*
X31846221Y55171440D01*
X31922411Y55133345D01*
X31960506Y55057154D01*
X31960506Y54980964D01*
X31579554Y54904773D01*
X32646221Y54638107D02*
X32646221Y55438107D01*
X32646221Y54676202D02*
X32570030Y54638107D01*
X32417649Y54638107D01*
X32341459Y54676202D01*
X32303363Y54714297D01*
X32265268Y54790488D01*
X32265268Y55019059D01*
X32303363Y55095250D01*
X32341459Y55133345D01*
X32417649Y55171440D01*
X32570030Y55171440D01*
X32646221Y55133345D01*
X33027173Y54942869D02*
X33636697Y54942869D01*
X33979554Y54676202D02*
X34093840Y54638107D01*
X34284316Y54638107D01*
X34360506Y54676202D01*
X34398602Y54714297D01*
X34436697Y54790488D01*
X34436697Y54866678D01*
X34398602Y54942869D01*
X34360506Y54980964D01*
X34284316Y55019059D01*
X34131935Y55057154D01*
X34055744Y55095250D01*
X34017649Y55133345D01*
X33979554Y55209535D01*
X33979554Y55285726D01*
X34017649Y55361916D01*
X34055744Y55400011D01*
X34131935Y55438107D01*
X34322411Y55438107D01*
X34436697Y55400011D01*
X35198602Y54638107D02*
X34741459Y54638107D01*
X34970030Y54638107D02*
X34970030Y55438107D01*
X34893840Y55323821D01*
X34817649Y55247631D01*
X34741459Y55209535D01*
X36036697Y55438107D02*
X36303363Y54638107D01*
X36570030Y55438107D01*
X37255744Y54638107D02*
X36798602Y54638107D01*
X37027173Y54638107D02*
X37027173Y55438107D01*
X36950982Y55323821D01*
X36874792Y55247631D01*
X36798602Y55209535D01*
X37598602Y54714297D02*
X37636697Y54676202D01*
X37598602Y54638107D01*
X37560506Y54676202D01*
X37598602Y54714297D01*
X37598602Y54638107D01*
X38131935Y55438107D02*
X38208125Y55438107D01*
X38284316Y55400011D01*
X38322411Y55361916D01*
X38360506Y55285726D01*
X38398602Y55133345D01*
X38398602Y54942869D01*
X38360506Y54790488D01*
X38322411Y54714297D01*
X38284316Y54676202D01*
X38208125Y54638107D01*
X38131935Y54638107D01*
X38055744Y54676202D01*
X38017649Y54714297D01*
X37979554Y54790488D01*
X37941459Y54942869D01*
X37941459Y55133345D01*
X37979554Y55285726D01*
X38017649Y55361916D01*
X38055744Y55400011D01*
X38131935Y55438107D01*
X69836698Y55438107D02*
X69836698Y54790488D01*
X69874793Y54714297D01*
X69912888Y54676202D01*
X69989079Y54638107D01*
X70141460Y54638107D01*
X70217650Y54676202D01*
X70255745Y54714297D01*
X70293841Y54790488D01*
X70293841Y55438107D01*
X70674793Y55171440D02*
X70674793Y54638107D01*
X70674793Y55095250D02*
X70712888Y55133345D01*
X70789079Y55171440D01*
X70903364Y55171440D01*
X70979555Y55133345D01*
X71017650Y55057154D01*
X71017650Y54638107D01*
X71398603Y54638107D02*
X71398603Y55171440D01*
X71398603Y55438107D02*
X71360507Y55400011D01*
X71398603Y55361916D01*
X71436698Y55400011D01*
X71398603Y55438107D01*
X71398603Y55361916D01*
X71665269Y55171440D02*
X71970031Y55171440D01*
X71779555Y54638107D02*
X71779555Y55323821D01*
X71817650Y55400011D01*
X71893841Y55438107D01*
X71970031Y55438107D01*
X72236698Y54638107D02*
X72236698Y55171440D01*
X72236698Y55438107D02*
X72198603Y55400011D01*
X72236698Y55361916D01*
X72274793Y55400011D01*
X72236698Y55438107D01*
X72236698Y55361916D01*
X72922412Y54676202D02*
X72846222Y54638107D01*
X72693841Y54638107D01*
X72617650Y54676202D01*
X72579555Y54752392D01*
X72579555Y55057154D01*
X72617650Y55133345D01*
X72693841Y55171440D01*
X72846222Y55171440D01*
X72922412Y55133345D01*
X72960507Y55057154D01*
X72960507Y54980964D01*
X72579555Y54904773D01*
X73646222Y54638107D02*
X73646222Y55438107D01*
X73646222Y54676202D02*
X73570031Y54638107D01*
X73417650Y54638107D01*
X73341460Y54676202D01*
X73303364Y54714297D01*
X73265269Y54790488D01*
X73265269Y55019059D01*
X73303364Y55095250D01*
X73341460Y55133345D01*
X73417650Y55171440D01*
X73570031Y55171440D01*
X73646222Y55133345D01*
X74027174Y54942869D02*
X74636698Y54942869D01*
X74979555Y54676202D02*
X75093841Y54638107D01*
X75284317Y54638107D01*
X75360507Y54676202D01*
X75398603Y54714297D01*
X75436698Y54790488D01*
X75436698Y54866678D01*
X75398603Y54942869D01*
X75360507Y54980964D01*
X75284317Y55019059D01*
X75131936Y55057154D01*
X75055745Y55095250D01*
X75017650Y55133345D01*
X74979555Y55209535D01*
X74979555Y55285726D01*
X75017650Y55361916D01*
X75055745Y55400011D01*
X75131936Y55438107D01*
X75322412Y55438107D01*
X75436698Y55400011D01*
X76198603Y54638107D02*
X75741460Y54638107D01*
X75970031Y54638107D02*
X75970031Y55438107D01*
X75893841Y55323821D01*
X75817650Y55247631D01*
X75741460Y55209535D01*
X77036698Y55438107D02*
X77303364Y54638107D01*
X77570031Y55438107D01*
X78255745Y54638107D02*
X77798603Y54638107D01*
X78027174Y54638107D02*
X78027174Y55438107D01*
X77950983Y55323821D01*
X77874793Y55247631D01*
X77798603Y55209535D01*
X78598603Y54714297D02*
X78636698Y54676202D01*
X78598603Y54638107D01*
X78560507Y54676202D01*
X78598603Y54714297D01*
X78598603Y54638107D01*
X79131936Y55438107D02*
X79208126Y55438107D01*
X79284317Y55400011D01*
X79322412Y55361916D01*
X79360507Y55285726D01*
X79398603Y55133345D01*
X79398603Y54942869D01*
X79360507Y54790488D01*
X79322412Y54714297D01*
X79284317Y54676202D01*
X79208126Y54638107D01*
X79131936Y54638107D01*
X79055745Y54676202D01*
X79017650Y54714297D01*
X78979555Y54790488D01*
X78941460Y54942869D01*
X78941460Y55133345D01*
X78979555Y55285726D01*
X79017650Y55361916D01*
X79055745Y55400011D01*
X79131936Y55438107D01*
X110836699Y55438107D02*
X110836699Y54790488D01*
X110874794Y54714297D01*
X110912889Y54676202D01*
X110989080Y54638107D01*
X111141461Y54638107D01*
X111217651Y54676202D01*
X111255746Y54714297D01*
X111293842Y54790488D01*
X111293842Y55438107D01*
X111674794Y55171440D02*
X111674794Y54638107D01*
X111674794Y55095250D02*
X111712889Y55133345D01*
X111789080Y55171440D01*
X111903365Y55171440D01*
X111979556Y55133345D01*
X112017651Y55057154D01*
X112017651Y54638107D01*
X112398604Y54638107D02*
X112398604Y55171440D01*
X112398604Y55438107D02*
X112360508Y55400011D01*
X112398604Y55361916D01*
X112436699Y55400011D01*
X112398604Y55438107D01*
X112398604Y55361916D01*
X112665270Y55171440D02*
X112970032Y55171440D01*
X112779556Y54638107D02*
X112779556Y55323821D01*
X112817651Y55400011D01*
X112893842Y55438107D01*
X112970032Y55438107D01*
X113236699Y54638107D02*
X113236699Y55171440D01*
X113236699Y55438107D02*
X113198604Y55400011D01*
X113236699Y55361916D01*
X113274794Y55400011D01*
X113236699Y55438107D01*
X113236699Y55361916D01*
X113922413Y54676202D02*
X113846223Y54638107D01*
X113693842Y54638107D01*
X113617651Y54676202D01*
X113579556Y54752392D01*
X113579556Y55057154D01*
X113617651Y55133345D01*
X113693842Y55171440D01*
X113846223Y55171440D01*
X113922413Y55133345D01*
X113960508Y55057154D01*
X113960508Y54980964D01*
X113579556Y54904773D01*
X114646223Y54638107D02*
X114646223Y55438107D01*
X114646223Y54676202D02*
X114570032Y54638107D01*
X114417651Y54638107D01*
X114341461Y54676202D01*
X114303365Y54714297D01*
X114265270Y54790488D01*
X114265270Y55019059D01*
X114303365Y55095250D01*
X114341461Y55133345D01*
X114417651Y55171440D01*
X114570032Y55171440D01*
X114646223Y55133345D01*
X115027175Y54942869D02*
X115636699Y54942869D01*
X115979556Y54676202D02*
X116093842Y54638107D01*
X116284318Y54638107D01*
X116360508Y54676202D01*
X116398604Y54714297D01*
X116436699Y54790488D01*
X116436699Y54866678D01*
X116398604Y54942869D01*
X116360508Y54980964D01*
X116284318Y55019059D01*
X116131937Y55057154D01*
X116055746Y55095250D01*
X116017651Y55133345D01*
X115979556Y55209535D01*
X115979556Y55285726D01*
X116017651Y55361916D01*
X116055746Y55400011D01*
X116131937Y55438107D01*
X116322413Y55438107D01*
X116436699Y55400011D01*
X117198604Y54638107D02*
X116741461Y54638107D01*
X116970032Y54638107D02*
X116970032Y55438107D01*
X116893842Y55323821D01*
X116817651Y55247631D01*
X116741461Y55209535D01*
X118036699Y55438107D02*
X118303365Y54638107D01*
X118570032Y55438107D01*
X119255746Y54638107D02*
X118798604Y54638107D01*
X119027175Y54638107D02*
X119027175Y55438107D01*
X118950984Y55323821D01*
X118874794Y55247631D01*
X118798604Y55209535D01*
X119598604Y54714297D02*
X119636699Y54676202D01*
X119598604Y54638107D01*
X119560508Y54676202D01*
X119598604Y54714297D01*
X119598604Y54638107D01*
X120131937Y55438107D02*
X120208127Y55438107D01*
X120284318Y55400011D01*
X120322413Y55361916D01*
X120360508Y55285726D01*
X120398604Y55133345D01*
X120398604Y54942869D01*
X120360508Y54790488D01*
X120322413Y54714297D01*
X120284318Y54676202D01*
X120208127Y54638107D01*
X120131937Y54638107D01*
X120055746Y54676202D01*
X120017651Y54714297D01*
X119979556Y54790488D01*
X119941461Y54942869D01*
X119941461Y55133345D01*
X119979556Y55285726D01*
X120017651Y55361916D01*
X120055746Y55400011D01*
X120131937Y55438107D01*
X28836697Y43438105D02*
X28836697Y42790486D01*
X28874792Y42714295D01*
X28912887Y42676200D01*
X28989078Y42638105D01*
X29141459Y42638105D01*
X29217649Y42676200D01*
X29255744Y42714295D01*
X29293840Y42790486D01*
X29293840Y43438105D01*
X29674792Y43171438D02*
X29674792Y42638105D01*
X29674792Y43095248D02*
X29712887Y43133343D01*
X29789078Y43171438D01*
X29903363Y43171438D01*
X29979554Y43133343D01*
X30017649Y43057152D01*
X30017649Y42638105D01*
X30398602Y42638105D02*
X30398602Y43171438D01*
X30398602Y43438105D02*
X30360506Y43400009D01*
X30398602Y43361914D01*
X30436697Y43400009D01*
X30398602Y43438105D01*
X30398602Y43361914D01*
X30665268Y43171438D02*
X30970030Y43171438D01*
X30779554Y42638105D02*
X30779554Y43323819D01*
X30817649Y43400009D01*
X30893840Y43438105D01*
X30970030Y43438105D01*
X31236697Y42638105D02*
X31236697Y43171438D01*
X31236697Y43438105D02*
X31198602Y43400009D01*
X31236697Y43361914D01*
X31274792Y43400009D01*
X31236697Y43438105D01*
X31236697Y43361914D01*
X31922411Y42676200D02*
X31846221Y42638105D01*
X31693840Y42638105D01*
X31617649Y42676200D01*
X31579554Y42752390D01*
X31579554Y43057152D01*
X31617649Y43133343D01*
X31693840Y43171438D01*
X31846221Y43171438D01*
X31922411Y43133343D01*
X31960506Y43057152D01*
X31960506Y42980962D01*
X31579554Y42904771D01*
X32646221Y42638105D02*
X32646221Y43438105D01*
X32646221Y42676200D02*
X32570030Y42638105D01*
X32417649Y42638105D01*
X32341459Y42676200D01*
X32303363Y42714295D01*
X32265268Y42790486D01*
X32265268Y43019057D01*
X32303363Y43095248D01*
X32341459Y43133343D01*
X32417649Y43171438D01*
X32570030Y43171438D01*
X32646221Y43133343D01*
X33027173Y42942867D02*
X33636697Y42942867D01*
X33979554Y42676200D02*
X34093840Y42638105D01*
X34284316Y42638105D01*
X34360506Y42676200D01*
X34398602Y42714295D01*
X34436697Y42790486D01*
X34436697Y42866676D01*
X34398602Y42942867D01*
X34360506Y42980962D01*
X34284316Y43019057D01*
X34131935Y43057152D01*
X34055744Y43095248D01*
X34017649Y43133343D01*
X33979554Y43209533D01*
X33979554Y43285724D01*
X34017649Y43361914D01*
X34055744Y43400009D01*
X34131935Y43438105D01*
X34322411Y43438105D01*
X34436697Y43400009D01*
X35198602Y42638105D02*
X34741459Y42638105D01*
X34970030Y42638105D02*
X34970030Y43438105D01*
X34893840Y43323819D01*
X34817649Y43247629D01*
X34741459Y43209533D01*
X36036697Y43438105D02*
X36303363Y42638105D01*
X36570030Y43438105D01*
X37255744Y42638105D02*
X36798602Y42638105D01*
X37027173Y42638105D02*
X37027173Y43438105D01*
X36950982Y43323819D01*
X36874792Y43247629D01*
X36798602Y43209533D01*
X37598602Y42714295D02*
X37636697Y42676200D01*
X37598602Y42638105D01*
X37560506Y42676200D01*
X37598602Y42714295D01*
X37598602Y42638105D01*
X38131935Y43438105D02*
X38208125Y43438105D01*
X38284316Y43400009D01*
X38322411Y43361914D01*
X38360506Y43285724D01*
X38398602Y43133343D01*
X38398602Y42942867D01*
X38360506Y42790486D01*
X38322411Y42714295D01*
X38284316Y42676200D01*
X38208125Y42638105D01*
X38131935Y42638105D01*
X38055744Y42676200D01*
X38017649Y42714295D01*
X37979554Y42790486D01*
X37941459Y42942867D01*
X37941459Y43133343D01*
X37979554Y43285724D01*
X38017649Y43361914D01*
X38055744Y43400009D01*
X38131935Y43438105D01*
X69836698Y43438105D02*
X69836698Y42790486D01*
X69874793Y42714295D01*
X69912888Y42676200D01*
X69989079Y42638105D01*
X70141460Y42638105D01*
X70217650Y42676200D01*
X70255745Y42714295D01*
X70293841Y42790486D01*
X70293841Y43438105D01*
X70674793Y43171438D02*
X70674793Y42638105D01*
X70674793Y43095248D02*
X70712888Y43133343D01*
X70789079Y43171438D01*
X70903364Y43171438D01*
X70979555Y43133343D01*
X71017650Y43057152D01*
X71017650Y42638105D01*
X71398603Y42638105D02*
X71398603Y43171438D01*
X71398603Y43438105D02*
X71360507Y43400009D01*
X71398603Y43361914D01*
X71436698Y43400009D01*
X71398603Y43438105D01*
X71398603Y43361914D01*
X71665269Y43171438D02*
X71970031Y43171438D01*
X71779555Y42638105D02*
X71779555Y43323819D01*
X71817650Y43400009D01*
X71893841Y43438105D01*
X71970031Y43438105D01*
X72236698Y42638105D02*
X72236698Y43171438D01*
X72236698Y43438105D02*
X72198603Y43400009D01*
X72236698Y43361914D01*
X72274793Y43400009D01*
X72236698Y43438105D01*
X72236698Y43361914D01*
X72922412Y42676200D02*
X72846222Y42638105D01*
X72693841Y42638105D01*
X72617650Y42676200D01*
X72579555Y42752390D01*
X72579555Y43057152D01*
X72617650Y43133343D01*
X72693841Y43171438D01*
X72846222Y43171438D01*
X72922412Y43133343D01*
X72960507Y43057152D01*
X72960507Y42980962D01*
X72579555Y42904771D01*
X73646222Y42638105D02*
X73646222Y43438105D01*
X73646222Y42676200D02*
X73570031Y42638105D01*
X73417650Y42638105D01*
X73341460Y42676200D01*
X73303364Y42714295D01*
X73265269Y42790486D01*
X73265269Y43019057D01*
X73303364Y43095248D01*
X73341460Y43133343D01*
X73417650Y43171438D01*
X73570031Y43171438D01*
X73646222Y43133343D01*
X74027174Y42942867D02*
X74636698Y42942867D01*
X74979555Y42676200D02*
X75093841Y42638105D01*
X75284317Y42638105D01*
X75360507Y42676200D01*
X75398603Y42714295D01*
X75436698Y42790486D01*
X75436698Y42866676D01*
X75398603Y42942867D01*
X75360507Y42980962D01*
X75284317Y43019057D01*
X75131936Y43057152D01*
X75055745Y43095248D01*
X75017650Y43133343D01*
X74979555Y43209533D01*
X74979555Y43285724D01*
X75017650Y43361914D01*
X75055745Y43400009D01*
X75131936Y43438105D01*
X75322412Y43438105D01*
X75436698Y43400009D01*
X76198603Y42638105D02*
X75741460Y42638105D01*
X75970031Y42638105D02*
X75970031Y43438105D01*
X75893841Y43323819D01*
X75817650Y43247629D01*
X75741460Y43209533D01*
X77036698Y43438105D02*
X77303364Y42638105D01*
X77570031Y43438105D01*
X78255745Y42638105D02*
X77798603Y42638105D01*
X78027174Y42638105D02*
X78027174Y43438105D01*
X77950983Y43323819D01*
X77874793Y43247629D01*
X77798603Y43209533D01*
X78598603Y42714295D02*
X78636698Y42676200D01*
X78598603Y42638105D01*
X78560507Y42676200D01*
X78598603Y42714295D01*
X78598603Y42638105D01*
X79131936Y43438105D02*
X79208126Y43438105D01*
X79284317Y43400009D01*
X79322412Y43361914D01*
X79360507Y43285724D01*
X79398603Y43133343D01*
X79398603Y42942867D01*
X79360507Y42790486D01*
X79322412Y42714295D01*
X79284317Y42676200D01*
X79208126Y42638105D01*
X79131936Y42638105D01*
X79055745Y42676200D01*
X79017650Y42714295D01*
X78979555Y42790486D01*
X78941460Y42942867D01*
X78941460Y43133343D01*
X78979555Y43285724D01*
X79017650Y43361914D01*
X79055745Y43400009D01*
X79131936Y43438105D01*
X110836699Y43438105D02*
X110836699Y42790486D01*
X110874794Y42714295D01*
X110912889Y42676200D01*
X110989080Y42638105D01*
X111141461Y42638105D01*
X111217651Y42676200D01*
X111255746Y42714295D01*
X111293842Y42790486D01*
X111293842Y43438105D01*
X111674794Y43171438D02*
X111674794Y42638105D01*
X111674794Y43095248D02*
X111712889Y43133343D01*
X111789080Y43171438D01*
X111903365Y43171438D01*
X111979556Y43133343D01*
X112017651Y43057152D01*
X112017651Y42638105D01*
X112398604Y42638105D02*
X112398604Y43171438D01*
X112398604Y43438105D02*
X112360508Y43400009D01*
X112398604Y43361914D01*
X112436699Y43400009D01*
X112398604Y43438105D01*
X112398604Y43361914D01*
X112665270Y43171438D02*
X112970032Y43171438D01*
X112779556Y42638105D02*
X112779556Y43323819D01*
X112817651Y43400009D01*
X112893842Y43438105D01*
X112970032Y43438105D01*
X113236699Y42638105D02*
X113236699Y43171438D01*
X113236699Y43438105D02*
X113198604Y43400009D01*
X113236699Y43361914D01*
X113274794Y43400009D01*
X113236699Y43438105D01*
X113236699Y43361914D01*
X113922413Y42676200D02*
X113846223Y42638105D01*
X113693842Y42638105D01*
X113617651Y42676200D01*
X113579556Y42752390D01*
X113579556Y43057152D01*
X113617651Y43133343D01*
X113693842Y43171438D01*
X113846223Y43171438D01*
X113922413Y43133343D01*
X113960508Y43057152D01*
X113960508Y42980962D01*
X113579556Y42904771D01*
X114646223Y42638105D02*
X114646223Y43438105D01*
X114646223Y42676200D02*
X114570032Y42638105D01*
X114417651Y42638105D01*
X114341461Y42676200D01*
X114303365Y42714295D01*
X114265270Y42790486D01*
X114265270Y43019057D01*
X114303365Y43095248D01*
X114341461Y43133343D01*
X114417651Y43171438D01*
X114570032Y43171438D01*
X114646223Y43133343D01*
X115027175Y42942867D02*
X115636699Y42942867D01*
X115979556Y42676200D02*
X116093842Y42638105D01*
X116284318Y42638105D01*
X116360508Y42676200D01*
X116398604Y42714295D01*
X116436699Y42790486D01*
X116436699Y42866676D01*
X116398604Y42942867D01*
X116360508Y42980962D01*
X116284318Y43019057D01*
X116131937Y43057152D01*
X116055746Y43095248D01*
X116017651Y43133343D01*
X115979556Y43209533D01*
X115979556Y43285724D01*
X116017651Y43361914D01*
X116055746Y43400009D01*
X116131937Y43438105D01*
X116322413Y43438105D01*
X116436699Y43400009D01*
X117198604Y42638105D02*
X116741461Y42638105D01*
X116970032Y42638105D02*
X116970032Y43438105D01*
X116893842Y43323819D01*
X116817651Y43247629D01*
X116741461Y43209533D01*
X118036699Y43438105D02*
X118303365Y42638105D01*
X118570032Y43438105D01*
X119255746Y42638105D02*
X118798604Y42638105D01*
X119027175Y42638105D02*
X119027175Y43438105D01*
X118950984Y43323819D01*
X118874794Y43247629D01*
X118798604Y43209533D01*
X119598604Y42714295D02*
X119636699Y42676200D01*
X119598604Y42638105D01*
X119560508Y42676200D01*
X119598604Y42714295D01*
X119598604Y42638105D01*
X120131937Y43438105D02*
X120208127Y43438105D01*
X120284318Y43400009D01*
X120322413Y43361914D01*
X120360508Y43285724D01*
X120398604Y43133343D01*
X120398604Y42942867D01*
X120360508Y42790486D01*
X120322413Y42714295D01*
X120284318Y42676200D01*
X120208127Y42638105D01*
X120131937Y42638105D01*
X120055746Y42676200D01*
X120017651Y42714295D01*
X119979556Y42790486D01*
X119941461Y42942867D01*
X119941461Y43133343D01*
X119979556Y43285724D01*
X120017651Y43361914D01*
X120055746Y43400009D01*
X120131937Y43438105D01*
X28836697Y34438103D02*
X28836697Y33790484D01*
X28874792Y33714293D01*
X28912887Y33676198D01*
X28989078Y33638103D01*
X29141459Y33638103D01*
X29217649Y33676198D01*
X29255744Y33714293D01*
X29293840Y33790484D01*
X29293840Y34438103D01*
X29674792Y34171436D02*
X29674792Y33638103D01*
X29674792Y34095246D02*
X29712887Y34133341D01*
X29789078Y34171436D01*
X29903363Y34171436D01*
X29979554Y34133341D01*
X30017649Y34057150D01*
X30017649Y33638103D01*
X30398602Y33638103D02*
X30398602Y34171436D01*
X30398602Y34438103D02*
X30360506Y34400007D01*
X30398602Y34361912D01*
X30436697Y34400007D01*
X30398602Y34438103D01*
X30398602Y34361912D01*
X30665268Y34171436D02*
X30970030Y34171436D01*
X30779554Y33638103D02*
X30779554Y34323817D01*
X30817649Y34400007D01*
X30893840Y34438103D01*
X30970030Y34438103D01*
X31236697Y33638103D02*
X31236697Y34171436D01*
X31236697Y34438103D02*
X31198602Y34400007D01*
X31236697Y34361912D01*
X31274792Y34400007D01*
X31236697Y34438103D01*
X31236697Y34361912D01*
X31922411Y33676198D02*
X31846221Y33638103D01*
X31693840Y33638103D01*
X31617649Y33676198D01*
X31579554Y33752388D01*
X31579554Y34057150D01*
X31617649Y34133341D01*
X31693840Y34171436D01*
X31846221Y34171436D01*
X31922411Y34133341D01*
X31960506Y34057150D01*
X31960506Y33980960D01*
X31579554Y33904769D01*
X32646221Y33638103D02*
X32646221Y34438103D01*
X32646221Y33676198D02*
X32570030Y33638103D01*
X32417649Y33638103D01*
X32341459Y33676198D01*
X32303363Y33714293D01*
X32265268Y33790484D01*
X32265268Y34019055D01*
X32303363Y34095246D01*
X32341459Y34133341D01*
X32417649Y34171436D01*
X32570030Y34171436D01*
X32646221Y34133341D01*
X33027173Y33942865D02*
X33636697Y33942865D01*
X33979554Y33676198D02*
X34093840Y33638103D01*
X34284316Y33638103D01*
X34360506Y33676198D01*
X34398602Y33714293D01*
X34436697Y33790484D01*
X34436697Y33866674D01*
X34398602Y33942865D01*
X34360506Y33980960D01*
X34284316Y34019055D01*
X34131935Y34057150D01*
X34055744Y34095246D01*
X34017649Y34133341D01*
X33979554Y34209531D01*
X33979554Y34285722D01*
X34017649Y34361912D01*
X34055744Y34400007D01*
X34131935Y34438103D01*
X34322411Y34438103D01*
X34436697Y34400007D01*
X35198602Y33638103D02*
X34741459Y33638103D01*
X34970030Y33638103D02*
X34970030Y34438103D01*
X34893840Y34323817D01*
X34817649Y34247627D01*
X34741459Y34209531D01*
X36036697Y34438103D02*
X36303363Y33638103D01*
X36570030Y34438103D01*
X37255744Y33638103D02*
X36798602Y33638103D01*
X37027173Y33638103D02*
X37027173Y34438103D01*
X36950982Y34323817D01*
X36874792Y34247627D01*
X36798602Y34209531D01*
X37598602Y33714293D02*
X37636697Y33676198D01*
X37598602Y33638103D01*
X37560506Y33676198D01*
X37598602Y33714293D01*
X37598602Y33638103D01*
X38131935Y34438103D02*
X38208125Y34438103D01*
X38284316Y34400007D01*
X38322411Y34361912D01*
X38360506Y34285722D01*
X38398602Y34133341D01*
X38398602Y33942865D01*
X38360506Y33790484D01*
X38322411Y33714293D01*
X38284316Y33676198D01*
X38208125Y33638103D01*
X38131935Y33638103D01*
X38055744Y33676198D01*
X38017649Y33714293D01*
X37979554Y33790484D01*
X37941459Y33942865D01*
X37941459Y34133341D01*
X37979554Y34285722D01*
X38017649Y34361912D01*
X38055744Y34400007D01*
X38131935Y34438103D01*
X69836698Y34438103D02*
X69836698Y33790484D01*
X69874793Y33714293D01*
X69912888Y33676198D01*
X69989079Y33638103D01*
X70141460Y33638103D01*
X70217650Y33676198D01*
X70255745Y33714293D01*
X70293841Y33790484D01*
X70293841Y34438103D01*
X70674793Y34171436D02*
X70674793Y33638103D01*
X70674793Y34095246D02*
X70712888Y34133341D01*
X70789079Y34171436D01*
X70903364Y34171436D01*
X70979555Y34133341D01*
X71017650Y34057150D01*
X71017650Y33638103D01*
X71398603Y33638103D02*
X71398603Y34171436D01*
X71398603Y34438103D02*
X71360507Y34400007D01*
X71398603Y34361912D01*
X71436698Y34400007D01*
X71398603Y34438103D01*
X71398603Y34361912D01*
X71665269Y34171436D02*
X71970031Y34171436D01*
X71779555Y33638103D02*
X71779555Y34323817D01*
X71817650Y34400007D01*
X71893841Y34438103D01*
X71970031Y34438103D01*
X72236698Y33638103D02*
X72236698Y34171436D01*
X72236698Y34438103D02*
X72198603Y34400007D01*
X72236698Y34361912D01*
X72274793Y34400007D01*
X72236698Y34438103D01*
X72236698Y34361912D01*
X72922412Y33676198D02*
X72846222Y33638103D01*
X72693841Y33638103D01*
X72617650Y33676198D01*
X72579555Y33752388D01*
X72579555Y34057150D01*
X72617650Y34133341D01*
X72693841Y34171436D01*
X72846222Y34171436D01*
X72922412Y34133341D01*
X72960507Y34057150D01*
X72960507Y33980960D01*
X72579555Y33904769D01*
X73646222Y33638103D02*
X73646222Y34438103D01*
X73646222Y33676198D02*
X73570031Y33638103D01*
X73417650Y33638103D01*
X73341460Y33676198D01*
X73303364Y33714293D01*
X73265269Y33790484D01*
X73265269Y34019055D01*
X73303364Y34095246D01*
X73341460Y34133341D01*
X73417650Y34171436D01*
X73570031Y34171436D01*
X73646222Y34133341D01*
X74027174Y33942865D02*
X74636698Y33942865D01*
X74979555Y33676198D02*
X75093841Y33638103D01*
X75284317Y33638103D01*
X75360507Y33676198D01*
X75398603Y33714293D01*
X75436698Y33790484D01*
X75436698Y33866674D01*
X75398603Y33942865D01*
X75360507Y33980960D01*
X75284317Y34019055D01*
X75131936Y34057150D01*
X75055745Y34095246D01*
X75017650Y34133341D01*
X74979555Y34209531D01*
X74979555Y34285722D01*
X75017650Y34361912D01*
X75055745Y34400007D01*
X75131936Y34438103D01*
X75322412Y34438103D01*
X75436698Y34400007D01*
X76198603Y33638103D02*
X75741460Y33638103D01*
X75970031Y33638103D02*
X75970031Y34438103D01*
X75893841Y34323817D01*
X75817650Y34247627D01*
X75741460Y34209531D01*
X77036698Y34438103D02*
X77303364Y33638103D01*
X77570031Y34438103D01*
X78255745Y33638103D02*
X77798603Y33638103D01*
X78027174Y33638103D02*
X78027174Y34438103D01*
X77950983Y34323817D01*
X77874793Y34247627D01*
X77798603Y34209531D01*
X78598603Y33714293D02*
X78636698Y33676198D01*
X78598603Y33638103D01*
X78560507Y33676198D01*
X78598603Y33714293D01*
X78598603Y33638103D01*
X79131936Y34438103D02*
X79208126Y34438103D01*
X79284317Y34400007D01*
X79322412Y34361912D01*
X79360507Y34285722D01*
X79398603Y34133341D01*
X79398603Y33942865D01*
X79360507Y33790484D01*
X79322412Y33714293D01*
X79284317Y33676198D01*
X79208126Y33638103D01*
X79131936Y33638103D01*
X79055745Y33676198D01*
X79017650Y33714293D01*
X78979555Y33790484D01*
X78941460Y33942865D01*
X78941460Y34133341D01*
X78979555Y34285722D01*
X79017650Y34361912D01*
X79055745Y34400007D01*
X79131936Y34438103D01*
X110836699Y34438103D02*
X110836699Y33790484D01*
X110874794Y33714293D01*
X110912889Y33676198D01*
X110989080Y33638103D01*
X111141461Y33638103D01*
X111217651Y33676198D01*
X111255746Y33714293D01*
X111293842Y33790484D01*
X111293842Y34438103D01*
X111674794Y34171436D02*
X111674794Y33638103D01*
X111674794Y34095246D02*
X111712889Y34133341D01*
X111789080Y34171436D01*
X111903365Y34171436D01*
X111979556Y34133341D01*
X112017651Y34057150D01*
X112017651Y33638103D01*
X112398604Y33638103D02*
X112398604Y34171436D01*
X112398604Y34438103D02*
X112360508Y34400007D01*
X112398604Y34361912D01*
X112436699Y34400007D01*
X112398604Y34438103D01*
X112398604Y34361912D01*
X112665270Y34171436D02*
X112970032Y34171436D01*
X112779556Y33638103D02*
X112779556Y34323817D01*
X112817651Y34400007D01*
X112893842Y34438103D01*
X112970032Y34438103D01*
X113236699Y33638103D02*
X113236699Y34171436D01*
X113236699Y34438103D02*
X113198604Y34400007D01*
X113236699Y34361912D01*
X113274794Y34400007D01*
X113236699Y34438103D01*
X113236699Y34361912D01*
X113922413Y33676198D02*
X113846223Y33638103D01*
X113693842Y33638103D01*
X113617651Y33676198D01*
X113579556Y33752388D01*
X113579556Y34057150D01*
X113617651Y34133341D01*
X113693842Y34171436D01*
X113846223Y34171436D01*
X113922413Y34133341D01*
X113960508Y34057150D01*
X113960508Y33980960D01*
X113579556Y33904769D01*
X114646223Y33638103D02*
X114646223Y34438103D01*
X114646223Y33676198D02*
X114570032Y33638103D01*
X114417651Y33638103D01*
X114341461Y33676198D01*
X114303365Y33714293D01*
X114265270Y33790484D01*
X114265270Y34019055D01*
X114303365Y34095246D01*
X114341461Y34133341D01*
X114417651Y34171436D01*
X114570032Y34171436D01*
X114646223Y34133341D01*
X115027175Y33942865D02*
X115636699Y33942865D01*
X115979556Y33676198D02*
X116093842Y33638103D01*
X116284318Y33638103D01*
X116360508Y33676198D01*
X116398604Y33714293D01*
X116436699Y33790484D01*
X116436699Y33866674D01*
X116398604Y33942865D01*
X116360508Y33980960D01*
X116284318Y34019055D01*
X116131937Y34057150D01*
X116055746Y34095246D01*
X116017651Y34133341D01*
X115979556Y34209531D01*
X115979556Y34285722D01*
X116017651Y34361912D01*
X116055746Y34400007D01*
X116131937Y34438103D01*
X116322413Y34438103D01*
X116436699Y34400007D01*
X117198604Y33638103D02*
X116741461Y33638103D01*
X116970032Y33638103D02*
X116970032Y34438103D01*
X116893842Y34323817D01*
X116817651Y34247627D01*
X116741461Y34209531D01*
X118036699Y34438103D02*
X118303365Y33638103D01*
X118570032Y34438103D01*
X119255746Y33638103D02*
X118798604Y33638103D01*
X119027175Y33638103D02*
X119027175Y34438103D01*
X118950984Y34323817D01*
X118874794Y34247627D01*
X118798604Y34209531D01*
X119598604Y33714293D02*
X119636699Y33676198D01*
X119598604Y33638103D01*
X119560508Y33676198D01*
X119598604Y33714293D01*
X119598604Y33638103D01*
X120131937Y34438103D02*
X120208127Y34438103D01*
X120284318Y34400007D01*
X120322413Y34361912D01*
X120360508Y34285722D01*
X120398604Y34133341D01*
X120398604Y33942865D01*
X120360508Y33790484D01*
X120322413Y33714293D01*
X120284318Y33676198D01*
X120208127Y33638103D01*
X120131937Y33638103D01*
X120055746Y33676198D01*
X120017651Y33714293D01*
X119979556Y33790484D01*
X119941461Y33942865D01*
X119941461Y34133341D01*
X119979556Y34285722D01*
X120017651Y34361912D01*
X120055746Y34400007D01*
X120131937Y34438103D01*
X28836697Y25438101D02*
X28836697Y24790482D01*
X28874792Y24714291D01*
X28912887Y24676196D01*
X28989078Y24638101D01*
X29141459Y24638101D01*
X29217649Y24676196D01*
X29255744Y24714291D01*
X29293840Y24790482D01*
X29293840Y25438101D01*
X29674792Y25171434D02*
X29674792Y24638101D01*
X29674792Y25095244D02*
X29712887Y25133339D01*
X29789078Y25171434D01*
X29903363Y25171434D01*
X29979554Y25133339D01*
X30017649Y25057148D01*
X30017649Y24638101D01*
X30398602Y24638101D02*
X30398602Y25171434D01*
X30398602Y25438101D02*
X30360506Y25400005D01*
X30398602Y25361910D01*
X30436697Y25400005D01*
X30398602Y25438101D01*
X30398602Y25361910D01*
X30665268Y25171434D02*
X30970030Y25171434D01*
X30779554Y24638101D02*
X30779554Y25323815D01*
X30817649Y25400005D01*
X30893840Y25438101D01*
X30970030Y25438101D01*
X31236697Y24638101D02*
X31236697Y25171434D01*
X31236697Y25438101D02*
X31198602Y25400005D01*
X31236697Y25361910D01*
X31274792Y25400005D01*
X31236697Y25438101D01*
X31236697Y25361910D01*
X31922411Y24676196D02*
X31846221Y24638101D01*
X31693840Y24638101D01*
X31617649Y24676196D01*
X31579554Y24752386D01*
X31579554Y25057148D01*
X31617649Y25133339D01*
X31693840Y25171434D01*
X31846221Y25171434D01*
X31922411Y25133339D01*
X31960506Y25057148D01*
X31960506Y24980958D01*
X31579554Y24904767D01*
X32646221Y24638101D02*
X32646221Y25438101D01*
X32646221Y24676196D02*
X32570030Y24638101D01*
X32417649Y24638101D01*
X32341459Y24676196D01*
X32303363Y24714291D01*
X32265268Y24790482D01*
X32265268Y25019053D01*
X32303363Y25095244D01*
X32341459Y25133339D01*
X32417649Y25171434D01*
X32570030Y25171434D01*
X32646221Y25133339D01*
X33027173Y24942863D02*
X33636697Y24942863D01*
X33979554Y24676196D02*
X34093840Y24638101D01*
X34284316Y24638101D01*
X34360506Y24676196D01*
X34398602Y24714291D01*
X34436697Y24790482D01*
X34436697Y24866672D01*
X34398602Y24942863D01*
X34360506Y24980958D01*
X34284316Y25019053D01*
X34131935Y25057148D01*
X34055744Y25095244D01*
X34017649Y25133339D01*
X33979554Y25209529D01*
X33979554Y25285720D01*
X34017649Y25361910D01*
X34055744Y25400005D01*
X34131935Y25438101D01*
X34322411Y25438101D01*
X34436697Y25400005D01*
X35198602Y24638101D02*
X34741459Y24638101D01*
X34970030Y24638101D02*
X34970030Y25438101D01*
X34893840Y25323815D01*
X34817649Y25247625D01*
X34741459Y25209529D01*
X36036697Y25438101D02*
X36303363Y24638101D01*
X36570030Y25438101D01*
X37255744Y24638101D02*
X36798602Y24638101D01*
X37027173Y24638101D02*
X37027173Y25438101D01*
X36950982Y25323815D01*
X36874792Y25247625D01*
X36798602Y25209529D01*
X37598602Y24714291D02*
X37636697Y24676196D01*
X37598602Y24638101D01*
X37560506Y24676196D01*
X37598602Y24714291D01*
X37598602Y24638101D01*
X38131935Y25438101D02*
X38208125Y25438101D01*
X38284316Y25400005D01*
X38322411Y25361910D01*
X38360506Y25285720D01*
X38398602Y25133339D01*
X38398602Y24942863D01*
X38360506Y24790482D01*
X38322411Y24714291D01*
X38284316Y24676196D01*
X38208125Y24638101D01*
X38131935Y24638101D01*
X38055744Y24676196D01*
X38017649Y24714291D01*
X37979554Y24790482D01*
X37941459Y24942863D01*
X37941459Y25133339D01*
X37979554Y25285720D01*
X38017649Y25361910D01*
X38055744Y25400005D01*
X38131935Y25438101D01*
X69836698Y25438101D02*
X69836698Y24790482D01*
X69874793Y24714291D01*
X69912888Y24676196D01*
X69989079Y24638101D01*
X70141460Y24638101D01*
X70217650Y24676196D01*
X70255745Y24714291D01*
X70293841Y24790482D01*
X70293841Y25438101D01*
X70674793Y25171434D02*
X70674793Y24638101D01*
X70674793Y25095244D02*
X70712888Y25133339D01*
X70789079Y25171434D01*
X70903364Y25171434D01*
X70979555Y25133339D01*
X71017650Y25057148D01*
X71017650Y24638101D01*
X71398603Y24638101D02*
X71398603Y25171434D01*
X71398603Y25438101D02*
X71360507Y25400005D01*
X71398603Y25361910D01*
X71436698Y25400005D01*
X71398603Y25438101D01*
X71398603Y25361910D01*
X71665269Y25171434D02*
X71970031Y25171434D01*
X71779555Y24638101D02*
X71779555Y25323815D01*
X71817650Y25400005D01*
X71893841Y25438101D01*
X71970031Y25438101D01*
X72236698Y24638101D02*
X72236698Y25171434D01*
X72236698Y25438101D02*
X72198603Y25400005D01*
X72236698Y25361910D01*
X72274793Y25400005D01*
X72236698Y25438101D01*
X72236698Y25361910D01*
X72922412Y24676196D02*
X72846222Y24638101D01*
X72693841Y24638101D01*
X72617650Y24676196D01*
X72579555Y24752386D01*
X72579555Y25057148D01*
X72617650Y25133339D01*
X72693841Y25171434D01*
X72846222Y25171434D01*
X72922412Y25133339D01*
X72960507Y25057148D01*
X72960507Y24980958D01*
X72579555Y24904767D01*
X73646222Y24638101D02*
X73646222Y25438101D01*
X73646222Y24676196D02*
X73570031Y24638101D01*
X73417650Y24638101D01*
X73341460Y24676196D01*
X73303364Y24714291D01*
X73265269Y24790482D01*
X73265269Y25019053D01*
X73303364Y25095244D01*
X73341460Y25133339D01*
X73417650Y25171434D01*
X73570031Y25171434D01*
X73646222Y25133339D01*
X74027174Y24942863D02*
X74636698Y24942863D01*
X74979555Y24676196D02*
X75093841Y24638101D01*
X75284317Y24638101D01*
X75360507Y24676196D01*
X75398603Y24714291D01*
X75436698Y24790482D01*
X75436698Y24866672D01*
X75398603Y24942863D01*
X75360507Y24980958D01*
X75284317Y25019053D01*
X75131936Y25057148D01*
X75055745Y25095244D01*
X75017650Y25133339D01*
X74979555Y25209529D01*
X74979555Y25285720D01*
X75017650Y25361910D01*
X75055745Y25400005D01*
X75131936Y25438101D01*
X75322412Y25438101D01*
X75436698Y25400005D01*
X76198603Y24638101D02*
X75741460Y24638101D01*
X75970031Y24638101D02*
X75970031Y25438101D01*
X75893841Y25323815D01*
X75817650Y25247625D01*
X75741460Y25209529D01*
X77036698Y25438101D02*
X77303364Y24638101D01*
X77570031Y25438101D01*
X78255745Y24638101D02*
X77798603Y24638101D01*
X78027174Y24638101D02*
X78027174Y25438101D01*
X77950983Y25323815D01*
X77874793Y25247625D01*
X77798603Y25209529D01*
X78598603Y24714291D02*
X78636698Y24676196D01*
X78598603Y24638101D01*
X78560507Y24676196D01*
X78598603Y24714291D01*
X78598603Y24638101D01*
X79131936Y25438101D02*
X79208126Y25438101D01*
X79284317Y25400005D01*
X79322412Y25361910D01*
X79360507Y25285720D01*
X79398603Y25133339D01*
X79398603Y24942863D01*
X79360507Y24790482D01*
X79322412Y24714291D01*
X79284317Y24676196D01*
X79208126Y24638101D01*
X79131936Y24638101D01*
X79055745Y24676196D01*
X79017650Y24714291D01*
X78979555Y24790482D01*
X78941460Y24942863D01*
X78941460Y25133339D01*
X78979555Y25285720D01*
X79017650Y25361910D01*
X79055745Y25400005D01*
X79131936Y25438101D01*
X110836699Y25438101D02*
X110836699Y24790482D01*
X110874794Y24714291D01*
X110912889Y24676196D01*
X110989080Y24638101D01*
X111141461Y24638101D01*
X111217651Y24676196D01*
X111255746Y24714291D01*
X111293842Y24790482D01*
X111293842Y25438101D01*
X111674794Y25171434D02*
X111674794Y24638101D01*
X111674794Y25095244D02*
X111712889Y25133339D01*
X111789080Y25171434D01*
X111903365Y25171434D01*
X111979556Y25133339D01*
X112017651Y25057148D01*
X112017651Y24638101D01*
X112398604Y24638101D02*
X112398604Y25171434D01*
X112398604Y25438101D02*
X112360508Y25400005D01*
X112398604Y25361910D01*
X112436699Y25400005D01*
X112398604Y25438101D01*
X112398604Y25361910D01*
X112665270Y25171434D02*
X112970032Y25171434D01*
X112779556Y24638101D02*
X112779556Y25323815D01*
X112817651Y25400005D01*
X112893842Y25438101D01*
X112970032Y25438101D01*
X113236699Y24638101D02*
X113236699Y25171434D01*
X113236699Y25438101D02*
X113198604Y25400005D01*
X113236699Y25361910D01*
X113274794Y25400005D01*
X113236699Y25438101D01*
X113236699Y25361910D01*
X113922413Y24676196D02*
X113846223Y24638101D01*
X113693842Y24638101D01*
X113617651Y24676196D01*
X113579556Y24752386D01*
X113579556Y25057148D01*
X113617651Y25133339D01*
X113693842Y25171434D01*
X113846223Y25171434D01*
X113922413Y25133339D01*
X113960508Y25057148D01*
X113960508Y24980958D01*
X113579556Y24904767D01*
X114646223Y24638101D02*
X114646223Y25438101D01*
X114646223Y24676196D02*
X114570032Y24638101D01*
X114417651Y24638101D01*
X114341461Y24676196D01*
X114303365Y24714291D01*
X114265270Y24790482D01*
X114265270Y25019053D01*
X114303365Y25095244D01*
X114341461Y25133339D01*
X114417651Y25171434D01*
X114570032Y25171434D01*
X114646223Y25133339D01*
X115027175Y24942863D02*
X115636699Y24942863D01*
X115979556Y24676196D02*
X116093842Y24638101D01*
X116284318Y24638101D01*
X116360508Y24676196D01*
X116398604Y24714291D01*
X116436699Y24790482D01*
X116436699Y24866672D01*
X116398604Y24942863D01*
X116360508Y24980958D01*
X116284318Y25019053D01*
X116131937Y25057148D01*
X116055746Y25095244D01*
X116017651Y25133339D01*
X115979556Y25209529D01*
X115979556Y25285720D01*
X116017651Y25361910D01*
X116055746Y25400005D01*
X116131937Y25438101D01*
X116322413Y25438101D01*
X116436699Y25400005D01*
X117198604Y24638101D02*
X116741461Y24638101D01*
X116970032Y24638101D02*
X116970032Y25438101D01*
X116893842Y25323815D01*
X116817651Y25247625D01*
X116741461Y25209529D01*
X118036699Y25438101D02*
X118303365Y24638101D01*
X118570032Y25438101D01*
X119255746Y24638101D02*
X118798604Y24638101D01*
X119027175Y24638101D02*
X119027175Y25438101D01*
X118950984Y25323815D01*
X118874794Y25247625D01*
X118798604Y25209529D01*
X119598604Y24714291D02*
X119636699Y24676196D01*
X119598604Y24638101D01*
X119560508Y24676196D01*
X119598604Y24714291D01*
X119598604Y24638101D01*
X120131937Y25438101D02*
X120208127Y25438101D01*
X120284318Y25400005D01*
X120322413Y25361910D01*
X120360508Y25285720D01*
X120398604Y25133339D01*
X120398604Y24942863D01*
X120360508Y24790482D01*
X120322413Y24714291D01*
X120284318Y24676196D01*
X120208127Y24638101D01*
X120131937Y24638101D01*
X120055746Y24676196D01*
X120017651Y24714291D01*
X119979556Y24790482D01*
X119941461Y24942863D01*
X119941461Y25133339D01*
X119979556Y25285720D01*
X120017651Y25361910D01*
X120055746Y25400005D01*
X120131937Y25438101D01*
X28836697Y16438099D02*
X28836697Y15790480D01*
X28874792Y15714289D01*
X28912887Y15676194D01*
X28989078Y15638099D01*
X29141459Y15638099D01*
X29217649Y15676194D01*
X29255744Y15714289D01*
X29293840Y15790480D01*
X29293840Y16438099D01*
X29674792Y16171432D02*
X29674792Y15638099D01*
X29674792Y16095242D02*
X29712887Y16133337D01*
X29789078Y16171432D01*
X29903363Y16171432D01*
X29979554Y16133337D01*
X30017649Y16057146D01*
X30017649Y15638099D01*
X30398602Y15638099D02*
X30398602Y16171432D01*
X30398602Y16438099D02*
X30360506Y16400003D01*
X30398602Y16361908D01*
X30436697Y16400003D01*
X30398602Y16438099D01*
X30398602Y16361908D01*
X30665268Y16171432D02*
X30970030Y16171432D01*
X30779554Y15638099D02*
X30779554Y16323813D01*
X30817649Y16400003D01*
X30893840Y16438099D01*
X30970030Y16438099D01*
X31236697Y15638099D02*
X31236697Y16171432D01*
X31236697Y16438099D02*
X31198602Y16400003D01*
X31236697Y16361908D01*
X31274792Y16400003D01*
X31236697Y16438099D01*
X31236697Y16361908D01*
X31922411Y15676194D02*
X31846221Y15638099D01*
X31693840Y15638099D01*
X31617649Y15676194D01*
X31579554Y15752384D01*
X31579554Y16057146D01*
X31617649Y16133337D01*
X31693840Y16171432D01*
X31846221Y16171432D01*
X31922411Y16133337D01*
X31960506Y16057146D01*
X31960506Y15980956D01*
X31579554Y15904765D01*
X32646221Y15638099D02*
X32646221Y16438099D01*
X32646221Y15676194D02*
X32570030Y15638099D01*
X32417649Y15638099D01*
X32341459Y15676194D01*
X32303363Y15714289D01*
X32265268Y15790480D01*
X32265268Y16019051D01*
X32303363Y16095242D01*
X32341459Y16133337D01*
X32417649Y16171432D01*
X32570030Y16171432D01*
X32646221Y16133337D01*
X33027173Y15942861D02*
X33636697Y15942861D01*
X33979554Y15676194D02*
X34093840Y15638099D01*
X34284316Y15638099D01*
X34360506Y15676194D01*
X34398602Y15714289D01*
X34436697Y15790480D01*
X34436697Y15866670D01*
X34398602Y15942861D01*
X34360506Y15980956D01*
X34284316Y16019051D01*
X34131935Y16057146D01*
X34055744Y16095242D01*
X34017649Y16133337D01*
X33979554Y16209527D01*
X33979554Y16285718D01*
X34017649Y16361908D01*
X34055744Y16400003D01*
X34131935Y16438099D01*
X34322411Y16438099D01*
X34436697Y16400003D01*
X35198602Y15638099D02*
X34741459Y15638099D01*
X34970030Y15638099D02*
X34970030Y16438099D01*
X34893840Y16323813D01*
X34817649Y16247623D01*
X34741459Y16209527D01*
X36036697Y16438099D02*
X36303363Y15638099D01*
X36570030Y16438099D01*
X37255744Y15638099D02*
X36798602Y15638099D01*
X37027173Y15638099D02*
X37027173Y16438099D01*
X36950982Y16323813D01*
X36874792Y16247623D01*
X36798602Y16209527D01*
X37598602Y15714289D02*
X37636697Y15676194D01*
X37598602Y15638099D01*
X37560506Y15676194D01*
X37598602Y15714289D01*
X37598602Y15638099D01*
X38131935Y16438099D02*
X38208125Y16438099D01*
X38284316Y16400003D01*
X38322411Y16361908D01*
X38360506Y16285718D01*
X38398602Y16133337D01*
X38398602Y15942861D01*
X38360506Y15790480D01*
X38322411Y15714289D01*
X38284316Y15676194D01*
X38208125Y15638099D01*
X38131935Y15638099D01*
X38055744Y15676194D01*
X38017649Y15714289D01*
X37979554Y15790480D01*
X37941459Y15942861D01*
X37941459Y16133337D01*
X37979554Y16285718D01*
X38017649Y16361908D01*
X38055744Y16400003D01*
X38131935Y16438099D01*
X69836698Y16438099D02*
X69836698Y15790480D01*
X69874793Y15714289D01*
X69912888Y15676194D01*
X69989079Y15638099D01*
X70141460Y15638099D01*
X70217650Y15676194D01*
X70255745Y15714289D01*
X70293841Y15790480D01*
X70293841Y16438099D01*
X70674793Y16171432D02*
X70674793Y15638099D01*
X70674793Y16095242D02*
X70712888Y16133337D01*
X70789079Y16171432D01*
X70903364Y16171432D01*
X70979555Y16133337D01*
X71017650Y16057146D01*
X71017650Y15638099D01*
X71398603Y15638099D02*
X71398603Y16171432D01*
X71398603Y16438099D02*
X71360507Y16400003D01*
X71398603Y16361908D01*
X71436698Y16400003D01*
X71398603Y16438099D01*
X71398603Y16361908D01*
X71665269Y16171432D02*
X71970031Y16171432D01*
X71779555Y15638099D02*
X71779555Y16323813D01*
X71817650Y16400003D01*
X71893841Y16438099D01*
X71970031Y16438099D01*
X72236698Y15638099D02*
X72236698Y16171432D01*
X72236698Y16438099D02*
X72198603Y16400003D01*
X72236698Y16361908D01*
X72274793Y16400003D01*
X72236698Y16438099D01*
X72236698Y16361908D01*
X72922412Y15676194D02*
X72846222Y15638099D01*
X72693841Y15638099D01*
X72617650Y15676194D01*
X72579555Y15752384D01*
X72579555Y16057146D01*
X72617650Y16133337D01*
X72693841Y16171432D01*
X72846222Y16171432D01*
X72922412Y16133337D01*
X72960507Y16057146D01*
X72960507Y15980956D01*
X72579555Y15904765D01*
X73646222Y15638099D02*
X73646222Y16438099D01*
X73646222Y15676194D02*
X73570031Y15638099D01*
X73417650Y15638099D01*
X73341460Y15676194D01*
X73303364Y15714289D01*
X73265269Y15790480D01*
X73265269Y16019051D01*
X73303364Y16095242D01*
X73341460Y16133337D01*
X73417650Y16171432D01*
X73570031Y16171432D01*
X73646222Y16133337D01*
X74027174Y15942861D02*
X74636698Y15942861D01*
X74979555Y15676194D02*
X75093841Y15638099D01*
X75284317Y15638099D01*
X75360507Y15676194D01*
X75398603Y15714289D01*
X75436698Y15790480D01*
X75436698Y15866670D01*
X75398603Y15942861D01*
X75360507Y15980956D01*
X75284317Y16019051D01*
X75131936Y16057146D01*
X75055745Y16095242D01*
X75017650Y16133337D01*
X74979555Y16209527D01*
X74979555Y16285718D01*
X75017650Y16361908D01*
X75055745Y16400003D01*
X75131936Y16438099D01*
X75322412Y16438099D01*
X75436698Y16400003D01*
X76198603Y15638099D02*
X75741460Y15638099D01*
X75970031Y15638099D02*
X75970031Y16438099D01*
X75893841Y16323813D01*
X75817650Y16247623D01*
X75741460Y16209527D01*
X77036698Y16438099D02*
X77303364Y15638099D01*
X77570031Y16438099D01*
X78255745Y15638099D02*
X77798603Y15638099D01*
X78027174Y15638099D02*
X78027174Y16438099D01*
X77950983Y16323813D01*
X77874793Y16247623D01*
X77798603Y16209527D01*
X78598603Y15714289D02*
X78636698Y15676194D01*
X78598603Y15638099D01*
X78560507Y15676194D01*
X78598603Y15714289D01*
X78598603Y15638099D01*
X79131936Y16438099D02*
X79208126Y16438099D01*
X79284317Y16400003D01*
X79322412Y16361908D01*
X79360507Y16285718D01*
X79398603Y16133337D01*
X79398603Y15942861D01*
X79360507Y15790480D01*
X79322412Y15714289D01*
X79284317Y15676194D01*
X79208126Y15638099D01*
X79131936Y15638099D01*
X79055745Y15676194D01*
X79017650Y15714289D01*
X78979555Y15790480D01*
X78941460Y15942861D01*
X78941460Y16133337D01*
X78979555Y16285718D01*
X79017650Y16361908D01*
X79055745Y16400003D01*
X79131936Y16438099D01*
X110836699Y16438099D02*
X110836699Y15790480D01*
X110874794Y15714289D01*
X110912889Y15676194D01*
X110989080Y15638099D01*
X111141461Y15638099D01*
X111217651Y15676194D01*
X111255746Y15714289D01*
X111293842Y15790480D01*
X111293842Y16438099D01*
X111674794Y16171432D02*
X111674794Y15638099D01*
X111674794Y16095242D02*
X111712889Y16133337D01*
X111789080Y16171432D01*
X111903365Y16171432D01*
X111979556Y16133337D01*
X112017651Y16057146D01*
X112017651Y15638099D01*
X112398604Y15638099D02*
X112398604Y16171432D01*
X112398604Y16438099D02*
X112360508Y16400003D01*
X112398604Y16361908D01*
X112436699Y16400003D01*
X112398604Y16438099D01*
X112398604Y16361908D01*
X112665270Y16171432D02*
X112970032Y16171432D01*
X112779556Y15638099D02*
X112779556Y16323813D01*
X112817651Y16400003D01*
X112893842Y16438099D01*
X112970032Y16438099D01*
X113236699Y15638099D02*
X113236699Y16171432D01*
X113236699Y16438099D02*
X113198604Y16400003D01*
X113236699Y16361908D01*
X113274794Y16400003D01*
X113236699Y16438099D01*
X113236699Y16361908D01*
X113922413Y15676194D02*
X113846223Y15638099D01*
X113693842Y15638099D01*
X113617651Y15676194D01*
X113579556Y15752384D01*
X113579556Y16057146D01*
X113617651Y16133337D01*
X113693842Y16171432D01*
X113846223Y16171432D01*
X113922413Y16133337D01*
X113960508Y16057146D01*
X113960508Y15980956D01*
X113579556Y15904765D01*
X114646223Y15638099D02*
X114646223Y16438099D01*
X114646223Y15676194D02*
X114570032Y15638099D01*
X114417651Y15638099D01*
X114341461Y15676194D01*
X114303365Y15714289D01*
X114265270Y15790480D01*
X114265270Y16019051D01*
X114303365Y16095242D01*
X114341461Y16133337D01*
X114417651Y16171432D01*
X114570032Y16171432D01*
X114646223Y16133337D01*
X115027175Y15942861D02*
X115636699Y15942861D01*
X115979556Y15676194D02*
X116093842Y15638099D01*
X116284318Y15638099D01*
X116360508Y15676194D01*
X116398604Y15714289D01*
X116436699Y15790480D01*
X116436699Y15866670D01*
X116398604Y15942861D01*
X116360508Y15980956D01*
X116284318Y16019051D01*
X116131937Y16057146D01*
X116055746Y16095242D01*
X116017651Y16133337D01*
X115979556Y16209527D01*
X115979556Y16285718D01*
X116017651Y16361908D01*
X116055746Y16400003D01*
X116131937Y16438099D01*
X116322413Y16438099D01*
X116436699Y16400003D01*
X117198604Y15638099D02*
X116741461Y15638099D01*
X116970032Y15638099D02*
X116970032Y16438099D01*
X116893842Y16323813D01*
X116817651Y16247623D01*
X116741461Y16209527D01*
X118036699Y16438099D02*
X118303365Y15638099D01*
X118570032Y16438099D01*
X119255746Y15638099D02*
X118798604Y15638099D01*
X119027175Y15638099D02*
X119027175Y16438099D01*
X118950984Y16323813D01*
X118874794Y16247623D01*
X118798604Y16209527D01*
X119598604Y15714289D02*
X119636699Y15676194D01*
X119598604Y15638099D01*
X119560508Y15676194D01*
X119598604Y15714289D01*
X119598604Y15638099D01*
X120131937Y16438099D02*
X120208127Y16438099D01*
X120284318Y16400003D01*
X120322413Y16361908D01*
X120360508Y16285718D01*
X120398604Y16133337D01*
X120398604Y15942861D01*
X120360508Y15790480D01*
X120322413Y15714289D01*
X120284318Y15676194D01*
X120208127Y15638099D01*
X120131937Y15638099D01*
X120055746Y15676194D01*
X120017651Y15714289D01*
X119979556Y15790480D01*
X119941461Y15942861D01*
X119941461Y16133337D01*
X119979556Y16285718D01*
X120017651Y16361908D01*
X120055746Y16400003D01*
X120131937Y16438099D01*
X28836697Y7438097D02*
X28836697Y6790478D01*
X28874792Y6714287D01*
X28912887Y6676192D01*
X28989078Y6638097D01*
X29141459Y6638097D01*
X29217649Y6676192D01*
X29255744Y6714287D01*
X29293840Y6790478D01*
X29293840Y7438097D01*
X29674792Y7171430D02*
X29674792Y6638097D01*
X29674792Y7095240D02*
X29712887Y7133335D01*
X29789078Y7171430D01*
X29903363Y7171430D01*
X29979554Y7133335D01*
X30017649Y7057144D01*
X30017649Y6638097D01*
X30398602Y6638097D02*
X30398602Y7171430D01*
X30398602Y7438097D02*
X30360506Y7400001D01*
X30398602Y7361906D01*
X30436697Y7400001D01*
X30398602Y7438097D01*
X30398602Y7361906D01*
X30665268Y7171430D02*
X30970030Y7171430D01*
X30779554Y6638097D02*
X30779554Y7323811D01*
X30817649Y7400001D01*
X30893840Y7438097D01*
X30970030Y7438097D01*
X31236697Y6638097D02*
X31236697Y7171430D01*
X31236697Y7438097D02*
X31198602Y7400001D01*
X31236697Y7361906D01*
X31274792Y7400001D01*
X31236697Y7438097D01*
X31236697Y7361906D01*
X31922411Y6676192D02*
X31846221Y6638097D01*
X31693840Y6638097D01*
X31617649Y6676192D01*
X31579554Y6752382D01*
X31579554Y7057144D01*
X31617649Y7133335D01*
X31693840Y7171430D01*
X31846221Y7171430D01*
X31922411Y7133335D01*
X31960506Y7057144D01*
X31960506Y6980954D01*
X31579554Y6904763D01*
X32646221Y6638097D02*
X32646221Y7438097D01*
X32646221Y6676192D02*
X32570030Y6638097D01*
X32417649Y6638097D01*
X32341459Y6676192D01*
X32303363Y6714287D01*
X32265268Y6790478D01*
X32265268Y7019049D01*
X32303363Y7095240D01*
X32341459Y7133335D01*
X32417649Y7171430D01*
X32570030Y7171430D01*
X32646221Y7133335D01*
X33027173Y6942859D02*
X33636697Y6942859D01*
X33979554Y6676192D02*
X34093840Y6638097D01*
X34284316Y6638097D01*
X34360506Y6676192D01*
X34398602Y6714287D01*
X34436697Y6790478D01*
X34436697Y6866668D01*
X34398602Y6942859D01*
X34360506Y6980954D01*
X34284316Y7019049D01*
X34131935Y7057144D01*
X34055744Y7095240D01*
X34017649Y7133335D01*
X33979554Y7209525D01*
X33979554Y7285716D01*
X34017649Y7361906D01*
X34055744Y7400001D01*
X34131935Y7438097D01*
X34322411Y7438097D01*
X34436697Y7400001D01*
X35198602Y6638097D02*
X34741459Y6638097D01*
X34970030Y6638097D02*
X34970030Y7438097D01*
X34893840Y7323811D01*
X34817649Y7247621D01*
X34741459Y7209525D01*
X36036697Y7438097D02*
X36303363Y6638097D01*
X36570030Y7438097D01*
X37255744Y6638097D02*
X36798602Y6638097D01*
X37027173Y6638097D02*
X37027173Y7438097D01*
X36950982Y7323811D01*
X36874792Y7247621D01*
X36798602Y7209525D01*
X37598602Y6714287D02*
X37636697Y6676192D01*
X37598602Y6638097D01*
X37560506Y6676192D01*
X37598602Y6714287D01*
X37598602Y6638097D01*
X38131935Y7438097D02*
X38208125Y7438097D01*
X38284316Y7400001D01*
X38322411Y7361906D01*
X38360506Y7285716D01*
X38398602Y7133335D01*
X38398602Y6942859D01*
X38360506Y6790478D01*
X38322411Y6714287D01*
X38284316Y6676192D01*
X38208125Y6638097D01*
X38131935Y6638097D01*
X38055744Y6676192D01*
X38017649Y6714287D01*
X37979554Y6790478D01*
X37941459Y6942859D01*
X37941459Y7133335D01*
X37979554Y7285716D01*
X38017649Y7361906D01*
X38055744Y7400001D01*
X38131935Y7438097D01*
X69836698Y7438097D02*
X69836698Y6790478D01*
X69874793Y6714287D01*
X69912888Y6676192D01*
X69989079Y6638097D01*
X70141460Y6638097D01*
X70217650Y6676192D01*
X70255745Y6714287D01*
X70293841Y6790478D01*
X70293841Y7438097D01*
X70674793Y7171430D02*
X70674793Y6638097D01*
X70674793Y7095240D02*
X70712888Y7133335D01*
X70789079Y7171430D01*
X70903364Y7171430D01*
X70979555Y7133335D01*
X71017650Y7057144D01*
X71017650Y6638097D01*
X71398603Y6638097D02*
X71398603Y7171430D01*
X71398603Y7438097D02*
X71360507Y7400001D01*
X71398603Y7361906D01*
X71436698Y7400001D01*
X71398603Y7438097D01*
X71398603Y7361906D01*
X71665269Y7171430D02*
X71970031Y7171430D01*
X71779555Y6638097D02*
X71779555Y7323811D01*
X71817650Y7400001D01*
X71893841Y7438097D01*
X71970031Y7438097D01*
X72236698Y6638097D02*
X72236698Y7171430D01*
X72236698Y7438097D02*
X72198603Y7400001D01*
X72236698Y7361906D01*
X72274793Y7400001D01*
X72236698Y7438097D01*
X72236698Y7361906D01*
X72922412Y6676192D02*
X72846222Y6638097D01*
X72693841Y6638097D01*
X72617650Y6676192D01*
X72579555Y6752382D01*
X72579555Y7057144D01*
X72617650Y7133335D01*
X72693841Y7171430D01*
X72846222Y7171430D01*
X72922412Y7133335D01*
X72960507Y7057144D01*
X72960507Y6980954D01*
X72579555Y6904763D01*
X73646222Y6638097D02*
X73646222Y7438097D01*
X73646222Y6676192D02*
X73570031Y6638097D01*
X73417650Y6638097D01*
X73341460Y6676192D01*
X73303364Y6714287D01*
X73265269Y6790478D01*
X73265269Y7019049D01*
X73303364Y7095240D01*
X73341460Y7133335D01*
X73417650Y7171430D01*
X73570031Y7171430D01*
X73646222Y7133335D01*
X74027174Y6942859D02*
X74636698Y6942859D01*
X74979555Y6676192D02*
X75093841Y6638097D01*
X75284317Y6638097D01*
X75360507Y6676192D01*
X75398603Y6714287D01*
X75436698Y6790478D01*
X75436698Y6866668D01*
X75398603Y6942859D01*
X75360507Y6980954D01*
X75284317Y7019049D01*
X75131936Y7057144D01*
X75055745Y7095240D01*
X75017650Y7133335D01*
X74979555Y7209525D01*
X74979555Y7285716D01*
X75017650Y7361906D01*
X75055745Y7400001D01*
X75131936Y7438097D01*
X75322412Y7438097D01*
X75436698Y7400001D01*
X76198603Y6638097D02*
X75741460Y6638097D01*
X75970031Y6638097D02*
X75970031Y7438097D01*
X75893841Y7323811D01*
X75817650Y7247621D01*
X75741460Y7209525D01*
X77036698Y7438097D02*
X77303364Y6638097D01*
X77570031Y7438097D01*
X78255745Y6638097D02*
X77798603Y6638097D01*
X78027174Y6638097D02*
X78027174Y7438097D01*
X77950983Y7323811D01*
X77874793Y7247621D01*
X77798603Y7209525D01*
X78598603Y6714287D02*
X78636698Y6676192D01*
X78598603Y6638097D01*
X78560507Y6676192D01*
X78598603Y6714287D01*
X78598603Y6638097D01*
X79131936Y7438097D02*
X79208126Y7438097D01*
X79284317Y7400001D01*
X79322412Y7361906D01*
X79360507Y7285716D01*
X79398603Y7133335D01*
X79398603Y6942859D01*
X79360507Y6790478D01*
X79322412Y6714287D01*
X79284317Y6676192D01*
X79208126Y6638097D01*
X79131936Y6638097D01*
X79055745Y6676192D01*
X79017650Y6714287D01*
X78979555Y6790478D01*
X78941460Y6942859D01*
X78941460Y7133335D01*
X78979555Y7285716D01*
X79017650Y7361906D01*
X79055745Y7400001D01*
X79131936Y7438097D01*
X110836699Y7438097D02*
X110836699Y6790478D01*
X110874794Y6714287D01*
X110912889Y6676192D01*
X110989080Y6638097D01*
X111141461Y6638097D01*
X111217651Y6676192D01*
X111255746Y6714287D01*
X111293842Y6790478D01*
X111293842Y7438097D01*
X111674794Y7171430D02*
X111674794Y6638097D01*
X111674794Y7095240D02*
X111712889Y7133335D01*
X111789080Y7171430D01*
X111903365Y7171430D01*
X111979556Y7133335D01*
X112017651Y7057144D01*
X112017651Y6638097D01*
X112398604Y6638097D02*
X112398604Y7171430D01*
X112398604Y7438097D02*
X112360508Y7400001D01*
X112398604Y7361906D01*
X112436699Y7400001D01*
X112398604Y7438097D01*
X112398604Y7361906D01*
X112665270Y7171430D02*
X112970032Y7171430D01*
X112779556Y6638097D02*
X112779556Y7323811D01*
X112817651Y7400001D01*
X112893842Y7438097D01*
X112970032Y7438097D01*
X113236699Y6638097D02*
X113236699Y7171430D01*
X113236699Y7438097D02*
X113198604Y7400001D01*
X113236699Y7361906D01*
X113274794Y7400001D01*
X113236699Y7438097D01*
X113236699Y7361906D01*
X113922413Y6676192D02*
X113846223Y6638097D01*
X113693842Y6638097D01*
X113617651Y6676192D01*
X113579556Y6752382D01*
X113579556Y7057144D01*
X113617651Y7133335D01*
X113693842Y7171430D01*
X113846223Y7171430D01*
X113922413Y7133335D01*
X113960508Y7057144D01*
X113960508Y6980954D01*
X113579556Y6904763D01*
X114646223Y6638097D02*
X114646223Y7438097D01*
X114646223Y6676192D02*
X114570032Y6638097D01*
X114417651Y6638097D01*
X114341461Y6676192D01*
X114303365Y6714287D01*
X114265270Y6790478D01*
X114265270Y7019049D01*
X114303365Y7095240D01*
X114341461Y7133335D01*
X114417651Y7171430D01*
X114570032Y7171430D01*
X114646223Y7133335D01*
X115027175Y6942859D02*
X115636699Y6942859D01*
X115979556Y6676192D02*
X116093842Y6638097D01*
X116284318Y6638097D01*
X116360508Y6676192D01*
X116398604Y6714287D01*
X116436699Y6790478D01*
X116436699Y6866668D01*
X116398604Y6942859D01*
X116360508Y6980954D01*
X116284318Y7019049D01*
X116131937Y7057144D01*
X116055746Y7095240D01*
X116017651Y7133335D01*
X115979556Y7209525D01*
X115979556Y7285716D01*
X116017651Y7361906D01*
X116055746Y7400001D01*
X116131937Y7438097D01*
X116322413Y7438097D01*
X116436699Y7400001D01*
X117198604Y6638097D02*
X116741461Y6638097D01*
X116970032Y6638097D02*
X116970032Y7438097D01*
X116893842Y7323811D01*
X116817651Y7247621D01*
X116741461Y7209525D01*
X118036699Y7438097D02*
X118303365Y6638097D01*
X118570032Y7438097D01*
X119255746Y6638097D02*
X118798604Y6638097D01*
X119027175Y6638097D02*
X119027175Y7438097D01*
X118950984Y7323811D01*
X118874794Y7247621D01*
X118798604Y7209525D01*
X119598604Y6714287D02*
X119636699Y6676192D01*
X119598604Y6638097D01*
X119560508Y6676192D01*
X119598604Y6714287D01*
X119598604Y6638097D01*
X120131937Y7438097D02*
X120208127Y7438097D01*
X120284318Y7400001D01*
X120322413Y7361906D01*
X120360508Y7285716D01*
X120398604Y7133335D01*
X120398604Y6942859D01*
X120360508Y6790478D01*
X120322413Y6714287D01*
X120284318Y6676192D01*
X120208127Y6638097D01*
X120131937Y6638097D01*
X120055746Y6676192D01*
X120017651Y6714287D01*
X119979556Y6790478D01*
X119941461Y6942859D01*
X119941461Y7133335D01*
X119979556Y7285716D01*
X120017651Y7361906D01*
X120055746Y7400001D01*
X120131937Y7438097D01*
D13*
G04 #@! TO.C,R1*
X26137352Y74023874D02*
X26137352Y74331156D01*
X26897352Y74023874D02*
X26897352Y74331156D01*
G04 #@! TO.C,R2*
X24937352Y74331156D02*
X24937352Y74023874D01*
X25697352Y74331156D02*
X25697352Y74023874D01*
X24937352Y92331160D02*
X24937352Y92023878D01*
X25697352Y92331160D02*
X25697352Y92023878D01*
G04 #@! TO.C,R1*
X26137352Y83023876D02*
X26137352Y83331158D01*
X26897352Y83023876D02*
X26897352Y83331158D01*
G04 #@! TO.C,R2*
X24937352Y17331144D02*
X24937352Y17023862D01*
X25697352Y17331144D02*
X25697352Y17023862D01*
D14*
G04 #@! TO.C,U1*
X20917352Y79677515D02*
G75*
G03*
X20917352Y79677515I0J0D01*
G01*
D13*
G04 #@! TO.C,F1*
X104527354Y92075455D02*
X104527354Y93279583D01*
X102707354Y92075455D02*
X102707354Y93279583D01*
G04 #@! TO.C,J2*
X14098602Y37600007D02*
X13198602Y37600007D01*
X14498602Y33500007D02*
X13998602Y33500007D01*
X19798602Y37600007D02*
X18898602Y37600007D01*
X18898602Y38000007D02*
X19798602Y38000007D01*
X17948602Y34200007D02*
X15048602Y34200007D01*
X18498602Y33500007D02*
X17948602Y34200007D01*
X18498602Y33500007D02*
X18998602Y33500007D01*
X15048602Y34200007D02*
X14498602Y33500007D01*
X13198602Y38000007D02*
X14098602Y38000007D01*
X19798602Y38000007D02*
X19798602Y34600007D01*
X13198602Y38000007D02*
X13198602Y34600007D01*
X14840023Y37041428D02*
G75*
G03*
X14840023Y37041428I-141421J0D01*
G01*
G04 #@! TO.C,R2*
X24937352Y8331142D02*
X24937352Y8023860D01*
X25697352Y8331142D02*
X25697352Y8023860D01*
G04 #@! TO.C,R1*
X67137353Y8023860D02*
X67137353Y8331142D01*
X67897353Y8023860D02*
X67897353Y8331142D01*
X67897353Y35023866D02*
X67897353Y35331148D01*
X67137353Y35023866D02*
X67137353Y35331148D01*
G04 #@! TO.C,FB1*
X26657352Y79377137D02*
X26657352Y78577893D01*
X27777352Y79377137D02*
X27777352Y78577893D01*
X68777353Y88377139D02*
X68777353Y87577895D01*
X67657353Y88377139D02*
X67657353Y87577895D01*
G04 #@! TO.C,R2*
X24937352Y83331158D02*
X24937352Y83023876D01*
X25697352Y83331158D02*
X25697352Y83023876D01*
G04 #@! TO.C,D1*
X65417353Y74477515D02*
X65417353Y72627515D01*
X64217353Y72627515D02*
X65417353Y72627515D01*
X64217353Y74477515D02*
X64217353Y72627515D01*
G04 #@! TO.C,J2*
X13198602Y77000015D02*
X13198602Y73600015D01*
X19798602Y76600015D02*
X18898602Y76600015D01*
X14498602Y72500015D02*
X13998602Y72500015D01*
X15048602Y73200015D02*
X14498602Y72500015D01*
X18898602Y77000015D02*
X19798602Y77000015D01*
X18498602Y72500015D02*
X18998602Y72500015D01*
X13198602Y77000015D02*
X14098602Y77000015D01*
X18498602Y72500015D02*
X17948602Y73200015D01*
X17948602Y73200015D02*
X15048602Y73200015D01*
X19798602Y77000015D02*
X19798602Y73600015D01*
X14098602Y76600015D02*
X13198602Y76600015D01*
X14840023Y76041436D02*
G75*
G03*
X14840023Y76041436I-141421J0D01*
G01*
G04 #@! TO.C,R1*
X67137353Y92023878D02*
X67137353Y92331160D01*
X67897353Y92023878D02*
X67897353Y92331160D01*
G04 #@! TO.C,R2*
X107697354Y92331160D02*
X107697354Y92023878D01*
X106937354Y92331160D02*
X106937354Y92023878D01*
G04 #@! TO.C,FB1*
X108657354Y22377125D02*
X108657354Y21577881D01*
X109777354Y22377125D02*
X109777354Y21577881D01*
X27777352Y49377131D02*
X27777352Y48577887D01*
X26657352Y49377131D02*
X26657352Y48577887D01*
D14*
G04 #@! TO.C,U1*
X61917353Y31677505D02*
G75*
G03*
X61917353Y31677505I0J0D01*
G01*
D13*
G04 #@! TO.C,F1*
X63527353Y65075449D02*
X63527353Y66279577D01*
X61707353Y65075449D02*
X61707353Y66279577D01*
X104527354Y83075453D02*
X104527354Y84279581D01*
X102707354Y83075453D02*
X102707354Y84279581D01*
D14*
G04 #@! TO.C,U1*
X102917354Y22677503D02*
G75*
G03*
X102917354Y22677503I0J0D01*
G01*
X102917354Y88677517D02*
G75*
G03*
X102917354Y88677517I0J0D01*
G01*
D13*
G04 #@! TO.C,D1*
X64217353Y54627511D02*
X65417353Y54627511D01*
X64217353Y56477511D02*
X64217353Y54627511D01*
X65417353Y56477511D02*
X65417353Y54627511D01*
G04 #@! TO.C,J2*
X95198604Y47000009D02*
X95198604Y43600009D01*
X99948604Y43200009D02*
X97048604Y43200009D01*
X100498604Y42500009D02*
X99948604Y43200009D01*
X97048604Y43200009D02*
X96498604Y42500009D01*
X95198604Y47000009D02*
X96098604Y47000009D01*
X96498604Y42500009D02*
X95998604Y42500009D01*
X96098604Y46600009D02*
X95198604Y46600009D01*
X101798604Y47000009D02*
X101798604Y43600009D01*
X101798604Y46600009D02*
X100898604Y46600009D01*
X100498604Y42500009D02*
X100998604Y42500009D01*
X100898604Y47000009D02*
X101798604Y47000009D01*
X96840025Y46041430D02*
G75*
G03*
X96840025Y46041430I-141421J0D01*
G01*
G04 #@! TO.C,D1*
X105217354Y92477519D02*
X105217354Y90627519D01*
X106417354Y92477519D02*
X106417354Y90627519D01*
X105217354Y90627519D02*
X106417354Y90627519D01*
G04 #@! TO.C,R2*
X65937353Y44331150D02*
X65937353Y44023868D01*
X66697353Y44331150D02*
X66697353Y44023868D01*
G04 #@! TO.C,F1*
X20707352Y8075437D02*
X20707352Y9279565D01*
X22527352Y8075437D02*
X22527352Y9279565D01*
G04 #@! TO.C,J2*
X18498602Y15500003D02*
X18998602Y15500003D01*
X19798602Y20000003D02*
X19798602Y16600003D01*
X17948602Y16200003D02*
X15048602Y16200003D01*
X13198602Y20000003D02*
X13198602Y16600003D01*
X15048602Y16200003D02*
X14498602Y15500003D01*
X13198602Y20000003D02*
X14098602Y20000003D01*
X18898602Y20000003D02*
X19798602Y20000003D01*
X18498602Y15500003D02*
X17948602Y16200003D01*
X14098602Y19600003D02*
X13198602Y19600003D01*
X14498602Y15500003D02*
X13998602Y15500003D01*
X19798602Y19600003D02*
X18898602Y19600003D01*
X14840023Y19041424D02*
G75*
G03*
X14840023Y19041424I-141421J0D01*
G01*
G04 #@! TO.C,R2*
X66697353Y56331152D02*
X66697353Y56023870D01*
X65937353Y56331152D02*
X65937353Y56023870D01*
G04 #@! TO.C,R1*
X26137352Y8023860D02*
X26137352Y8331142D01*
X26897352Y8023860D02*
X26897352Y8331142D01*
G04 #@! TO.C,F1*
X20707352Y44075445D02*
X20707352Y45279573D01*
X22527352Y44075445D02*
X22527352Y45279573D01*
G04 #@! TO.C,R2*
X65937353Y35331148D02*
X65937353Y35023866D01*
X66697353Y35331148D02*
X66697353Y35023866D01*
X24937352Y44331150D02*
X24937352Y44023868D01*
X25697352Y44331150D02*
X25697352Y44023868D01*
G04 #@! TO.C,J2*
X18498602Y54500011D02*
X18998602Y54500011D01*
X14098602Y58600011D02*
X13198602Y58600011D01*
X18898602Y59000011D02*
X19798602Y59000011D01*
X13198602Y59000011D02*
X14098602Y59000011D01*
X15048602Y55200011D02*
X14498602Y54500011D01*
X18498602Y54500011D02*
X17948602Y55200011D01*
X13198602Y59000011D02*
X13198602Y55600011D01*
X19798602Y59000011D02*
X19798602Y55600011D01*
X17948602Y55200011D02*
X15048602Y55200011D01*
X19798602Y58600011D02*
X18898602Y58600011D01*
X14498602Y54500011D02*
X13998602Y54500011D01*
X14840023Y58041432D02*
G75*
G03*
X14840023Y58041432I-141421J0D01*
G01*
G04 #@! TO.C,D1*
X23217352Y26477505D02*
X23217352Y24627505D01*
X24417352Y26477505D02*
X24417352Y24627505D01*
X23217352Y24627505D02*
X24417352Y24627505D01*
G04 #@! TO.C,FB1*
X108657354Y31377127D02*
X108657354Y30577883D01*
X109777354Y31377127D02*
X109777354Y30577883D01*
G04 #@! TO.C,F1*
X22527352Y17075439D02*
X22527352Y18279567D01*
X20707352Y17075439D02*
X20707352Y18279567D01*
X61707353Y44075445D02*
X61707353Y45279573D01*
X63527353Y44075445D02*
X63527353Y45279573D01*
G04 #@! TO.C,D1*
X24417352Y92477519D02*
X24417352Y90627519D01*
X23217352Y92477519D02*
X23217352Y90627519D01*
X23217352Y90627519D02*
X24417352Y90627519D01*
D14*
G04 #@! TO.C,U1*
X20917352Y88677517D02*
G75*
G03*
X20917352Y88677517I0J0D01*
G01*
D13*
G04 #@! TO.C,FB1*
X67657353Y97377141D02*
X67657353Y96577897D01*
X68777353Y97377141D02*
X68777353Y96577897D01*
X27777352Y97377141D02*
X27777352Y96577897D01*
X26657352Y97377141D02*
X26657352Y96577897D01*
G04 #@! TO.C,D1*
X23217352Y8477501D02*
X23217352Y6627501D01*
X24417352Y8477501D02*
X24417352Y6627501D01*
X23217352Y6627501D02*
X24417352Y6627501D01*
G04 #@! TO.C,F1*
X22527352Y92075455D02*
X22527352Y93279583D01*
X20707352Y92075455D02*
X20707352Y93279583D01*
G04 #@! TO.C,FB1*
X68777353Y49377131D02*
X68777353Y48577887D01*
X67657353Y49377131D02*
X67657353Y48577887D01*
G04 #@! TO.C,D1*
X105217354Y54627511D02*
X106417354Y54627511D01*
X105217354Y56477511D02*
X105217354Y54627511D01*
X106417354Y56477511D02*
X106417354Y54627511D01*
X24417352Y44477509D02*
X24417352Y42627509D01*
X23217352Y44477509D02*
X23217352Y42627509D01*
X23217352Y42627509D02*
X24417352Y42627509D01*
G04 #@! TO.C,R1*
X26897352Y35023866D02*
X26897352Y35331148D01*
X26137352Y35023866D02*
X26137352Y35331148D01*
D14*
G04 #@! TO.C,U1*
X61917353Y49677509D02*
G75*
G03*
X61917353Y49677509I0J0D01*
G01*
X102917354Y49677509D02*
G75*
G03*
X102917354Y49677509I0J0D01*
G01*
D13*
G04 #@! TO.C,R1*
X26137352Y56023870D02*
X26137352Y56331152D01*
X26897352Y56023870D02*
X26897352Y56331152D01*
G04 #@! TO.C,FB1*
X108657354Y97377141D02*
X108657354Y96577897D01*
X109777354Y97377141D02*
X109777354Y96577897D01*
G04 #@! TO.C,J2*
X95198604Y29000005D02*
X96098604Y29000005D01*
X101798604Y28600005D02*
X100898604Y28600005D01*
X100498604Y24500005D02*
X100998604Y24500005D01*
X96498604Y24500005D02*
X95998604Y24500005D01*
X100898604Y29000005D02*
X101798604Y29000005D01*
X100498604Y24500005D02*
X99948604Y25200005D01*
X99948604Y25200005D02*
X97048604Y25200005D01*
X95198604Y29000005D02*
X95198604Y25600005D01*
X96098604Y28600005D02*
X95198604Y28600005D01*
X101798604Y29000005D02*
X101798604Y25600005D01*
X97048604Y25200005D02*
X96498604Y24500005D01*
X96840025Y28041426D02*
G75*
G03*
X96840025Y28041426I-141421J0D01*
G01*
X95198604Y11000001D02*
X95198604Y7600001D01*
X95198604Y11000001D02*
X96098604Y11000001D01*
X101798604Y10600001D02*
X100898604Y10600001D01*
X100498604Y6500001D02*
X100998604Y6500001D01*
X100898604Y11000001D02*
X101798604Y11000001D01*
X101798604Y11000001D02*
X101798604Y7600001D01*
X100498604Y6500001D02*
X99948604Y7200001D01*
X96098604Y10600001D02*
X95198604Y10600001D01*
X99948604Y7200001D02*
X97048604Y7200001D01*
X96498604Y6500001D02*
X95998604Y6500001D01*
X97048604Y7200001D02*
X96498604Y6500001D01*
X96840025Y10041422D02*
G75*
G03*
X96840025Y10041422I-141421J0D01*
G01*
G04 #@! TO.C,R1*
X26897352Y65023872D02*
X26897352Y65331154D01*
X26137352Y65023872D02*
X26137352Y65331154D01*
G04 #@! TO.C,FB1*
X67657353Y31377127D02*
X67657353Y30577883D01*
X68777353Y31377127D02*
X68777353Y30577883D01*
X26657352Y31377127D02*
X26657352Y30577883D01*
X27777352Y31377127D02*
X27777352Y30577883D01*
G04 #@! TO.C,D1*
X24417352Y65477513D02*
X24417352Y63627513D01*
X23217352Y65477513D02*
X23217352Y63627513D01*
X23217352Y63627513D02*
X24417352Y63627513D01*
G04 #@! TO.C,J2*
X18898602Y86000017D02*
X19798602Y86000017D01*
X13198602Y86000017D02*
X13198602Y82600017D01*
X14498602Y81500017D02*
X13998602Y81500017D01*
X15048602Y82200017D02*
X14498602Y81500017D01*
X13198602Y86000017D02*
X14098602Y86000017D01*
X19798602Y85600017D02*
X18898602Y85600017D01*
X18498602Y81500017D02*
X18998602Y81500017D01*
X18498602Y81500017D02*
X17948602Y82200017D01*
X17948602Y82200017D02*
X15048602Y82200017D01*
X14098602Y85600017D02*
X13198602Y85600017D01*
X19798602Y86000017D02*
X19798602Y82600017D01*
X14840023Y85041438D02*
G75*
G03*
X14840023Y85041438I-141421J0D01*
G01*
G04 #@! TO.C,FB1*
X108657354Y40377129D02*
X108657354Y39577885D01*
X109777354Y40377129D02*
X109777354Y39577885D01*
G04 #@! TO.C,J2*
X19798602Y46600009D02*
X18898602Y46600009D01*
X17948602Y43200009D02*
X15048602Y43200009D01*
X13198602Y47000009D02*
X13198602Y43600009D01*
X18498602Y42500009D02*
X17948602Y43200009D01*
X13198602Y47000009D02*
X14098602Y47000009D01*
X19798602Y47000009D02*
X19798602Y43600009D01*
X18498602Y42500009D02*
X18998602Y42500009D01*
X18898602Y47000009D02*
X19798602Y47000009D01*
X14498602Y42500009D02*
X13998602Y42500009D01*
X15048602Y43200009D02*
X14498602Y42500009D01*
X14098602Y46600009D02*
X13198602Y46600009D01*
X14840023Y46041430D02*
G75*
G03*
X14840023Y46041430I-141421J0D01*
G01*
G04 #@! TO.C,FB1*
X27777352Y70377135D02*
X27777352Y69577891D01*
X26657352Y70377135D02*
X26657352Y69577891D01*
G04 #@! TO.C,D1*
X65417353Y44477509D02*
X65417353Y42627509D01*
X64217353Y44477509D02*
X64217353Y42627509D01*
X64217353Y42627509D02*
X65417353Y42627509D01*
G04 #@! TO.C,R2*
X25697352Y35331148D02*
X25697352Y35023866D01*
X24937352Y35331148D02*
X24937352Y35023866D01*
X107697354Y74331156D02*
X107697354Y74023874D01*
X106937354Y74331156D02*
X106937354Y74023874D01*
D14*
G04 #@! TO.C,U1*
X102917354Y61677511D02*
G75*
G03*
X102917354Y61677511I0J0D01*
G01*
D13*
G04 #@! TO.C,F1*
X22527352Y74075451D02*
X22527352Y75279579D01*
X20707352Y74075451D02*
X20707352Y75279579D01*
G04 #@! TO.C,D1*
X106417354Y35477507D02*
X106417354Y33627507D01*
X105217354Y35477507D02*
X105217354Y33627507D01*
X105217354Y33627507D02*
X106417354Y33627507D01*
D14*
G04 #@! TO.C,U1*
X61917353Y70677513D02*
G75*
G03*
X61917353Y70677513I0J0D01*
G01*
D13*
G04 #@! TO.C,D1*
X106417354Y17477503D02*
X106417354Y15627503D01*
X105217354Y15627503D02*
X106417354Y15627503D01*
X105217354Y17477503D02*
X105217354Y15627503D01*
G04 #@! TO.C,R2*
X106937354Y8331142D02*
X106937354Y8023860D01*
X107697354Y8331142D02*
X107697354Y8023860D01*
G04 #@! TO.C,D1*
X105217354Y72627515D02*
X106417354Y72627515D01*
X106417354Y74477515D02*
X106417354Y72627515D01*
X105217354Y74477515D02*
X105217354Y72627515D01*
G04 #@! TO.C,J2*
X97048604Y34200007D02*
X96498604Y33500007D01*
X95198604Y38000007D02*
X95198604Y34600007D01*
X95198604Y38000007D02*
X96098604Y38000007D01*
X96498604Y33500007D02*
X95998604Y33500007D01*
X100898604Y38000007D02*
X101798604Y38000007D01*
X100498604Y33500007D02*
X99948604Y34200007D01*
X99948604Y34200007D02*
X97048604Y34200007D01*
X96098604Y37600007D02*
X95198604Y37600007D01*
X100498604Y33500007D02*
X100998604Y33500007D01*
X101798604Y37600007D02*
X100898604Y37600007D01*
X101798604Y38000007D02*
X101798604Y34600007D01*
X96840025Y37041428D02*
G75*
G03*
X96840025Y37041428I-141421J0D01*
G01*
G04 #@! TO.C,D1*
X23217352Y17477503D02*
X23217352Y15627503D01*
X24417352Y17477503D02*
X24417352Y15627503D01*
X23217352Y15627503D02*
X24417352Y15627503D01*
G04 #@! TO.C,R1*
X108137354Y26023864D02*
X108137354Y26331146D01*
X108897354Y26023864D02*
X108897354Y26331146D01*
G04 #@! TO.C,D1*
X105217354Y65477513D02*
X105217354Y63627513D01*
X106417354Y65477513D02*
X106417354Y63627513D01*
X105217354Y63627513D02*
X106417354Y63627513D01*
D14*
G04 #@! TO.C,U1*
X102917354Y97677519D02*
G75*
G03*
X102917354Y97677519I0J0D01*
G01*
X20917352Y22677503D02*
G75*
G03*
X20917352Y22677503I0J0D01*
G01*
D13*
G04 #@! TO.C,J2*
X55098603Y46600009D02*
X54198603Y46600009D01*
X59498603Y42500009D02*
X58948603Y43200009D01*
X56048603Y43200009D02*
X55498603Y42500009D01*
X59898603Y47000009D02*
X60798603Y47000009D01*
X54198603Y47000009D02*
X55098603Y47000009D01*
X55498603Y42500009D02*
X54998603Y42500009D01*
X60798603Y46600009D02*
X59898603Y46600009D01*
X59498603Y42500009D02*
X59998603Y42500009D01*
X60798603Y47000009D02*
X60798603Y43600009D01*
X54198603Y47000009D02*
X54198603Y43600009D01*
X58948603Y43200009D02*
X56048603Y43200009D01*
X55840024Y46041430D02*
G75*
G03*
X55840024Y46041430I-141421J0D01*
G01*
G04 #@! TO.C,R2*
X106937354Y44331150D02*
X106937354Y44023868D01*
X107697354Y44331150D02*
X107697354Y44023868D01*
G04 #@! TO.C,F1*
X61707353Y74075451D02*
X61707353Y75279579D01*
X63527353Y74075451D02*
X63527353Y75279579D01*
X63527353Y35075443D02*
X63527353Y36279571D01*
X61707353Y35075443D02*
X61707353Y36279571D01*
D14*
G04 #@! TO.C,U1*
X20917352Y70677513D02*
G75*
G03*
X20917352Y70677513I0J0D01*
G01*
D13*
G04 #@! TO.C,FB1*
X68777353Y13377123D02*
X68777353Y12577879D01*
X67657353Y13377123D02*
X67657353Y12577879D01*
G04 #@! TO.C,R1*
X108137354Y65023872D02*
X108137354Y65331154D01*
X108897354Y65023872D02*
X108897354Y65331154D01*
G04 #@! TO.C,F1*
X102707354Y26075441D02*
X102707354Y27279569D01*
X104527354Y26075441D02*
X104527354Y27279569D01*
G04 #@! TO.C,FB1*
X26657352Y13377123D02*
X26657352Y12577879D01*
X27777352Y13377123D02*
X27777352Y12577879D01*
G04 #@! TO.C,F1*
X61707353Y56075447D02*
X61707353Y57279575D01*
X63527353Y56075447D02*
X63527353Y57279575D01*
G04 #@! TO.C,R1*
X26137352Y92023878D02*
X26137352Y92331160D01*
X26897352Y92023878D02*
X26897352Y92331160D01*
G04 #@! TO.C,FB1*
X68777353Y70377135D02*
X68777353Y69577891D01*
X67657353Y70377135D02*
X67657353Y69577891D01*
G04 #@! TO.C,F1*
X61707353Y26075441D02*
X61707353Y27279569D01*
X63527353Y26075441D02*
X63527353Y27279569D01*
G04 #@! TO.C,D1*
X65417353Y17477503D02*
X65417353Y15627503D01*
X64217353Y15627503D02*
X65417353Y15627503D01*
X64217353Y17477503D02*
X64217353Y15627503D01*
G04 #@! TO.C,R1*
X67137353Y56023870D02*
X67137353Y56331152D01*
X67897353Y56023870D02*
X67897353Y56331152D01*
X108137354Y92023878D02*
X108137354Y92331160D01*
X108897354Y92023878D02*
X108897354Y92331160D01*
X108137354Y44023868D02*
X108137354Y44331150D01*
X108897354Y44023868D02*
X108897354Y44331150D01*
X67137353Y65023872D02*
X67137353Y65331154D01*
X67897353Y65023872D02*
X67897353Y65331154D01*
G04 #@! TO.C,J2*
X60798603Y38000007D02*
X60798603Y34600007D01*
X59498603Y33500007D02*
X58948603Y34200007D01*
X55498603Y33500007D02*
X54998603Y33500007D01*
X59898603Y38000007D02*
X60798603Y38000007D01*
X60798603Y37600007D02*
X59898603Y37600007D01*
X56048603Y34200007D02*
X55498603Y33500007D01*
X54198603Y38000007D02*
X55098603Y38000007D01*
X59498603Y33500007D02*
X59998603Y33500007D01*
X58948603Y34200007D02*
X56048603Y34200007D01*
X54198603Y38000007D02*
X54198603Y34600007D01*
X55098603Y37600007D02*
X54198603Y37600007D01*
X55840024Y37041428D02*
G75*
G03*
X55840024Y37041428I-141421J0D01*
G01*
X19798602Y95000019D02*
X19798602Y91600019D01*
X14498602Y90500019D02*
X13998602Y90500019D01*
X13198602Y95000019D02*
X13198602Y91600019D01*
X18498602Y90500019D02*
X17948602Y91200019D01*
X19798602Y94600019D02*
X18898602Y94600019D01*
X18898602Y95000019D02*
X19798602Y95000019D01*
X13198602Y95000019D02*
X14098602Y95000019D01*
X18498602Y90500019D02*
X18998602Y90500019D01*
X17948602Y91200019D02*
X15048602Y91200019D01*
X15048602Y91200019D02*
X14498602Y90500019D01*
X14098602Y94600019D02*
X13198602Y94600019D01*
X14840023Y94041440D02*
G75*
G03*
X14840023Y94041440I-141421J0D01*
G01*
G04 #@! TO.C,R1*
X108897354Y83023876D02*
X108897354Y83331158D01*
X108137354Y83023876D02*
X108137354Y83331158D01*
G04 #@! TO.C,D1*
X24417352Y35477507D02*
X24417352Y33627507D01*
X23217352Y35477507D02*
X23217352Y33627507D01*
X23217352Y33627507D02*
X24417352Y33627507D01*
X105217354Y44477509D02*
X105217354Y42627509D01*
X106417354Y44477509D02*
X106417354Y42627509D01*
X105217354Y42627509D02*
X106417354Y42627509D01*
G04 #@! TO.C,F1*
X20707352Y56075447D02*
X20707352Y57279575D01*
X22527352Y56075447D02*
X22527352Y57279575D01*
G04 #@! TO.C,FB1*
X27777352Y61377133D02*
X27777352Y60577889D01*
X26657352Y61377133D02*
X26657352Y60577889D01*
G04 #@! TO.C,F1*
X20707352Y65075449D02*
X20707352Y66279577D01*
X22527352Y65075449D02*
X22527352Y66279577D01*
G04 #@! TO.C,D1*
X105217354Y6627501D02*
X106417354Y6627501D01*
X105217354Y8477501D02*
X105217354Y6627501D01*
X106417354Y8477501D02*
X106417354Y6627501D01*
G04 #@! TO.C,F1*
X61707353Y92075455D02*
X61707353Y93279583D01*
X63527353Y92075455D02*
X63527353Y93279583D01*
G04 #@! TO.C,FB1*
X108657354Y88377139D02*
X108657354Y87577895D01*
X109777354Y88377139D02*
X109777354Y87577895D01*
G04 #@! TO.C,J2*
X58948603Y82200017D02*
X56048603Y82200017D01*
X54198603Y86000017D02*
X54198603Y82600017D01*
X59898603Y86000017D02*
X60798603Y86000017D01*
X60798603Y86000017D02*
X60798603Y82600017D01*
X56048603Y82200017D02*
X55498603Y81500017D01*
X54198603Y86000017D02*
X55098603Y86000017D01*
X55498603Y81500017D02*
X54998603Y81500017D01*
X59498603Y81500017D02*
X58948603Y82200017D01*
X59498603Y81500017D02*
X59998603Y81500017D01*
X55098603Y85600017D02*
X54198603Y85600017D01*
X60798603Y85600017D02*
X59898603Y85600017D01*
X55840024Y85041438D02*
G75*
G03*
X55840024Y85041438I-141421J0D01*
G01*
G04 #@! TO.C,R1*
X67137353Y83023876D02*
X67137353Y83331158D01*
X67897353Y83023876D02*
X67897353Y83331158D01*
G04 #@! TO.C,D1*
X65417353Y26477505D02*
X65417353Y24627505D01*
X64217353Y24627505D02*
X65417353Y24627505D01*
X64217353Y26477505D02*
X64217353Y24627505D01*
G04 #@! TO.C,R2*
X66697353Y92331160D02*
X66697353Y92023878D01*
X65937353Y92331160D02*
X65937353Y92023878D01*
G04 #@! TO.C,F1*
X61707353Y8075437D02*
X61707353Y9279565D01*
X63527353Y8075437D02*
X63527353Y9279565D01*
G04 #@! TO.C,FB1*
X68777353Y22377125D02*
X68777353Y21577881D01*
X67657353Y22377125D02*
X67657353Y21577881D01*
G04 #@! TO.C,J2*
X101798604Y19600003D02*
X100898604Y19600003D01*
X100498604Y15500003D02*
X99948604Y16200003D01*
X96098604Y19600003D02*
X95198604Y19600003D01*
X100498604Y15500003D02*
X100998604Y15500003D01*
X96498604Y15500003D02*
X95998604Y15500003D01*
X95198604Y20000003D02*
X95198604Y16600003D01*
X99948604Y16200003D02*
X97048604Y16200003D01*
X100898604Y20000003D02*
X101798604Y20000003D01*
X97048604Y16200003D02*
X96498604Y15500003D01*
X95198604Y20000003D02*
X96098604Y20000003D01*
X101798604Y20000003D02*
X101798604Y16600003D01*
X96840025Y19041424D02*
G75*
G03*
X96840025Y19041424I-141421J0D01*
G01*
G04 #@! TO.C,R2*
X66697353Y65331154D02*
X66697353Y65023872D01*
X65937353Y65331154D02*
X65937353Y65023872D01*
G04 #@! TO.C,F1*
X22527352Y83075453D02*
X22527352Y84279581D01*
X20707352Y83075453D02*
X20707352Y84279581D01*
G04 #@! TO.C,D1*
X24417352Y74477515D02*
X24417352Y72627515D01*
X23217352Y74477515D02*
X23217352Y72627515D01*
X23217352Y72627515D02*
X24417352Y72627515D01*
D14*
G04 #@! TO.C,U1*
X102917354Y79677515D02*
G75*
G03*
X102917354Y79677515I0J0D01*
G01*
D13*
G04 #@! TO.C,F1*
X102707354Y44075445D02*
X102707354Y45279573D01*
X104527354Y44075445D02*
X104527354Y45279573D01*
D14*
G04 #@! TO.C,U1*
X61917353Y79677515D02*
G75*
G03*
X61917353Y79677515I0J0D01*
G01*
D13*
G04 #@! TO.C,D1*
X105217354Y81627517D02*
X106417354Y81627517D01*
X105217354Y83477517D02*
X105217354Y81627517D01*
X106417354Y83477517D02*
X106417354Y81627517D01*
G04 #@! TO.C,FB1*
X26657352Y22377125D02*
X26657352Y21577881D01*
X27777352Y22377125D02*
X27777352Y21577881D01*
X109777354Y70377135D02*
X109777354Y69577891D01*
X108657354Y70377135D02*
X108657354Y69577891D01*
G04 #@! TO.C,J2*
X100498604Y90500019D02*
X100998604Y90500019D01*
X101798604Y94600019D02*
X100898604Y94600019D01*
X96098604Y94600019D02*
X95198604Y94600019D01*
X96498604Y90500019D02*
X95998604Y90500019D01*
X101798604Y95000019D02*
X101798604Y91600019D01*
X97048604Y91200019D02*
X96498604Y90500019D01*
X100498604Y90500019D02*
X99948604Y91200019D01*
X99948604Y91200019D02*
X97048604Y91200019D01*
X95198604Y95000019D02*
X95198604Y91600019D01*
X100898604Y95000019D02*
X101798604Y95000019D01*
X95198604Y95000019D02*
X96098604Y95000019D01*
X96840025Y94041440D02*
G75*
G03*
X96840025Y94041440I-141421J0D01*
G01*
G04 #@! TO.C,R2*
X66697353Y83331158D02*
X66697353Y83023876D01*
X65937353Y83331158D02*
X65937353Y83023876D01*
X107697354Y83331158D02*
X107697354Y83023876D01*
X106937354Y83331158D02*
X106937354Y83023876D01*
G04 #@! TO.C,R1*
X26137352Y44023868D02*
X26137352Y44331150D01*
X26897352Y44023868D02*
X26897352Y44331150D01*
G04 #@! TO.C,F1*
X61707353Y17075439D02*
X61707353Y18279567D01*
X63527353Y17075439D02*
X63527353Y18279567D01*
G04 #@! TO.C,R2*
X65937353Y74331156D02*
X65937353Y74023874D01*
X66697353Y74331156D02*
X66697353Y74023874D01*
G04 #@! TO.C,F1*
X61707353Y83075453D02*
X61707353Y84279581D01*
X63527353Y83075453D02*
X63527353Y84279581D01*
D14*
G04 #@! TO.C,U1*
X61917353Y88677517D02*
G75*
G03*
X61917353Y88677517I0J0D01*
G01*
D13*
G04 #@! TO.C,R2*
X107697354Y56331152D02*
X107697354Y56023870D01*
X106937354Y56331152D02*
X106937354Y56023870D01*
D14*
G04 #@! TO.C,U1*
X20917352Y40677507D02*
G75*
G03*
X20917352Y40677507I0J0D01*
G01*
D13*
G04 #@! TO.C,R1*
X108137354Y8023860D02*
X108137354Y8331142D01*
X108897354Y8023860D02*
X108897354Y8331142D01*
G04 #@! TO.C,D1*
X64217353Y8477501D02*
X64217353Y6627501D01*
X64217353Y6627501D02*
X65417353Y6627501D01*
X65417353Y8477501D02*
X65417353Y6627501D01*
D14*
G04 #@! TO.C,U1*
X102917354Y40677507D02*
G75*
G03*
X102917354Y40677507I0J0D01*
G01*
D13*
G04 #@! TO.C,J2*
X54198603Y20000003D02*
X54198603Y16600003D01*
X60798603Y20000003D02*
X60798603Y16600003D01*
X54198603Y20000003D02*
X55098603Y20000003D01*
X58948603Y16200003D02*
X56048603Y16200003D01*
X59498603Y15500003D02*
X59998603Y15500003D01*
X59498603Y15500003D02*
X58948603Y16200003D01*
X60798603Y19600003D02*
X59898603Y19600003D01*
X55498603Y15500003D02*
X54998603Y15500003D01*
X56048603Y16200003D02*
X55498603Y15500003D01*
X55098603Y19600003D02*
X54198603Y19600003D01*
X59898603Y20000003D02*
X60798603Y20000003D01*
X55840024Y19041424D02*
G75*
G03*
X55840024Y19041424I-141421J0D01*
G01*
D14*
G04 #@! TO.C,U1*
X61917353Y40677507D02*
G75*
G03*
X61917353Y40677507I0J0D01*
G01*
X20917352Y97677519D02*
G75*
G03*
X20917352Y97677519I0J0D01*
G01*
D13*
G04 #@! TO.C,R1*
X108137354Y56023870D02*
X108137354Y56331152D01*
X108897354Y56023870D02*
X108897354Y56331152D01*
G04 #@! TO.C,J2*
X100498604Y81500017D02*
X99948604Y82200017D01*
X96498604Y81500017D02*
X95998604Y81500017D01*
X99948604Y82200017D02*
X97048604Y82200017D01*
X97048604Y82200017D02*
X96498604Y81500017D01*
X100498604Y81500017D02*
X100998604Y81500017D01*
X95198604Y86000017D02*
X96098604Y86000017D01*
X96098604Y85600017D02*
X95198604Y85600017D01*
X100898604Y86000017D02*
X101798604Y86000017D01*
X95198604Y86000017D02*
X95198604Y82600017D01*
X101798604Y86000017D02*
X101798604Y82600017D01*
X101798604Y85600017D02*
X100898604Y85600017D01*
X96840025Y85041438D02*
G75*
G03*
X96840025Y85041438I-141421J0D01*
G01*
G04 #@! TO.C,FB1*
X68777353Y61377133D02*
X68777353Y60577889D01*
X67657353Y61377133D02*
X67657353Y60577889D01*
G04 #@! TO.C,R1*
X67897353Y26023864D02*
X67897353Y26331146D01*
X67137353Y26023864D02*
X67137353Y26331146D01*
G04 #@! TO.C,D1*
X65417353Y65477513D02*
X65417353Y63627513D01*
X64217353Y65477513D02*
X64217353Y63627513D01*
X64217353Y63627513D02*
X65417353Y63627513D01*
X64217353Y35477507D02*
X64217353Y33627507D01*
X64217353Y33627507D02*
X65417353Y33627507D01*
X65417353Y35477507D02*
X65417353Y33627507D01*
G04 #@! TO.C,R2*
X107697354Y17331144D02*
X107697354Y17023862D01*
X106937354Y17331144D02*
X106937354Y17023862D01*
G04 #@! TO.C,F1*
X102707354Y17075439D02*
X102707354Y18279567D01*
X104527354Y17075439D02*
X104527354Y18279567D01*
G04 #@! TO.C,FB1*
X108657354Y49377131D02*
X108657354Y48577887D01*
X109777354Y49377131D02*
X109777354Y48577887D01*
D14*
G04 #@! TO.C,U1*
X102917354Y31677505D02*
G75*
G03*
X102917354Y31677505I0J0D01*
G01*
D13*
G04 #@! TO.C,FB1*
X108657354Y61377133D02*
X108657354Y60577889D01*
X109777354Y61377133D02*
X109777354Y60577889D01*
G04 #@! TO.C,R2*
X106937354Y65331154D02*
X106937354Y65023872D01*
X107697354Y65331154D02*
X107697354Y65023872D01*
G04 #@! TO.C,J2*
X54198603Y68000013D02*
X55098603Y68000013D01*
X55498603Y63500013D02*
X54998603Y63500013D01*
X58948603Y64200013D02*
X56048603Y64200013D01*
X60798603Y67600013D02*
X59898603Y67600013D01*
X56048603Y64200013D02*
X55498603Y63500013D01*
X59898603Y68000013D02*
X60798603Y68000013D01*
X59498603Y63500013D02*
X58948603Y64200013D01*
X54198603Y68000013D02*
X54198603Y64600013D01*
X59498603Y63500013D02*
X59998603Y63500013D01*
X55098603Y67600013D02*
X54198603Y67600013D01*
X60798603Y68000013D02*
X60798603Y64600013D01*
X55840024Y67041434D02*
G75*
G03*
X55840024Y67041434I-141421J0D01*
G01*
D14*
G04 #@! TO.C,U1*
X61917353Y22677503D02*
G75*
G03*
X61917353Y22677503I0J0D01*
G01*
D13*
G04 #@! TO.C,FB1*
X109777354Y13377123D02*
X109777354Y12577879D01*
X108657354Y13377123D02*
X108657354Y12577879D01*
D14*
G04 #@! TO.C,U1*
X61917353Y61677511D02*
G75*
G03*
X61917353Y61677511I0J0D01*
G01*
D13*
G04 #@! TO.C,R1*
X108897354Y17023862D02*
X108897354Y17331144D01*
X108137354Y17023862D02*
X108137354Y17331144D01*
G04 #@! TO.C,F1*
X104527354Y65075449D02*
X104527354Y66279577D01*
X102707354Y65075449D02*
X102707354Y66279577D01*
G04 #@! TO.C,J2*
X56048603Y7200001D02*
X55498603Y6500001D01*
X58948603Y7200001D02*
X56048603Y7200001D01*
X59498603Y6500001D02*
X58948603Y7200001D01*
X60798603Y11000001D02*
X60798603Y7600001D01*
X60798603Y10600001D02*
X59898603Y10600001D01*
X54198603Y11000001D02*
X55098603Y11000001D01*
X54198603Y11000001D02*
X54198603Y7600001D01*
X55498603Y6500001D02*
X54998603Y6500001D01*
X59498603Y6500001D02*
X59998603Y6500001D01*
X59898603Y11000001D02*
X60798603Y11000001D01*
X55098603Y10600001D02*
X54198603Y10600001D01*
X55840024Y10041422D02*
G75*
G03*
X55840024Y10041422I-141421J0D01*
G01*
G04 #@! TO.C,R2*
X65937353Y17331144D02*
X65937353Y17023862D01*
X66697353Y17331144D02*
X66697353Y17023862D01*
G04 #@! TO.C,FB1*
X68777353Y40377129D02*
X68777353Y39577885D01*
X67657353Y40377129D02*
X67657353Y39577885D01*
G04 #@! TO.C,J2*
X101798604Y59000011D02*
X101798604Y55600011D01*
X96098604Y58600011D02*
X95198604Y58600011D01*
X96498604Y54500011D02*
X95998604Y54500011D01*
X99948604Y55200011D02*
X97048604Y55200011D01*
X100498604Y54500011D02*
X99948604Y55200011D01*
X95198604Y59000011D02*
X95198604Y55600011D01*
X101798604Y58600011D02*
X100898604Y58600011D01*
X97048604Y55200011D02*
X96498604Y54500011D01*
X100898604Y59000011D02*
X101798604Y59000011D01*
X95198604Y59000011D02*
X96098604Y59000011D01*
X100498604Y54500011D02*
X100998604Y54500011D01*
X96840025Y58041432D02*
G75*
G03*
X96840025Y58041432I-141421J0D01*
G01*
G04 #@! TO.C,R2*
X24937352Y65331154D02*
X24937352Y65023872D01*
X25697352Y65331154D02*
X25697352Y65023872D01*
G04 #@! TO.C,J2*
X54198603Y29000005D02*
X54198603Y25600005D01*
X60798603Y28600005D02*
X59898603Y28600005D01*
X55498603Y24500005D02*
X54998603Y24500005D01*
X56048603Y25200005D02*
X55498603Y24500005D01*
X58948603Y25200005D02*
X56048603Y25200005D01*
X60798603Y29000005D02*
X60798603Y25600005D01*
X59498603Y24500005D02*
X59998603Y24500005D01*
X59498603Y24500005D02*
X58948603Y25200005D01*
X54198603Y29000005D02*
X55098603Y29000005D01*
X59898603Y29000005D02*
X60798603Y29000005D01*
X55098603Y28600005D02*
X54198603Y28600005D01*
X55840024Y28041426D02*
G75*
G03*
X55840024Y28041426I-141421J0D01*
G01*
G04 #@! TO.C,R1*
X26137352Y17023862D02*
X26137352Y17331144D01*
X26897352Y17023862D02*
X26897352Y17331144D01*
X108137354Y35023866D02*
X108137354Y35331148D01*
X108897354Y35023866D02*
X108897354Y35331148D01*
X67897353Y44023868D02*
X67897353Y44331150D01*
X67137353Y44023868D02*
X67137353Y44331150D01*
G04 #@! TO.C,D1*
X64217353Y83477517D02*
X64217353Y81627517D01*
X65417353Y83477517D02*
X65417353Y81627517D01*
X64217353Y81627517D02*
X65417353Y81627517D01*
X64217353Y92477519D02*
X64217353Y90627519D01*
X65417353Y92477519D02*
X65417353Y90627519D01*
X64217353Y90627519D02*
X65417353Y90627519D01*
G04 #@! TO.C,F1*
X22527352Y35075443D02*
X22527352Y36279571D01*
X20707352Y35075443D02*
X20707352Y36279571D01*
D14*
G04 #@! TO.C,U1*
X61917353Y13677501D02*
G75*
G03*
X61917353Y13677501I0J0D01*
G01*
X20917352Y13677501D02*
G75*
G03*
X20917352Y13677501I0J0D01*
G01*
D13*
G04 #@! TO.C,D1*
X105217354Y24627505D02*
X106417354Y24627505D01*
X106417354Y26477505D02*
X106417354Y24627505D01*
X105217354Y26477505D02*
X105217354Y24627505D01*
G04 #@! TO.C,FB1*
X108657354Y79377137D02*
X108657354Y78577893D01*
X109777354Y79377137D02*
X109777354Y78577893D01*
G04 #@! TO.C,R2*
X24937352Y56331152D02*
X24937352Y56023870D01*
X25697352Y56331152D02*
X25697352Y56023870D01*
G04 #@! TO.C,FB1*
X67657353Y79377137D02*
X67657353Y78577893D01*
X68777353Y79377137D02*
X68777353Y78577893D01*
G04 #@! TO.C,R1*
X67137353Y74023874D02*
X67137353Y74331156D01*
X67897353Y74023874D02*
X67897353Y74331156D01*
G04 #@! TO.C,F1*
X102707354Y74075451D02*
X102707354Y75279579D01*
X104527354Y74075451D02*
X104527354Y75279579D01*
D14*
G04 #@! TO.C,U1*
X20917352Y61677511D02*
G75*
G03*
X20917352Y61677511I0J0D01*
G01*
D13*
G04 #@! TO.C,F1*
X102707354Y35075443D02*
X102707354Y36279571D01*
X104527354Y35075443D02*
X104527354Y36279571D01*
G04 #@! TO.C,R2*
X106937354Y26331146D02*
X106937354Y26023864D01*
X107697354Y26331146D02*
X107697354Y26023864D01*
G04 #@! TO.C,F1*
X20707352Y26075441D02*
X20707352Y27279569D01*
X22527352Y26075441D02*
X22527352Y27279569D01*
X102707354Y56075447D02*
X102707354Y57279575D01*
X104527354Y56075447D02*
X104527354Y57279575D01*
G04 #@! TO.C,J2*
X59898603Y59000011D02*
X60798603Y59000011D01*
X60798603Y58600011D02*
X59898603Y58600011D01*
X58948603Y55200011D02*
X56048603Y55200011D01*
X54198603Y59000011D02*
X54198603Y55600011D01*
X59498603Y54500011D02*
X58948603Y55200011D01*
X56048603Y55200011D02*
X55498603Y54500011D01*
X55098603Y58600011D02*
X54198603Y58600011D01*
X54198603Y59000011D02*
X55098603Y59000011D01*
X55498603Y54500011D02*
X54998603Y54500011D01*
X59498603Y54500011D02*
X59998603Y54500011D01*
X60798603Y59000011D02*
X60798603Y55600011D01*
X55840024Y58041432D02*
G75*
G03*
X55840024Y58041432I-141421J0D01*
G01*
D14*
G04 #@! TO.C,U1*
X102917354Y13677501D02*
G75*
G03*
X102917354Y13677501I0J0D01*
G01*
X61917353Y97677519D02*
G75*
G03*
X61917353Y97677519I0J0D01*
G01*
D13*
G04 #@! TO.C,J2*
X55098603Y94600019D02*
X54198603Y94600019D01*
X59498603Y90500019D02*
X58948603Y91200019D01*
X56048603Y91200019D02*
X55498603Y90500019D01*
X54198603Y95000019D02*
X54198603Y91600019D01*
X59498603Y90500019D02*
X59998603Y90500019D01*
X60798603Y95000019D02*
X60798603Y91600019D01*
X54198603Y95000019D02*
X55098603Y95000019D01*
X55498603Y90500019D02*
X54998603Y90500019D01*
X58948603Y91200019D02*
X56048603Y91200019D01*
X60798603Y94600019D02*
X59898603Y94600019D01*
X59898603Y95000019D02*
X60798603Y95000019D01*
X55840024Y94041440D02*
G75*
G03*
X55840024Y94041440I-141421J0D01*
G01*
X14498602Y63500013D02*
X13998602Y63500013D01*
X15048602Y64200013D02*
X14498602Y63500013D01*
X13198602Y68000013D02*
X13198602Y64600013D01*
X19798602Y67600013D02*
X18898602Y67600013D01*
X13198602Y68000013D02*
X14098602Y68000013D01*
X18498602Y63500013D02*
X18998602Y63500013D01*
X19798602Y68000013D02*
X19798602Y64600013D01*
X18898602Y68000013D02*
X19798602Y68000013D01*
X18498602Y63500013D02*
X17948602Y64200013D01*
X14098602Y67600013D02*
X13198602Y67600013D01*
X17948602Y64200013D02*
X15048602Y64200013D01*
X14840023Y67041434D02*
G75*
G03*
X14840023Y67041434I-141421J0D01*
G01*
G04 #@! TO.C,R2*
X65937353Y26331146D02*
X65937353Y26023864D01*
X66697353Y26331146D02*
X66697353Y26023864D01*
G04 #@! TO.C,J2*
X18898602Y29000005D02*
X19798602Y29000005D01*
X13198602Y29000005D02*
X13198602Y25600005D01*
X19798602Y29000005D02*
X19798602Y25600005D01*
X18498602Y24500005D02*
X17948602Y25200005D01*
X14098602Y28600005D02*
X13198602Y28600005D01*
X18498602Y24500005D02*
X18998602Y24500005D01*
X19798602Y28600005D02*
X18898602Y28600005D01*
X17948602Y25200005D02*
X15048602Y25200005D01*
X14498602Y24500005D02*
X13998602Y24500005D01*
X13198602Y29000005D02*
X14098602Y29000005D01*
X15048602Y25200005D02*
X14498602Y24500005D01*
X14840023Y28041426D02*
G75*
G03*
X14840023Y28041426I-141421J0D01*
G01*
G04 #@! TO.C,R1*
X67137353Y17023862D02*
X67137353Y17331144D01*
X67897353Y17023862D02*
X67897353Y17331144D01*
G04 #@! TO.C,J2*
X97048604Y64200013D02*
X96498604Y63500013D01*
X101798604Y68000013D02*
X101798604Y64600013D01*
X96498604Y63500013D02*
X95998604Y63500013D01*
X100498604Y63500013D02*
X100998604Y63500013D01*
X99948604Y64200013D02*
X97048604Y64200013D01*
X96098604Y67600013D02*
X95198604Y67600013D01*
X95198604Y68000013D02*
X95198604Y64600013D01*
X101798604Y67600013D02*
X100898604Y67600013D01*
X100498604Y63500013D02*
X99948604Y64200013D01*
X95198604Y68000013D02*
X96098604Y68000013D01*
X100898604Y68000013D02*
X101798604Y68000013D01*
X96840025Y67041434D02*
G75*
G03*
X96840025Y67041434I-141421J0D01*
G01*
X17948602Y7200001D02*
X15048602Y7200001D01*
X13198602Y11000001D02*
X14098602Y11000001D01*
X13198602Y11000001D02*
X13198602Y7600001D01*
X14098602Y10600001D02*
X13198602Y10600001D01*
X18898602Y11000001D02*
X19798602Y11000001D01*
X18498602Y6500001D02*
X17948602Y7200001D01*
X19798602Y10600001D02*
X18898602Y10600001D01*
X18498602Y6500001D02*
X18998602Y6500001D01*
X14498602Y6500001D02*
X13998602Y6500001D01*
X15048602Y7200001D02*
X14498602Y6500001D01*
X19798602Y11000001D02*
X19798602Y7600001D01*
X14840023Y10041422D02*
G75*
G03*
X14840023Y10041422I-141421J0D01*
G01*
G04 #@! TO.C,F1*
X104527354Y8075437D02*
X104527354Y9279565D01*
X102707354Y8075437D02*
X102707354Y9279565D01*
D14*
G04 #@! TO.C,U1*
X102917354Y70677513D02*
G75*
G03*
X102917354Y70677513I0J0D01*
G01*
D13*
G04 #@! TO.C,D1*
X23217352Y54627511D02*
X24417352Y54627511D01*
X23217352Y56477511D02*
X23217352Y54627511D01*
X24417352Y56477511D02*
X24417352Y54627511D01*
D14*
G04 #@! TO.C,U1*
X20917352Y31677505D02*
G75*
G03*
X20917352Y31677505I0J0D01*
G01*
D13*
G04 #@! TO.C,R2*
X66697353Y8331142D02*
X66697353Y8023860D01*
X65937353Y8331142D02*
X65937353Y8023860D01*
G04 #@! TO.C,FB1*
X27777352Y88377139D02*
X27777352Y87577895D01*
X26657352Y88377139D02*
X26657352Y87577895D01*
G04 #@! TO.C,R1*
X108137354Y74023874D02*
X108137354Y74331156D01*
X108897354Y74023874D02*
X108897354Y74331156D01*
G04 #@! TO.C,R2*
X24937352Y26331146D02*
X24937352Y26023864D01*
X25697352Y26331146D02*
X25697352Y26023864D01*
G04 #@! TO.C,J2*
X59498603Y72500015D02*
X59998603Y72500015D01*
X56048603Y73200015D02*
X55498603Y72500015D01*
X60798603Y77000015D02*
X60798603Y73600015D01*
X58948603Y73200015D02*
X56048603Y73200015D01*
X54198603Y77000015D02*
X54198603Y73600015D01*
X60798603Y76600015D02*
X59898603Y76600015D01*
X55498603Y72500015D02*
X54998603Y72500015D01*
X59498603Y72500015D02*
X58948603Y73200015D01*
X55098603Y76600015D02*
X54198603Y76600015D01*
X54198603Y77000015D02*
X55098603Y77000015D01*
X59898603Y77000015D02*
X60798603Y77000015D01*
X55840024Y76041436D02*
G75*
G03*
X55840024Y76041436I-141421J0D01*
G01*
G04 #@! TO.C,R2*
X107697354Y35331148D02*
X107697354Y35023866D01*
X106937354Y35331148D02*
X106937354Y35023866D01*
G04 #@! TO.C,R1*
X26137352Y26023864D02*
X26137352Y26331146D01*
X26897352Y26023864D02*
X26897352Y26331146D01*
D14*
G04 #@! TO.C,U1*
X20917352Y49677509D02*
G75*
G03*
X20917352Y49677509I0J0D01*
G01*
D13*
G04 #@! TO.C,FB1*
X27777352Y40377129D02*
X27777352Y39577885D01*
X26657352Y40377129D02*
X26657352Y39577885D01*
G04 #@! TO.C,D1*
X23217352Y81627517D02*
X24417352Y81627517D01*
X23217352Y83477517D02*
X23217352Y81627517D01*
X24417352Y83477517D02*
X24417352Y81627517D01*
G04 #@! TO.C,J2*
X96498604Y72500015D02*
X95998604Y72500015D01*
X96098604Y76600015D02*
X95198604Y76600015D01*
X100498604Y72500015D02*
X100998604Y72500015D01*
X95198604Y77000015D02*
X96098604Y77000015D01*
X100898604Y77000015D02*
X101798604Y77000015D01*
X95198604Y77000015D02*
X95198604Y73600015D01*
X99948604Y73200015D02*
X97048604Y73200015D01*
X101798604Y76600015D02*
X100898604Y76600015D01*
X101798604Y77000015D02*
X101798604Y73600015D01*
X97048604Y73200015D02*
X96498604Y72500015D01*
X100498604Y72500015D02*
X99948604Y73200015D01*
X96840025Y76041436D02*
G75*
G03*
X96840025Y76041436I-141421J0D01*
G01*
G04 #@! TD*
M02*
