M48
; DRILL file {KiCad (6.0.11)} date Sat Feb 11 18:44:03 2023
; FORMAT={-:-/ absolute / metric / decimal}
; #@! TF.CreationDate,2023-02-11T18:44:03+01:00
; #@! TF.GenerationSoftware,Kicad,Pcbnew,(6.0.11)
; #@! TF.FileFunction,MixedPlating,1,4
FMAT,2
METRIC
; #@! TA.AperFunction,Plated,PTH,ViaDrill
T1C0.300
; #@! TA.AperFunction,Plated,PTH,ComponentDrill
T2C0.400
; #@! TA.AperFunction,Plated,PTH,ViaDrill
T3C0.500
; #@! TA.AperFunction,Plated,PTH,ComponentDrill
T4C0.600
; #@! TA.AperFunction,Plated,PTH,ComponentDrill
T5C3.200
; #@! TA.AperFunction,NonPlated,NPTH,ComponentDrill
T6C0.650
; #@! TA.AperFunction,NonPlated,NPTH,ComponentDrill
T7C2.000
%
G90
G05
T1
X14.699Y93.5
X14.699Y84.5
X14.699Y75.5
X14.699Y66.5
X14.699Y57.5
X14.699Y45.5
X14.699Y36.5
X14.699Y27.5
X14.699Y18.5
X14.699Y9.5
X16.666Y97.533
X16.666Y88.533
X16.666Y79.533
X16.666Y70.533
X16.666Y61.533
X16.666Y49.533
X16.666Y40.533
X16.666Y31.533
X16.666Y22.533
X16.666Y13.533
X17.231Y96.967
X17.231Y87.967
X17.231Y78.967
X17.231Y69.967
X17.231Y60.967
X17.231Y48.967
X17.231Y39.967
X17.231Y30.967
X17.231Y21.967
X17.231Y12.967
X19.699Y97.2
X19.699Y88.2
X19.699Y79.2
X19.699Y70.2
X19.699Y61.2
X19.699Y49.2
X19.699Y40.2
X19.699Y31.2
X19.699Y22.2
X19.699Y13.2
X20.499Y97.2
X20.499Y88.2
X20.499Y79.2
X20.499Y70.2
X20.499Y61.2
X20.499Y49.2
X20.499Y40.2
X20.499Y31.2
X20.499Y22.2
X20.499Y13.2
X23.366Y95.267
X23.366Y86.267
X23.366Y77.267
X23.366Y68.267
X23.366Y59.267
X23.366Y47.267
X23.366Y38.267
X23.366Y29.267
X23.366Y20.267
X23.366Y11.267
X23.931Y95.833
X23.931Y86.833
X23.931Y77.833
X23.931Y68.833
X23.931Y59.833
X23.931Y47.833
X23.931Y38.833
X23.931Y29.833
X23.931Y20.833
X23.931Y11.833
X24.916Y96.917
X24.916Y87.917
X24.916Y78.917
X24.916Y69.917
X24.916Y60.917
X24.916Y48.917
X24.916Y39.917
X24.916Y30.917
X24.916Y21.917
X24.916Y12.917
X25.481Y97.483
X25.481Y88.483
X25.481Y79.483
X25.481Y70.483
X25.481Y61.483
X25.481Y49.483
X25.481Y40.483
X25.481Y31.483
X25.481Y22.483
X25.481Y13.483
X26.099Y93.6
X26.099Y84.6
X26.099Y75.6
X26.099Y66.6
X26.099Y57.6
X26.099Y45.6
X26.099Y36.6
X26.099Y27.6
X26.099Y18.6
X26.099Y9.6
X26.899Y93.6
X26.899Y84.6
X26.899Y75.6
X26.899Y66.6
X26.899Y57.6
X26.899Y45.6
X26.899Y36.6
X26.899Y27.6
X26.899Y18.6
X26.899Y9.6
X31.7Y91.097
X31.7Y82.097
X31.7Y73.097
X31.7Y64.097
X31.7Y55.097
X31.7Y43.097
X31.7Y34.097
X31.7Y25.097
X31.7Y16.097
X31.7Y7.097
X32.649Y94.15
X32.649Y85.15
X32.649Y76.15
X32.649Y67.15
X32.649Y58.15
X32.649Y46.15
X32.649Y37.15
X32.649Y28.15
X32.649Y19.15
X32.649Y10.15
X33.199Y91.1
X33.199Y82.1
X33.199Y73.1
X33.199Y64.1
X33.199Y55.1
X33.199Y43.1
X33.199Y34.1
X33.199Y25.1
X33.199Y16.1
X33.199Y7.1
X33.699Y94.0
X33.699Y85.0
X33.699Y76.0
X33.699Y67.0
X33.699Y58.0
X33.699Y46.0
X33.699Y37.0
X33.699Y28.0
X33.699Y19.0
X33.699Y10.0
X33.999Y91.1
X33.999Y82.1
X33.999Y73.1
X33.999Y64.1
X33.999Y55.1
X33.999Y43.1
X33.999Y34.1
X33.999Y25.1
X33.999Y16.1
X33.999Y7.1
X35.45Y91.099
X35.45Y82.099
X35.45Y73.099
X35.45Y64.099
X35.45Y55.099
X35.45Y43.099
X35.45Y34.099
X35.45Y25.099
X35.45Y16.099
X35.45Y7.099
X55.699Y93.5
X55.699Y84.5
X55.699Y75.5
X55.699Y66.5
X55.699Y57.5
X55.699Y45.5
X55.699Y36.5
X55.699Y27.5
X55.699Y18.5
X55.699Y9.5
X57.666Y97.533
X57.666Y88.533
X57.666Y79.533
X57.666Y70.533
X57.666Y61.533
X57.666Y49.533
X57.666Y40.533
X57.666Y31.533
X57.666Y22.533
X57.666Y13.533
X58.231Y96.967
X58.231Y87.967
X58.231Y78.967
X58.231Y69.967
X58.231Y60.967
X58.231Y48.967
X58.231Y39.967
X58.231Y30.967
X58.231Y21.967
X58.231Y12.967
X60.699Y97.2
X60.699Y88.2
X60.699Y79.2
X60.699Y70.2
X60.699Y61.2
X60.699Y49.2
X60.699Y40.2
X60.699Y31.2
X60.699Y22.2
X60.699Y13.2
X61.499Y97.2
X61.499Y88.2
X61.499Y79.2
X61.499Y70.2
X61.499Y61.2
X61.499Y49.2
X61.499Y40.2
X61.499Y31.2
X61.499Y22.2
X61.499Y13.2
X64.366Y95.267
X64.366Y86.267
X64.366Y77.267
X64.366Y68.267
X64.366Y59.267
X64.366Y47.267
X64.366Y38.267
X64.366Y29.267
X64.366Y20.267
X64.366Y11.267
X64.931Y95.833
X64.931Y86.833
X64.931Y77.833
X64.931Y68.833
X64.931Y59.833
X64.931Y47.833
X64.931Y38.833
X64.931Y29.833
X64.931Y20.833
X64.931Y11.833
X65.916Y96.917
X65.916Y87.917
X65.916Y78.917
X65.916Y69.917
X65.916Y60.917
X65.916Y48.917
X65.916Y39.917
X65.916Y30.917
X65.916Y21.917
X65.916Y12.917
X66.481Y97.483
X66.481Y88.483
X66.481Y79.483
X66.481Y70.483
X66.481Y61.483
X66.481Y49.483
X66.481Y40.483
X66.481Y31.483
X66.481Y22.483
X66.481Y13.483
X67.099Y93.6
X67.099Y84.6
X67.099Y75.6
X67.099Y66.6
X67.099Y57.6
X67.099Y45.6
X67.099Y36.6
X67.099Y27.6
X67.099Y18.6
X67.099Y9.6
X67.899Y93.6
X67.899Y84.6
X67.899Y75.6
X67.899Y66.6
X67.899Y57.6
X67.899Y45.6
X67.899Y36.6
X67.899Y27.6
X67.899Y18.6
X67.899Y9.6
X72.7Y91.097
X72.7Y82.097
X72.7Y73.097
X72.7Y64.097
X72.7Y55.097
X72.7Y43.097
X72.7Y34.097
X72.7Y25.097
X72.7Y16.097
X72.7Y7.097
X73.649Y94.15
X73.649Y85.15
X73.649Y76.15
X73.649Y67.15
X73.649Y58.15
X73.649Y46.15
X73.649Y37.15
X73.649Y28.15
X73.649Y19.15
X73.649Y10.15
X74.199Y91.1
X74.199Y82.1
X74.199Y73.1
X74.199Y64.1
X74.199Y55.1
X74.199Y43.1
X74.199Y34.1
X74.199Y25.1
X74.199Y16.1
X74.199Y7.1
X74.699Y94.0
X74.699Y85.0
X74.699Y76.0
X74.699Y67.0
X74.699Y58.0
X74.699Y46.0
X74.699Y37.0
X74.699Y28.0
X74.699Y19.0
X74.699Y10.0
X74.999Y91.1
X74.999Y82.1
X74.999Y73.1
X74.999Y64.1
X74.999Y55.1
X74.999Y43.1
X74.999Y34.1
X74.999Y25.1
X74.999Y16.1
X74.999Y7.1
X76.45Y91.099
X76.45Y82.099
X76.45Y73.099
X76.45Y64.099
X76.45Y55.099
X76.45Y43.099
X76.45Y34.099
X76.45Y25.099
X76.45Y16.099
X76.45Y7.099
X96.699Y93.5
X96.699Y84.5
X96.699Y75.5
X96.699Y66.5
X96.699Y57.5
X96.699Y45.5
X96.699Y36.5
X96.699Y27.5
X96.699Y18.5
X96.699Y9.5
X98.666Y97.533
X98.666Y88.533
X98.666Y79.533
X98.666Y70.533
X98.666Y61.533
X98.666Y49.533
X98.666Y40.533
X98.666Y31.533
X98.666Y22.533
X98.666Y13.533
X99.231Y96.967
X99.231Y87.967
X99.231Y78.967
X99.231Y69.967
X99.231Y60.967
X99.231Y48.967
X99.231Y39.967
X99.231Y30.967
X99.231Y21.967
X99.231Y12.967
X101.699Y97.2
X101.699Y88.2
X101.699Y79.2
X101.699Y70.2
X101.699Y61.2
X101.699Y49.2
X101.699Y40.2
X101.699Y31.2
X101.699Y22.2
X101.699Y13.2
X102.499Y97.2
X102.499Y88.2
X102.499Y79.2
X102.499Y70.2
X102.499Y61.2
X102.499Y49.2
X102.499Y40.2
X102.499Y31.2
X102.499Y22.2
X102.499Y13.2
X105.366Y95.267
X105.366Y86.267
X105.366Y77.267
X105.366Y68.267
X105.366Y59.267
X105.366Y47.267
X105.366Y38.267
X105.366Y29.267
X105.366Y20.267
X105.366Y11.267
X105.931Y95.833
X105.931Y86.833
X105.931Y77.833
X105.931Y68.833
X105.931Y59.833
X105.931Y47.833
X105.931Y38.833
X105.931Y29.833
X105.931Y20.833
X105.931Y11.833
X106.916Y96.917
X106.916Y87.917
X106.916Y78.917
X106.916Y69.917
X106.916Y60.917
X106.916Y48.917
X106.916Y39.917
X106.916Y30.917
X106.916Y21.917
X106.916Y12.917
X107.481Y97.483
X107.481Y88.483
X107.481Y79.483
X107.481Y70.483
X107.481Y61.483
X107.481Y49.483
X107.481Y40.483
X107.481Y31.483
X107.481Y22.483
X107.481Y13.483
X108.099Y93.6
X108.099Y84.6
X108.099Y75.6
X108.099Y66.6
X108.099Y57.6
X108.099Y45.6
X108.099Y36.6
X108.099Y27.6
X108.099Y18.6
X108.099Y9.6
X108.899Y93.6
X108.899Y84.6
X108.899Y75.6
X108.899Y66.6
X108.899Y57.6
X108.899Y45.6
X108.899Y36.6
X108.899Y27.6
X108.899Y18.6
X108.899Y9.6
X113.7Y91.097
X113.7Y82.097
X113.7Y73.097
X113.7Y64.097
X113.7Y55.097
X113.7Y43.097
X113.7Y34.097
X113.7Y25.097
X113.7Y16.097
X113.7Y7.097
X114.649Y94.15
X114.649Y85.15
X114.649Y76.15
X114.649Y67.15
X114.649Y58.15
X114.649Y46.15
X114.649Y37.15
X114.649Y28.15
X114.649Y19.15
X114.649Y10.15
X115.199Y91.1
X115.199Y82.1
X115.199Y73.1
X115.199Y64.1
X115.199Y55.1
X115.199Y43.1
X115.199Y34.1
X115.199Y25.1
X115.199Y16.1
X115.199Y7.1
X115.699Y94.0
X115.699Y85.0
X115.699Y76.0
X115.699Y67.0
X115.699Y58.0
X115.699Y46.0
X115.699Y37.0
X115.699Y28.0
X115.699Y19.0
X115.699Y10.0
X115.999Y91.1
X115.999Y82.1
X115.999Y73.1
X115.999Y64.1
X115.999Y55.1
X115.999Y43.1
X115.999Y34.1
X115.999Y25.1
X115.999Y16.1
X115.999Y7.1
X117.45Y91.099
X117.45Y82.099
X117.45Y73.099
X117.45Y64.099
X117.45Y55.099
X117.45Y43.099
X117.45Y34.099
X117.45Y25.099
X117.45Y16.099
X117.45Y7.099
T2
X13.499Y92.2
X13.499Y83.2
X13.499Y74.2
X13.499Y65.2
X13.499Y56.2
X13.499Y44.2
X13.499Y35.2
X13.499Y26.2
X13.499Y17.2
X13.499Y8.2
X14.299Y92.2
X14.299Y91.5
X14.299Y90.8
X14.299Y83.2
X14.299Y82.5
X14.299Y81.8
X14.299Y74.2
X14.299Y73.5
X14.299Y72.8
X14.299Y65.2
X14.299Y64.5
X14.299Y63.8
X14.299Y56.2
X14.299Y55.5
X14.299Y54.8
X14.299Y44.2
X14.299Y43.5
X14.299Y42.8
X14.299Y35.2
X14.299Y34.5
X14.299Y33.8
X14.299Y26.2
X14.299Y25.5
X14.299Y24.8
X14.299Y17.2
X14.299Y16.5
X14.299Y15.8
X14.299Y8.2
X14.299Y7.5
X14.299Y6.8
X18.699Y92.2
X18.699Y91.5
X18.699Y90.8
X18.699Y83.2
X18.699Y82.5
X18.699Y81.8
X18.699Y74.2
X18.699Y73.5
X18.699Y72.8
X18.699Y65.2
X18.699Y64.5
X18.699Y63.8
X18.699Y56.2
X18.699Y55.5
X18.699Y54.8
X18.699Y44.2
X18.699Y43.5
X18.699Y42.8
X18.699Y35.2
X18.699Y34.5
X18.699Y33.8
X18.699Y26.2
X18.699Y25.5
X18.699Y24.8
X18.699Y17.2
X18.699Y16.5
X18.699Y15.8
X18.699Y8.2
X18.699Y7.5
X18.699Y6.8
X19.449Y92.2
X19.449Y83.2
X19.449Y74.2
X19.449Y65.2
X19.449Y56.2
X19.449Y44.2
X19.449Y35.2
X19.449Y26.2
X19.449Y17.2
X19.449Y8.2
X54.499Y92.2
X54.499Y83.2
X54.499Y74.2
X54.499Y65.2
X54.499Y56.2
X54.499Y44.2
X54.499Y35.2
X54.499Y26.2
X54.499Y17.2
X54.499Y8.2
X55.299Y92.2
X55.299Y91.5
X55.299Y90.8
X55.299Y83.2
X55.299Y82.5
X55.299Y81.8
X55.299Y74.2
X55.299Y73.5
X55.299Y72.8
X55.299Y65.2
X55.299Y64.5
X55.299Y63.8
X55.299Y56.2
X55.299Y55.5
X55.299Y54.8
X55.299Y44.2
X55.299Y43.5
X55.299Y42.8
X55.299Y35.2
X55.299Y34.5
X55.299Y33.8
X55.299Y26.2
X55.299Y25.5
X55.299Y24.8
X55.299Y17.2
X55.299Y16.5
X55.299Y15.8
X55.299Y8.2
X55.299Y7.5
X55.299Y6.8
X59.699Y92.2
X59.699Y91.5
X59.699Y90.8
X59.699Y83.2
X59.699Y82.5
X59.699Y81.8
X59.699Y74.2
X59.699Y73.5
X59.699Y72.8
X59.699Y65.2
X59.699Y64.5
X59.699Y63.8
X59.699Y56.2
X59.699Y55.5
X59.699Y54.8
X59.699Y44.2
X59.699Y43.5
X59.699Y42.8
X59.699Y35.2
X59.699Y34.5
X59.699Y33.8
X59.699Y26.2
X59.699Y25.5
X59.699Y24.8
X59.699Y17.2
X59.699Y16.5
X59.699Y15.8
X59.699Y8.2
X59.699Y7.5
X59.699Y6.8
X60.449Y92.2
X60.449Y83.2
X60.449Y74.2
X60.449Y65.2
X60.449Y56.2
X60.449Y44.2
X60.449Y35.2
X60.449Y26.2
X60.449Y17.2
X60.449Y8.2
X95.499Y92.2
X95.499Y83.2
X95.499Y74.2
X95.499Y65.2
X95.499Y56.2
X95.499Y44.2
X95.499Y35.2
X95.499Y26.2
X95.499Y17.2
X95.499Y8.2
X96.299Y92.2
X96.299Y91.5
X96.299Y90.8
X96.299Y83.2
X96.299Y82.5
X96.299Y81.8
X96.299Y74.2
X96.299Y73.5
X96.299Y72.8
X96.299Y65.2
X96.299Y64.5
X96.299Y63.8
X96.299Y56.2
X96.299Y55.5
X96.299Y54.8
X96.299Y44.2
X96.299Y43.5
X96.299Y42.8
X96.299Y35.2
X96.299Y34.5
X96.299Y33.8
X96.299Y26.2
X96.299Y25.5
X96.299Y24.8
X96.299Y17.2
X96.299Y16.5
X96.299Y15.8
X96.299Y8.2
X96.299Y7.5
X96.299Y6.8
X100.699Y92.2
X100.699Y91.5
X100.699Y90.8
X100.699Y83.2
X100.699Y82.5
X100.699Y81.8
X100.699Y74.2
X100.699Y73.5
X100.699Y72.8
X100.699Y65.2
X100.699Y64.5
X100.699Y63.8
X100.699Y56.2
X100.699Y55.5
X100.699Y54.8
X100.699Y44.2
X100.699Y43.5
X100.699Y42.8
X100.699Y35.2
X100.699Y34.5
X100.699Y33.8
X100.699Y26.2
X100.699Y25.5
X100.699Y24.8
X100.699Y17.2
X100.699Y16.5
X100.699Y15.8
X100.699Y8.2
X100.699Y7.5
X100.699Y6.8
X101.449Y92.2
X101.449Y83.2
X101.449Y74.2
X101.449Y65.2
X101.449Y56.2
X101.449Y44.2
X101.449Y35.2
X101.449Y26.2
X101.449Y17.2
X101.449Y8.2
T3
X16.499Y92.1
X16.499Y83.1
X16.499Y74.1
X16.499Y65.1
X16.499Y56.1
X16.499Y44.1
X16.499Y35.1
X16.499Y26.1
X16.499Y17.1
X16.499Y8.1
X19.599Y96.1
X19.599Y87.1
X19.599Y78.1
X19.599Y69.1
X19.599Y60.1
X19.599Y48.1
X19.599Y39.1
X19.599Y30.1
X19.599Y21.1
X19.599Y12.1
X20.199Y93.1
X20.199Y84.1
X20.199Y75.1
X20.199Y66.1
X20.199Y57.1
X20.199Y45.1
X20.199Y36.1
X20.199Y27.1
X20.199Y18.1
X20.199Y9.1
X23.817Y93.578
X23.817Y84.578
X23.817Y75.578
X23.817Y66.578
X23.817Y57.578
X23.817Y45.578
X23.817Y36.578
X23.817Y27.578
X23.817Y18.578
X23.817Y9.578
X27.717Y90.999
X27.717Y81.999
X27.717Y72.999
X27.717Y63.999
X27.717Y54.999
X27.717Y42.999
X27.717Y33.999
X27.717Y24.999
X27.717Y15.999
X27.717Y6.999
X27.899Y94.2
X27.899Y85.2
X27.899Y76.2
X27.899Y67.2
X27.899Y58.2
X27.899Y46.2
X27.899Y37.2
X27.899Y28.2
X27.899Y19.2
X27.899Y10.2
X39.319Y96.702
X39.319Y87.702
X39.319Y78.702
X39.319Y69.702
X39.319Y60.702
X39.319Y48.702
X39.319Y39.702
X39.319Y30.702
X39.319Y21.702
X39.319Y12.702
X39.328Y92.402
X39.328Y83.402
X39.328Y74.402
X39.328Y65.402
X39.328Y56.402
X39.328Y44.402
X39.328Y35.402
X39.328Y26.402
X39.328Y17.402
X39.328Y8.402
X39.67Y91.023
X39.67Y82.023
X39.67Y73.023
X39.67Y64.023
X39.67Y55.023
X39.67Y43.023
X39.67Y34.023
X39.67Y25.023
X39.67Y16.023
X39.67Y7.023
X57.499Y92.1
X57.499Y83.1
X57.499Y74.1
X57.499Y65.1
X57.499Y56.1
X57.499Y44.1
X57.499Y35.1
X57.499Y26.1
X57.499Y17.1
X57.499Y8.1
X60.599Y96.1
X60.599Y87.1
X60.599Y78.1
X60.599Y69.1
X60.599Y60.1
X60.599Y48.1
X60.599Y39.1
X60.599Y30.1
X60.599Y21.1
X60.599Y12.1
X61.199Y93.1
X61.199Y84.1
X61.199Y75.1
X61.199Y66.1
X61.199Y57.1
X61.199Y45.1
X61.199Y36.1
X61.199Y27.1
X61.199Y18.1
X61.199Y9.1
X64.817Y93.578
X64.817Y84.578
X64.817Y75.578
X64.817Y66.578
X64.817Y57.578
X64.817Y45.578
X64.817Y36.578
X64.817Y27.578
X64.817Y18.578
X64.817Y9.578
X68.717Y90.999
X68.717Y81.999
X68.717Y72.999
X68.717Y63.999
X68.717Y54.999
X68.717Y42.999
X68.717Y33.999
X68.717Y24.999
X68.717Y15.999
X68.717Y6.999
X68.899Y94.2
X68.899Y85.2
X68.899Y76.2
X68.899Y67.2
X68.899Y58.2
X68.899Y46.2
X68.899Y37.2
X68.899Y28.2
X68.899Y19.2
X68.899Y10.2
X80.319Y96.702
X80.319Y87.702
X80.319Y78.702
X80.319Y69.702
X80.319Y60.702
X80.319Y48.702
X80.319Y39.702
X80.319Y30.702
X80.319Y21.702
X80.319Y12.702
X80.328Y92.402
X80.328Y83.402
X80.328Y74.402
X80.328Y65.402
X80.328Y56.402
X80.328Y44.402
X80.328Y35.402
X80.328Y26.402
X80.328Y17.402
X80.328Y8.402
X80.67Y91.023
X80.67Y82.023
X80.67Y73.023
X80.67Y64.023
X80.67Y55.023
X80.67Y43.023
X80.67Y34.023
X80.67Y25.023
X80.67Y16.023
X80.67Y7.023
X98.499Y92.1
X98.499Y83.1
X98.499Y74.1
X98.499Y65.1
X98.499Y56.1
X98.499Y44.1
X98.499Y35.1
X98.499Y26.1
X98.499Y17.1
X98.499Y8.1
X101.599Y96.1
X101.599Y87.1
X101.599Y78.1
X101.599Y69.1
X101.599Y60.1
X101.599Y48.1
X101.599Y39.1
X101.599Y30.1
X101.599Y21.1
X101.599Y12.1
X102.199Y93.1
X102.199Y84.1
X102.199Y75.1
X102.199Y66.1
X102.199Y57.1
X102.199Y45.1
X102.199Y36.1
X102.199Y27.1
X102.199Y18.1
X102.199Y9.1
X105.817Y93.578
X105.817Y84.578
X105.817Y75.578
X105.817Y66.578
X105.817Y57.578
X105.817Y45.578
X105.817Y36.578
X105.817Y27.578
X105.817Y18.578
X105.817Y9.578
X109.717Y90.999
X109.717Y81.999
X109.717Y72.999
X109.717Y63.999
X109.717Y54.999
X109.717Y42.999
X109.717Y33.999
X109.717Y24.999
X109.717Y15.999
X109.717Y6.999
X109.899Y94.2
X109.899Y85.2
X109.899Y76.2
X109.899Y67.2
X109.899Y58.2
X109.899Y46.2
X109.899Y37.2
X109.899Y28.2
X109.899Y19.2
X109.899Y10.2
X121.319Y96.702
X121.319Y87.702
X121.319Y78.702
X121.319Y69.702
X121.319Y60.702
X121.319Y48.702
X121.319Y39.702
X121.319Y30.702
X121.319Y21.702
X121.319Y12.702
X121.328Y92.402
X121.328Y83.402
X121.328Y74.402
X121.328Y65.402
X121.328Y56.402
X121.328Y44.402
X121.328Y35.402
X121.328Y26.402
X121.328Y17.402
X121.328Y8.402
X121.67Y91.023
X121.67Y82.023
X121.67Y73.023
X121.67Y64.023
X121.67Y55.023
X121.67Y43.023
X121.67Y34.023
X121.67Y25.023
X121.67Y16.023
X121.67Y7.023
T5
X9.499Y94.5
X9.499Y85.5
X9.499Y76.5
X9.499Y67.5
X9.499Y58.5
X9.499Y46.5
X9.499Y37.5
X9.499Y28.5
X9.499Y19.5
X9.499Y10.5
X42.499Y94.5
X42.499Y85.5
X42.499Y76.5
X42.499Y67.5
X42.499Y58.5
X42.499Y46.5
X42.499Y37.5
X42.499Y28.5
X42.499Y19.5
X42.499Y10.5
X50.499Y94.5
X50.499Y85.5
X50.499Y76.5
X50.499Y67.5
X50.499Y58.5
X50.499Y46.5
X50.499Y37.5
X50.499Y28.5
X50.499Y19.5
X50.499Y10.5
X83.499Y94.5
X83.499Y85.5
X83.499Y76.5
X83.499Y67.5
X83.499Y58.5
X83.499Y46.5
X83.499Y37.5
X83.499Y28.5
X83.499Y19.5
X83.499Y10.5
X91.499Y94.5
X91.499Y85.5
X91.499Y76.5
X91.499Y67.5
X91.499Y58.5
X91.499Y46.5
X91.499Y37.5
X91.499Y28.5
X91.499Y19.5
X91.499Y10.5
X124.499Y94.5
X124.499Y85.5
X124.499Y76.5
X124.499Y67.5
X124.499Y58.5
X124.499Y46.5
X124.499Y37.5
X124.499Y28.5
X124.499Y19.5
X124.499Y10.5
T6
X30.709Y94.05
X30.709Y85.05
X30.709Y76.05
X30.709Y67.05
X30.709Y58.05
X30.709Y46.05
X30.709Y37.05
X30.709Y28.05
X30.709Y19.05
X30.709Y10.05
X36.489Y94.05
X36.489Y85.05
X36.489Y76.05
X36.489Y67.05
X36.489Y58.05
X36.489Y46.05
X36.489Y37.05
X36.489Y28.05
X36.489Y19.05
X36.489Y10.05
X71.709Y94.05
X71.709Y85.05
X71.709Y76.05
X71.709Y67.05
X71.709Y58.05
X71.709Y46.05
X71.709Y37.05
X71.709Y28.05
X71.709Y19.05
X71.709Y10.05
X77.489Y94.05
X77.489Y85.05
X77.489Y76.05
X77.489Y67.05
X77.489Y58.05
X77.489Y46.05
X77.489Y37.05
X77.489Y28.05
X77.489Y19.05
X77.489Y10.05
X112.709Y94.05
X112.709Y85.05
X112.709Y76.05
X112.709Y67.05
X112.709Y58.05
X112.709Y46.05
X112.709Y37.05
X112.709Y28.05
X112.709Y19.05
X112.709Y10.05
X118.489Y94.05
X118.489Y85.05
X118.489Y76.05
X118.489Y67.05
X118.489Y58.05
X118.489Y46.05
X118.489Y37.05
X118.489Y28.05
X118.489Y19.05
X118.489Y10.05
T7
X2.5Y102.5
X2.5Y2.5
X131.497Y102.5
T4
X29.279Y97.4G85X29.279Y98.0
G05
X29.279Y92.97G85X29.279Y94.07
G05
X29.279Y88.4G85X29.279Y89.0
G05
X29.279Y83.97G85X29.279Y85.07
G05
X29.279Y79.4G85X29.279Y80.0
G05
X29.279Y74.97G85X29.279Y76.07
G05
X29.279Y70.4G85X29.279Y71.0
G05
X29.279Y65.97G85X29.279Y67.07
G05
X29.279Y61.4G85X29.279Y62.0
G05
X29.279Y56.97G85X29.279Y58.07
G05
X29.279Y49.4G85X29.279Y50.0
G05
X29.279Y44.97G85X29.279Y46.07
G05
X29.279Y40.4G85X29.279Y41.0
G05
X29.279Y35.97G85X29.279Y37.07
G05
X29.279Y31.4G85X29.279Y32.0
G05
X29.279Y26.97G85X29.279Y28.07
G05
X29.279Y22.4G85X29.279Y23.0
G05
X29.279Y17.97G85X29.279Y19.07
G05
X29.279Y13.4G85X29.279Y14.0
G05
X29.279Y8.97G85X29.279Y10.07
G05
X37.919Y97.4G85X37.919Y98.0
G05
X37.919Y92.97G85X37.919Y94.07
G05
X37.919Y88.4G85X37.919Y89.0
G05
X37.919Y83.97G85X37.919Y85.07
G05
X37.919Y79.4G85X37.919Y80.0
G05
X37.919Y74.97G85X37.919Y76.07
G05
X37.919Y70.4G85X37.919Y71.0
G05
X37.919Y65.97G85X37.919Y67.07
G05
X37.919Y61.4G85X37.919Y62.0
G05
X37.919Y56.97G85X37.919Y58.07
G05
X37.919Y49.4G85X37.919Y50.0
G05
X37.919Y44.97G85X37.919Y46.07
G05
X37.919Y40.4G85X37.919Y41.0
G05
X37.919Y35.97G85X37.919Y37.07
G05
X37.919Y31.4G85X37.919Y32.0
G05
X37.919Y26.97G85X37.919Y28.07
G05
X37.919Y22.4G85X37.919Y23.0
G05
X37.919Y17.97G85X37.919Y19.07
G05
X37.919Y13.4G85X37.919Y14.0
G05
X37.919Y8.97G85X37.919Y10.07
G05
X70.279Y97.4G85X70.279Y98.0
G05
X70.279Y92.97G85X70.279Y94.07
G05
X70.279Y88.4G85X70.279Y89.0
G05
X70.279Y83.97G85X70.279Y85.07
G05
X70.279Y79.4G85X70.279Y80.0
G05
X70.279Y74.97G85X70.279Y76.07
G05
X70.279Y70.4G85X70.279Y71.0
G05
X70.279Y65.97G85X70.279Y67.07
G05
X70.279Y61.4G85X70.279Y62.0
G05
X70.279Y56.97G85X70.279Y58.07
G05
X70.279Y49.4G85X70.279Y50.0
G05
X70.279Y44.97G85X70.279Y46.07
G05
X70.279Y40.4G85X70.279Y41.0
G05
X70.279Y35.97G85X70.279Y37.07
G05
X70.279Y31.4G85X70.279Y32.0
G05
X70.279Y26.97G85X70.279Y28.07
G05
X70.279Y22.4G85X70.279Y23.0
G05
X70.279Y17.97G85X70.279Y19.07
G05
X70.279Y13.4G85X70.279Y14.0
G05
X70.279Y8.97G85X70.279Y10.07
G05
X78.919Y97.4G85X78.919Y98.0
G05
X78.919Y92.97G85X78.919Y94.07
G05
X78.919Y88.4G85X78.919Y89.0
G05
X78.919Y83.97G85X78.919Y85.07
G05
X78.919Y79.4G85X78.919Y80.0
G05
X78.919Y74.97G85X78.919Y76.07
G05
X78.919Y70.4G85X78.919Y71.0
G05
X78.919Y65.97G85X78.919Y67.07
G05
X78.919Y61.4G85X78.919Y62.0
G05
X78.919Y56.97G85X78.919Y58.07
G05
X78.919Y49.4G85X78.919Y50.0
G05
X78.919Y44.97G85X78.919Y46.07
G05
X78.919Y40.4G85X78.919Y41.0
G05
X78.919Y35.97G85X78.919Y37.07
G05
X78.919Y31.4G85X78.919Y32.0
G05
X78.919Y26.97G85X78.919Y28.07
G05
X78.919Y22.4G85X78.919Y23.0
G05
X78.919Y17.97G85X78.919Y19.07
G05
X78.919Y13.4G85X78.919Y14.0
G05
X78.919Y8.97G85X78.919Y10.07
G05
X111.279Y97.4G85X111.279Y98.0
G05
X111.279Y92.97G85X111.279Y94.07
G05
X111.279Y88.4G85X111.279Y89.0
G05
X111.279Y83.97G85X111.279Y85.07
G05
X111.279Y79.4G85X111.279Y80.0
G05
X111.279Y74.97G85X111.279Y76.07
G05
X111.279Y70.4G85X111.279Y71.0
G05
X111.279Y65.97G85X111.279Y67.07
G05
X111.279Y61.4G85X111.279Y62.0
G05
X111.279Y56.97G85X111.279Y58.07
G05
X111.279Y49.4G85X111.279Y50.0
G05
X111.279Y44.97G85X111.279Y46.07
G05
X111.279Y40.4G85X111.279Y41.0
G05
X111.279Y35.97G85X111.279Y37.07
G05
X111.279Y31.4G85X111.279Y32.0
G05
X111.279Y26.97G85X111.279Y28.07
G05
X111.279Y22.4G85X111.279Y23.0
G05
X111.279Y17.97G85X111.279Y19.07
G05
X111.279Y13.4G85X111.279Y14.0
G05
X111.279Y8.97G85X111.279Y10.07
G05
X119.919Y97.4G85X119.919Y98.0
G05
X119.919Y92.97G85X119.919Y94.07
G05
X119.919Y88.4G85X119.919Y89.0
G05
X119.919Y83.97G85X119.919Y85.07
G05
X119.919Y79.4G85X119.919Y80.0
G05
X119.919Y74.97G85X119.919Y76.07
G05
X119.919Y70.4G85X119.919Y71.0
G05
X119.919Y65.97G85X119.919Y67.07
G05
X119.919Y61.4G85X119.919Y62.0
G05
X119.919Y56.97G85X119.919Y58.07
G05
X119.919Y49.4G85X119.919Y50.0
G05
X119.919Y44.97G85X119.919Y46.07
G05
X119.919Y40.4G85X119.919Y41.0
G05
X119.919Y35.97G85X119.919Y37.07
G05
X119.919Y31.4G85X119.919Y32.0
G05
X119.919Y26.97G85X119.919Y28.07
G05
X119.919Y22.4G85X119.919Y23.0
G05
X119.919Y17.97G85X119.919Y19.07
G05
X119.919Y13.4G85X119.919Y14.0
G05
X119.919Y8.97G85X119.919Y10.07
G05
T0
M30
