G04 #@! TF.GenerationSoftware,KiCad,Pcbnew,(6.0.11)*
G04 #@! TF.CreationDate,2023-02-11T18:44:03+01:00*
G04 #@! TF.ProjectId,udb-s-panel,7564622d-732d-4706-916e-656c2e6b6963,rev?*
G04 #@! TF.SameCoordinates,Original*
G04 #@! TF.FileFunction,Other,Comment*
%FSLAX46Y46*%
G04 Gerber Fmt 4.6, Leading zero omitted, Abs format (unit mm)*
G04 Created by KiCad (PCBNEW (6.0.11)) date 2023-02-11 18:44:03*
%MOMM*%
%LPD*%
G01*
G04 APERTURE LIST*
%ADD10C,0.400000*%
%ADD11C,0.150000*%
G04 APERTURE END LIST*
D10*
X-3000000Y33000019D02*
X136997205Y33000019D01*
X87498601Y108000020D02*
X87498601Y-3000000D01*
X-3000000Y42000019D02*
X136997205Y42000019D01*
X-3000000Y72000019D02*
X136997205Y72000019D01*
X-3000000Y99000019D02*
X136997205Y99000019D01*
X-3000000Y63000019D02*
X136997205Y63000019D01*
X46498601Y108000020D02*
X46498601Y-3000000D01*
X127998601Y108000020D02*
X127998601Y-3000000D01*
X-3000000Y90000019D02*
X136997205Y90000019D01*
X-3000000Y6000019D02*
X136997205Y6000019D01*
X-3000000Y24000019D02*
X136997205Y24000019D01*
X5998601Y108000020D02*
X5998601Y-3000000D01*
X-3000000Y81000019D02*
X136997205Y81000019D01*
X-3000000Y15000019D02*
X136997205Y15000019D01*
X-3000000Y51000019D02*
X136997205Y51000019D01*
X-3000000Y54000019D02*
X136997205Y54000019D01*
X140447681Y34095258D02*
X141114347Y32095258D01*
X141781014Y34095258D01*
X142447681Y32857162D02*
X143971490Y32857162D01*
X146066728Y32285734D02*
X145971490Y32190496D01*
X145685776Y32095258D01*
X145495300Y32095258D01*
X145209585Y32190496D01*
X145019109Y32380972D01*
X144923871Y32571448D01*
X144828633Y32952400D01*
X144828633Y33238115D01*
X144923871Y33619067D01*
X145019109Y33809543D01*
X145209585Y34000019D01*
X145495300Y34095258D01*
X145685776Y34095258D01*
X145971490Y34000019D01*
X146066728Y33904781D01*
X146923871Y34095258D02*
X146923871Y32476210D01*
X147019109Y32285734D01*
X147114347Y32190496D01*
X147304824Y32095258D01*
X147685776Y32095258D01*
X147876252Y32190496D01*
X147971490Y32285734D01*
X148066728Y32476210D01*
X148066728Y34095258D01*
X148733395Y34095258D02*
X149876252Y34095258D01*
X149304824Y32095258D02*
X149304824Y34095258D01*
X126903362Y111450497D02*
X128903362Y112117163D01*
X126903362Y112783830D01*
X128141458Y113450497D02*
X128141458Y114974306D01*
X128712886Y117069544D02*
X128808124Y116974306D01*
X128903362Y116688592D01*
X128903362Y116498116D01*
X128808124Y116212401D01*
X128617648Y116021925D01*
X128427172Y115926687D01*
X128046220Y115831449D01*
X127760505Y115831449D01*
X127379553Y115926687D01*
X127189077Y116021925D01*
X126998601Y116212401D01*
X126903362Y116498116D01*
X126903362Y116688592D01*
X126998601Y116974306D01*
X127093839Y117069544D01*
X126903362Y117926687D02*
X128522410Y117926687D01*
X128712886Y118021925D01*
X128808124Y118117163D01*
X128903362Y118307640D01*
X128903362Y118688592D01*
X128808124Y118879068D01*
X128712886Y118974306D01*
X128522410Y119069544D01*
X126903362Y119069544D01*
X126903362Y119736211D02*
X126903362Y120879068D01*
X128903362Y120307640D02*
X126903362Y120307640D01*
X45403362Y111450497D02*
X47403362Y112117163D01*
X45403362Y112783830D01*
X46641458Y113450497D02*
X46641458Y114974306D01*
X47212886Y117069544D02*
X47308124Y116974306D01*
X47403362Y116688592D01*
X47403362Y116498116D01*
X47308124Y116212401D01*
X47117648Y116021925D01*
X46927172Y115926687D01*
X46546220Y115831449D01*
X46260505Y115831449D01*
X45879553Y115926687D01*
X45689077Y116021925D01*
X45498601Y116212401D01*
X45403362Y116498116D01*
X45403362Y116688592D01*
X45498601Y116974306D01*
X45593839Y117069544D01*
X45403362Y117926687D02*
X47022410Y117926687D01*
X47212886Y118021925D01*
X47308124Y118117163D01*
X47403362Y118307640D01*
X47403362Y118688592D01*
X47308124Y118879068D01*
X47212886Y118974306D01*
X47022410Y119069544D01*
X45403362Y119069544D01*
X45403362Y119736211D02*
X45403362Y120879068D01*
X47403362Y120307640D02*
X45403362Y120307640D01*
X140447681Y16095258D02*
X141114347Y14095258D01*
X141781014Y16095258D01*
X142447681Y14857162D02*
X143971490Y14857162D01*
X146066728Y14285734D02*
X145971490Y14190496D01*
X145685776Y14095258D01*
X145495300Y14095258D01*
X145209585Y14190496D01*
X145019109Y14380972D01*
X144923871Y14571448D01*
X144828633Y14952400D01*
X144828633Y15238115D01*
X144923871Y15619067D01*
X145019109Y15809543D01*
X145209585Y16000019D01*
X145495300Y16095258D01*
X145685776Y16095258D01*
X145971490Y16000019D01*
X146066728Y15904781D01*
X146923871Y16095258D02*
X146923871Y14476210D01*
X147019109Y14285734D01*
X147114347Y14190496D01*
X147304824Y14095258D01*
X147685776Y14095258D01*
X147876252Y14190496D01*
X147971490Y14285734D01*
X148066728Y14476210D01*
X148066728Y16095258D01*
X148733395Y16095258D02*
X149876252Y16095258D01*
X149304824Y14095258D02*
X149304824Y16095258D01*
X140447681Y25095258D02*
X141114347Y23095258D01*
X141781014Y25095258D01*
X142447681Y23857162D02*
X143971490Y23857162D01*
X146066728Y23285734D02*
X145971490Y23190496D01*
X145685776Y23095258D01*
X145495300Y23095258D01*
X145209585Y23190496D01*
X145019109Y23380972D01*
X144923871Y23571448D01*
X144828633Y23952400D01*
X144828633Y24238115D01*
X144923871Y24619067D01*
X145019109Y24809543D01*
X145209585Y25000019D01*
X145495300Y25095258D01*
X145685776Y25095258D01*
X145971490Y25000019D01*
X146066728Y24904781D01*
X146923871Y25095258D02*
X146923871Y23476210D01*
X147019109Y23285734D01*
X147114347Y23190496D01*
X147304824Y23095258D01*
X147685776Y23095258D01*
X147876252Y23190496D01*
X147971490Y23285734D01*
X148066728Y23476210D01*
X148066728Y25095258D01*
X148733395Y25095258D02*
X149876252Y25095258D01*
X149304824Y23095258D02*
X149304824Y25095258D01*
X4903362Y111450497D02*
X6903362Y112117163D01*
X4903362Y112783830D01*
X6141458Y113450497D02*
X6141458Y114974306D01*
X6712886Y117069544D02*
X6808124Y116974306D01*
X6903362Y116688592D01*
X6903362Y116498116D01*
X6808124Y116212401D01*
X6617648Y116021925D01*
X6427172Y115926687D01*
X6046220Y115831449D01*
X5760505Y115831449D01*
X5379553Y115926687D01*
X5189077Y116021925D01*
X4998601Y116212401D01*
X4903362Y116498116D01*
X4903362Y116688592D01*
X4998601Y116974306D01*
X5093839Y117069544D01*
X4903362Y117926687D02*
X6522410Y117926687D01*
X6712886Y118021925D01*
X6808124Y118117163D01*
X6903362Y118307640D01*
X6903362Y118688592D01*
X6808124Y118879068D01*
X6712886Y118974306D01*
X6522410Y119069544D01*
X4903362Y119069544D01*
X4903362Y119736211D02*
X4903362Y120879068D01*
X6903362Y120307640D02*
X4903362Y120307640D01*
X140447681Y7095258D02*
X141114347Y5095258D01*
X141781014Y7095258D01*
X142447681Y5857162D02*
X143971490Y5857162D01*
X146066728Y5285734D02*
X145971490Y5190496D01*
X145685776Y5095258D01*
X145495300Y5095258D01*
X145209585Y5190496D01*
X145019109Y5380972D01*
X144923871Y5571448D01*
X144828633Y5952400D01*
X144828633Y6238115D01*
X144923871Y6619067D01*
X145019109Y6809543D01*
X145209585Y7000019D01*
X145495300Y7095258D01*
X145685776Y7095258D01*
X145971490Y7000019D01*
X146066728Y6904781D01*
X146923871Y7095258D02*
X146923871Y5476210D01*
X147019109Y5285734D01*
X147114347Y5190496D01*
X147304824Y5095258D01*
X147685776Y5095258D01*
X147876252Y5190496D01*
X147971490Y5285734D01*
X148066728Y5476210D01*
X148066728Y7095258D01*
X148733395Y7095258D02*
X149876252Y7095258D01*
X149304824Y5095258D02*
X149304824Y7095258D01*
X140447681Y100095258D02*
X141114347Y98095258D01*
X141781014Y100095258D01*
X142447681Y98857162D02*
X143971490Y98857162D01*
X146066728Y98285734D02*
X145971490Y98190496D01*
X145685776Y98095258D01*
X145495300Y98095258D01*
X145209585Y98190496D01*
X145019109Y98380972D01*
X144923871Y98571448D01*
X144828633Y98952400D01*
X144828633Y99238115D01*
X144923871Y99619067D01*
X145019109Y99809543D01*
X145209585Y100000019D01*
X145495300Y100095258D01*
X145685776Y100095258D01*
X145971490Y100000019D01*
X146066728Y99904781D01*
X146923871Y100095258D02*
X146923871Y98476210D01*
X147019109Y98285734D01*
X147114347Y98190496D01*
X147304824Y98095258D01*
X147685776Y98095258D01*
X147876252Y98190496D01*
X147971490Y98285734D01*
X148066728Y98476210D01*
X148066728Y100095258D01*
X148733395Y100095258D02*
X149876252Y100095258D01*
X149304824Y98095258D02*
X149304824Y100095258D01*
X86403362Y111450497D02*
X88403362Y112117163D01*
X86403362Y112783830D01*
X87641458Y113450497D02*
X87641458Y114974306D01*
X88212886Y117069544D02*
X88308124Y116974306D01*
X88403362Y116688592D01*
X88403362Y116498116D01*
X88308124Y116212401D01*
X88117648Y116021925D01*
X87927172Y115926687D01*
X87546220Y115831449D01*
X87260505Y115831449D01*
X86879553Y115926687D01*
X86689077Y116021925D01*
X86498601Y116212401D01*
X86403362Y116498116D01*
X86403362Y116688592D01*
X86498601Y116974306D01*
X86593839Y117069544D01*
X86403362Y117926687D02*
X88022410Y117926687D01*
X88212886Y118021925D01*
X88308124Y118117163D01*
X88403362Y118307640D01*
X88403362Y118688592D01*
X88308124Y118879068D01*
X88212886Y118974306D01*
X88022410Y119069544D01*
X86403362Y119069544D01*
X86403362Y119736211D02*
X86403362Y120879068D01*
X88403362Y120307640D02*
X86403362Y120307640D01*
X140447681Y55095258D02*
X141114347Y53095258D01*
X141781014Y55095258D01*
X142447681Y53857162D02*
X143971490Y53857162D01*
X146066728Y53285734D02*
X145971490Y53190496D01*
X145685776Y53095258D01*
X145495300Y53095258D01*
X145209585Y53190496D01*
X145019109Y53380972D01*
X144923871Y53571448D01*
X144828633Y53952400D01*
X144828633Y54238115D01*
X144923871Y54619067D01*
X145019109Y54809543D01*
X145209585Y55000019D01*
X145495300Y55095258D01*
X145685776Y55095258D01*
X145971490Y55000019D01*
X146066728Y54904781D01*
X146923871Y55095258D02*
X146923871Y53476210D01*
X147019109Y53285734D01*
X147114347Y53190496D01*
X147304824Y53095258D01*
X147685776Y53095258D01*
X147876252Y53190496D01*
X147971490Y53285734D01*
X148066728Y53476210D01*
X148066728Y55095258D01*
X148733395Y55095258D02*
X149876252Y55095258D01*
X149304824Y53095258D02*
X149304824Y55095258D01*
X140447681Y91095258D02*
X141114347Y89095258D01*
X141781014Y91095258D01*
X142447681Y89857162D02*
X143971490Y89857162D01*
X146066728Y89285734D02*
X145971490Y89190496D01*
X145685776Y89095258D01*
X145495300Y89095258D01*
X145209585Y89190496D01*
X145019109Y89380972D01*
X144923871Y89571448D01*
X144828633Y89952400D01*
X144828633Y90238115D01*
X144923871Y90619067D01*
X145019109Y90809543D01*
X145209585Y91000019D01*
X145495300Y91095258D01*
X145685776Y91095258D01*
X145971490Y91000019D01*
X146066728Y90904781D01*
X146923871Y91095258D02*
X146923871Y89476210D01*
X147019109Y89285734D01*
X147114347Y89190496D01*
X147304824Y89095258D01*
X147685776Y89095258D01*
X147876252Y89190496D01*
X147971490Y89285734D01*
X148066728Y89476210D01*
X148066728Y91095258D01*
X148733395Y91095258D02*
X149876252Y91095258D01*
X149304824Y89095258D02*
X149304824Y91095258D01*
X140447681Y73095258D02*
X141114347Y71095258D01*
X141781014Y73095258D01*
X142447681Y71857162D02*
X143971490Y71857162D01*
X146066728Y71285734D02*
X145971490Y71190496D01*
X145685776Y71095258D01*
X145495300Y71095258D01*
X145209585Y71190496D01*
X145019109Y71380972D01*
X144923871Y71571448D01*
X144828633Y71952400D01*
X144828633Y72238115D01*
X144923871Y72619067D01*
X145019109Y72809543D01*
X145209585Y73000019D01*
X145495300Y73095258D01*
X145685776Y73095258D01*
X145971490Y73000019D01*
X146066728Y72904781D01*
X146923871Y73095258D02*
X146923871Y71476210D01*
X147019109Y71285734D01*
X147114347Y71190496D01*
X147304824Y71095258D01*
X147685776Y71095258D01*
X147876252Y71190496D01*
X147971490Y71285734D01*
X148066728Y71476210D01*
X148066728Y73095258D01*
X148733395Y73095258D02*
X149876252Y73095258D01*
X149304824Y71095258D02*
X149304824Y73095258D01*
X140447681Y52095258D02*
X141114347Y50095258D01*
X141781014Y52095258D01*
X142447681Y50857162D02*
X143971490Y50857162D01*
X146066728Y50285734D02*
X145971490Y50190496D01*
X145685776Y50095258D01*
X145495300Y50095258D01*
X145209585Y50190496D01*
X145019109Y50380972D01*
X144923871Y50571448D01*
X144828633Y50952400D01*
X144828633Y51238115D01*
X144923871Y51619067D01*
X145019109Y51809543D01*
X145209585Y52000019D01*
X145495300Y52095258D01*
X145685776Y52095258D01*
X145971490Y52000019D01*
X146066728Y51904781D01*
X146923871Y52095258D02*
X146923871Y50476210D01*
X147019109Y50285734D01*
X147114347Y50190496D01*
X147304824Y50095258D01*
X147685776Y50095258D01*
X147876252Y50190496D01*
X147971490Y50285734D01*
X148066728Y50476210D01*
X148066728Y52095258D01*
X148733395Y52095258D02*
X149876252Y52095258D01*
X149304824Y50095258D02*
X149304824Y52095258D01*
X140447681Y64095258D02*
X141114347Y62095258D01*
X141781014Y64095258D01*
X142447681Y62857162D02*
X143971490Y62857162D01*
X146066728Y62285734D02*
X145971490Y62190496D01*
X145685776Y62095258D01*
X145495300Y62095258D01*
X145209585Y62190496D01*
X145019109Y62380972D01*
X144923871Y62571448D01*
X144828633Y62952400D01*
X144828633Y63238115D01*
X144923871Y63619067D01*
X145019109Y63809543D01*
X145209585Y64000019D01*
X145495300Y64095258D01*
X145685776Y64095258D01*
X145971490Y64000019D01*
X146066728Y63904781D01*
X146923871Y64095258D02*
X146923871Y62476210D01*
X147019109Y62285734D01*
X147114347Y62190496D01*
X147304824Y62095258D01*
X147685776Y62095258D01*
X147876252Y62190496D01*
X147971490Y62285734D01*
X148066728Y62476210D01*
X148066728Y64095258D01*
X148733395Y64095258D02*
X149876252Y64095258D01*
X149304824Y62095258D02*
X149304824Y64095258D01*
X140447681Y82095258D02*
X141114347Y80095258D01*
X141781014Y82095258D01*
X142447681Y80857162D02*
X143971490Y80857162D01*
X146066728Y80285734D02*
X145971490Y80190496D01*
X145685776Y80095258D01*
X145495300Y80095258D01*
X145209585Y80190496D01*
X145019109Y80380972D01*
X144923871Y80571448D01*
X144828633Y80952400D01*
X144828633Y81238115D01*
X144923871Y81619067D01*
X145019109Y81809543D01*
X145209585Y82000019D01*
X145495300Y82095258D01*
X145685776Y82095258D01*
X145971490Y82000019D01*
X146066728Y81904781D01*
X146923871Y82095258D02*
X146923871Y80476210D01*
X147019109Y80285734D01*
X147114347Y80190496D01*
X147304824Y80095258D01*
X147685776Y80095258D01*
X147876252Y80190496D01*
X147971490Y80285734D01*
X148066728Y80476210D01*
X148066728Y82095258D01*
X148733395Y82095258D02*
X149876252Y82095258D01*
X149304824Y80095258D02*
X149304824Y82095258D01*
X140447681Y43095258D02*
X141114347Y41095258D01*
X141781014Y43095258D01*
X142447681Y41857162D02*
X143971490Y41857162D01*
X146066728Y41285734D02*
X145971490Y41190496D01*
X145685776Y41095258D01*
X145495300Y41095258D01*
X145209585Y41190496D01*
X145019109Y41380972D01*
X144923871Y41571448D01*
X144828633Y41952400D01*
X144828633Y42238115D01*
X144923871Y42619067D01*
X145019109Y42809543D01*
X145209585Y43000019D01*
X145495300Y43095258D01*
X145685776Y43095258D01*
X145971490Y43000019D01*
X146066728Y42904781D01*
X146923871Y43095258D02*
X146923871Y41476210D01*
X147019109Y41285734D01*
X147114347Y41190496D01*
X147304824Y41095258D01*
X147685776Y41095258D01*
X147876252Y41190496D01*
X147971490Y41285734D01*
X148066728Y41476210D01*
X148066728Y43095258D01*
X148733395Y43095258D02*
X149876252Y43095258D01*
X149304824Y41095258D02*
X149304824Y43095258D01*
D11*
G04 #@! TO.C,H1*
X127298604Y10500001D02*
G75*
G03*
X127298604Y10500001I-2800000J0D01*
G01*
X86298603Y76500015D02*
G75*
G03*
X86298603Y76500015I-2800000J0D01*
G01*
X45298602Y28500005D02*
G75*
G03*
X45298602Y28500005I-2800000J0D01*
G01*
X86298603Y67500013D02*
G75*
G03*
X86298603Y67500013I-2800000J0D01*
G01*
X127298604Y28500005D02*
G75*
G03*
X127298604Y28500005I-2800000J0D01*
G01*
X45298602Y67500013D02*
G75*
G03*
X45298602Y67500013I-2800000J0D01*
G01*
X45298602Y37500007D02*
G75*
G03*
X45298602Y37500007I-2800000J0D01*
G01*
G04 #@! TO.C,H2*
X94298604Y37500007D02*
G75*
G03*
X94298604Y37500007I-2800000J0D01*
G01*
X94298604Y76500015D02*
G75*
G03*
X94298604Y76500015I-2800000J0D01*
G01*
X53298603Y67500013D02*
G75*
G03*
X53298603Y67500013I-2800000J0D01*
G01*
X94298604Y67500013D02*
G75*
G03*
X94298604Y67500013I-2800000J0D01*
G01*
G04 #@! TO.C,H1*
X45298602Y58500011D02*
G75*
G03*
X45298602Y58500011I-2800000J0D01*
G01*
G04 #@! TO.C,H2*
X53298603Y46500009D02*
G75*
G03*
X53298603Y46500009I-2800000J0D01*
G01*
G04 #@! TO.C,H1*
X86298603Y94500019D02*
G75*
G03*
X86298603Y94500019I-2800000J0D01*
G01*
X86298603Y58500011D02*
G75*
G03*
X86298603Y58500011I-2800000J0D01*
G01*
G04 #@! TO.C,H2*
X94298604Y58500011D02*
G75*
G03*
X94298604Y58500011I-2800000J0D01*
G01*
G04 #@! TO.C,H1*
X86298603Y10500001D02*
G75*
G03*
X86298603Y10500001I-2800000J0D01*
G01*
G04 #@! TO.C,H2*
X53298603Y94500019D02*
G75*
G03*
X53298603Y94500019I-2800000J0D01*
G01*
X12298602Y10500001D02*
G75*
G03*
X12298602Y10500001I-2800000J0D01*
G01*
G04 #@! TO.C,H1*
X127298604Y37500007D02*
G75*
G03*
X127298604Y37500007I-2800000J0D01*
G01*
G04 #@! TO.C,H2*
X12298602Y46500009D02*
G75*
G03*
X12298602Y46500009I-2800000J0D01*
G01*
X12298602Y85500017D02*
G75*
G03*
X12298602Y85500017I-2800000J0D01*
G01*
G04 #@! TO.C,H1*
X45298602Y76500015D02*
G75*
G03*
X45298602Y76500015I-2800000J0D01*
G01*
G04 #@! TO.C,H2*
X94298604Y94500019D02*
G75*
G03*
X94298604Y94500019I-2800000J0D01*
G01*
G04 #@! TO.C,H1*
X45298602Y10500001D02*
G75*
G03*
X45298602Y10500001I-2800000J0D01*
G01*
G04 #@! TO.C,H2*
X12298602Y28500005D02*
G75*
G03*
X12298602Y28500005I-2800000J0D01*
G01*
X94298604Y46500009D02*
G75*
G03*
X94298604Y46500009I-2800000J0D01*
G01*
X12298602Y37500007D02*
G75*
G03*
X12298602Y37500007I-2800000J0D01*
G01*
G04 #@! TO.C,H1*
X45298602Y19500003D02*
G75*
G03*
X45298602Y19500003I-2800000J0D01*
G01*
G04 #@! TO.C,H2*
X53298603Y28500005D02*
G75*
G03*
X53298603Y28500005I-2800000J0D01*
G01*
X12298602Y76500015D02*
G75*
G03*
X12298602Y76500015I-2800000J0D01*
G01*
G04 #@! TO.C,H1*
X127298604Y76500015D02*
G75*
G03*
X127298604Y76500015I-2800000J0D01*
G01*
X86298603Y37500007D02*
G75*
G03*
X86298603Y37500007I-2800000J0D01*
G01*
X45298602Y46500009D02*
G75*
G03*
X45298602Y46500009I-2800000J0D01*
G01*
G04 #@! TO.C,H2*
X53298603Y85500017D02*
G75*
G03*
X53298603Y85500017I-2800000J0D01*
G01*
X94298604Y28500005D02*
G75*
G03*
X94298604Y28500005I-2800000J0D01*
G01*
G04 #@! TO.C,H1*
X127298604Y67500013D02*
G75*
G03*
X127298604Y67500013I-2800000J0D01*
G01*
G04 #@! TO.C,H2*
X53298603Y19500003D02*
G75*
G03*
X53298603Y19500003I-2800000J0D01*
G01*
X53298603Y10500001D02*
G75*
G03*
X53298603Y10500001I-2800000J0D01*
G01*
G04 #@! TO.C,H1*
X86298603Y46500009D02*
G75*
G03*
X86298603Y46500009I-2800000J0D01*
G01*
G04 #@! TO.C,H2*
X94298604Y19500003D02*
G75*
G03*
X94298604Y19500003I-2800000J0D01*
G01*
G04 #@! TO.C,H1*
X86298603Y28500005D02*
G75*
G03*
X86298603Y28500005I-2800000J0D01*
G01*
X127298604Y58500011D02*
G75*
G03*
X127298604Y58500011I-2800000J0D01*
G01*
X127298604Y46500009D02*
G75*
G03*
X127298604Y46500009I-2800000J0D01*
G01*
G04 #@! TO.C,H2*
X12298602Y94500019D02*
G75*
G03*
X12298602Y94500019I-2800000J0D01*
G01*
X12298602Y67500013D02*
G75*
G03*
X12298602Y67500013I-2800000J0D01*
G01*
X53298603Y58500011D02*
G75*
G03*
X53298603Y58500011I-2800000J0D01*
G01*
G04 #@! TO.C,H1*
X86298603Y19500003D02*
G75*
G03*
X86298603Y19500003I-2800000J0D01*
G01*
G04 #@! TO.C,H2*
X12298602Y58500011D02*
G75*
G03*
X12298602Y58500011I-2800000J0D01*
G01*
G04 #@! TO.C,H1*
X45298602Y94500019D02*
G75*
G03*
X45298602Y94500019I-2800000J0D01*
G01*
X86298603Y85500017D02*
G75*
G03*
X86298603Y85500017I-2800000J0D01*
G01*
G04 #@! TO.C,H2*
X12298602Y19500003D02*
G75*
G03*
X12298602Y19500003I-2800000J0D01*
G01*
G04 #@! TO.C,H1*
X127298604Y85500017D02*
G75*
G03*
X127298604Y85500017I-2800000J0D01*
G01*
X127298604Y19500003D02*
G75*
G03*
X127298604Y19500003I-2800000J0D01*
G01*
X45298602Y85500017D02*
G75*
G03*
X45298602Y85500017I-2800000J0D01*
G01*
G04 #@! TO.C,H2*
X53298603Y76500015D02*
G75*
G03*
X53298603Y76500015I-2800000J0D01*
G01*
X94298604Y10500001D02*
G75*
G03*
X94298604Y10500001I-2800000J0D01*
G01*
G04 #@! TO.C,H1*
X127298604Y94500019D02*
G75*
G03*
X127298604Y94500019I-2800000J0D01*
G01*
G04 #@! TO.C,H2*
X94298604Y85500017D02*
G75*
G03*
X94298604Y85500017I-2800000J0D01*
G01*
X53298603Y37500007D02*
G75*
G03*
X53298603Y37500007I-2800000J0D01*
G01*
G04 #@! TD*
M02*
