G04 #@! TF.GenerationSoftware,KiCad,Pcbnew,(6.0.11)*
G04 #@! TF.CreationDate,2023-02-11T18:44:03+01:00*
G04 #@! TF.ProjectId,udb-s-panel,7564622d-732d-4706-916e-656c2e6b6963,rev?*
G04 #@! TF.SameCoordinates,Original*
G04 #@! TF.FileFunction,Profile,NP*
%FSLAX46Y46*%
G04 Gerber Fmt 4.6, Leading zero omitted, Abs format (unit mm)*
G04 Created by KiCad (PCBNEW (6.0.11)) date 2023-02-11 18:44:03*
%MOMM*%
%LPD*%
G01*
G04 APERTURE LIST*
G04 #@! TA.AperFunction,Profile*
%ADD10C,0.100000*%
G04 #@! TD*
G04 APERTURE END LIST*
D10*
X83169293Y98949758D02*
X82946658Y98977658D01*
X50388194Y24139157D02*
X50606945Y24089228D01*
X88844882Y73873168D02*
X88980361Y73694311D01*
X85559380Y7201268D02*
X85720003Y7357936D01*
X44559379Y97798753D02*
X44391146Y97947219D01*
X47033525Y45940463D02*
X47066967Y45718593D01*
X127963680Y66940467D02*
X127986021Y67163728D01*
X8546124Y81445657D02*
X8750645Y81353374D01*
X43037692Y71728630D02*
X42825000Y71800091D01*
X42609010Y80860863D02*
X42390259Y80910792D01*
X84451079Y54445652D02*
X84650745Y54548014D01*
X42390259Y41910784D02*
X42169292Y41949746D01*
X89963663Y80218091D02*
X89781483Y80087113D01*
X47033525Y27940459D02*
X47066967Y27718589D01*
X89606059Y22947204D02*
X89437825Y22798738D01*
X47396825Y39350800D02*
X47309670Y39144042D01*
X85391147Y22947203D02*
X85215722Y23087100D01*
X51998602Y24000005D02*
X51998602Y24000004D01*
X86986020Y58836297D02*
X86963679Y59059558D01*
X9606944Y98910797D02*
X9388193Y98860868D01*
X125246560Y41646650D02*
X125037694Y41728624D01*
X7124585Y73522429D02*
X7277200Y73357949D01*
X82946658Y62977650D02*
X82722909Y62994418D01*
X85559380Y49798743D02*
X85391147Y49947209D01*
X45830411Y93281237D02*
X45885777Y93498675D01*
X48124586Y64522427D02*
X48277201Y64357947D01*
X47066967Y93718603D02*
X47111426Y93498675D01*
X41946657Y89977656D02*
X41722908Y89994424D01*
X125451080Y54445652D02*
X125650746Y54548014D01*
X51998602Y5000000D02*
X40998601Y5000000D01*
X41946657Y24022367D02*
X42169292Y24050267D01*
X125845062Y90660211D02*
X126033544Y90781945D01*
X86152324Y70126860D02*
X86016844Y70305718D01*
X86963679Y36940461D02*
X86986020Y37163722D01*
X44872617Y79477602D02*
X44720002Y79642081D01*
X8750645Y63353370D02*
X8959511Y63271396D01*
X127963680Y77059562D02*
X127930238Y77281432D01*
X6718484Y17058545D02*
X6844880Y16873156D01*
X92998603Y90000018D02*
X92998603Y90000018D01*
X86600379Y17649212D02*
X86687534Y17855969D01*
X86016844Y49305714D02*
X85872618Y49477596D01*
X88111427Y84498673D02*
X88166793Y84281235D01*
X89277202Y91357953D02*
X89437825Y91201285D01*
X86503026Y26447058D02*
X86600379Y26649214D01*
X44215721Y80087112D02*
X44033542Y80218090D01*
X42390259Y23910780D02*
X42169292Y23949742D01*
X47309670Y87144052D02*
X47232928Y86933208D01*
X709715Y104956961D02*
X617316Y104923900D01*
X127764277Y95933209D02*
X127687535Y96144054D01*
X7277200Y73357949D02*
X7437823Y73201281D01*
X127016845Y31305710D02*
X126872619Y31477592D01*
X50606945Y15089226D02*
X50827912Y15050264D01*
X89606059Y82052817D02*
X89781483Y81912920D01*
X84037693Y81271401D02*
X84246559Y81353375D01*
X7963661Y15781928D02*
X8152143Y15660194D01*
X50606945Y42089232D02*
X50827912Y42050270D01*
X9388193Y42139161D02*
X9606944Y42089232D01*
X40998601Y54000011D02*
X41498602Y54000011D01*
X6396824Y87350810D02*
X6309669Y87144052D01*
X83169293Y15050265D02*
X83390260Y15089227D01*
X50606945Y98910797D02*
X50388194Y98860868D01*
X43246558Y62646654D02*
X43037692Y62728628D01*
X7963661Y6781926D02*
X8152143Y6660192D01*
X85720003Y25357940D02*
X85872618Y25522419D01*
X123498604Y72000013D02*
X122998603Y72000014D01*
X6309669Y78144050D02*
X6232927Y77933206D01*
X47000000Y85387829D02*
X47011184Y85163732D01*
X49346459Y24548008D02*
X49546125Y24445645D01*
X89437825Y7201267D02*
X89606059Y7052801D01*
X41722908Y90005613D02*
X41946657Y90022381D01*
X47033525Y59059558D02*
X47011184Y58836297D01*
X84246559Y24353363D02*
X84451079Y24445646D01*
X92998603Y42000009D02*
X92998603Y42000008D01*
X90152145Y98339829D02*
X89963663Y98218095D01*
X127986021Y76836301D02*
X127963680Y77059562D01*
X44720002Y40642073D02*
X44559379Y40798741D01*
X85559380Y64201280D02*
X85720003Y64357948D01*
X124609012Y89860865D02*
X124390261Y89910794D01*
X86152324Y34873161D02*
X86278719Y35058549D01*
X51498603Y51000010D02*
X51274296Y50994417D01*
X89124587Y13477588D02*
X88980361Y13305706D01*
X48781482Y23087101D02*
X48606058Y22947204D01*
X83390260Y50910786D02*
X83169293Y50949748D01*
X125246560Y63353371D02*
X125451080Y63445654D01*
X41946657Y63022375D02*
X42169292Y63050275D01*
X86830412Y66281231D02*
X86885778Y66498669D01*
X43650744Y90548022D02*
X43845060Y90660211D01*
X88601488Y48750010D02*
X88494179Y48552958D01*
X8959511Y81271400D02*
X9172203Y81199939D01*
X50827912Y72050276D02*
X51050547Y72022376D01*
X45986019Y37836293D02*
X45963678Y38059554D01*
X8750645Y6353358D02*
X8959511Y6271384D01*
X49750646Y54353368D02*
X49959512Y54271394D01*
X47980360Y7694297D02*
X48124586Y7522415D01*
X86997204Y67612202D02*
X86986020Y67836299D01*
X127395718Y48750009D02*
X127278720Y48941468D01*
X127963680Y59059558D02*
X127930238Y59281428D01*
X49152144Y62339821D02*
X48963662Y62218087D01*
X86986020Y19163718D02*
X86997204Y19387815D01*
X127764277Y45066820D02*
X127830413Y45281227D01*
X86885778Y45498665D02*
X86930237Y45718593D01*
X5999999Y46612198D02*
X5999999Y46387821D01*
X43037692Y50728626D02*
X42825000Y50800087D01*
X45963678Y66940467D02*
X45986019Y67163728D01*
X84246559Y90353377D02*
X84451079Y90445660D01*
X86830412Y75281233D02*
X86885778Y75498671D01*
X88494179Y96552968D02*
X88396826Y96350812D01*
X88718486Y17058545D02*
X88844882Y16873156D01*
X6309669Y48144044D02*
X6232927Y47933200D01*
X45395716Y30750005D02*
X45278718Y30941464D01*
X127152325Y7873155D02*
X127278720Y8058543D01*
X10050546Y54022372D02*
X10274295Y54005604D01*
X8959511Y15271386D02*
X9172203Y15199925D01*
X42169292Y90050281D02*
X42390259Y90089243D01*
X8750645Y72353372D02*
X8959511Y72271398D01*
X7277200Y79642082D02*
X7124585Y79477602D01*
X86764276Y36066818D02*
X86830412Y36281225D01*
X81998602Y42000008D02*
X81998602Y42000008D01*
X50388194Y15139155D02*
X50606945Y15089226D01*
X87498603Y51000010D02*
X92498604Y51000010D01*
X86963679Y57940465D02*
X86986020Y58163726D01*
X86830412Y86718800D02*
X86764276Y86933207D01*
X127687535Y35855973D02*
X127764277Y36066818D01*
X86830412Y84281235D02*
X86885778Y84498673D01*
X47066967Y59281428D02*
X47033525Y59059558D01*
X44391146Y25052806D02*
X44559379Y25201272D01*
X90750647Y72353372D02*
X90959513Y72271398D01*
X88396826Y92649227D02*
X88494179Y92447071D01*
X49546125Y41554368D02*
X49346459Y41452005D01*
X84451079Y98554379D02*
X84246559Y98646662D01*
X127278720Y83058559D02*
X127395718Y83250017D01*
X85872618Y82522431D02*
X86016844Y82694313D01*
X85215722Y33912911D02*
X85391147Y34052808D01*
X47000000Y76387827D02*
X47011184Y76163730D01*
X42609010Y41860855D02*
X42390259Y41910784D01*
X7437823Y97798754D02*
X7277200Y97642086D01*
X47066967Y47281426D02*
X47033525Y47059556D01*
X90346460Y54548014D02*
X90546126Y54445651D01*
X85215722Y89087114D02*
X85033543Y89218092D01*
X47232928Y75066825D02*
X47309670Y74855981D01*
X133828674Y104555591D02*
X133770215Y104634414D01*
X90152145Y41339817D02*
X89963663Y41218083D01*
X126720004Y79642081D02*
X126559381Y79798749D01*
X86278719Y83058559D02*
X86395717Y83250017D01*
X43037692Y41728624D02*
X42825000Y41800085D01*
X89963663Y90781944D02*
X90152145Y90660210D01*
X85872618Y79477602D02*
X85720003Y79642081D01*
X85033543Y6781927D02*
X85215722Y6912905D01*
X83169293Y90050281D02*
X83390260Y90089243D01*
X8959511Y54271394D02*
X9172203Y54199933D01*
X6033524Y93940473D02*
X6066966Y93718603D01*
X124169294Y62949750D02*
X123946659Y62977650D01*
X89781483Y54912914D02*
X89963663Y54781936D01*
X88494179Y78552964D02*
X88396826Y78350808D01*
X127986021Y19163718D02*
X127997205Y19387815D01*
X7606057Y7052801D02*
X7781481Y6912904D01*
X7124585Y31477592D02*
X6980359Y31305710D01*
X122998603Y90000018D02*
X122998603Y90000018D01*
X85720003Y64357948D02*
X85872618Y64522427D01*
X44559379Y43201276D02*
X44720002Y43357944D01*
X47494178Y65447065D02*
X47601487Y65250013D01*
X86963679Y68059560D02*
X86930237Y68281430D01*
X6066966Y68281430D02*
X6033524Y68059560D01*
X6980359Y64694309D02*
X7124585Y64522427D01*
X6066966Y20281420D02*
X6033524Y20059550D01*
X44215721Y41087104D02*
X44033542Y41218082D01*
X48124586Y79477602D02*
X47980360Y79305720D01*
X45885777Y77501360D02*
X45830411Y77718798D01*
X83609011Y80860863D02*
X83390260Y80910792D01*
X91606946Y71910791D02*
X91388195Y71860862D01*
X85872618Y7522415D02*
X86016844Y7694297D01*
X44559379Y31798739D02*
X44391146Y31947205D01*
X86152324Y79126862D02*
X86016844Y79305720D01*
X122998603Y54000010D02*
X122998603Y54000011D01*
X45930236Y38281424D02*
X45885777Y38501352D01*
X126391148Y97947219D02*
X126215723Y98087116D01*
X90546126Y63445653D02*
X90750647Y63353370D01*
X45885777Y45498665D02*
X45930236Y45718593D01*
X43845060Y90660211D02*
X44033542Y90781945D01*
X45278718Y74058557D02*
X45395716Y74250015D01*
X49750646Y80646659D02*
X49546125Y80554376D01*
X124609012Y32860853D02*
X124390261Y32910782D01*
X48963662Y89218093D02*
X48781482Y89087115D01*
X126559381Y40798741D02*
X126391148Y40947207D01*
X90750647Y15353360D02*
X90959513Y15271386D01*
X86997204Y46387821D02*
X86997204Y46612198D01*
X86963679Y20059550D02*
X86930237Y20281420D01*
X89963663Y54781936D02*
X90152145Y54660202D01*
X47601487Y12750002D02*
X47494178Y12552950D01*
X89124587Y82522431D02*
X89277202Y82357951D01*
X47494178Y30552954D02*
X47396825Y30350798D01*
X43037692Y63271397D02*
X43246558Y63353371D01*
X40998601Y90000018D02*
X40998601Y90000019D01*
X89781483Y63912916D02*
X89963663Y63781938D01*
X9172203Y62800090D02*
X8959511Y62728629D01*
X43845060Y50339818D02*
X43650744Y50452007D01*
X88011185Y10836287D02*
X88000001Y10612190D01*
X88011185Y94836305D02*
X88000001Y94612208D01*
X84650745Y24548008D02*
X84845061Y24660197D01*
X47718485Y87941476D02*
X47601487Y87750018D01*
X124609012Y98860867D02*
X124390261Y98910796D01*
X122998603Y72000015D02*
X123498604Y72000015D01*
X44872617Y55522425D02*
X45016843Y55694307D01*
X6601486Y56250011D02*
X6718484Y56058553D01*
X51274296Y63005606D02*
X51498603Y63000012D01*
X50388194Y90139171D02*
X50606945Y90089242D01*
X84650745Y63548016D02*
X84845061Y63660205D01*
X6844880Y73873168D02*
X6980359Y73694311D01*
X84451079Y90445660D02*
X84650745Y90548022D01*
X86885778Y11501346D02*
X86830412Y11718784D01*
X127503027Y92447072D02*
X127600380Y92649228D01*
X50606945Y71910791D02*
X50388194Y71860862D01*
X45152323Y82873171D02*
X45278718Y83058559D01*
X6844880Y40126855D02*
X6718484Y39941466D01*
X85720003Y13642067D02*
X85559380Y13798735D01*
X92050548Y23977643D02*
X91827913Y23949743D01*
X126720004Y16357938D02*
X126872619Y16522417D01*
X10998601Y42000008D02*
X10998601Y42000008D01*
X50172204Y33199929D02*
X50388194Y33139159D01*
X6980359Y43694305D02*
X7124585Y43522423D01*
X6309669Y44855975D02*
X6396824Y44649217D01*
X6033524Y77059562D02*
X6011183Y76836301D01*
X92050548Y54022372D02*
X92274297Y54005604D01*
X83609011Y81139170D02*
X83825001Y81199940D01*
X127395718Y17250003D02*
X127503027Y17447056D01*
X90546126Y33445647D02*
X90750647Y33353364D01*
X88980361Y64694309D02*
X89124587Y64522427D01*
X127764277Y36066818D02*
X127830413Y36281225D01*
X90152145Y90660210D02*
X90346460Y90548022D01*
X88111427Y45498665D02*
X88166793Y45281227D01*
X48606058Y88947218D02*
X48437824Y88798752D01*
X88066968Y45718593D02*
X88111427Y45498665D01*
X89606059Y64052813D02*
X89781483Y63912916D01*
X124169294Y81050279D02*
X124390261Y81089241D01*
X85559380Y91201286D02*
X85720003Y91357954D01*
X82946658Y6022363D02*
X83169293Y6050263D01*
X133552775Y104831490D02*
X133468601Y104881942D01*
X89124587Y49477596D02*
X88980361Y49305714D01*
X42169292Y81050279D02*
X42390259Y81089241D01*
X127885779Y66498669D02*
X127930238Y66718597D01*
X125650746Y81548020D02*
X125845062Y81660209D01*
X127764277Y27066816D02*
X127830413Y27281223D01*
X127687535Y83855983D02*
X127764277Y84066828D01*
X6111425Y77501360D02*
X6066966Y77281432D01*
X124609012Y54139164D02*
X124825002Y54199934D01*
X6980359Y16694299D02*
X7124585Y16522417D01*
X48277201Y25357939D02*
X48437824Y25201271D01*
X47066967Y36718591D02*
X47111426Y36498663D01*
X10274295Y72005608D02*
X10498602Y72000014D01*
X86395717Y56250011D02*
X86503026Y56447064D01*
X124609012Y81139170D02*
X124825002Y81199940D01*
X51998602Y72000015D02*
X51998602Y72000015D01*
X47396825Y56649219D02*
X47494178Y56447063D01*
X127830413Y47718792D02*
X127764277Y47933199D01*
X86764276Y68933203D02*
X86687534Y69144048D01*
X168530Y104555591D02*
X118078Y104471417D01*
X47011184Y28163720D02*
X47033525Y27940459D01*
X7781481Y72912918D02*
X7963661Y72781940D01*
X83169293Y81050279D02*
X83390260Y81089241D01*
X48963662Y72781940D02*
X49152144Y72660206D01*
X49346459Y32452003D02*
X49152144Y32339815D01*
X89963663Y98218095D02*
X89781483Y98087117D01*
X89437825Y43201275D02*
X89606059Y43052809D01*
X10274295Y15005596D02*
X10498602Y15000002D01*
X41498602Y6000001D02*
X41722908Y6005595D01*
X45930236Y11281418D02*
X45885777Y11501346D01*
X6011183Y28163720D02*
X6033524Y27940459D01*
X86830412Y18281221D02*
X86885778Y18498659D01*
X47980360Y25694301D02*
X48124586Y25522419D01*
X91827913Y24050266D02*
X92050548Y24022366D01*
X9172203Y71800092D02*
X8959511Y71728631D01*
X127278720Y96941478D02*
X127152325Y97126866D01*
X126872619Y61477598D02*
X126720004Y61642077D01*
X47066967Y95281436D02*
X47033525Y95059566D01*
X86885778Y84498673D02*
X86930237Y84718601D01*
X84246559Y62646654D02*
X84037693Y62728628D01*
X40998601Y81000016D02*
X40998601Y81000016D01*
X43650744Y71452011D02*
X43451078Y71554373D01*
X83390260Y24089229D02*
X83609011Y24139158D01*
X48781482Y71087111D02*
X48606058Y70947214D01*
X43246558Y14646644D02*
X43037692Y14728618D01*
X124169294Y24050267D02*
X124390261Y24089229D01*
X45278718Y48941468D02*
X45152323Y49126856D01*
X8750645Y23646647D02*
X8546124Y23554364D01*
X125037694Y90271403D02*
X125246560Y90353377D01*
X6494177Y83447069D02*
X6601486Y83250017D01*
X9827911Y71949753D02*
X9606944Y71910791D01*
X89606059Y91052819D02*
X89781483Y90912922D01*
X47232928Y68933204D02*
X47166792Y68718796D01*
X88980361Y49305714D02*
X88844882Y49126857D01*
X88396826Y74649223D02*
X88494179Y74447067D01*
X122998603Y33000006D02*
X122998603Y33000007D01*
X85872618Y97477606D02*
X85720003Y97642085D01*
X126033544Y80218090D02*
X125845062Y80339824D01*
X45395716Y78750015D02*
X45278718Y78941474D01*
X88309671Y39144042D02*
X88232929Y38933198D01*
X81998602Y63000012D02*
X81998602Y63000012D01*
X8750645Y81353374D02*
X8959511Y81271400D01*
X86503026Y69552961D02*
X86395717Y69750013D01*
X91388195Y62860860D02*
X91172205Y62800090D01*
X124169294Y42050271D02*
X124390261Y42089233D01*
X47000000Y37387819D02*
X47011184Y37163722D01*
X89437825Y91201285D02*
X89606059Y91052819D01*
X127016845Y13305706D02*
X126872619Y13477588D01*
X88066968Y57718595D02*
X88111427Y57498667D01*
X88980361Y55694307D02*
X89124587Y55522425D01*
X6980359Y34694303D02*
X7124585Y34522421D01*
X43451078Y81445658D02*
X43650744Y81548020D01*
X6601486Y44250009D02*
X6718484Y44058551D01*
X42609010Y50860857D02*
X42390259Y50910786D01*
X44872617Y34522421D02*
X45016843Y34694303D01*
X86885778Y20501348D02*
X86830412Y20718786D01*
X91388195Y72139167D02*
X91606946Y72089238D01*
X48124586Y97477606D02*
X47980360Y97305724D01*
X45885777Y68501358D02*
X45830411Y68718796D01*
X92998603Y33000007D02*
X92998603Y33000006D01*
X9388193Y50860858D02*
X9172203Y50800088D01*
X10998601Y90000019D02*
X10998601Y90000018D01*
X47033525Y77059562D02*
X47011184Y76836301D01*
X9606944Y80910793D02*
X9388193Y80860864D01*
X10050546Y15022364D02*
X10274295Y15005596D01*
X126872619Y16522417D02*
X127016845Y16694299D01*
X123722910Y6005595D02*
X123722910Y6005595D01*
X9388193Y24139157D02*
X9606944Y24089228D01*
X126872619Y7522415D02*
X127016845Y7694297D01*
X10274295Y33005600D02*
X10498602Y33000006D01*
X126720004Y82357952D02*
X126872619Y82522431D01*
X82946658Y81022379D02*
X83169293Y81050279D01*
X47033525Y86059564D02*
X47011184Y85836303D01*
X126559381Y16201270D02*
X126720004Y16357938D01*
X40998601Y72000014D02*
X40998601Y72000015D01*
X91388195Y54139163D02*
X91606946Y54089234D01*
X88066968Y95281436D02*
X88033526Y95059566D01*
X83609011Y41860855D02*
X83390260Y41910784D01*
X84246559Y71646656D02*
X84037693Y71728630D01*
X125845062Y41339816D02*
X125650746Y41452005D01*
X49346459Y62452009D02*
X49152144Y62339821D01*
X47000000Y37612196D02*
X47000000Y37387819D01*
X10050546Y71977653D02*
X9827911Y71949753D01*
X127997205Y19387815D02*
X127997205Y19612192D01*
X88232929Y45066819D02*
X88309671Y44855975D01*
X6309669Y83855983D02*
X6396824Y83649225D01*
X88033526Y11059548D02*
X88011185Y10836287D01*
X124609012Y71860861D02*
X124390261Y71910790D01*
X83609011Y89860865D02*
X83390260Y89910794D01*
X82946658Y24022367D02*
X83169293Y24050267D01*
X51274296Y89994425D02*
X51050547Y89977657D01*
X49546125Y42445649D02*
X49750646Y42353366D01*
X86930237Y93718603D02*
X86963679Y93940473D01*
X45395716Y96750019D02*
X45278718Y96941478D01*
X47844881Y70126861D02*
X47718485Y69941472D01*
X47396825Y83649225D02*
X47494178Y83447069D01*
X49750646Y24353362D02*
X49959512Y24271388D01*
X127152325Y70126860D02*
X127016845Y70305718D01*
X88111427Y27498661D02*
X88166793Y27281223D01*
X90152145Y42660200D02*
X90346460Y42548012D01*
X125037694Y62728628D02*
X124825002Y62800089D01*
X49346459Y41452005D02*
X49152144Y41339817D01*
X45764275Y77933205D02*
X45687533Y78144050D01*
X84451079Y33445648D02*
X84650745Y33548010D01*
X6601486Y30750006D02*
X6494177Y30552954D01*
X43845060Y14339810D02*
X43650744Y14451999D01*
X45986019Y28836291D02*
X45963678Y29059552D01*
X86885778Y93498675D02*
X86930237Y93718603D01*
X84451079Y14554361D02*
X84246559Y14646644D01*
X127278720Y44058551D02*
X127395718Y44250009D01*
X82498603Y33000007D02*
X82722909Y33005601D01*
X44872617Y70477600D02*
X44720002Y70642079D01*
X10498602Y90000018D02*
X10274295Y89994425D01*
X86997204Y37612196D02*
X86986020Y37836293D01*
X47601487Y56250011D02*
X47718485Y56058553D01*
X50827912Y81050278D02*
X51050547Y81022378D01*
X45503025Y65447066D02*
X45600378Y65649222D01*
X42825000Y89800095D02*
X42609010Y89860865D01*
X127503027Y74447068D02*
X127600380Y74649224D01*
X49750646Y50646653D02*
X49546125Y50554370D01*
X89606059Y43052809D02*
X89781483Y42912912D01*
X44872617Y91522433D02*
X45016843Y91694315D01*
X44215721Y32087102D02*
X44033542Y32218080D01*
X42825000Y90199942D02*
X43037692Y90271403D01*
X47396825Y78350808D02*
X47309670Y78144050D01*
X43845060Y33660199D02*
X44033542Y33781933D01*
X83390260Y90089243D02*
X83609011Y90139172D01*
X47166792Y93281237D02*
X47232928Y93066829D01*
X41946657Y50977648D02*
X41722908Y50994416D01*
X123722910Y42005603D02*
X123946659Y42022371D01*
X47232928Y11933192D02*
X47166792Y11718784D01*
X45930236Y27718589D02*
X45963678Y27940459D01*
X51274296Y72005608D02*
X51498603Y72000014D01*
X90959513Y62728629D02*
X90750647Y62646655D01*
X7124585Y82522431D02*
X7277200Y82357951D01*
X44872617Y49477596D02*
X44720002Y49642075D01*
X51274296Y81005610D02*
X51498603Y81000016D01*
X51498603Y72000014D02*
X51998602Y72000015D01*
X89781483Y23087101D02*
X89606059Y22947204D01*
X84246559Y50646652D02*
X84037693Y50728626D01*
X124390261Y14910778D02*
X124169294Y14949740D01*
X50827912Y41949747D02*
X50606945Y41910785D01*
X125451080Y90445660D02*
X125650746Y90548022D01*
X84650745Y54548014D02*
X84845061Y54660203D01*
X44559379Y22798737D02*
X44391146Y22947203D01*
X86278719Y87941476D02*
X86152324Y88126864D01*
X76120Y104382704D02*
X43059Y104290305D01*
X9172203Y15199925D02*
X9388193Y15139155D01*
X45395716Y56250011D02*
X45503025Y56447064D01*
X7963661Y23218079D02*
X7781481Y23087101D01*
X41498602Y81000017D02*
X41722908Y81005611D01*
X86152324Y97126866D02*
X86016844Y97305724D01*
X86764276Y27066816D02*
X86830412Y27281223D01*
X50606945Y63089236D02*
X50827912Y63050274D01*
X124169294Y71949752D02*
X123946659Y71977652D01*
X50827912Y89949757D02*
X50606945Y89910795D01*
X86930237Y29281422D02*
X86885778Y29501350D01*
X44559379Y16201270D02*
X44720002Y16357938D01*
X86963679Y59059558D02*
X86930237Y59281428D01*
X83390260Y71910790D02*
X83169293Y71949752D01*
X41946657Y90022381D02*
X42169292Y90050281D01*
X86830412Y11718784D02*
X86764276Y11933191D01*
X123722910Y81005611D02*
X123946659Y81022379D01*
X89437825Y61798746D02*
X89277202Y61642078D01*
X6011183Y19836289D02*
X5999999Y19612192D01*
X49750646Y32646649D02*
X49546125Y32554366D01*
X83609011Y62860859D02*
X83390260Y62910788D01*
X444429Y104831490D02*
X365606Y104773031D01*
X51998602Y6000001D02*
X51998602Y5000000D01*
X45997203Y76387827D02*
X45997203Y76612204D01*
X42825000Y98800097D02*
X42609010Y98860867D01*
X45986019Y46163724D02*
X45997203Y46387821D01*
X88166793Y59718794D02*
X88111427Y59501356D01*
X9827911Y14949741D02*
X9606944Y14910779D01*
X127997205Y28387817D02*
X127997205Y28612194D01*
X8959511Y63271396D02*
X9172203Y63199935D01*
X86395717Y74250015D02*
X86503026Y74447068D01*
X6011183Y67163728D02*
X6033524Y66940467D01*
X10050546Y42022370D02*
X10274295Y42005602D01*
X84037693Y32728622D02*
X83825001Y32800083D01*
X51274296Y98994427D02*
X51050547Y98977659D01*
X19214Y104195111D02*
X4815Y104098038D01*
X6232927Y84066827D02*
X6309669Y83855983D01*
X84650745Y98452017D02*
X84451079Y98554379D01*
X49750646Y23646647D02*
X49546125Y23554364D01*
X49346459Y98452017D02*
X49152144Y98339829D01*
X123498604Y15000001D02*
X122998603Y15000002D01*
X45830411Y29718788D02*
X45764275Y29933195D01*
X8152143Y50339819D02*
X7963661Y50218085D01*
X7437823Y31798740D02*
X7277200Y31642072D01*
X88066968Y77281432D02*
X88033526Y77059562D01*
X122998603Y33000007D02*
X123498604Y33000007D01*
X127278720Y78941474D02*
X127152325Y79126862D01*
X47111426Y57498667D02*
X47166792Y57281229D01*
X90750647Y42353366D02*
X90959513Y42271392D01*
X88066968Y86281434D02*
X88033526Y86059564D01*
X43845060Y54660203D02*
X44033542Y54781937D01*
X125451080Y24445646D02*
X125650746Y24548008D01*
X90959513Y71728631D02*
X90750647Y71646657D01*
X6011183Y76163730D02*
X6033524Y75940469D01*
X125451080Y72445656D02*
X125650746Y72548018D01*
X45600378Y56649220D02*
X45687533Y56855977D01*
X45885777Y84498673D02*
X45930236Y84718601D01*
X125650746Y80452013D02*
X125451080Y80554375D01*
X48606058Y16052803D02*
X48781482Y15912906D01*
X127885779Y36498663D02*
X127930238Y36718591D01*
X91388195Y71860862D02*
X91172205Y71800092D01*
X86885778Y9498657D02*
X86930237Y9718585D01*
X7437823Y34201273D02*
X7606057Y34052807D01*
X124825002Y72199938D02*
X125037694Y72271399D01*
X85872618Y16522417D02*
X86016844Y16694299D01*
X50606945Y23910781D02*
X50388194Y23860852D01*
X127395718Y60750011D02*
X127278720Y60941470D01*
X6166791Y45281227D02*
X6232927Y45066819D01*
X8750645Y24353362D02*
X8959511Y24271388D01*
X10998601Y72000015D02*
X10998601Y72000015D01*
X50606945Y32910783D02*
X50388194Y32860854D01*
X88232929Y36066817D02*
X88309671Y35855973D01*
X51998602Y63000013D02*
X51998602Y63000012D01*
X89963663Y71218089D02*
X89781483Y71087111D01*
X47980360Y16694299D02*
X48124586Y16522417D01*
X86395717Y69750013D02*
X86278719Y69941472D01*
X42825000Y32800083D02*
X42609010Y32860853D01*
X47844881Y64873166D02*
X47980360Y64694309D01*
X47718485Y12941460D02*
X47601487Y12750002D01*
X48606058Y70947214D02*
X48437824Y70798748D01*
X84845061Y33660199D02*
X85033543Y33781933D01*
X49152144Y6660192D02*
X49346459Y6548004D01*
X86930237Y36718591D02*
X86963679Y36940461D01*
X88844882Y97126867D02*
X88718486Y96941478D01*
X40998601Y15000003D02*
X41498602Y15000003D01*
X8750645Y62646655D02*
X8546124Y62554372D01*
X127016845Y61305716D02*
X126872619Y61477598D01*
X48124586Y82522431D02*
X48277201Y82357951D01*
X47011184Y10836287D02*
X47000000Y10612190D01*
X127930238Y93718603D02*
X127963680Y93940473D01*
X45997203Y19387815D02*
X45997203Y19612192D01*
X47980360Y34694303D02*
X48124586Y34522421D01*
X86016844Y91694315D02*
X86152324Y91873173D01*
X47601487Y65250013D02*
X47718485Y65058555D01*
X43246558Y90353377D02*
X43451078Y90445660D01*
X88980361Y22305708D02*
X88844882Y22126851D01*
X88011185Y28163720D02*
X88033526Y27940459D01*
X92274297Y42005602D02*
X92498604Y42000008D01*
X50172204Y54199933D02*
X50388194Y54139163D01*
X86278719Y30941464D02*
X86152324Y31126852D01*
X45278718Y30941464D02*
X45152323Y31126852D01*
X86278719Y48941468D02*
X86152324Y49126856D01*
X88232929Y9066811D02*
X88309671Y8855967D01*
X85720003Y70642079D02*
X85559380Y70798747D01*
X47601487Y30750006D02*
X47494178Y30552954D01*
X127930238Y95281436D02*
X127885779Y95501364D01*
X81998602Y81000016D02*
X81998602Y81000017D01*
X81998602Y15000002D02*
X81998602Y15000003D01*
X133977990Y104195111D02*
X133954145Y104290305D01*
X126872619Y82522431D02*
X127016845Y82694313D01*
X45395716Y35250007D02*
X45503025Y35447060D01*
X86997204Y76387827D02*
X86997204Y76612204D01*
X47066967Y38281424D02*
X47033525Y38059554D01*
X85720003Y43357944D02*
X85872618Y43522423D01*
X7277200Y25357939D02*
X7437823Y25201271D01*
X132997205Y0D02*
X133095222Y4816D01*
X6166791Y9281219D02*
X6232927Y9066811D01*
X47844881Y91873172D02*
X47980360Y91694315D01*
X50388194Y32860854D02*
X50172204Y32800084D01*
X88232929Y77933206D02*
X88166793Y77718798D01*
X48606058Y55052811D02*
X48781482Y54912914D01*
X88166793Y68718796D02*
X88111427Y68501358D01*
X86830412Y95718802D02*
X86764276Y95933209D01*
X83390260Y63089237D02*
X83609011Y63139166D01*
X89963663Y41218083D02*
X89781483Y41087105D01*
X7781481Y33912910D02*
X7963661Y33781932D01*
X127687535Y17855969D02*
X127764277Y18066814D01*
X86963679Y86059564D02*
X86930237Y86281434D01*
X127016845Y49305714D02*
X126872619Y49477596D01*
X7277200Y64357947D02*
X7437823Y64201279D01*
X6494177Y35447059D02*
X6601486Y35250007D01*
X7124585Y43522423D02*
X7277200Y43357943D01*
X42390259Y71910790D02*
X42169292Y71949752D01*
X6166791Y75281233D02*
X6232927Y75066825D01*
X92498604Y90000018D02*
X92998603Y90000019D01*
X8346458Y72548018D02*
X8546124Y72445655D01*
X7277200Y31642072D02*
X7124585Y31477592D01*
X88980361Y79305720D02*
X88844882Y79126863D01*
X9827911Y89949757D02*
X9606944Y89910795D01*
X89606059Y88947218D02*
X89437825Y88798752D01*
X125451080Y32554365D02*
X125246560Y32646648D01*
X42609010Y24139158D02*
X42825000Y24199928D01*
X6066966Y59281428D02*
X6033524Y59059558D01*
X47396825Y74649223D02*
X47494178Y74447067D01*
X91388195Y50860858D02*
X91172205Y50800088D01*
X125845062Y81660209D02*
X126033544Y81781943D01*
X123946659Y6022363D02*
X124169294Y6050263D01*
X126872619Y79477602D02*
X126720004Y79642081D01*
X88066968Y36718591D02*
X88111427Y36498663D01*
X127016845Y91694315D02*
X127152325Y91873173D01*
X42390259Y32910782D02*
X42169292Y32949744D01*
X84451079Y15445644D02*
X84650745Y15548006D01*
X48963662Y33781932D02*
X49152144Y33660198D01*
X125845062Y23339812D02*
X125650746Y23452001D01*
X44559379Y49798743D02*
X44391146Y49947209D01*
X86764276Y95933209D02*
X86687534Y96144054D01*
X6844880Y97126867D02*
X6718484Y96941478D01*
X45503025Y12552949D02*
X45395716Y12750001D01*
X51998602Y33000007D02*
X51998602Y33000006D01*
X51998602Y63000012D02*
X51998602Y63000012D01*
X88601488Y35250007D02*
X88718486Y35058549D01*
X6494177Y92447071D02*
X6601486Y92250019D01*
X88000001Y85387829D02*
X88011185Y85163732D01*
X45395716Y48750009D02*
X45278718Y48941468D01*
X123946659Y72022377D02*
X124169294Y72050277D01*
X88396826Y69350806D02*
X88309671Y69144048D01*
X127997205Y76612204D02*
X127986021Y76836301D01*
X124390261Y62910788D02*
X124169294Y62949750D01*
X7781481Y90912922D02*
X7963661Y90781944D01*
X84845061Y62339820D02*
X84650745Y62452009D01*
X42390259Y50910786D02*
X42169292Y50949748D01*
X50827912Y23949743D02*
X50606945Y23910781D01*
X7277200Y34357941D02*
X7437823Y34201273D01*
X51274296Y24005598D02*
X51498603Y24000004D01*
X125246560Y50646652D02*
X125037694Y50728626D01*
X127997205Y58387823D02*
X127997205Y58612200D01*
X40998601Y51000010D02*
X46498602Y51000010D01*
X123722910Y72005609D02*
X123946659Y72022377D01*
X86830412Y27281223D02*
X86885778Y27498661D01*
X86963679Y18940457D02*
X86986020Y19163718D01*
X89781483Y90912922D02*
X89963663Y90781944D01*
X47396825Y26649213D02*
X47494178Y26447057D01*
X47396825Y30350798D02*
X47309670Y30144040D01*
X6033524Y66940467D02*
X6066966Y66718597D01*
X86687534Y87144052D02*
X86600379Y87350809D01*
X85215722Y42912913D02*
X85391147Y43052810D01*
X7606057Y73052815D02*
X7781481Y72912918D01*
X127503027Y26447058D02*
X127600380Y26649214D01*
X43845060Y15660195D02*
X44033542Y15781929D01*
X50827912Y50949749D02*
X50606945Y50910787D01*
X88980361Y82694313D02*
X89124587Y82522431D01*
X90152145Y81660208D02*
X90346460Y81548020D01*
X10998601Y33000006D02*
X10998601Y33000006D01*
X133192295Y104980806D02*
X133095222Y104995205D01*
X86997204Y19612192D02*
X86986020Y19836289D01*
X45278718Y21941462D02*
X45152323Y22126850D01*
X7606057Y91052819D02*
X7781481Y90912922D01*
X44720002Y79642081D02*
X44559379Y79798749D01*
X45830411Y95718802D02*
X45764275Y95933209D01*
X86997204Y67387825D02*
X86997204Y67612202D01*
X127963680Y18940457D02*
X127986021Y19163718D01*
X127687535Y44855975D02*
X127764277Y45066820D01*
X123498604Y72000015D02*
X123722910Y72005609D01*
X40998601Y33000007D02*
X41498602Y33000007D01*
X86997204Y85612206D02*
X86986020Y85836303D01*
X45997203Y85612206D02*
X45986019Y85836303D01*
X84246559Y41646650D02*
X84037693Y41728624D01*
X10050546Y41977647D02*
X9827911Y41949747D01*
X84650745Y15548006D02*
X84845061Y15660195D01*
X84650745Y50452007D02*
X84451079Y50554369D01*
X126872619Y43522423D02*
X127016845Y43694305D01*
X91388195Y80860864D02*
X91172205Y80800094D01*
X89277202Y34357941D02*
X89437825Y34201273D01*
X617316Y104923900D02*
X528603Y104881942D01*
X123498604Y33000005D02*
X122998603Y33000006D01*
X89124587Y97477606D02*
X88980361Y97305724D01*
X6396824Y83649225D02*
X6494177Y83447069D01*
X82722909Y72005609D02*
X82946658Y72022377D01*
X92998603Y24000005D02*
X92998603Y24000004D01*
X86152324Y40126854D02*
X86016844Y40305712D01*
X133879126Y104471417D02*
X133828674Y104555591D01*
X42169292Y63050275D02*
X42390259Y63089237D01*
X47844881Y97126867D02*
X47718485Y96941478D01*
X5999999Y51000010D02*
X10498602Y51000010D01*
X45152323Y55873165D02*
X45278718Y56058553D01*
X88718486Y35058549D02*
X88844882Y34873160D01*
X45764275Y84066828D02*
X45830411Y84281235D01*
X45600378Y39350799D02*
X45503025Y39552955D01*
X7606057Y22947204D02*
X7437823Y22798738D01*
X41722908Y14994408D02*
X41498602Y15000001D01*
X10050546Y32977645D02*
X9827911Y32949745D01*
X10274295Y89994425D02*
X10050546Y89977657D01*
X6011183Y37836293D02*
X5999999Y37612196D01*
X125650746Y98452017D02*
X125451080Y98554379D01*
X90546126Y41554368D02*
X90346460Y41452005D01*
X122998603Y100000020D02*
X128997205Y100000020D01*
X7781481Y14087099D02*
X7606057Y13947202D01*
X10998601Y72000014D02*
X10498602Y72000014D01*
X47494178Y26447057D02*
X47601487Y26250005D01*
X5999999Y94612208D02*
X5999999Y94387831D01*
X45830411Y57281229D02*
X45885777Y57498667D01*
X92274297Y41994415D02*
X92050548Y41977647D01*
X7963661Y63781938D02*
X8152143Y63660204D01*
X83169293Y41949746D02*
X82946658Y41977646D01*
X9172203Y72199937D02*
X9388193Y72139167D01*
X10050546Y81022378D02*
X10274295Y81005610D01*
X126720004Y55357946D02*
X126872619Y55522425D01*
X44215721Y81912921D02*
X44391146Y82052818D01*
X84451079Y80554375D02*
X84246559Y80646658D01*
X91388195Y63139165D02*
X91606946Y63089236D01*
X47396825Y35649215D02*
X47494178Y35447059D01*
X86830412Y9281219D02*
X86885778Y9498657D01*
X49959512Y14728619D02*
X49750646Y14646645D01*
X127963680Y9940455D02*
X127986021Y10163716D01*
X92274297Y81005610D02*
X92498604Y81000016D01*
X86687534Y60144046D02*
X86600379Y60350803D01*
X48437824Y70798748D02*
X48277201Y70642080D01*
X126559381Y25201272D02*
X126720004Y25357940D01*
X10498602Y51000010D02*
X10998601Y51000010D01*
X10998601Y81000017D02*
X10998601Y81000016D01*
X86152324Y49126856D02*
X86016844Y49305714D01*
X51998602Y90000018D02*
X51998602Y90000018D01*
X42825000Y14800079D02*
X42609010Y14860849D01*
X89963663Y50218085D02*
X89781483Y50087107D01*
X6011183Y94836305D02*
X5999999Y94612208D01*
X86152324Y64873167D02*
X86278719Y65058555D01*
X86687534Y92855985D02*
X86764276Y93066830D01*
X51998602Y51000010D02*
X51998602Y51000010D01*
X90750647Y98646663D02*
X90546126Y98554380D01*
X127997205Y51000010D02*
X128997205Y51000010D01*
X91827913Y89949757D02*
X91606946Y89910795D01*
X86503026Y74447068D02*
X86600379Y74649224D01*
X44720002Y7357936D02*
X44872617Y7522415D01*
X85215722Y72912919D02*
X85391147Y73052816D01*
X44033542Y41218082D02*
X43845060Y41339816D01*
X43037692Y42271393D02*
X43246558Y42353367D01*
X10050546Y89977657D02*
X9827911Y89949757D01*
X49959512Y24271388D02*
X50172204Y24199927D01*
X7124585Y64522427D02*
X7277200Y64357947D01*
X47494178Y96552968D02*
X47396825Y96350812D01*
X127963680Y75940469D02*
X127986021Y76163730D01*
X92274297Y6005594D02*
X92498604Y6000000D01*
X127764277Y11933191D02*
X127687535Y12144036D01*
X90750647Y63353370D02*
X90959513Y63271396D01*
X51274296Y62994419D02*
X51050547Y62977651D01*
X40998601Y63000012D02*
X40998601Y63000012D01*
X89277202Y16357937D02*
X89437825Y16201269D01*
X45503025Y8447054D02*
X45600378Y8649210D01*
X125650746Y14451999D02*
X125451080Y14554361D01*
X127278720Y8058543D02*
X127395718Y8250001D01*
X49959512Y42271392D02*
X50172204Y42199931D01*
X91172205Y72199937D02*
X91388195Y72139167D01*
X50172204Y81199939D02*
X50388194Y81139169D01*
X45997203Y94612208D02*
X45986019Y94836305D01*
X126720004Y31642071D02*
X126559381Y31798739D01*
X7606057Y79947216D02*
X7437823Y79798750D01*
X51998602Y81000016D02*
X51498603Y81000016D01*
X81998602Y24000005D02*
X82498603Y24000005D01*
X86885778Y47501354D02*
X86830412Y47718792D01*
X88066968Y38281424D02*
X88033526Y38059554D01*
X124390261Y54089235D02*
X124609012Y54139164D01*
X92274297Y54005604D02*
X92498604Y54000010D01*
X6718484Y92058561D02*
X6844880Y91873172D01*
X10274295Y14994409D02*
X10050546Y14977641D01*
X51998602Y81000017D02*
X51998602Y81000017D01*
X127395718Y92250019D02*
X127503027Y92447072D01*
X48277201Y73357949D02*
X48437824Y73201281D01*
X92498604Y15000002D02*
X92274297Y14994409D01*
X6033524Y47059556D02*
X6011183Y46836295D01*
X10498602Y90000018D02*
X10998601Y90000019D01*
X86986020Y46836295D02*
X86963679Y47059556D01*
X41722908Y32994412D02*
X41498602Y33000005D01*
X45687533Y69144048D02*
X45600378Y69350805D01*
X88166793Y29718788D02*
X88111427Y29501350D01*
X125650746Y24548008D02*
X125845062Y24660197D01*
X43650744Y54548014D02*
X43845060Y54660203D01*
X85215722Y24912909D02*
X85391147Y25052806D01*
X51998602Y42000008D02*
X51498603Y42000008D01*
X44720002Y49642075D02*
X44559379Y49798743D01*
X48781482Y6912904D02*
X48963662Y6781926D01*
X47494178Y74447067D02*
X47601487Y74250015D01*
X6033524Y75940469D02*
X6066966Y75718599D01*
X86016844Y79305720D02*
X85872618Y79477602D01*
X7963661Y98218095D02*
X7781481Y98087117D01*
X6844880Y25873158D02*
X6980359Y25694301D01*
X47011184Y58163726D02*
X47033525Y57940465D01*
X6166791Y18281221D02*
X6232927Y18066813D01*
X82722909Y89994424D02*
X82498603Y90000017D01*
X6980359Y13305706D02*
X6844880Y13126849D01*
X47000000Y85612206D02*
X47000000Y85387829D01*
X8152143Y23339813D02*
X7963661Y23218079D01*
X125037694Y63271397D02*
X125246560Y63353371D01*
X88396826Y35649215D02*
X88494179Y35447059D01*
X88844882Y25873158D02*
X88980361Y25694301D01*
X6396824Y48350802D02*
X6309669Y48144044D01*
X88601488Y44250009D02*
X88718486Y44058551D01*
X88232929Y20933194D02*
X88166793Y20718786D01*
X6396824Y78350808D02*
X6309669Y78144050D01*
X41498602Y42000007D02*
X40998601Y42000008D01*
X92998603Y51000010D02*
X92998603Y51000010D01*
X127600380Y83649226D02*
X127687535Y83855983D01*
X43037692Y23728620D02*
X42825000Y23800081D01*
X7963661Y50218085D02*
X7781481Y50087107D01*
X47066967Y29281422D02*
X47033525Y29059552D01*
X124390261Y41910784D02*
X124169294Y41949746D01*
X91827913Y81050278D02*
X92050548Y81022378D01*
X43845060Y42660201D02*
X44033542Y42781935D01*
X90346460Y42548012D02*
X90546126Y42445649D01*
X127930238Y77281432D02*
X127885779Y77501360D01*
X89277202Y97642086D02*
X89124587Y97477606D01*
X6494177Y17447055D02*
X6601486Y17250003D01*
X50388194Y42139161D02*
X50606945Y42089232D01*
X89606059Y40947208D02*
X89437825Y40798742D01*
X85033543Y90781945D02*
X85215722Y90912923D01*
X6718484Y21941462D02*
X6601486Y21750004D01*
X125451080Y62554371D02*
X125246560Y62646654D01*
X51998602Y51000010D02*
X51998602Y51000010D01*
X10498602Y42000008D02*
X10998601Y42000009D01*
X47232928Y38933198D02*
X47166792Y38718790D01*
X89606059Y7052801D02*
X89781483Y6912904D01*
X7963661Y14218077D02*
X7781481Y14087099D01*
X47494178Y60552960D02*
X47396825Y60350804D01*
X127395718Y87750017D02*
X127278720Y87941476D01*
X83390260Y62910788D02*
X83169293Y62949750D01*
X82498603Y63000011D02*
X81998602Y63000012D01*
X92050548Y98977659D02*
X91827913Y98949759D01*
X88232929Y11933192D02*
X88166793Y11718784D01*
X85033543Y89218092D02*
X84845061Y89339826D01*
X127997205Y67387825D02*
X127997205Y67612202D01*
X85215722Y90912923D02*
X85391147Y91052820D01*
X82722909Y98994426D02*
X82498603Y99000019D01*
X42609010Y23860851D02*
X42390259Y23910780D01*
X50606945Y24089228D02*
X50827912Y24050266D01*
X88601488Y8250001D02*
X88718486Y8058543D01*
X8750645Y89646661D02*
X8546124Y89554378D01*
X88000001Y19387815D02*
X88011185Y19163718D01*
X45016843Y7694297D02*
X45152323Y7873155D01*
X901982Y104995205D02*
X804909Y104980806D01*
X125037694Y81271401D02*
X125246560Y81353375D01*
X47980360Y97305724D02*
X47844881Y97126867D01*
X6066966Y45718593D02*
X6111425Y45498665D01*
X9172203Y50800088D02*
X8959511Y50728627D01*
X86687534Y39144042D02*
X86600379Y39350799D01*
X8750645Y54353368D02*
X8959511Y54271394D01*
X86503026Y17447056D02*
X86600379Y17649212D01*
X48963662Y24781930D02*
X49152144Y24660196D01*
X44720002Y31642071D02*
X44559379Y31798739D01*
X127278720Y87941476D02*
X127152325Y88126864D01*
X86930237Y84718601D02*
X86963679Y84940471D01*
X47000000Y94387831D02*
X47011184Y94163734D01*
X126391148Y49947209D02*
X126215723Y50087106D01*
X83390260Y81089241D02*
X83609011Y81139170D01*
X5999999Y19612192D02*
X5999999Y19387815D01*
X89781483Y33912910D02*
X89963663Y33781932D01*
X49959512Y98728637D02*
X49750646Y98646663D01*
X45997203Y37387819D02*
X45997203Y37612196D01*
X6232927Y27066815D02*
X6309669Y26855971D01*
X6718484Y26058547D02*
X6844880Y25873158D01*
X127152325Y16873157D02*
X127278720Y17058545D01*
X47601487Y87750018D02*
X47494178Y87552966D01*
X45600378Y17649212D02*
X45687533Y17855969D01*
X86503026Y96552967D02*
X86395717Y96750019D01*
X42390259Y54089235D02*
X42609010Y54139164D01*
X6494177Y44447061D02*
X6601486Y44250009D01*
X86152324Y43873163D02*
X86278719Y44058551D01*
X90750647Y14646645D02*
X90546126Y14554362D01*
X41722908Y6005595D02*
X41946657Y6022363D01*
X7781481Y41087105D02*
X7606057Y40947208D01*
X9388193Y6139153D02*
X9606944Y6089224D01*
X86278719Y35058549D02*
X86395717Y35250007D01*
X10998601Y54000010D02*
X10498602Y54000010D01*
X83609011Y42139162D02*
X83825001Y42199932D01*
X47066967Y68281430D02*
X47033525Y68059560D01*
X47494178Y69552962D02*
X47396825Y69350806D01*
X10050546Y98977659D02*
X9827911Y98949759D01*
X89277202Y73357949D02*
X89437825Y73201281D01*
X90346460Y50452007D02*
X90152145Y50339819D01*
X81998602Y33000006D02*
X81998602Y33000007D01*
X83825001Y62800089D02*
X83609011Y62860859D01*
X127930238Y11281418D02*
X127885779Y11501346D01*
X92998603Y99000020D02*
X92498604Y99000020D01*
X83825001Y33199930D02*
X84037693Y33271391D01*
X83609011Y63139166D02*
X83825001Y63199936D01*
X45997203Y76612204D02*
X45986019Y76836301D01*
X92998603Y72000014D02*
X92998603Y72000014D01*
X48124586Y13477588D02*
X47980360Y13305706D01*
X90152145Y80339825D02*
X89963663Y80218091D01*
X88166793Y36281225D02*
X88232929Y36066817D01*
X6309669Y87144052D02*
X6232927Y86933208D01*
X49152144Y32339815D02*
X48963662Y32218081D01*
X88980361Y43694305D02*
X89124587Y43522423D01*
X83169293Y33050269D02*
X83390260Y33089231D01*
X85391147Y34052808D02*
X85559380Y34201274D01*
X82722909Y71994420D02*
X82498603Y72000013D01*
X88494179Y39552956D02*
X88396826Y39350800D01*
X45963678Y77059562D02*
X45930236Y77281432D01*
X126559381Y49798743D02*
X126391148Y49947209D01*
X89963663Y6781926D02*
X90152145Y6660192D01*
X88309671Y21144038D02*
X88232929Y20933194D01*
X709715Y43060D02*
X804909Y19215D01*
X42609010Y72139168D02*
X42825000Y72199938D01*
X47033525Y84940471D02*
X47066967Y84718601D01*
X43845060Y89339826D02*
X43650744Y89452015D01*
X45687533Y17855969D02*
X45764275Y18066814D01*
X51050547Y63022374D02*
X51274296Y63005606D01*
X47718485Y8058543D02*
X47844881Y7873154D01*
X88980361Y34694303D02*
X89124587Y34522421D01*
X125246560Y33353365D02*
X125451080Y33445648D01*
X82722909Y42005603D02*
X82946658Y42022371D01*
X48277201Y7357935D02*
X48437824Y7201267D01*
X47111426Y29501350D02*
X47066967Y29281422D01*
X6601486Y8250001D02*
X6718484Y8058543D01*
X45986019Y94163734D02*
X45997203Y94387831D01*
X49152144Y15660194D02*
X49346459Y15548006D01*
X6232927Y29933196D02*
X6166791Y29718788D01*
X43451078Y23554363D02*
X43246558Y23646646D01*
X88166793Y18281221D02*
X88232929Y18066813D01*
X45986019Y85836303D02*
X45963678Y86059564D01*
X88844882Y70126861D02*
X88718486Y69941472D01*
X125037694Y6271385D02*
X125246560Y6353359D01*
X126720004Y64357948D02*
X126872619Y64522427D01*
X41946657Y32977644D02*
X41722908Y32994412D01*
X51050547Y24022366D02*
X51274296Y24005598D01*
X6011183Y85836303D02*
X5999999Y85612206D01*
X86986020Y67163728D02*
X86997204Y67387825D01*
X47011184Y46836295D02*
X47000000Y46612198D01*
X85872618Y91522433D02*
X86016844Y91694315D01*
X125650746Y63548016D02*
X125845062Y63660205D01*
X133828674Y444430D02*
X133879126Y528604D01*
X88011185Y67836299D02*
X88000001Y67612202D01*
X48781482Y15912906D02*
X48963662Y15781928D01*
X42609010Y81139170D02*
X42825000Y81199940D01*
X124390261Y90089243D02*
X124609012Y90139172D01*
X82498603Y15000001D02*
X81998602Y15000002D01*
X47166792Y11718784D02*
X47111426Y11501346D01*
X124825002Y54199934D02*
X125037694Y54271395D01*
X6232927Y86933208D02*
X6166791Y86718800D01*
X76120Y617317D02*
X118078Y528604D01*
X8959511Y23728621D02*
X8750645Y23646647D01*
X86600379Y44649218D02*
X86687534Y44855975D01*
X127687535Y26855971D02*
X127764277Y27066816D01*
X6232927Y11933192D02*
X6166791Y11718784D01*
X7124585Y7522415D02*
X7277200Y7357935D01*
X51498603Y81000016D02*
X51998602Y81000017D01*
X124390261Y33089231D02*
X124609012Y33139160D01*
X85559380Y55201278D02*
X85720003Y55357946D01*
X127395718Y21750003D02*
X127278720Y21941462D01*
X83609011Y14860849D02*
X83390260Y14910778D01*
X91388195Y23860852D02*
X91172205Y23800082D01*
X127395718Y26250005D02*
X127503027Y26447058D01*
X85215722Y63912917D02*
X85391147Y64052814D01*
X45152323Y13126848D02*
X45016843Y13305706D01*
X90959513Y32728623D02*
X90750647Y32646649D01*
X10998601Y72000014D02*
X10998601Y72000014D01*
X6232927Y59933202D02*
X6166791Y59718794D01*
X88494179Y12552950D02*
X88396826Y12350794D01*
X85872618Y22477590D02*
X85720003Y22642069D01*
X47396825Y17649211D02*
X47494178Y17447055D01*
X90152145Y23339813D02*
X89963663Y23218079D01*
X48606058Y97947220D02*
X48437824Y97798754D01*
X88844882Y49126857D02*
X88718486Y48941468D01*
X82498603Y81000017D02*
X82722909Y81005611D01*
X10998601Y42000009D02*
X10998601Y42000009D01*
X88396826Y96350812D02*
X88309671Y96144054D01*
X10274295Y81005610D02*
X10498602Y81000016D01*
X49750646Y41646651D02*
X49546125Y41554368D01*
X49750646Y98646663D02*
X49546125Y98554380D01*
X40998601Y63000013D02*
X41498602Y63000013D01*
X44033542Y23218078D02*
X43845060Y23339812D01*
X42825000Y63199936D02*
X43037692Y63271397D01*
X7124585Y61477598D02*
X6980359Y61305716D01*
X6309669Y30144040D02*
X6232927Y29933196D01*
X83609011Y72139168D02*
X83825001Y72199938D01*
X6494177Y65447065D02*
X6601486Y65250013D01*
X45885777Y66498669D02*
X45930236Y66718597D01*
X51998602Y33000006D02*
X51498603Y33000006D01*
X86764276Y18066814D02*
X86830412Y18281221D01*
X86152324Y61126858D02*
X86016844Y61305716D01*
X8959511Y62728629D02*
X8750645Y62646655D01*
X127600380Y17649212D02*
X127687535Y17855969D01*
X45986019Y94836305D02*
X45963678Y95059566D01*
X51274296Y71994421D02*
X51050547Y71977653D01*
X126559381Y79798749D02*
X126391148Y79947215D01*
X43650744Y62452009D02*
X43451078Y62554371D01*
X43246558Y81353375D02*
X43451078Y81445658D01*
X48124586Y34522421D02*
X48277201Y34357941D01*
X82498603Y72000015D02*
X82722909Y72005609D01*
X90546126Y81445657D02*
X90750647Y81353374D01*
X90346460Y72548018D02*
X90546126Y72445655D01*
X127963680Y36940461D02*
X127986021Y37163722D01*
X88309671Y69144048D02*
X88232929Y68933204D01*
X43037692Y72271399D02*
X43246558Y72353373D01*
X91606946Y15089226D02*
X91827913Y15050264D01*
X47011184Y37163722D02*
X47033525Y36940461D01*
X86963679Y84940471D02*
X86986020Y85163732D01*
X47000000Y58387823D02*
X47011184Y58163726D01*
X44559379Y70798747D02*
X44391146Y70947213D01*
X45503025Y35447060D02*
X45600378Y35649216D01*
X88000001Y76612204D02*
X88000001Y76387827D01*
X44559379Y61798745D02*
X44391146Y61947211D01*
X10998601Y63000012D02*
X10998601Y63000012D01*
X8346458Y41452005D02*
X8152143Y41339817D01*
X88033526Y95059566D02*
X88011185Y94836305D01*
X123722910Y23994410D02*
X123498604Y24000003D01*
X124169294Y33050269D02*
X124390261Y33089231D01*
X6011183Y19163718D02*
X6033524Y18940457D01*
X9827911Y6050262D02*
X10050546Y6022362D01*
X42609010Y98860867D02*
X42390259Y98910796D01*
X45764275Y59933201D02*
X45687533Y60144046D01*
X90152145Y72660206D02*
X90346460Y72548018D01*
X84451079Y89554377D02*
X84246559Y89646660D01*
X84650745Y42548012D02*
X84845061Y42660201D01*
X45016843Y13305706D02*
X44872617Y13477588D01*
X7606057Y34052807D02*
X7781481Y33912910D01*
X92274297Y63005606D02*
X92498604Y63000012D01*
X85720003Y55357946D02*
X85872618Y55522425D01*
X45764275Y27066816D02*
X45830411Y27281223D01*
X92274297Y90005612D02*
X92498604Y90000018D01*
X126033544Y63781939D02*
X126215723Y63912917D01*
X47396825Y87350810D02*
X47309670Y87144052D01*
X85391147Y64052814D02*
X85559380Y64201280D01*
X92274297Y72005608D02*
X92498604Y72000014D01*
X8959511Y6271384D02*
X9172203Y6199923D01*
X6111425Y66498669D02*
X6166791Y66281231D01*
X84451079Y50554369D02*
X84246559Y50646652D01*
X90546126Y23554364D02*
X90346460Y23452001D01*
X91172205Y23800082D02*
X90959513Y23728621D01*
X86016844Y40305712D02*
X85872618Y40477594D01*
X85720003Y49642075D02*
X85559380Y49798743D01*
X123722910Y63005607D02*
X123946659Y63022375D01*
X88980361Y40305712D02*
X88844882Y40126855D01*
X7963661Y24781930D02*
X8152143Y24660196D01*
X86278719Y12941460D02*
X86152324Y13126848D01*
X8346458Y54548014D02*
X8546124Y54445651D01*
X7606057Y70947214D02*
X7437823Y70798748D01*
X92498604Y81000016D02*
X92274297Y80994423D01*
X85215722Y98087116D02*
X85033543Y98218094D01*
X47309670Y21144038D02*
X47232928Y20933194D01*
X45963678Y29059552D02*
X45930236Y29281422D01*
X47718485Y30941464D02*
X47601487Y30750006D01*
X47111426Y38501352D02*
X47066967Y38281424D01*
X124390261Y89910794D02*
X124169294Y89949756D01*
X10498602Y99000020D02*
X10274295Y98994427D01*
X8152143Y41339817D02*
X7963661Y41218083D01*
X127600380Y60350803D02*
X127503027Y60552959D01*
X51998602Y24000005D02*
X51998602Y24000005D01*
X49959512Y80728633D02*
X49750646Y80646659D01*
X45600378Y26649214D02*
X45687533Y26855971D01*
X47011184Y94163734D02*
X47033525Y93940473D01*
X88166793Y77718798D02*
X88111427Y77501360D01*
X89277202Y7357935D02*
X89437825Y7201267D01*
X127152325Y34873161D02*
X127278720Y35058549D01*
X45503025Y69552961D02*
X45395716Y69750013D01*
X90750647Y33353364D02*
X90959513Y33271390D01*
X7277200Y49642076D02*
X7124585Y49477596D01*
X49546125Y63445653D02*
X49750646Y63353370D01*
X50172204Y62800090D02*
X49959512Y62728629D01*
X41946657Y33022369D02*
X42169292Y33050269D01*
X48277201Y55357945D02*
X48437824Y55201277D01*
X127830413Y45281227D02*
X127885779Y45498665D01*
X124390261Y71910790D02*
X124169294Y71949752D01*
X127963680Y86059564D02*
X127930238Y86281434D01*
X88396826Y65649221D02*
X88494179Y65447065D01*
X86986020Y85836303D02*
X86963679Y86059564D01*
X88980361Y25694301D02*
X89124587Y25522419D01*
X127986021Y19836289D02*
X127963680Y20059550D01*
X44033542Y90781945D02*
X44215721Y90912923D01*
X1000000Y0D02*
X132997205Y0D01*
X126215723Y90912923D02*
X126391148Y91052820D01*
X44391146Y49947209D02*
X44215721Y50087106D01*
X88033526Y36940461D02*
X88066968Y36718591D01*
X127830413Y20718786D02*
X127764277Y20933193D01*
X6396824Y26649213D02*
X6494177Y26447057D01*
X49959512Y23728621D02*
X49750646Y23646647D01*
X127997205Y67612202D02*
X127986021Y67836299D01*
X127963680Y38059554D02*
X127930238Y38281424D01*
X47396825Y69350806D02*
X47309670Y69144048D01*
X82722909Y41994414D02*
X82498603Y42000007D01*
X126559381Y34201274D02*
X126720004Y34357942D01*
X86885778Y77501360D02*
X86830412Y77718798D01*
X44033542Y6781927D02*
X44215721Y6912905D01*
X47718485Y92058561D02*
X47844881Y91873172D01*
X45278718Y60941470D02*
X45152323Y61126858D01*
X41946657Y41977646D02*
X41722908Y41994414D01*
X92998603Y72000015D02*
X92998603Y72000015D01*
X48124586Y43522423D02*
X48277201Y43357943D01*
X45600378Y83649226D02*
X45687533Y83855983D01*
X88980361Y91694315D02*
X89124587Y91522433D01*
X40998601Y42000009D02*
X41498602Y42000009D01*
X6166791Y93281237D02*
X6232927Y93066829D01*
X47309670Y44855975D02*
X47396825Y44649217D01*
X49750646Y6353358D02*
X49959512Y6271384D01*
X48277201Y88642084D02*
X48124586Y88477604D01*
X86997204Y37387819D02*
X86997204Y37612196D01*
X83825001Y72199938D02*
X84037693Y72271399D01*
X43451078Y15445644D02*
X43650744Y15548006D01*
X88111427Y11501346D02*
X88066968Y11281418D01*
X42825000Y71800091D02*
X42609010Y71860861D01*
X91827913Y72050276D02*
X92050548Y72022376D01*
X88309671Y74855981D02*
X88396826Y74649223D01*
X7606057Y43052809D02*
X7781481Y42912912D01*
X7124585Y34522421D02*
X7277200Y34357941D01*
X50388194Y33139159D02*
X50606945Y33089230D01*
X89606059Y16052803D02*
X89781483Y15912906D01*
X127687535Y87144052D02*
X127600380Y87350809D01*
X82722909Y80994422D02*
X82498603Y81000015D01*
X226989Y104634414D02*
X168530Y104555591D01*
X7437823Y64201279D02*
X7606057Y64052813D01*
X43650744Y42548012D02*
X43845060Y42660201D01*
X126033544Y81781943D02*
X126215723Y81912921D01*
X125650746Y42548012D02*
X125845062Y42660201D01*
X50606945Y41910785D02*
X50388194Y41860856D01*
X9827911Y63050274D02*
X10050546Y63022374D01*
X47396825Y8649209D02*
X47494178Y8447053D01*
X85872618Y13477588D02*
X85720003Y13642067D01*
X127687535Y30144040D02*
X127600380Y30350797D01*
X49959512Y6271384D02*
X50172204Y6199923D01*
X84650745Y23452001D02*
X84451079Y23554363D01*
X51274296Y33005600D02*
X51498603Y33000006D01*
X9606944Y62910789D02*
X9388193Y62860860D01*
X47844881Y61126859D02*
X47718485Y60941470D01*
X50172204Y90199941D02*
X50388194Y90139171D01*
X86986020Y46163724D02*
X86997204Y46387821D01*
X43037692Y89728634D02*
X42825000Y89800095D01*
X83609011Y54139164D02*
X83825001Y54199934D01*
X47601487Y92250019D02*
X47718485Y92058561D01*
X123722910Y15005597D02*
X123946659Y15022365D01*
X82946658Y6022363D02*
X82946658Y6022363D01*
X43246558Y24353363D02*
X43451078Y24445646D01*
X126215723Y14087098D02*
X126033544Y14218076D01*
X41946657Y71977652D02*
X41722908Y71994420D01*
X50827912Y32949745D02*
X50606945Y32910783D01*
X10998601Y54000011D02*
X10998601Y54000010D01*
X51998602Y33000007D02*
X51998602Y33000007D01*
X43246558Y50646652D02*
X43037692Y50728626D01*
X127395718Y96750019D02*
X127278720Y96941478D01*
X124390261Y6089225D02*
X124609012Y6139154D01*
X90152145Y62339821D02*
X89963663Y62218087D01*
X5999999Y46387821D02*
X6011183Y46163724D01*
X86152324Y82873171D02*
X86278719Y83058559D01*
X89124587Y64522427D02*
X89277202Y64357947D01*
X51498603Y99000020D02*
X51274296Y98994427D01*
X88066968Y47281426D02*
X88033526Y47059556D01*
X85391147Y25052806D02*
X85559380Y25201272D01*
X45152323Y34873161D02*
X45278718Y35058549D01*
X88232929Y68933204D02*
X88166793Y68718796D01*
X88494179Y17447055D02*
X88601488Y17250003D01*
X126033544Y32218080D02*
X125845062Y32339814D01*
X45764275Y75066826D02*
X45830411Y75281233D01*
X40998601Y15000002D02*
X40998601Y15000002D01*
X125451080Y89554377D02*
X125246560Y89646660D01*
X8346458Y23452001D02*
X8152143Y23339813D01*
X89124587Y31477592D02*
X88980361Y31305710D01*
X86600379Y12350793D02*
X86503026Y12552949D01*
X47011184Y28836291D02*
X47000000Y28612194D01*
X51998602Y72000015D02*
X51998602Y72000014D01*
X84845061Y50339818D02*
X84650745Y50452007D01*
X44720002Y43357944D02*
X44872617Y43522423D01*
X44872617Y88477604D02*
X44720002Y88642083D01*
X90959513Y89728635D02*
X90750647Y89646661D01*
X8959511Y98728637D02*
X8750645Y98646663D01*
X44033542Y72781941D02*
X44215721Y72912919D01*
X45016843Y97305724D02*
X44872617Y97477606D01*
X89437825Y22798738D02*
X89277202Y22642070D01*
X804909Y104980806D02*
X709715Y104956961D01*
X47718485Y56058553D02*
X47844881Y55873164D01*
X7437823Y73201281D02*
X7606057Y73052815D01*
X47980360Y73694311D02*
X48124586Y73522429D01*
X47494178Y92447071D02*
X47601487Y92250019D01*
X83609011Y15139156D02*
X83825001Y15199926D01*
X90546126Y15445643D02*
X90750647Y15353360D01*
X8959511Y41728625D02*
X8750645Y41646651D01*
X128997205Y100000020D02*
X128997205Y54000010D01*
X6066966Y47281426D02*
X6033524Y47059556D01*
X88011185Y85836303D02*
X88000001Y85612206D01*
X6066966Y86281434D02*
X6033524Y86059564D01*
X44391146Y88947217D02*
X44215721Y89087114D01*
X86764276Y11933191D02*
X86687534Y12144036D01*
X86278719Y74058557D02*
X86395717Y74250015D01*
X127986021Y37163722D02*
X127997205Y37387819D01*
X47166792Y47718792D02*
X47111426Y47501354D01*
X83390260Y32910782D02*
X83169293Y32949744D01*
X41722908Y89994424D02*
X41498602Y90000017D01*
X48437824Y31798740D02*
X48277201Y31642072D01*
X86503026Y48552957D02*
X86395717Y48750009D01*
X47166792Y20718786D02*
X47111426Y20501348D01*
X125845062Y98339828D02*
X125650746Y98452017D01*
X125037694Y33271391D02*
X125246560Y33353365D01*
X6980359Y91694315D02*
X7124585Y91522433D01*
X45278718Y17058545D02*
X45395716Y17250003D01*
X6166791Y86718800D02*
X6111425Y86501362D01*
X123946659Y63022375D02*
X124169294Y63050275D01*
X10274295Y41994415D02*
X10050546Y41977647D01*
X125246560Y23646646D02*
X125037694Y23728620D01*
X85033543Y54781937D02*
X85215722Y54912915D01*
X44720002Y97642085D02*
X44559379Y97798753D01*
X127997205Y37387819D02*
X127997205Y37612196D01*
X84451079Y23554363D02*
X84246559Y23646646D01*
X49959512Y32728623D02*
X49750646Y32646649D01*
X43650744Y24548008D02*
X43845060Y24660197D01*
X49152144Y71339823D02*
X48963662Y71218089D01*
X6066966Y36718591D02*
X6111425Y36498663D01*
X49959512Y81271400D02*
X50172204Y81199939D01*
X88232929Y84066827D02*
X88309671Y83855983D01*
X7781481Y42912912D02*
X7963661Y42781934D01*
X88033526Y38059554D02*
X88011185Y37836293D01*
X90959513Y72271398D02*
X91172205Y72199937D01*
X85215722Y71087110D02*
X85033543Y71218088D01*
X47718485Y69941472D02*
X47601487Y69750014D01*
X86152324Y91873173D02*
X86278719Y92058561D01*
X47980360Y13305706D02*
X47844881Y13126849D01*
X47309670Y48144044D02*
X47232928Y47933200D01*
X7781481Y98087117D02*
X7606057Y97947220D01*
X8152143Y54660202D02*
X8346458Y54548014D01*
X40998601Y90000019D02*
X41498602Y90000019D01*
X40998601Y99000020D02*
X40998601Y100000020D01*
X42825000Y15199926D02*
X43037692Y15271387D01*
X47066967Y66718597D02*
X47111426Y66498669D01*
X127997205Y19612192D02*
X127986021Y19836289D01*
X89437825Y49798744D02*
X89277202Y49642076D01*
X86278719Y39941466D02*
X86152324Y40126854D01*
X47844881Y79126863D02*
X47718485Y78941474D01*
X86997204Y58387823D02*
X86997204Y58612200D01*
X43650744Y41452005D02*
X43451078Y41554367D01*
X86930237Y18718587D02*
X86963679Y18940457D01*
X6601486Y69750014D02*
X6494177Y69552962D01*
X88844882Y22126851D02*
X88718486Y21941462D01*
X126391148Y82052818D02*
X126559381Y82201284D01*
X126720004Y73357950D02*
X126872619Y73522429D01*
X47494178Y48552958D02*
X47396825Y48350802D01*
X6011183Y85163732D02*
X6033524Y84940471D01*
X82722909Y33005601D02*
X82946658Y33022369D01*
X127986021Y67163728D02*
X127997205Y67387825D01*
X89963663Y15781928D02*
X90152145Y15660194D01*
X127600380Y35649216D02*
X127687535Y35855973D01*
X133468601Y104881942D02*
X133379888Y104923900D01*
X126720004Y13642067D02*
X126559381Y13798735D01*
X86503026Y65447066D02*
X86600379Y65649222D01*
X44559379Y13798735D02*
X44391146Y13947201D01*
X127395718Y30750005D02*
X127278720Y30941464D01*
X10998601Y24000005D02*
X10998601Y24000004D01*
X7277200Y55357945D02*
X7437823Y55201277D01*
X49546125Y90445659D02*
X49750646Y90353376D01*
X123722910Y98994426D02*
X123498604Y99000019D01*
X88396826Y87350810D02*
X88309671Y87144052D01*
X127395718Y78750015D02*
X127278720Y78941474D01*
X45687533Y92855985D02*
X45764275Y93066830D01*
X6309669Y60144046D02*
X6232927Y59933202D01*
X47844881Y40126855D02*
X47718485Y39941466D01*
X133977990Y804910D02*
X133992389Y901983D01*
X7437823Y49798744D02*
X7277200Y49642076D01*
X89124587Y70477600D02*
X88980361Y70305718D01*
X127687535Y39144042D02*
X127600380Y39350799D01*
X50827912Y54050272D02*
X51050547Y54022372D01*
X84845061Y32339814D02*
X84650745Y32452003D01*
X127986021Y28836291D02*
X127963680Y29059552D01*
X85391147Y61947211D02*
X85215722Y62087108D01*
X47066967Y86281434D02*
X47033525Y86059564D01*
X83609011Y24139158D02*
X83825001Y24199928D01*
X81998602Y63000013D02*
X82498603Y63000013D01*
X84037693Y62728628D02*
X83825001Y62800089D01*
X90546126Y50554370D02*
X90346460Y50452007D01*
X88011185Y94163734D02*
X88033526Y93940473D01*
X7606057Y82052817D02*
X7781481Y81912920D01*
X85720003Y22642069D02*
X85559380Y22798737D01*
X45986019Y10163716D02*
X45997203Y10387813D01*
X86885778Y86501362D02*
X86830412Y86718800D01*
X45764275Y45066820D02*
X45830411Y45281227D01*
X89606059Y61947212D02*
X89437825Y61798746D01*
X127503027Y44447062D02*
X127600380Y44649218D01*
X88844882Y34873160D02*
X88980361Y34694303D01*
X48963662Y50218085D02*
X48781482Y50087107D01*
X89963663Y81781942D02*
X90152145Y81660208D01*
X92498604Y63000012D02*
X92274297Y62994419D01*
X86764276Y9066812D02*
X86830412Y9281219D01*
X6844880Y34873160D02*
X6980359Y34694303D01*
X47033525Y68059560D02*
X47011184Y67836299D01*
X43246558Y42353367D02*
X43451078Y42445650D01*
X8152143Y24660196D02*
X8346458Y24548008D01*
X85391147Y40947207D02*
X85215722Y41087104D01*
X88232929Y66066823D02*
X88309671Y65855979D01*
X86152324Y13126848D02*
X86016844Y13305706D01*
X6066966Y29281422D02*
X6033524Y29059552D01*
X83390260Y72089239D02*
X83609011Y72139168D01*
X50827912Y80949755D02*
X50606945Y80910793D01*
X45885777Y18498659D02*
X45930236Y18718587D01*
X86687534Y30144040D02*
X86600379Y30350797D01*
X122998603Y24000004D02*
X122998603Y24000004D01*
X47494178Y87552966D02*
X47396825Y87350810D01*
X47494178Y56447063D02*
X47601487Y56250011D01*
X50606945Y90089242D02*
X50827912Y90050280D01*
X43451078Y89554377D02*
X43246558Y89646660D01*
X86986020Y76163730D02*
X86997204Y76387827D01*
X43246558Y80646658D02*
X43037692Y80728632D01*
X86395717Y60750011D02*
X86278719Y60941470D01*
X9606944Y42089232D02*
X9827911Y42050270D01*
X83390260Y14910778D02*
X83169293Y14949740D01*
X127600380Y26649214D02*
X127687535Y26855971D01*
X47232928Y57066821D02*
X47309670Y56855977D01*
X47166792Y27281223D02*
X47232928Y27066815D01*
X44720002Y64357948D02*
X44872617Y64522427D01*
X7781481Y63912916D02*
X7963661Y63781938D01*
X47718485Y21941462D02*
X47601487Y21750004D01*
X84845061Y71339822D02*
X84650745Y71452011D01*
X89606059Y79947216D02*
X89437825Y79798750D01*
X804909Y19215D02*
X901982Y4816D01*
X86016844Y73694311D02*
X86152324Y73873169D01*
X5999999Y37387819D02*
X6011183Y37163722D01*
X51998602Y81000016D02*
X51998602Y81000016D01*
X51998602Y72000014D02*
X51998602Y72000014D01*
X127764277Y29933195D02*
X127687535Y30144040D01*
X127830413Y57281229D02*
X127885779Y57498667D01*
X86016844Y70305718D02*
X85872618Y70477600D01*
X88111427Y20501348D02*
X88066968Y20281420D01*
X122998603Y24000004D02*
X122998603Y24000005D01*
X126872619Y73522429D02*
X127016845Y73694311D01*
X47980360Y61305716D02*
X47844881Y61126859D01*
X89781483Y81912920D02*
X89963663Y81781942D01*
X43451078Y98554379D02*
X43246558Y98646662D01*
X123946659Y14977640D02*
X123722910Y14994408D01*
X44215721Y54912915D02*
X44391146Y55052812D01*
X86930237Y68281430D02*
X86885778Y68501358D01*
X88601488Y26250005D02*
X88718486Y26058547D01*
X45986019Y76836301D02*
X45963678Y77059562D01*
X84845061Y98339828D02*
X84650745Y98452017D01*
X6718484Y83058559D02*
X6844880Y82873170D01*
X82946658Y98977658D02*
X82722909Y98994426D01*
X88111427Y38501352D02*
X88066968Y38281424D01*
X91827913Y41949747D02*
X91606946Y41910785D01*
X89437825Y64201279D02*
X89606059Y64052813D01*
X47011184Y19163718D02*
X47033525Y18940457D01*
X88494179Y92447071D02*
X88601488Y92250019D01*
X92998603Y24000005D02*
X92998603Y24000005D01*
X125246560Y6353359D02*
X125451080Y6445642D01*
X48781482Y32087103D02*
X48606058Y31947206D01*
X8959511Y80728633D02*
X8750645Y80646659D01*
X47000000Y46387821D02*
X47011184Y46163724D01*
X0Y1000000D02*
X4815Y901983D01*
X45152323Y40126854D02*
X45016843Y40305712D01*
X126559381Y43201276D02*
X126720004Y43357944D01*
X89963663Y62218087D02*
X89781483Y62087109D01*
X51998602Y42000009D02*
X51998602Y42000009D01*
X91606946Y32910783D02*
X91388195Y32860854D01*
X125451080Y81445658D02*
X125650746Y81548020D01*
X83169293Y42050271D02*
X83390260Y42089233D01*
X125246560Y62646654D02*
X125037694Y62728628D01*
X86830412Y29718788D02*
X86764276Y29933195D01*
X85720003Y34357942D02*
X85872618Y34522421D01*
X92498604Y63000012D02*
X92998603Y63000013D01*
X88309671Y92855985D02*
X88396826Y92649227D01*
X83609011Y50860857D02*
X83390260Y50910786D01*
X7437823Y22798738D02*
X7277200Y22642070D01*
X126391148Y64052814D02*
X126559381Y64201280D01*
X85872618Y61477598D02*
X85720003Y61642077D01*
X6396824Y44649217D02*
X6494177Y44447061D01*
X47844881Y31126853D02*
X47718485Y30941464D01*
X44872617Y97477606D02*
X44720002Y97642085D01*
X83169293Y89949756D02*
X82946658Y89977656D01*
X43845060Y6660193D02*
X44033542Y6781927D01*
X47033525Y11059548D02*
X47011184Y10836287D01*
X127600380Y69350805D02*
X127503027Y69552961D01*
X47166792Y9281219D02*
X47232928Y9066811D01*
X122998603Y90000018D02*
X122998603Y90000019D01*
X10998601Y72000015D02*
X10998601Y72000014D01*
X44391146Y55052812D02*
X44559379Y55201278D01*
X125037694Y15271387D02*
X125246560Y15353361D01*
X44391146Y91052820D02*
X44559379Y91201286D01*
X86930237Y59281428D02*
X86885778Y59501356D01*
X86830412Y45281227D02*
X86885778Y45498665D01*
X8152143Y89339827D02*
X7963661Y89218093D01*
X122998603Y6000001D02*
X123498604Y6000001D01*
X81998602Y24000004D02*
X81998602Y24000004D01*
X81998602Y63000012D02*
X81998602Y63000013D01*
X127997205Y46387821D02*
X127997205Y46612198D01*
X90750647Y62646655D02*
X90546126Y62554372D01*
X122998603Y99000020D02*
X122998603Y100000020D01*
X88844882Y88126865D02*
X88718486Y87941476D01*
X86600379Y26649214D02*
X86687534Y26855971D01*
X9172203Y14800080D02*
X8959511Y14728619D01*
X47011184Y76163730D02*
X47033525Y75940469D01*
X10998601Y15000002D02*
X10998601Y15000002D01*
X132997205Y105000020D02*
X1000000Y105000020D01*
X123498604Y63000011D02*
X122998603Y63000012D01*
X49546125Y15445643D02*
X49750646Y15353360D01*
X47980360Y70305718D02*
X47844881Y70126861D01*
X44033542Y24781931D02*
X44215721Y24912909D01*
X51998602Y42000009D02*
X51998602Y42000008D01*
X45764275Y18066814D02*
X45830411Y18281221D01*
X47066967Y11281418D02*
X47033525Y11059548D01*
X88166793Y84281235D02*
X88232929Y84066827D01*
X127885779Y57498667D02*
X127930238Y57718595D01*
X41722908Y15005597D02*
X41946657Y15022365D01*
X6033524Y11059548D02*
X6011183Y10836287D01*
X41498602Y54000011D02*
X41722908Y54005605D01*
X51498603Y54000010D02*
X46498602Y54000010D01*
X8152143Y33660198D02*
X8346458Y33548010D01*
X127885779Y9498657D02*
X127930238Y9718585D01*
X122998603Y51000010D02*
X127997205Y51000010D01*
X44215721Y71087110D02*
X44033542Y71218088D01*
X92998603Y63000013D02*
X92998603Y63000013D01*
X91172205Y71800092D02*
X90959513Y71728631D01*
X47232928Y47933200D02*
X47166792Y47718792D01*
X92998603Y51000010D02*
X92998603Y51000010D01*
X125246560Y81353375D02*
X125451080Y81445658D01*
X91606946Y72089238D02*
X91827913Y72050276D01*
X7781481Y50087107D02*
X7606057Y49947210D01*
X10274295Y23994411D02*
X10050546Y23977643D01*
X51274296Y6005594D02*
X51498603Y6000000D01*
X125650746Y32452003D02*
X125451080Y32554365D01*
X127930238Y59281428D02*
X127885779Y59501356D01*
X48781482Y80087113D02*
X48606058Y79947216D01*
X50606945Y89910795D02*
X50388194Y89860866D01*
X89124587Y25522419D02*
X89277202Y25357939D01*
X89781483Y15912906D02*
X89963663Y15781928D01*
X89277202Y55357945D02*
X89437825Y55201277D01*
X125037694Y24271389D02*
X125246560Y24353363D01*
X47232928Y86933208D02*
X47166792Y86718800D01*
X126720004Y70642079D02*
X126559381Y70798747D01*
X9172203Y54199933D02*
X9388193Y54139163D01*
X82722909Y90005613D02*
X82946658Y90022381D01*
X86600379Y78350807D02*
X86503026Y78552963D01*
X85391147Y79947215D02*
X85215722Y80087112D01*
X133287489Y104956961D02*
X133192295Y104980806D01*
X82946658Y50977648D02*
X82722909Y50994416D01*
X42390259Y33089231D02*
X42609010Y33139160D01*
X48437824Y88798752D02*
X48277201Y88642084D01*
X47011184Y10163716D02*
X47033525Y9940455D01*
X45503025Y30552953D02*
X45395716Y30750005D01*
X124169294Y54050273D02*
X124390261Y54089235D01*
X6111425Y27498661D02*
X6166791Y27281223D01*
X10274295Y71994421D02*
X10050546Y71977653D01*
X6066966Y75718599D02*
X6111425Y75498671D01*
X86600379Y48350801D02*
X86503026Y48552957D01*
X8152143Y32339815D02*
X7963661Y32218081D01*
X5000000Y51000010D02*
X5999999Y51000010D01*
X126559381Y13798735D02*
X126391148Y13947201D01*
X44033542Y80218090D02*
X43845060Y80339824D01*
X50827912Y15050264D02*
X51050547Y15022364D01*
X44391146Y40947207D02*
X44215721Y41087104D01*
X42609010Y32860853D02*
X42390259Y32910782D01*
X42609010Y54139164D02*
X42825000Y54199934D01*
X8346458Y33548010D02*
X8546124Y33445647D01*
X6033524Y27940459D02*
X6066966Y27718589D01*
X127885779Y86501362D02*
X127830413Y86718800D01*
X126215723Y72912919D02*
X126391148Y73052816D01*
X86152324Y88126864D02*
X86016844Y88305722D01*
X86997204Y10612190D02*
X86986020Y10836287D01*
X47166792Y75281233D02*
X47232928Y75066825D01*
X44391146Y16052804D02*
X44559379Y16201270D01*
X82498603Y81000015D02*
X81998602Y81000016D01*
X5000000Y100000020D02*
X10998601Y100000020D01*
X123946659Y98977658D02*
X123722910Y98994426D01*
X85720003Y79642081D02*
X85559380Y79798749D01*
X88011185Y85163732D02*
X88033526Y84940471D01*
X6844880Y7873154D02*
X6980359Y7694297D01*
X6494177Y26447057D02*
X6601486Y26250005D01*
X49959512Y63271396D02*
X50172204Y63199935D01*
X51998602Y90000019D02*
X51998602Y90000019D01*
X88494179Y26447057D02*
X88601488Y26250005D01*
X84037693Y23728620D02*
X83825001Y23800081D01*
X45930236Y93718603D02*
X45963678Y93940473D01*
X123722910Y41994414D02*
X123498604Y42000007D01*
X48277201Y43357943D02*
X48437824Y43201275D01*
X7781481Y32087103D02*
X7606057Y31947206D01*
X6166791Y68718796D02*
X6111425Y68501358D01*
X45885777Y86501362D02*
X45830411Y86718800D01*
X86016844Y7694297D02*
X86152324Y7873155D01*
X10998601Y5000000D02*
X5000000Y5000000D01*
X126559381Y91201286D02*
X126720004Y91357954D01*
X83169293Y63050275D02*
X83390260Y63089237D01*
X6111425Y20501348D02*
X6066966Y20281420D01*
X45986019Y19836289D02*
X45963678Y20059550D01*
X47111426Y9498657D02*
X47166792Y9281219D01*
X82722909Y24005599D02*
X82946658Y24022367D01*
X83609011Y23860851D02*
X83390260Y23910780D01*
X86600379Y92649228D02*
X86687534Y92855985D01*
X88718486Y48941468D02*
X88601488Y48750010D01*
X7437823Y91201285D02*
X7606057Y91052819D01*
X40998601Y54000010D02*
X40998601Y54000011D01*
X6232927Y57066821D02*
X6309669Y56855977D01*
X41946657Y15022365D02*
X42169292Y15050265D01*
X6166791Y95718802D02*
X6111425Y95501364D01*
X86930237Y27718589D02*
X86963679Y27940459D01*
X9388193Y15139155D02*
X9606944Y15089226D01*
X47980360Y31305710D02*
X47844881Y31126853D01*
X127016845Y73694311D02*
X127152325Y73873169D01*
X88033526Y75940469D02*
X88066968Y75718599D01*
X45963678Y86059564D02*
X45930236Y86281434D01*
X127278720Y69941472D02*
X127152325Y70126860D01*
X127503027Y48552957D02*
X127395718Y48750009D01*
X6166791Y38718790D02*
X6111425Y38501352D01*
X85033543Y80218090D02*
X84845061Y80339824D01*
X528603Y118079D02*
X617316Y76121D01*
X48277201Y22642070D02*
X48124586Y22477590D01*
X45278718Y83058559D02*
X45395716Y83250017D01*
X89781483Y71087111D02*
X89606059Y70947214D01*
X133992389Y901983D02*
X133997205Y1000000D01*
X43037692Y80728632D02*
X42825000Y80800093D01*
X84037693Y63271397D02*
X84246559Y63353371D01*
X47396825Y60350804D02*
X47309670Y60144046D01*
X126033544Y24781931D02*
X126215723Y24912909D01*
X90546126Y24445645D02*
X90750647Y24353362D01*
X47494178Y44447061D02*
X47601487Y44250009D01*
X89963663Y32218081D02*
X89781483Y32087103D01*
X86503026Y39552955D02*
X86395717Y39750007D01*
X90959513Y14728619D02*
X90750647Y14646645D01*
X47309670Y96144054D02*
X47232928Y95933210D01*
X41498602Y81000015D02*
X40998601Y81000016D01*
X47844881Y49126857D02*
X47718485Y48941468D01*
X7437823Y61798746D02*
X7277200Y61642078D01*
X48606058Y61947212D02*
X48437824Y61798746D01*
X84451079Y42445650D02*
X84650745Y42548012D01*
X10050546Y14977641D02*
X9827911Y14949741D01*
X123498604Y24000005D02*
X123722910Y24005599D01*
X51498603Y90000018D02*
X51274296Y89994425D01*
X45764275Y57066822D02*
X45830411Y57281229D01*
X125845062Y24660197D02*
X126033544Y24781931D01*
X617316Y76121D02*
X709715Y43060D01*
X7781481Y15912906D02*
X7963661Y15781928D01*
X127764277Y47933199D02*
X127687535Y48144044D01*
X41498602Y99000019D02*
X40998601Y99000020D01*
X92998603Y81000017D02*
X92998603Y81000017D01*
X48781482Y72912918D02*
X48963662Y72781940D01*
X9827911Y54050272D02*
X10050546Y54022372D01*
X44391146Y7052802D02*
X44559379Y7201268D01*
X6111425Y68501358D02*
X6066966Y68281430D01*
X6111425Y11501346D02*
X6066966Y11281418D01*
X41498602Y24000005D02*
X41722908Y24005599D01*
X42609010Y90139172D02*
X42825000Y90199942D01*
X124825002Y14800079D02*
X124609012Y14860849D01*
X126720004Y91357954D02*
X126872619Y91522433D01*
X41946657Y80977654D02*
X41722908Y80994422D01*
X47718485Y44058551D02*
X47844881Y43873162D01*
X6980359Y70305718D02*
X6844880Y70126861D01*
X528603Y104881942D02*
X444429Y104831490D01*
X44872617Y22477590D02*
X44720002Y22642069D01*
X51274296Y32994413D02*
X51050547Y32977645D01*
X89277202Y43357943D02*
X89437825Y43201275D01*
X6232927Y95933210D02*
X6166791Y95718802D01*
X125451080Y63445654D02*
X125650746Y63548016D01*
X88111427Y9498657D02*
X88166793Y9281219D01*
X88718486Y39941466D02*
X88601488Y39750008D01*
X10998601Y33000007D02*
X10998601Y33000006D01*
X44720002Y88642083D02*
X44559379Y88798751D01*
X85559380Y70798747D02*
X85391147Y70947213D01*
X10498602Y24000004D02*
X10274295Y23994411D01*
X50827912Y90050280D02*
X51050547Y90022380D01*
X45278718Y26058547D02*
X45395716Y26250005D01*
X84845061Y14339810D02*
X84650745Y14451999D01*
X127395718Y69750013D02*
X127278720Y69941472D01*
X125037694Y42271393D02*
X125246560Y42353367D01*
X91606946Y89910795D02*
X91388195Y89860866D01*
X48963662Y98218095D02*
X48781482Y98087117D01*
X127930238Y29281422D02*
X127885779Y29501350D01*
X127600380Y44649218D02*
X127687535Y44855975D01*
X127830413Y66281231D02*
X127885779Y66498669D01*
X6980359Y22305708D02*
X6844880Y22126851D01*
X89781483Y41087105D02*
X89606059Y40947208D01*
X125246560Y14646644D02*
X125037694Y14728618D01*
X127152325Y97126866D02*
X127016845Y97305724D01*
X86764276Y45066820D02*
X86830412Y45281227D01*
X81998602Y81000016D02*
X81998602Y81000016D01*
X45885777Y59501356D02*
X45830411Y59718794D01*
X126215723Y24912909D02*
X126391148Y25052806D01*
X84246559Y81353375D02*
X84451079Y81445658D01*
X85872618Y88477604D02*
X85720003Y88642083D01*
X10274295Y6005594D02*
X10498602Y6000000D01*
X43451078Y24445646D02*
X43650744Y24548008D01*
X4815Y104098038D02*
X0Y104000020D01*
X47844881Y34873160D02*
X47980360Y34694303D01*
X88066968Y9718585D02*
X88111427Y9498657D01*
X8546124Y50554370D02*
X8346458Y50452007D01*
X8546124Y80554376D02*
X8346458Y80452013D01*
X123722910Y89994424D02*
X123498604Y90000017D01*
X45930236Y18718587D02*
X45963678Y18940457D01*
X45764275Y86933207D02*
X45687533Y87144052D01*
X86963679Y29059552D02*
X86930237Y29281422D01*
X88309671Y12144036D02*
X88232929Y11933192D01*
X45395716Y87750017D02*
X45278718Y87941476D01*
X92498604Y33000006D02*
X92274297Y32994413D01*
X51050547Y89977657D02*
X50827912Y89949757D01*
X88309671Y17855969D02*
X88396826Y17649211D01*
X86600379Y87350809D02*
X86503026Y87552965D01*
X51998602Y15000003D02*
X51998602Y15000003D01*
X6111425Y36498663D02*
X6166791Y36281225D01*
X133468601Y118079D02*
X133552775Y168531D01*
X88844882Y40126855D02*
X88718486Y39941466D01*
X82498603Y15000003D02*
X82722909Y15005597D01*
X83169293Y6050263D02*
X83390260Y6089225D01*
X45963678Y68059560D02*
X45930236Y68281430D01*
X126720004Y22642069D02*
X126559381Y22798737D01*
X51050547Y98977659D02*
X51050547Y98977659D01*
X7963661Y42781934D02*
X8152143Y42660200D01*
X45278718Y56058553D02*
X45395716Y56250011D01*
X85559380Y43201276D02*
X85720003Y43357944D01*
X6396824Y17649211D02*
X6494177Y17447055D01*
X6232927Y9066811D02*
X6309669Y8855967D01*
X10998601Y63000012D02*
X10498602Y63000012D01*
X45963678Y11059548D02*
X45930236Y11281418D01*
X88980361Y61305716D02*
X88844882Y61126859D01*
X123498604Y81000017D02*
X123722910Y81005611D01*
X86986020Y37836293D02*
X86963679Y38059554D01*
X47011184Y85163732D02*
X47033525Y84940471D01*
X84845061Y72660207D02*
X85033543Y72781941D01*
X86764276Y57066822D02*
X86830412Y57281229D01*
X83390260Y89910794D02*
X83169293Y89949756D01*
X90152145Y71339823D02*
X89963663Y71218089D01*
X127016845Y82694313D02*
X127152325Y82873171D01*
X127764277Y84066828D02*
X127830413Y84281235D01*
X126872619Y64522427D02*
X127016845Y64694309D01*
X45152323Y91873173D02*
X45278718Y92058561D01*
X86687534Y21144038D02*
X86600379Y21350795D01*
X124825002Y71800091D02*
X124609012Y71860861D01*
X88980361Y73694311D02*
X89124587Y73522429D01*
X47844881Y16873156D02*
X47980360Y16694299D01*
X6396824Y56649219D02*
X6494177Y56447063D01*
X89437825Y31798740D02*
X89277202Y31642072D01*
X6166791Y11718784D02*
X6111425Y11501346D01*
X45395716Y39750007D02*
X45278718Y39941466D01*
X45152323Y97126866D02*
X45016843Y97305724D01*
X86395717Y8250001D02*
X86503026Y8447054D01*
X126720004Y61642077D02*
X126559381Y61798745D01*
X8959511Y89728635D02*
X8750645Y89646661D01*
X81998602Y15000003D02*
X82498603Y15000003D01*
X127687535Y96144054D02*
X127600380Y96350811D01*
X45830411Y27281223D02*
X45885777Y27498661D01*
X6601486Y39750008D02*
X6494177Y39552956D01*
X82498603Y99000019D02*
X81998602Y99000020D01*
X47166792Y29718788D02*
X47111426Y29501350D01*
X7963661Y89218093D02*
X7781481Y89087115D01*
X9388193Y80860864D02*
X9172203Y80800094D01*
X47000000Y19612192D02*
X47000000Y19387815D01*
X47066967Y57718595D02*
X47111426Y57498667D01*
X90346460Y32452003D02*
X90152145Y32339815D01*
X44872617Y31477592D02*
X44720002Y31642071D01*
X6066966Y9718585D02*
X6111425Y9498657D01*
X9388193Y62860860D02*
X9172203Y62800090D01*
X45687533Y39144042D02*
X45600378Y39350799D01*
X42390259Y98910796D02*
X42169292Y98949758D01*
X125246560Y80646658D02*
X125037694Y80728632D01*
X127016845Y34694303D02*
X127152325Y34873161D01*
X44215721Y33912911D02*
X44391146Y34052808D01*
X47111426Y59501356D02*
X47066967Y59281428D01*
X83390260Y33089231D02*
X83609011Y33139160D01*
X47111426Y68501358D02*
X47066967Y68281430D01*
X127997205Y85387829D02*
X127997205Y85612206D01*
X90346460Y24548008D02*
X90546126Y24445645D01*
X85391147Y73052816D02*
X85559380Y73201282D01*
X45885777Y38501352D02*
X45830411Y38718790D01*
X83390260Y6089225D02*
X83609011Y6139154D01*
X88000001Y67387825D02*
X88011185Y67163728D01*
X6111425Y57498667D02*
X6166791Y57281229D01*
X45930236Y84718601D02*
X45963678Y84940471D01*
X7124585Y13477588D02*
X6980359Y13305706D01*
X89437825Y82201283D02*
X89606059Y82052817D01*
X81998602Y5000000D02*
X81998602Y6000001D01*
X85872618Y55522425D02*
X86016844Y55694307D01*
X8346458Y62452009D02*
X8152143Y62339821D01*
X47232928Y9066811D02*
X47309670Y8855967D01*
X8546124Y54445651D02*
X8750645Y54353368D01*
X7781481Y89087115D02*
X7606057Y88947218D01*
X6718484Y30941464D02*
X6601486Y30750006D01*
X50827912Y24050266D02*
X51050547Y24022366D01*
X84451079Y32554365D02*
X84246559Y32646648D01*
X127986021Y67836299D02*
X127963680Y68059560D01*
X122998603Y72000014D02*
X122998603Y72000015D01*
X127885779Y59501356D02*
X127830413Y59718794D01*
X7963661Y41218083D02*
X7781481Y41087105D01*
X45997203Y37612196D02*
X45986019Y37836293D01*
X126720004Y25357940D02*
X126872619Y25522419D01*
X127278720Y39941466D02*
X127152325Y40126854D01*
X84037693Y98728636D02*
X83825001Y98800097D01*
X1000000Y105000020D02*
X901982Y104995205D01*
X89606059Y55052811D02*
X89781483Y54912914D01*
X86930237Y11281418D02*
X86885778Y11501346D01*
X6844880Y61126859D02*
X6718484Y60941470D01*
X88494179Y21552952D02*
X88396826Y21350796D01*
X82946658Y33022369D02*
X83169293Y33050269D01*
X6111425Y9498657D02*
X6166791Y9281219D01*
X86885778Y75498671D02*
X86930237Y75718599D01*
X42390259Y89910794D02*
X42169292Y89949756D01*
X92998603Y63000012D02*
X92998603Y63000012D01*
X127997205Y10387813D02*
X127997205Y10612190D01*
X50388194Y80860864D02*
X50172204Y80800094D01*
X82946658Y15022365D02*
X83169293Y15050265D01*
X90346460Y62452009D02*
X90152145Y62339821D01*
X44872617Y43522423D02*
X45016843Y43694305D01*
X86278719Y44058551D02*
X86395717Y44250009D01*
X89606059Y70947214D02*
X89437825Y70798748D01*
X85720003Y88642083D02*
X85559380Y88798751D01*
X7437823Y55201277D02*
X7606057Y55052811D01*
X45997203Y10612190D02*
X45986019Y10836287D01*
X127885779Y77501360D02*
X127830413Y77718798D01*
X44391146Y31947205D02*
X44215721Y32087102D01*
X86278719Y8058543D02*
X86395717Y8250001D01*
X127600380Y74649224D02*
X127687535Y74855981D01*
X85872618Y49477596D02*
X85720003Y49642075D01*
X122998603Y42000008D02*
X122998603Y42000008D01*
X45278718Y65058555D02*
X45395716Y65250013D01*
X43451078Y32554365D02*
X43246558Y32646648D01*
X48124586Y25522419D02*
X48277201Y25357939D01*
X51498603Y42000008D02*
X51998602Y42000009D01*
X42825000Y41800085D02*
X42609010Y41860855D01*
X43037692Y32728622D02*
X42825000Y32800083D01*
X45986019Y58163726D02*
X45997203Y58387823D01*
X125650746Y6548004D02*
X125845062Y6660193D01*
X127986021Y58836297D02*
X127963680Y59059558D01*
X88000001Y67612202D02*
X88000001Y67387825D01*
X45885777Y11501346D02*
X45830411Y11718784D01*
X7606057Y16052803D02*
X7781481Y15912906D01*
X45687533Y30144040D02*
X45600378Y30350797D01*
X47033525Y18940457D02*
X47066967Y18718587D01*
X44391146Y70947213D02*
X44215721Y71087110D01*
X49750646Y63353370D02*
X49959512Y63271396D01*
X47166792Y36281225D02*
X47232928Y36066817D01*
X127152325Y40126854D02*
X127016845Y40305712D01*
X83825001Y90199942D02*
X84037693Y90271403D01*
X8750645Y50646653D02*
X8546124Y50554370D01*
X92498604Y24000004D02*
X92998603Y24000005D01*
X86016844Y25694301D02*
X86152324Y25873159D01*
X48781482Y81912920D02*
X48963662Y81781942D01*
X10050546Y50977649D02*
X9827911Y50949749D01*
X43650744Y33548010D02*
X43845060Y33660199D01*
X125037694Y98728636D02*
X124825002Y98800097D01*
X41946657Y6022363D02*
X41946657Y6022363D01*
X42609010Y14860849D02*
X42390259Y14910778D01*
X40998601Y51000010D02*
X40998601Y51000010D01*
X125650746Y33548010D02*
X125845062Y33660199D01*
X45997203Y46612198D02*
X45986019Y46836295D01*
X6309669Y74855981D02*
X6396824Y74649223D01*
X47000000Y58612200D02*
X47000000Y58387823D01*
X89606059Y49947210D02*
X89437825Y49798744D01*
X86963679Y9940455D02*
X86986020Y10163716D01*
X86152324Y31126852D02*
X86016844Y31305710D01*
X133770215Y365607D02*
X133828674Y444430D01*
X124169294Y32949744D02*
X123946659Y32977644D01*
X7606057Y97947220D02*
X7437823Y97798754D01*
X123722910Y80994422D02*
X123498604Y81000015D01*
X86997204Y19387815D02*
X86997204Y19612192D01*
X85559380Y61798745D02*
X85391147Y61947211D01*
X45395716Y26250005D02*
X45503025Y26447058D01*
X5999999Y19387815D02*
X6011183Y19163718D01*
X86503026Y12552949D02*
X86395717Y12750001D01*
X126391148Y70947213D02*
X126215723Y71087110D01*
X44215721Y15912907D02*
X44391146Y16052804D01*
X45152323Y61126858D02*
X45016843Y61305716D01*
X51274296Y54005604D02*
X51498603Y54000010D01*
X127503027Y30552953D02*
X127395718Y30750005D01*
X48606058Y40947208D02*
X48437824Y40798742D01*
X89277202Y88642084D02*
X89124587Y88477604D01*
X47232928Y36066817D02*
X47309670Y35855973D01*
X6980359Y73694311D02*
X7124585Y73522429D01*
X6396824Y60350804D02*
X6309669Y60144046D01*
X92998603Y51000010D02*
X92498604Y51000010D01*
X89277202Y13642068D02*
X89124587Y13477588D01*
X48437824Y43201275D02*
X48606058Y43052809D01*
X45930236Y59281428D02*
X45885777Y59501356D01*
X90959513Y23728621D02*
X90750647Y23646647D01*
X124390261Y32910782D02*
X124169294Y32949744D01*
X85391147Y82052818D02*
X85559380Y82201284D01*
X7781481Y71087111D02*
X7606057Y70947214D01*
X123498604Y6000001D02*
X123722910Y6005595D01*
X10274295Y98994427D02*
X10050546Y98977659D01*
X85720003Y97642085D02*
X85559380Y97798753D01*
X49750646Y42353366D02*
X49959512Y42271392D01*
X88718486Y96941478D02*
X88601488Y96750020D01*
X126559381Y70798747D02*
X126391148Y70947213D01*
X7437823Y7201267D02*
X7606057Y7052801D01*
X47033525Y38059554D02*
X47011184Y37836293D01*
X8152143Y90660210D02*
X8346458Y90548022D01*
X10498602Y63000012D02*
X10998601Y63000013D01*
X123722910Y33005601D02*
X123946659Y33022369D01*
X92998603Y15000003D02*
X92998603Y15000003D01*
X92050548Y63022374D02*
X92274297Y63005606D01*
X47309670Y35855973D02*
X47396825Y35649215D01*
X6111425Y45498665D02*
X6166791Y45281227D01*
X45016843Y16694299D02*
X45152323Y16873157D01*
X86503026Y87552965D02*
X86395717Y87750017D01*
X50172204Y89800096D02*
X49959512Y89728635D01*
X48606058Y91052819D02*
X48781482Y90912922D01*
X49750646Y72353372D02*
X49959512Y72271398D01*
X47111426Y95501364D02*
X47066967Y95281436D01*
X45930236Y45718593D02*
X45963678Y45940463D01*
X127687535Y78144050D02*
X127600380Y78350807D01*
X45963678Y38059554D02*
X45930236Y38281424D01*
X6844880Y22126851D02*
X6718484Y21941462D01*
X51274296Y50994417D02*
X51050547Y50977649D01*
X6494177Y87552966D02*
X6396824Y87350810D01*
X48277201Y13642068D02*
X48124586Y13477588D01*
X45687533Y96144054D02*
X45600378Y96350811D01*
X48124586Y55522425D02*
X48277201Y55357945D01*
X85720003Y16357938D02*
X85872618Y16522417D01*
X8546124Y42445649D02*
X8750645Y42353366D01*
X6494177Y48552958D02*
X6396824Y48350802D01*
X6033524Y36940461D02*
X6066966Y36718591D01*
X10998601Y63000013D02*
X10998601Y63000013D01*
X47980360Y82694313D02*
X48124586Y82522431D01*
X86016844Y22305708D02*
X85872618Y22477590D01*
X88232929Y86933208D02*
X88166793Y86718800D01*
X6011183Y46836295D02*
X5999999Y46612198D01*
X51998602Y33000006D02*
X51998602Y33000006D01*
X6309669Y21144038D02*
X6232927Y20933194D01*
X127963680Y20059550D02*
X127930238Y20281420D01*
X8546124Y33445647D02*
X8750645Y33353364D01*
X123946659Y80977654D02*
X123722910Y80994422D01*
X126033544Y41218082D02*
X125845062Y41339816D01*
X47396825Y65649221D02*
X47494178Y65447065D01*
X90750647Y6353358D02*
X90959513Y6271384D01*
X48437824Y64201279D02*
X48606058Y64052813D01*
X127600380Y65649222D02*
X127687535Y65855979D01*
X7277200Y43357943D02*
X7437823Y43201275D01*
X7124585Y40477594D02*
X6980359Y40305712D01*
X82498603Y6000001D02*
X82722909Y6005595D01*
X50172204Y50800088D02*
X49959512Y50728627D01*
X81998602Y24000004D02*
X81998602Y24000005D01*
X88494179Y87552966D02*
X88396826Y87350810D01*
X90959513Y42271392D02*
X91172205Y42199931D01*
X6111425Y75498671D02*
X6166791Y75281233D01*
X40998601Y15000002D02*
X40998601Y15000003D01*
X86997204Y85387829D02*
X86997204Y85612206D01*
X5999999Y58387823D02*
X6011183Y58163726D01*
X92050548Y72022376D02*
X92274297Y72005608D01*
X88000001Y46612198D02*
X88000001Y46387821D01*
X9606944Y32910783D02*
X9388193Y32860854D01*
X92050548Y24022366D02*
X92274297Y24005598D01*
X50172204Y24199927D02*
X50388194Y24139157D01*
X89963663Y33781932D02*
X90152145Y33660198D01*
X6601486Y96750020D02*
X6494177Y96552968D01*
X6718484Y65058555D02*
X6844880Y64873166D01*
X8346458Y32452003D02*
X8152143Y32339815D01*
X45997203Y46387821D02*
X45997203Y46612198D01*
X92998603Y42000008D02*
X92498604Y42000008D01*
X91606946Y62910789D02*
X91388195Y62860860D01*
X45152323Y49126856D02*
X45016843Y49305714D01*
X6033524Y95059566D02*
X6011183Y94836305D01*
X92998603Y42000009D02*
X92998603Y42000009D01*
X10498602Y24000004D02*
X10998601Y24000005D01*
X127395718Y8250001D02*
X127503027Y8447054D01*
X83825001Y23800081D02*
X83609011Y23860851D01*
X125451080Y15445644D02*
X125650746Y15548006D01*
X42825000Y62800089D02*
X42609010Y62860859D01*
X45963678Y95059566D02*
X45930236Y95281436D01*
X48963662Y42781934D02*
X49152144Y42660200D01*
X124390261Y81089241D02*
X124609012Y81139170D01*
X51998602Y99000020D02*
X51498603Y99000020D01*
X122998603Y63000013D02*
X123498604Y63000013D01*
X6066966Y27718589D02*
X6111425Y27498661D01*
X42169292Y24050267D02*
X42390259Y24089229D01*
X47166792Y86718800D02*
X47111426Y86501362D01*
X7124585Y25522419D02*
X7277200Y25357939D01*
X51050547Y15022364D02*
X51274296Y15005596D01*
X83390260Y23910780D02*
X83169293Y23949742D01*
X6232927Y20933194D02*
X6166791Y20718786D01*
X49546125Y80554376D02*
X49346459Y80452013D01*
X83609011Y33139160D02*
X83825001Y33199930D01*
X90959513Y24271388D02*
X91172205Y24199927D01*
X50606945Y80910793D02*
X50388194Y80860864D01*
X42390259Y90089243D02*
X42609010Y90139172D01*
X10998601Y51000010D02*
X10998601Y51000010D01*
X45600378Y87350809D02*
X45503025Y87552965D01*
X45503025Y44447062D02*
X45600378Y44649218D01*
X86600379Y74649224D02*
X86687534Y74855981D01*
X45016843Y61305716D02*
X44872617Y61477598D01*
X86930237Y95281436D02*
X86885778Y95501364D01*
X88232929Y57066821D02*
X88309671Y56855977D01*
X50606945Y81089240D02*
X50827912Y81050278D01*
X127687535Y69144048D02*
X127600380Y69350805D01*
X88396826Y48350802D02*
X88309671Y48144044D01*
X84037693Y89728634D02*
X83825001Y89800095D01*
X41722908Y41994414D02*
X41498602Y42000007D01*
X6980359Y82694313D02*
X7124585Y82522431D01*
X92498604Y42000008D02*
X92274297Y41994415D01*
X45885777Y9498657D02*
X45930236Y9718585D01*
X91606946Y54089234D02*
X91827913Y54050272D01*
X88601488Y87750018D02*
X88494179Y87552966D01*
X48606058Y64052813D02*
X48781482Y63912916D01*
X44872617Y7522415D02*
X45016843Y7694297D01*
X124390261Y72089239D02*
X124609012Y72139168D01*
X8750645Y98646663D02*
X8546124Y98554380D01*
X127830413Y77718798D02*
X127764277Y77933205D01*
X123946659Y54022373D02*
X124169294Y54050273D01*
X88396826Y26649213D02*
X88494179Y26447057D01*
X6494177Y12552950D02*
X6396824Y12350794D01*
X9172203Y6199923D02*
X9388193Y6139153D01*
X125650746Y54548014D02*
X125845062Y54660203D01*
X50388194Y81139169D02*
X50606945Y81089240D01*
X47000000Y10387813D02*
X47011184Y10163716D01*
X44391146Y61947211D02*
X44215721Y62087108D01*
X7606057Y40947208D02*
X7437823Y40798742D01*
X86687534Y8855967D02*
X86764276Y9066812D01*
X7606057Y25052805D02*
X7781481Y24912908D01*
X92998603Y63000013D02*
X92998603Y63000012D01*
X6980359Y97305724D02*
X6844880Y97126867D01*
X127503027Y83447070D02*
X127600380Y83649226D01*
X86986020Y76836301D02*
X86963679Y77059562D01*
X47396825Y21350796D02*
X47309670Y21144038D01*
X47000000Y28612194D02*
X47000000Y28387817D01*
X88980361Y31305710D02*
X88844882Y31126853D01*
X43845060Y72660207D02*
X44033542Y72781941D01*
X51498603Y33000006D02*
X51998602Y33000007D01*
X48606058Y22947204D02*
X48437824Y22798738D01*
X41498602Y42000009D02*
X41722908Y42005603D01*
X6980359Y61305716D02*
X6844880Y61126859D01*
X85215722Y54912915D02*
X85391147Y55052812D01*
X88011185Y10163716D02*
X88033526Y9940455D01*
X47718485Y83058559D02*
X47844881Y82873170D01*
X84845061Y80339824D02*
X84650745Y80452013D01*
X6601486Y74250015D02*
X6718484Y74058557D01*
X47066967Y18718587D02*
X47111426Y18498659D01*
X47111426Y47501354D02*
X47066967Y47281426D01*
X82498603Y90000019D02*
X82722909Y90005613D01*
X83825001Y81199940D02*
X84037693Y81271401D01*
X45885777Y93498675D02*
X45930236Y93718603D01*
X41946657Y98977658D02*
X41722908Y98994426D01*
X126033544Y62218086D02*
X125845062Y62339820D01*
X126391148Y22947203D02*
X126215723Y23087100D01*
X45395716Y74250015D02*
X45503025Y74447068D01*
X127395718Y35250007D02*
X127503027Y35447060D01*
X49152144Y80339825D02*
X48963662Y80218091D01*
X44720002Y82357952D02*
X44872617Y82522431D01*
X45016843Y25694301D02*
X45152323Y25873159D01*
X88066968Y11281418D02*
X88033526Y11059548D01*
X42609010Y15139156D02*
X42825000Y15199926D01*
X9388193Y23860852D02*
X9172203Y23800082D01*
X84037693Y71728630D02*
X83825001Y71800091D01*
X49346459Y90548022D02*
X49546125Y90445659D01*
X88000001Y58387823D02*
X88011185Y58163726D01*
X47166792Y95718802D02*
X47111426Y95501364D01*
X10498602Y54000010D02*
X5999999Y54000010D01*
X122998603Y42000008D02*
X122998603Y42000009D01*
X50827912Y62949751D02*
X50606945Y62910789D01*
X50388194Y14860850D02*
X50172204Y14800080D01*
X91606946Y63089236D02*
X91827913Y63050274D01*
X124609012Y42139162D02*
X124825002Y42199932D01*
X83609011Y32860853D02*
X83390260Y32910782D01*
X8346458Y15548006D02*
X8546124Y15445643D01*
X92274297Y24005598D02*
X92498604Y24000004D01*
X86016844Y31305710D02*
X85872618Y31477592D01*
X84845061Y42660201D02*
X85033543Y42781935D01*
X41722908Y63005607D02*
X41946657Y63022375D01*
X124609012Y6139154D02*
X124825002Y6199924D01*
X48124586Y16522417D02*
X48277201Y16357937D01*
X84451079Y71554373D02*
X84246559Y71646656D01*
X90750647Y32646649D02*
X90546126Y32554366D01*
X45600378Y48350801D02*
X45503025Y48552957D01*
X82498603Y24000005D02*
X82722909Y24005599D01*
X44872617Y82522431D02*
X45016843Y82694313D01*
X123722910Y54005605D02*
X123946659Y54022373D01*
X47111426Y75498671D02*
X47166792Y75281233D01*
X84246559Y33353365D02*
X84451079Y33445648D01*
X49546125Y98554380D02*
X49346459Y98452017D01*
X127503027Y60552959D02*
X127395718Y60750011D01*
X82498603Y54000011D02*
X82722909Y54005605D01*
X124390261Y63089237D02*
X124609012Y63139166D01*
X86503026Y8447054D02*
X86600379Y8649210D01*
X88844882Y16873156D02*
X88980361Y16694299D01*
X90959513Y41728625D02*
X90750647Y41646651D01*
X127830413Y9281219D02*
X127885779Y9498657D01*
X6396824Y65649221D02*
X6494177Y65447065D01*
X92050548Y89977657D02*
X91827913Y89949757D01*
X89124587Y73522429D02*
X89277202Y73357949D01*
X47232928Y66066823D02*
X47309670Y65855979D01*
X92274297Y98994427D02*
X92050548Y98977659D01*
X47396825Y44649217D02*
X47494178Y44447061D01*
X47844881Y55873164D02*
X47980360Y55694307D01*
X86764276Y66066824D02*
X86830412Y66281231D01*
X124825002Y63199936D02*
X125037694Y63271397D01*
X41498602Y15000003D02*
X41722908Y15005597D01*
X91827913Y23949743D02*
X91606946Y23910781D01*
X86986020Y19836289D02*
X86963679Y20059550D01*
X49750646Y89646661D02*
X49546125Y89554378D01*
X49750646Y90353376D02*
X49959512Y90271402D01*
X88166793Y11718784D02*
X88111427Y11501346D01*
X90750647Y41646651D02*
X90546126Y41554368D01*
X43246558Y98646662D02*
X43037692Y98728636D01*
X127997205Y54000010D02*
X122998603Y54000010D01*
X8546124Y41554368D02*
X8346458Y41452005D01*
X88844882Y7873154D02*
X88980361Y7694297D01*
X49546125Y14554362D02*
X49346459Y14451999D01*
X90546126Y98554380D02*
X90346460Y98452017D01*
X122998603Y42000009D02*
X123498604Y42000009D01*
X92498604Y90000018D02*
X92274297Y89994425D01*
X84650745Y14451999D02*
X84451079Y14554361D01*
X10998601Y100000020D02*
X10998601Y99000020D01*
X91172205Y24199927D02*
X91388195Y24139157D01*
X88844882Y43873162D02*
X88980361Y43694305D01*
X47232928Y77933206D02*
X47166792Y77718798D01*
X45016843Y31305710D02*
X44872617Y31477592D01*
X49346459Y6548004D02*
X49546125Y6445641D01*
X10274295Y63005606D02*
X10498602Y63000012D01*
X126391148Y16052804D02*
X126559381Y16201270D01*
X86278719Y17058545D02*
X86395717Y17250003D01*
X126720004Y43357944D02*
X126872619Y43522423D01*
X6494177Y60552960D02*
X6396824Y60350804D01*
X133095222Y4816D02*
X133192295Y19215D01*
X127885779Y45498665D02*
X127930238Y45718593D01*
X48963662Y90781944D02*
X49152144Y90660210D01*
X92050548Y62977651D02*
X91827913Y62949751D01*
X127963680Y95059566D02*
X127930238Y95281436D01*
X127152325Y79126862D02*
X127016845Y79305720D01*
X91172205Y63199935D02*
X91388195Y63139165D01*
X82498603Y51000009D02*
X81998602Y51000010D01*
X86764276Y38933197D02*
X86687534Y39144042D01*
X90750647Y50646653D02*
X90546126Y50554370D01*
X125845062Y71339822D02*
X125650746Y71452011D01*
X126872619Y91522433D02*
X127016845Y91694315D01*
X82946658Y72022377D02*
X83169293Y72050277D01*
X91388195Y81139169D02*
X91606946Y81089240D01*
X45152323Y73873169D02*
X45278718Y74058557D01*
X89437825Y79798750D02*
X89277202Y79642082D01*
X6844880Y64873166D02*
X6980359Y64694309D01*
X88232929Y29933196D02*
X88166793Y29718788D01*
X122998603Y63000012D02*
X122998603Y63000012D01*
X84246559Y42353367D02*
X84451079Y42445650D01*
X47309670Y26855971D02*
X47396825Y26649213D01*
X42609010Y33139160D02*
X42825000Y33199930D01*
X41498602Y90000019D02*
X41722908Y90005613D01*
X127885779Y84498673D02*
X127930238Y84718601D01*
X126391148Y31947205D02*
X126215723Y32087102D01*
X10998601Y90000019D02*
X10998601Y90000019D01*
X6166791Y47718792D02*
X6111425Y47501354D01*
X125845062Y14339810D02*
X125650746Y14451999D01*
X127395718Y74250015D02*
X127503027Y74447068D01*
X86986020Y28836291D02*
X86963679Y29059552D01*
X86986020Y10836287D02*
X86963679Y11059548D01*
X45395716Y12750001D02*
X45278718Y12941460D01*
X7781481Y80087113D02*
X7606057Y79947216D01*
X88309671Y8855967D02*
X88396826Y8649209D01*
X45278718Y8058543D02*
X45395716Y8250001D01*
X85033543Y33781933D02*
X85215722Y33912911D01*
X44033542Y71218088D02*
X43845060Y71339822D01*
X6309669Y96144054D02*
X6232927Y95933210D01*
X92998603Y6000001D02*
X92998603Y5000000D01*
X86986020Y67836299D02*
X86963679Y68059560D01*
X45885777Y27498661D02*
X45930236Y27718589D01*
X10998601Y15000003D02*
X10998601Y15000003D01*
X91827913Y98949759D02*
X91606946Y98910797D01*
X92274297Y62994419D02*
X92050548Y62977651D01*
X126391148Y34052808D02*
X126559381Y34201274D01*
X92998603Y72000015D02*
X92998603Y72000014D01*
X6033524Y29059552D02*
X6011183Y28836291D01*
X85872618Y64522427D02*
X86016844Y64694309D01*
X92274297Y15005596D02*
X92498604Y15000002D01*
X126215723Y80087112D02*
X126033544Y80218090D01*
X126215723Y89087114D02*
X126033544Y89218092D01*
X82946658Y71977652D02*
X82722909Y71994420D01*
X127885779Y27498661D02*
X127930238Y27718589D01*
X89277202Y61642078D02*
X89124587Y61477598D01*
X49750646Y33353364D02*
X49959512Y33271390D01*
X127152325Y22126850D02*
X127016845Y22305708D01*
X88111427Y95501364D02*
X88066968Y95281436D01*
X124390261Y24089229D02*
X124609012Y24139158D01*
X89781483Y24912908D02*
X89963663Y24781930D01*
X88601488Y60750012D02*
X88494179Y60552960D01*
X9388193Y81139169D02*
X9606944Y81089240D01*
X127764277Y57066822D02*
X127830413Y57281229D01*
X86986020Y28163720D02*
X86997204Y28387817D01*
X126033544Y89218092D02*
X125845062Y89339826D01*
X10274295Y24005598D02*
X10498602Y24000004D01*
X47232928Y45066819D02*
X47309670Y44855975D01*
X10998601Y33000007D02*
X10998601Y33000007D01*
X85033543Y71218088D02*
X84845061Y71339822D01*
X51998602Y15000002D02*
X51998602Y15000002D01*
X91606946Y23910781D02*
X91388195Y23860852D01*
X6494177Y56447063D02*
X6601486Y56250011D01*
X84845061Y81660209D02*
X85033543Y81781943D01*
X10498602Y15000002D02*
X10274295Y14994409D01*
X50388194Y71860862D02*
X50172204Y71800092D01*
X9827911Y32949745D02*
X9606944Y32910783D01*
X49546125Y54445651D02*
X49750646Y54353368D01*
X92998603Y15000002D02*
X92498604Y15000002D01*
X47111426Y45498665D02*
X47166792Y45281227D01*
X85559380Y82201284D02*
X85720003Y82357952D01*
X50606945Y6089224D02*
X50827912Y6050262D01*
X9172203Y41800086D02*
X8959511Y41728625D01*
X88309671Y30144040D02*
X88232929Y29933196D01*
X45930236Y20281420D02*
X45885777Y20501348D01*
X86687534Y44855975D02*
X86764276Y45066820D01*
X42825000Y50800087D02*
X42609010Y50860857D01*
X6166791Y36281225D02*
X6232927Y36066817D01*
X127930238Y68281430D02*
X127885779Y68501358D01*
X86997204Y94387831D02*
X86997204Y94612208D01*
X48963662Y81781942D02*
X49152144Y81660208D01*
X88601488Y65250013D02*
X88718486Y65058555D01*
X123498604Y90000017D02*
X122998603Y90000018D01*
X6396824Y21350796D02*
X6309669Y21144038D01*
X82498603Y24000003D02*
X81998602Y24000004D01*
X6494177Y39552956D02*
X6396824Y39350800D01*
X43246558Y33353365D02*
X43451078Y33445648D01*
X123498604Y33000007D02*
X123722910Y33005601D01*
X42825000Y81199940D02*
X43037692Y81271401D01*
X123722910Y24005599D02*
X123946659Y24022367D01*
X51998602Y63000013D02*
X51998602Y63000013D01*
X47000000Y67612202D02*
X47000000Y67387825D01*
X8152143Y42660200D02*
X8346458Y42548012D01*
X125037694Y89728634D02*
X124825002Y89800095D01*
X10274295Y32994413D02*
X10050546Y32977645D01*
X42390259Y62910788D02*
X42169292Y62949750D01*
X10274295Y54005604D02*
X10498602Y54000010D01*
X43451078Y72445656D02*
X43650744Y72548018D01*
X127885779Y47501354D02*
X127830413Y47718792D01*
X125451080Y98554379D02*
X125246560Y98646662D01*
X48781482Y41087105D02*
X48606058Y40947208D01*
X127930238Y20281420D02*
X127885779Y20501348D01*
X89437825Y73201281D02*
X89606059Y73052815D01*
X8546124Y90445659D02*
X8750645Y90353376D01*
X5000000Y5000000D02*
X5000000Y51000010D01*
X6601486Y26250005D02*
X6718484Y26058547D01*
X85720003Y61642077D02*
X85559380Y61798745D01*
X83169293Y14949740D02*
X82946658Y14977640D01*
X91388195Y32860854D02*
X91172205Y32800084D01*
X8346458Y24548008D02*
X8546124Y24445645D01*
X82722909Y54005605D02*
X82946658Y54022373D01*
X133992389Y104098038D02*
X133977990Y104195111D01*
X7124585Y91522433D02*
X7277200Y91357953D01*
X86395717Y26250005D02*
X86503026Y26447058D01*
X50172204Y15199925D02*
X50388194Y15139155D01*
X51050547Y72022376D02*
X51274296Y72005608D01*
X88166793Y57281229D02*
X88232929Y57066821D01*
X47844881Y25873158D02*
X47980360Y25694301D01*
X90546126Y89554378D02*
X90346460Y89452015D01*
X92050548Y32977645D02*
X91827913Y32949745D01*
X86997204Y28387817D02*
X86997204Y28612194D01*
X45395716Y69750013D02*
X45278718Y69941472D01*
X123946659Y71977652D02*
X123722910Y71994420D01*
X86278719Y26058547D02*
X86395717Y26250005D01*
X86830412Y20718786D02*
X86764276Y20933193D01*
X85872618Y34522421D02*
X86016844Y34694303D01*
X50172204Y72199937D02*
X50388194Y72139167D01*
X91172205Y33199929D02*
X91388195Y33139159D01*
X118078Y104471417D02*
X76120Y104382704D01*
X9606944Y71910791D02*
X9388193Y71860862D01*
X6111425Y29501350D02*
X6066966Y29281422D01*
X47309670Y30144040D02*
X47232928Y29933196D01*
X92498604Y72000014D02*
X92998603Y72000015D01*
X47980360Y64694309D02*
X48124586Y64522427D01*
X90152145Y63660204D02*
X90346460Y63548016D01*
X47033525Y20059550D02*
X47011184Y19836289D01*
X133997205Y1000000D02*
X133997205Y104000020D01*
X127395718Y83250017D02*
X127503027Y83447070D01*
X6111425Y93498675D02*
X6166791Y93281237D01*
X85872618Y40477594D02*
X85720003Y40642073D01*
X127997205Y10612190D02*
X127986021Y10836287D01*
X10998601Y90000018D02*
X10998601Y90000018D01*
X42390259Y72089239D02*
X42609010Y72139168D01*
X45503025Y48552957D02*
X45395716Y48750009D01*
X8546124Y62554372D02*
X8346458Y62452009D01*
X86997204Y76612204D02*
X86986020Y76836301D01*
X43037692Y15271387D02*
X43246558Y15353361D01*
X127395718Y44250009D02*
X127503027Y44447062D01*
X48124586Y49477596D02*
X47980360Y49305714D01*
X127278720Y92058561D02*
X127395718Y92250019D01*
X85215722Y6912905D02*
X85391147Y7052802D01*
X44215721Y89087114D02*
X44033542Y89218092D01*
X9827911Y98949759D02*
X9606944Y98910797D01*
X127016845Y79305720D02*
X126872619Y79477602D01*
X8152143Y15660194D02*
X8346458Y15548006D01*
X88718486Y65058555D02*
X88844882Y64873166D01*
X45885777Y57498667D02*
X45930236Y57718595D01*
X124169294Y6050263D02*
X124390261Y6089225D01*
X45830411Y77718798D02*
X45764275Y77933205D01*
X86963679Y27940459D02*
X86986020Y28163720D01*
X49546125Y89554378D02*
X49346459Y89452015D01*
X48437824Y49798744D02*
X48277201Y49642076D01*
X45503025Y26447058D02*
X45600378Y26649214D01*
X7963661Y71218089D02*
X7781481Y71087111D01*
X50606945Y72089238D02*
X50827912Y72050276D01*
X47166792Y59718794D02*
X47111426Y59501356D01*
X444429Y168531D02*
X528603Y118079D01*
X127764277Y20933193D02*
X127687535Y21144038D01*
X6066966Y11281418D02*
X6033524Y11059548D01*
X9606944Y15089226D02*
X9827911Y15050264D01*
X43845060Y80339824D02*
X43650744Y80452013D01*
X85033543Y63781939D02*
X85215722Y63912917D01*
X83825001Y89800095D02*
X83609011Y89860865D01*
X92998603Y81000016D02*
X92498604Y81000016D01*
X8346458Y14451999D02*
X8152143Y14339811D01*
X9172203Y33199929D02*
X9388193Y33139159D01*
X127503027Y56447064D02*
X127600380Y56649220D01*
X45503025Y92447072D02*
X45600378Y92649228D01*
X50388194Y23860852D02*
X50172204Y23800082D01*
X125845062Y33660199D02*
X126033544Y33781933D01*
X47980360Y79305720D02*
X47844881Y79126863D01*
X123946659Y41977646D02*
X123722910Y41994414D01*
X127930238Y57718595D02*
X127963680Y57940465D01*
X6844880Y49126857D02*
X6718484Y48941468D01*
X43059Y104290305D02*
X19214Y104195111D01*
X86930237Y77281432D02*
X86885778Y77501360D01*
X127152325Y49126856D02*
X127016845Y49305714D01*
X86395717Y44250009D02*
X86503026Y44447062D01*
X45600378Y44649218D02*
X45687533Y44855975D01*
X40998601Y6000001D02*
X41498602Y6000001D01*
X7963661Y80218091D02*
X7781481Y80087113D01*
X6011183Y10836287D02*
X5999999Y10612190D01*
X127503027Y96552967D02*
X127395718Y96750019D01*
X7124585Y55522425D02*
X7277200Y55357945D01*
X44215721Y90912923D02*
X44391146Y91052820D01*
X85033543Y72781941D02*
X85215722Y72912919D01*
X122998603Y90000019D02*
X123498604Y90000019D01*
X123498604Y90000019D02*
X123722910Y90005613D01*
X90152145Y54660202D02*
X90346460Y54548014D01*
X45016843Y55694307D02*
X45152323Y55873165D01*
X86885778Y27498661D02*
X86930237Y27718589D01*
X88396826Y39350800D02*
X88309671Y39144042D01*
X9172203Y89800096D02*
X8959511Y89728635D01*
X47066967Y77281432D02*
X47033525Y77059562D01*
X89124587Y55522425D02*
X89277202Y55357945D01*
X127930238Y66718597D02*
X127963680Y66940467D01*
X9172203Y63199935D02*
X9388193Y63139165D01*
X47000000Y67387825D02*
X47011184Y67163728D01*
X88601488Y17250003D02*
X88718486Y17058545D01*
X44215721Y14087098D02*
X44033542Y14218076D01*
X45600378Y12350793D02*
X45503025Y12552949D01*
X127963680Y84940471D02*
X127986021Y85163732D01*
X84246559Y72353373D02*
X84451079Y72445656D01*
X48437824Y22798738D02*
X48277201Y22642070D01*
X42169292Y54050273D02*
X42390259Y54089235D01*
X6309669Y69144048D02*
X6232927Y68933204D01*
X47309670Y69144048D02*
X47232928Y68933204D01*
X45278718Y69941472D02*
X45152323Y70126860D01*
X41498602Y72000015D02*
X41722908Y72005609D01*
X88111427Y29501350D02*
X88066968Y29281422D01*
X45503025Y56447064D02*
X45600378Y56649220D01*
X82946658Y63022375D02*
X83169293Y63050275D01*
X127600380Y56649220D02*
X127687535Y56855977D01*
X9388193Y72139167D02*
X9606944Y72089238D01*
X5999999Y10612190D02*
X5999999Y10387813D01*
X88166793Y27281223D02*
X88232929Y27066815D01*
X86278719Y21941462D02*
X86152324Y22126850D01*
X90546126Y32554366D02*
X90346460Y32452003D01*
X91606946Y42089232D02*
X91827913Y42050270D01*
X84650745Y6548004D02*
X84845061Y6660193D01*
X10998601Y24000004D02*
X10998601Y24000004D01*
X41722908Y71994420D02*
X41498602Y72000013D01*
X8750645Y41646651D02*
X8546124Y41554368D01*
X83825001Y63199936D02*
X84037693Y63271397D01*
X86687534Y69144048D02*
X86600379Y69350805D01*
X50827912Y33050268D02*
X51050547Y33022368D01*
X88396826Y83649225D02*
X88494179Y83447069D01*
X6718484Y39941466D02*
X6601486Y39750008D01*
X47000000Y46612198D02*
X47000000Y46387821D01*
X88111427Y77501360D02*
X88066968Y77281432D01*
X122998603Y81000016D02*
X122998603Y81000016D01*
X50172204Y71800092D02*
X49959512Y71728631D01*
X91172205Y90199941D02*
X91388195Y90139171D01*
X47000000Y19387815D02*
X47011184Y19163718D01*
X10050546Y98977659D02*
X10050546Y98977659D01*
X48437824Y97798754D02*
X48277201Y97642086D01*
X5999999Y28612194D02*
X5999999Y28387817D01*
X88166793Y47718792D02*
X88111427Y47501354D01*
X45503025Y96552967D02*
X45395716Y96750019D01*
X47166792Y57281229D02*
X47232928Y57066821D01*
X85033543Y81781943D02*
X85215722Y81912921D01*
X9827911Y41949747D02*
X9606944Y41910785D01*
X88111427Y68501358D02*
X88066968Y68281430D01*
X48781482Y33912910D02*
X48963662Y33781932D01*
X47309670Y8855967D02*
X47396825Y8649209D01*
X125246560Y54353369D02*
X125451080Y54445652D01*
X9827911Y33050268D02*
X10050546Y33022368D01*
X44033542Y54781937D02*
X44215721Y54912915D01*
X86885778Y18498659D02*
X86930237Y18718587D01*
X127963680Y27940459D02*
X127986021Y28163720D01*
X127986021Y94836305D02*
X127963680Y95059566D01*
X47601487Y96750020D02*
X47494178Y96552968D01*
X49959512Y62728629D02*
X49750646Y62646655D01*
X88718486Y60941470D02*
X88601488Y60750012D01*
X90546126Y54445651D02*
X90750647Y54353368D01*
X40998601Y81000016D02*
X40998601Y81000017D01*
X88309671Y78144050D02*
X88232929Y77933206D01*
X88000001Y94612208D02*
X88000001Y94387831D01*
X125650746Y71452011D02*
X125451080Y71554373D01*
X127152325Y31126852D02*
X127016845Y31305710D01*
X83825001Y14800079D02*
X83609011Y14860849D01*
X6718484Y60941470D02*
X6601486Y60750012D01*
X82946658Y32977644D02*
X82722909Y32994412D01*
X44215721Y72912919D02*
X44391146Y73052816D01*
X5999999Y67387825D02*
X6011183Y67163728D01*
X124169294Y23949742D02*
X123946659Y23977642D01*
X47718485Y65058555D02*
X47844881Y64873166D01*
X8546124Y6445641D02*
X8750645Y6353358D01*
X7124585Y97477606D02*
X6980359Y97305724D01*
X126720004Y97642085D02*
X126559381Y97798753D01*
X92050548Y71977653D02*
X91827913Y71949753D01*
X47166792Y66281231D02*
X47232928Y66066823D01*
X8346458Y50452007D02*
X8152143Y50339819D01*
X40998601Y72000015D02*
X41498602Y72000015D01*
X125246560Y90353377D02*
X125451080Y90445660D01*
X48781482Y62087109D02*
X48606058Y61947212D01*
X126872619Y13477588D02*
X126720004Y13642067D01*
X88232929Y38933198D02*
X88166793Y38718790D01*
X49152144Y41339817D02*
X48963662Y41218083D01*
X45963678Y20059550D02*
X45930236Y20281420D01*
X88000001Y94387831D02*
X88011185Y94163734D01*
X41722908Y33005601D02*
X41946657Y33022369D01*
X8152143Y81660208D02*
X8346458Y81548020D01*
X86600379Y96350811D02*
X86503026Y96552967D01*
X44872617Y13477588D02*
X44720002Y13642067D01*
X45986019Y46836295D02*
X45963678Y47059556D01*
X86600379Y65649222D02*
X86687534Y65855979D01*
X8152143Y63660204D02*
X8346458Y63548016D01*
X89277202Y70642080D02*
X89124587Y70477600D01*
X124825002Y42199932D02*
X125037694Y42271393D01*
X44559379Y7201268D02*
X44720002Y7357936D01*
X45503025Y60552959D02*
X45395716Y60750011D01*
X6844880Y91873172D02*
X6980359Y91694315D01*
X127997205Y94387831D02*
X127997205Y94612208D01*
X85391147Y88947217D02*
X85215722Y89087114D01*
X89781483Y72912918D02*
X89963663Y72781940D01*
X10998601Y63000013D02*
X10998601Y63000012D01*
X92050548Y90022380D02*
X92274297Y90005612D01*
X9172203Y42199931D02*
X9388193Y42139161D01*
X48124586Y22477590D02*
X47980360Y22305708D01*
X47494178Y21552952D02*
X47396825Y21350796D01*
X85391147Y49947209D02*
X85215722Y50087106D01*
X86986020Y94163734D02*
X86997204Y94387831D01*
X88166793Y93281237D02*
X88232929Y93066829D01*
X47033525Y57940465D02*
X47066967Y57718595D01*
X48277201Y49642076D02*
X48124586Y49477596D01*
X127600380Y30350797D02*
X127503027Y30552953D01*
X84246559Y32646648D02*
X84037693Y32728622D01*
X6844880Y31126853D02*
X6718484Y30941464D01*
X88718486Y21941462D02*
X88601488Y21750004D01*
X84246559Y14646644D02*
X84037693Y14728618D01*
X127830413Y38718790D02*
X127764277Y38933197D01*
X48437824Y79798750D02*
X48277201Y79642082D01*
X48437824Y34201273D02*
X48606058Y34052807D01*
X90346460Y81548020D02*
X90546126Y81445657D01*
X124390261Y23910780D02*
X124169294Y23949742D01*
X89124587Y40477594D02*
X88980361Y40305712D01*
X43246558Y23646646D02*
X43037692Y23728620D01*
X126215723Y15912907D02*
X126391148Y16052804D01*
X51050547Y90022380D02*
X51274296Y90005612D01*
X91827913Y90050280D02*
X92050548Y90022380D01*
X51274296Y42005602D02*
X51498603Y42000008D01*
X89277202Y22642070D02*
X89124587Y22477590D01*
X92998603Y54000011D02*
X92998603Y54000010D01*
X86986020Y58163726D02*
X86997204Y58387823D01*
X41722908Y80994422D02*
X41498602Y81000015D01*
X88000001Y46387821D02*
X88011185Y46163724D01*
X45963678Y27940459D02*
X45986019Y28163720D01*
X127600380Y78350807D02*
X127503027Y78552963D01*
X88718486Y12941460D02*
X88601488Y12750002D01*
X127830413Y68718796D02*
X127764277Y68933203D01*
X48606058Y43052809D02*
X48781482Y42912912D01*
X51050547Y81022378D02*
X51274296Y81005610D01*
X127278720Y30941464D02*
X127152325Y31126852D01*
X88396826Y21350796D02*
X88309671Y21144038D01*
X47494178Y39552956D02*
X47396825Y39350800D01*
X127830413Y86718800D02*
X127764277Y86933207D01*
X45830411Y59718794D02*
X45764275Y59933201D01*
X92498604Y42000008D02*
X92998603Y42000009D01*
X123946659Y24022367D02*
X124169294Y24050267D01*
X127016845Y22305708D02*
X126872619Y22477590D01*
X8152143Y71339823D02*
X7963661Y71218089D01*
X86395717Y30750005D02*
X86278719Y30941464D01*
X91172205Y14800080D02*
X90959513Y14728619D01*
X88309671Y65855979D02*
X88396826Y65649221D01*
X91606946Y98910797D02*
X91388195Y98860868D01*
X125845062Y63660205D02*
X126033544Y63781939D01*
X43451078Y42445650D02*
X43650744Y42548012D01*
X48277201Y34357941D02*
X48437824Y34201273D01*
X49959512Y41728625D02*
X49750646Y41646651D01*
X6718484Y74058557D02*
X6844880Y73873168D01*
X45963678Y93940473D02*
X45986019Y94163734D01*
X51498603Y63000012D02*
X51998602Y63000013D01*
X89781483Y50087107D02*
X89606059Y49947210D01*
X7277200Y13642068D02*
X7124585Y13477588D01*
X124169294Y90050281D02*
X124390261Y90089243D01*
X127600380Y87350809D02*
X127503027Y87552965D01*
X127503027Y17447056D02*
X127600380Y17649212D01*
X86600379Y30350797D02*
X86503026Y30552953D01*
X45152323Y43873163D02*
X45278718Y44058551D01*
X127986021Y46836295D02*
X127963680Y47059556D01*
X51498603Y81000016D02*
X51274296Y80994423D01*
X47396825Y12350794D02*
X47309670Y12144036D01*
X86885778Y59501356D02*
X86830412Y59718794D01*
X8546124Y15445643D02*
X8750645Y15353360D01*
X47601487Y21750004D02*
X47494178Y21552952D01*
X6111425Y18498659D02*
X6166791Y18281221D01*
X6066966Y93718603D02*
X6111425Y93498675D01*
X122998603Y15000002D02*
X122998603Y15000002D01*
X44720002Y61642077D02*
X44559379Y61798745D01*
X90959513Y15271386D02*
X91172205Y15199925D01*
X127016845Y40305712D02*
X126872619Y40477594D01*
X47111426Y93498675D02*
X47166792Y93281237D01*
X51050547Y42022370D02*
X51274296Y42005602D01*
X45986019Y19163718D02*
X45997203Y19387815D01*
X83390260Y15089227D02*
X83609011Y15139156D01*
X45395716Y44250009D02*
X45503025Y44447062D01*
X47718485Y35058549D02*
X47844881Y34873160D01*
X9606944Y33089230D02*
X9827911Y33050268D01*
X123946659Y32977644D02*
X123722910Y32994412D01*
X50388194Y72139167D02*
X50606945Y72089238D01*
X86016844Y43694305D02*
X86152324Y43873163D01*
X125845062Y32339814D02*
X125650746Y32452003D01*
X51498603Y51000010D02*
X51998602Y51000010D01*
X51050547Y98977659D02*
X50827912Y98949759D01*
X48277201Y91357953D02*
X48437824Y91201285D01*
X43845060Y32339814D02*
X43650744Y32452003D01*
X125451080Y80554375D02*
X125246560Y80646658D01*
X88494179Y30552954D02*
X88396826Y30350798D01*
X48781482Y98087117D02*
X48606058Y97947220D01*
X49750646Y14646645D02*
X49546125Y14554362D01*
X45600378Y69350805D02*
X45503025Y69552961D01*
X40998601Y90000018D02*
X40998601Y90000018D01*
X125246560Y98646662D02*
X125037694Y98728636D01*
X48606058Y49947210D02*
X48437824Y49798744D01*
X10998601Y51000010D02*
X10498602Y51000010D01*
X10498602Y72000014D02*
X10998601Y72000015D01*
X8959511Y14728619D02*
X8750645Y14646645D01*
X133287489Y43060D02*
X133379888Y76121D01*
X82498603Y90000017D02*
X81998602Y90000018D01*
X45997203Y28387817D02*
X45997203Y28612194D01*
X133954145Y104290305D02*
X133921084Y104382704D01*
X88066968Y93718603D02*
X88111427Y93498675D01*
X4815Y901983D02*
X19214Y804910D01*
X127986021Y94163734D02*
X127997205Y94387831D01*
X44391146Y82052818D02*
X44559379Y82201284D01*
X45963678Y18940457D02*
X45986019Y19163718D01*
X10050546Y62977651D02*
X9827911Y62949751D01*
X86278719Y65058555D02*
X86395717Y65250013D01*
X122998603Y33000006D02*
X122998603Y33000006D01*
X47066967Y45718593D02*
X47111426Y45498665D01*
X48437824Y40798742D02*
X48277201Y40642074D01*
X42390259Y14910778D02*
X42169292Y14949740D01*
X50827912Y42050270D02*
X51050547Y42022370D01*
X90346460Y80452013D02*
X90152145Y80339825D01*
X7781481Y81912920D02*
X7963661Y81781942D01*
X83825001Y50800087D02*
X83609011Y50860857D01*
X124825002Y62800089D02*
X124609012Y62860859D01*
X45885777Y20501348D02*
X45830411Y20718786D01*
X51050547Y80977655D02*
X50827912Y80949755D01*
X84845061Y90660211D02*
X85033543Y90781945D01*
X91827913Y14949741D02*
X91606946Y14910779D01*
X92998603Y33000007D02*
X92998603Y33000007D01*
X126872619Y70477600D02*
X126720004Y70642079D01*
X125845062Y89339826D02*
X125650746Y89452015D01*
X127278720Y56058553D02*
X127395718Y56250011D01*
X84650745Y62452009D02*
X84451079Y62554371D01*
X6718484Y12941460D02*
X6601486Y12750002D01*
X45764275Y11933191D02*
X45687533Y12144036D01*
X43451078Y6445642D02*
X43650744Y6548004D01*
X88980361Y88305722D02*
X88844882Y88126865D01*
X42169292Y89949756D02*
X41946657Y89977656D01*
X47011184Y58836297D02*
X47000000Y58612200D01*
X44033542Y42781935D02*
X44215721Y42912913D01*
X89963663Y23218079D02*
X89781483Y23087101D01*
X126033544Y72781941D02*
X126215723Y72912919D01*
X42169292Y42050271D02*
X42390259Y42089233D01*
X6166791Y84281235D02*
X6232927Y84066827D01*
X90959513Y54271394D02*
X91172205Y54199933D01*
X41722908Y24005599D02*
X41946657Y24022367D01*
X127278720Y48941468D02*
X127152325Y49126856D01*
X43845060Y41339816D02*
X43650744Y41452005D01*
X127016845Y43694305D02*
X127152325Y43873163D01*
X8959511Y72271398D02*
X9172203Y72199937D01*
X89606059Y31947206D02*
X89437825Y31798740D01*
X43037692Y24271389D02*
X43246558Y24353363D01*
X10050546Y33022368D02*
X10274295Y33005600D01*
X10050546Y6022362D02*
X10274295Y6005594D01*
X51050547Y14977641D02*
X50827912Y14949741D01*
X45830411Y11718784D02*
X45764275Y11933191D01*
X7437823Y16201269D02*
X7606057Y16052803D01*
X88000001Y10612190D02*
X88000001Y10387813D01*
X81998602Y54000011D02*
X82498603Y54000011D01*
X86997204Y94612208D02*
X86986020Y94836305D01*
X127152325Y82873171D02*
X127278720Y83058559D01*
X86600379Y39350799D02*
X86503026Y39552955D01*
X6111425Y84498673D02*
X6166791Y84281235D01*
X43451078Y33445648D02*
X43650744Y33548010D01*
X45152323Y31126852D02*
X45016843Y31305710D01*
X47601487Y74250015D02*
X47718485Y74058557D01*
X50388194Y63139165D02*
X50606945Y63089236D01*
X47718485Y78941474D02*
X47601487Y78750016D01*
X42390259Y80910792D02*
X42169292Y80949754D01*
X127395718Y65250013D02*
X127503027Y65447066D01*
X50827912Y98949759D02*
X50606945Y98910797D01*
X88601488Y74250015D02*
X88718486Y74058557D01*
X47011184Y37836293D02*
X47000000Y37612196D01*
X43246558Y71646656D02*
X43037692Y71728630D01*
X9827911Y42050270D02*
X10050546Y42022370D01*
X49546125Y71554374D02*
X49346459Y71452011D01*
X48781482Y54912914D02*
X48963662Y54781936D01*
X43650744Y63548016D02*
X43845060Y63660205D01*
X82946658Y14977640D02*
X82722909Y14994408D01*
X90346460Y15548006D02*
X90546126Y15445643D01*
X86152324Y22126850D02*
X86016844Y22305708D01*
X47066967Y84718601D02*
X47111426Y84498673D01*
X91827913Y6050262D02*
X92050548Y6022362D01*
X127764277Y18066814D02*
X127830413Y18281221D01*
X44872617Y16522417D02*
X45016843Y16694299D01*
X88309671Y35855973D02*
X88396826Y35649215D01*
X85720003Y82357952D02*
X85872618Y82522431D01*
X49346459Y63548016D02*
X49546125Y63445653D01*
X92274297Y33005600D02*
X92498604Y33000006D01*
X45600378Y65649222D02*
X45687533Y65855979D01*
X45687533Y56855977D02*
X45764275Y57066822D01*
X89437825Y13798736D02*
X89277202Y13642068D01*
X48437824Y55201277D02*
X48606058Y55052811D01*
X123946659Y81022379D02*
X124169294Y81050279D01*
X88601488Y96750020D02*
X88494179Y96552968D01*
X6718484Y8058543D02*
X6844880Y7873154D01*
X45687533Y26855971D02*
X45764275Y27066816D01*
X41722908Y54005605D02*
X41946657Y54022373D01*
X49750646Y71646657D02*
X49546125Y71554374D01*
X48124586Y61477598D02*
X47980360Y61305716D01*
X124390261Y42089233D02*
X124609012Y42139162D01*
X85215722Y23087100D02*
X85033543Y23218078D01*
X86600379Y69350805D02*
X86503026Y69552961D01*
X88011185Y37163722D02*
X88033526Y36940461D01*
X49346459Y23452001D02*
X49152144Y23339813D01*
X7277200Y82357951D02*
X7437823Y82201283D01*
X127830413Y18281221D02*
X127885779Y18498659D01*
X92998603Y15000002D02*
X92998603Y15000002D01*
X6309669Y8855967D02*
X6396824Y8649209D01*
X126391148Y73052816D02*
X126559381Y73201282D01*
X123498604Y81000015D02*
X122998603Y81000016D01*
X45687533Y74855981D02*
X45764275Y75066826D01*
X48124586Y7522415D02*
X48277201Y7357935D01*
X44559379Y73201282D02*
X44720002Y73357950D01*
X45278718Y78941474D02*
X45152323Y79126862D01*
X90546126Y90445659D02*
X90750647Y90353376D01*
X92998603Y90000019D02*
X92998603Y90000019D01*
X126391148Y25052806D02*
X126559381Y25201272D01*
X49546125Y33445647D02*
X49750646Y33353364D01*
X85559380Y40798741D02*
X85391147Y40947207D01*
X42609010Y62860859D02*
X42390259Y62910788D01*
X6396824Y74649223D02*
X6494177Y74447067D01*
X92998603Y72000014D02*
X92498604Y72000014D01*
X88309671Y26855971D02*
X88396826Y26649213D01*
X127764277Y66066824D02*
X127830413Y66281231D01*
X9606944Y89910795D02*
X9388193Y89860866D01*
X123946659Y42022371D02*
X124169294Y42050271D01*
X8152143Y80339825D02*
X7963661Y80218091D01*
X45930236Y77281432D02*
X45885777Y77501360D01*
X88011185Y58836297D02*
X88000001Y58612200D01*
X85391147Y7052802D02*
X85559380Y7201268D01*
X6844880Y82873170D02*
X6980359Y82694313D01*
X90750647Y71646657D02*
X90546126Y71554374D01*
X48437824Y61798746D02*
X48277201Y61642078D01*
X45930236Y68281430D02*
X45885777Y68501358D01*
X8546124Y32554366D02*
X8346458Y32452003D01*
X5999999Y28387817D02*
X6011183Y28163720D01*
X47494178Y35447059D02*
X47601487Y35250007D01*
X7124585Y49477596D02*
X6980359Y49305714D01*
X127930238Y86281434D02*
X127885779Y86501362D01*
X127830413Y84281235D02*
X127885779Y84498673D01*
X92498604Y72000014D02*
X92274297Y71994421D01*
X89277202Y82357951D02*
X89437825Y82201283D01*
X6011183Y94163734D02*
X6033524Y93940473D01*
X126559381Y64201280D02*
X126720004Y64357948D01*
X81998602Y54000010D02*
X81998602Y54000011D01*
X45986019Y67163728D02*
X45997203Y67387825D01*
X47601487Y44250009D02*
X47718485Y44058551D01*
X127885779Y75498671D02*
X127930238Y75718599D01*
X49546125Y24445645D02*
X49750646Y24353362D01*
X127830413Y29718788D02*
X127764277Y29933195D01*
X91606946Y41910785D02*
X91388195Y41860856D01*
X126033544Y71218088D02*
X125845062Y71339822D01*
X10050546Y23977643D02*
X9827911Y23949743D01*
X43451078Y71554373D02*
X43246558Y71646656D01*
X127830413Y36281225D02*
X127885779Y36498663D01*
X89781483Y89087115D02*
X89606059Y88947218D01*
X126872619Y55522425D02*
X127016845Y55694307D01*
X45687533Y12144036D02*
X45600378Y12350793D01*
X82498603Y42000009D02*
X82722909Y42005603D01*
X90346460Y14451999D02*
X90152145Y14339811D01*
X49959512Y54271394D02*
X50172204Y54199933D01*
X6111425Y38501352D02*
X6066966Y38281424D01*
X48963662Y71218089D02*
X48781482Y71087111D01*
X91827913Y71949753D02*
X91606946Y71910791D01*
X43845060Y23339812D02*
X43650744Y23452001D01*
X92498604Y81000016D02*
X92998603Y81000017D01*
X84650745Y72548018D02*
X84845061Y72660207D01*
X90750647Y80646659D02*
X90546126Y80554376D01*
X6601486Y92250019D02*
X6718484Y92058561D01*
X91827913Y33050268D02*
X92050548Y33022368D01*
X90959513Y50728627D02*
X90750647Y50646653D01*
X88166793Y38718790D02*
X88111427Y38501352D01*
X10998601Y42000009D02*
X10998601Y42000008D01*
X127997205Y76387827D02*
X127997205Y76612204D01*
X88494179Y35447059D02*
X88601488Y35250007D01*
X6494177Y96552968D02*
X6396824Y96350812D01*
X127278720Y21941462D02*
X127152325Y22126850D01*
X89124587Y88477604D02*
X88980361Y88305722D01*
X7124585Y88477604D02*
X6980359Y88305722D01*
X86152324Y55873165D02*
X86278719Y56058553D01*
X51274296Y80994423D02*
X51050547Y80977655D01*
X92998603Y81000017D02*
X92998603Y81000016D01*
X84037693Y15271387D02*
X84246559Y15353361D01*
X126215723Y54912915D02*
X126391148Y55052812D01*
X6494177Y78552964D02*
X6396824Y78350808D01*
X47033525Y93940473D02*
X47066967Y93718603D01*
X86764276Y86933207D02*
X86687534Y87144052D01*
X90346460Y33548010D02*
X90546126Y33445647D01*
X47601487Y48750010D02*
X47494178Y48552958D01*
X86687534Y35855973D02*
X86764276Y36066818D01*
X10998601Y54000011D02*
X10998601Y54000011D01*
X83169293Y62949750D02*
X82946658Y62977650D01*
X8959511Y50728627D02*
X8750645Y50646653D01*
X43059Y709716D02*
X76120Y617317D01*
X88232929Y59933202D02*
X88166793Y59718794D01*
X85559380Y16201270D02*
X85720003Y16357938D01*
X42390259Y15089227D02*
X42609010Y15139156D01*
X126559381Y88798751D02*
X126391148Y88947217D01*
X84246559Y23646646D02*
X84037693Y23728620D01*
X45687533Y87144052D02*
X45600378Y87350809D01*
X86830412Y93281237D02*
X86885778Y93498675D01*
X49546125Y32554366D02*
X49346459Y32452003D01*
X48781482Y63912916D02*
X48963662Y63781938D01*
X6232927Y75066825D02*
X6309669Y74855981D01*
X124609012Y15139156D02*
X124825002Y15199926D01*
X84451079Y63445654D02*
X84650745Y63548016D01*
X86764276Y20933193D02*
X86687534Y21144038D01*
X83825001Y42199932D02*
X84037693Y42271393D01*
X126559381Y7201268D02*
X126720004Y7357936D01*
X6396824Y35649215D02*
X6494177Y35447059D01*
X89963663Y63781938D02*
X90152145Y63660204D01*
X84037693Y24271389D02*
X84246559Y24353363D01*
X6111425Y47501354D02*
X6066966Y47281426D01*
X127764277Y38933197D02*
X127687535Y39144042D01*
X49152144Y89339827D02*
X48963662Y89218093D01*
X92050548Y41977647D02*
X91827913Y41949747D01*
X85391147Y31947205D02*
X85215722Y32087102D01*
X88166793Y9281219D02*
X88232929Y9066811D01*
X122998603Y81000016D02*
X122998603Y81000017D01*
X127278720Y26058547D02*
X127395718Y26250005D01*
X8750645Y80646659D02*
X8546124Y80554376D01*
X7277200Y16357937D02*
X7437823Y16201269D01*
X45503025Y87552965D02*
X45395716Y87750017D01*
X85720003Y40642073D02*
X85559380Y40798741D01*
X126033544Y50218084D02*
X125845062Y50339818D01*
X49959512Y33271390D02*
X50172204Y33199929D01*
X127016845Y16694299D02*
X127152325Y16873157D01*
X86764276Y93066830D02*
X86830412Y93281237D01*
X51050547Y23977643D02*
X50827912Y23949743D01*
X88494179Y56447063D02*
X88601488Y56250011D01*
X6232927Y77933206D02*
X6166791Y77718798D01*
X90546126Y42445649D02*
X90750647Y42353366D01*
X51050547Y62977651D02*
X50827912Y62949751D01*
X48277201Y79642082D02*
X48124586Y79477602D01*
X9172203Y23800082D02*
X8959511Y23728621D01*
X88601488Y92250019D02*
X88718486Y92058561D01*
X86830412Y47718792D02*
X86764276Y47933199D01*
X10498602Y51000010D02*
X10274295Y50994417D01*
X133631598Y104773031D02*
X133552775Y104831490D01*
X90346460Y23452001D02*
X90152145Y23339813D01*
X44872617Y64522427D02*
X45016843Y64694309D01*
X5999999Y85387829D02*
X6011183Y85163732D01*
X86152324Y16873157D02*
X86278719Y17058545D01*
X47980360Y88305722D02*
X47844881Y88126865D01*
X50388194Y98860868D02*
X50172204Y98800098D01*
X44720002Y22642069D02*
X44559379Y22798737D01*
X47309670Y92855985D02*
X47396825Y92649227D01*
X84845061Y63660205D02*
X85033543Y63781939D01*
X43246558Y72353373D02*
X43451078Y72445656D01*
X126872619Y31477592D02*
X126720004Y31642071D01*
X45503025Y83447070D02*
X45600378Y83649226D01*
X48606058Y34052807D02*
X48781482Y33912910D01*
X85215722Y80087112D02*
X85033543Y80218090D01*
X6494177Y21552952D02*
X6396824Y21350796D01*
X42169292Y71949752D02*
X41946657Y71977652D01*
X41722908Y42005603D02*
X41946657Y42022371D01*
X47011184Y76836301D02*
X47000000Y76612204D01*
X127600380Y48350801D02*
X127503027Y48552957D01*
X86963679Y77059562D02*
X86930237Y77281432D01*
X127830413Y27281223D02*
X127885779Y27498661D01*
X50172204Y80800094D02*
X49959512Y80728633D01*
X123498604Y54000011D02*
X123722910Y54005605D01*
X86830412Y36281225D02*
X86885778Y36498663D01*
X127986021Y85163732D02*
X127997205Y85387829D01*
X44559379Y91201286D02*
X44720002Y91357954D01*
X92498604Y54000010D02*
X92998603Y54000011D01*
X45687533Y48144044D02*
X45600378Y48350801D01*
X90750647Y24353362D02*
X90959513Y24271388D01*
X88494179Y44447061D02*
X88601488Y44250009D01*
X83825001Y24199928D02*
X84037693Y24271389D01*
X8152143Y14339811D02*
X7963661Y14218077D01*
X48277201Y82357951D02*
X48437824Y82201283D01*
X365606Y226990D02*
X444429Y168531D01*
X88309671Y56855977D02*
X88396826Y56649219D01*
X48124586Y88477604D02*
X47980360Y88305722D01*
X88232929Y75066825D02*
X88309671Y74855981D01*
X86503026Y44447062D02*
X86600379Y44649218D01*
X45963678Y84940471D02*
X45986019Y85163732D01*
X44391146Y64052814D02*
X44559379Y64201280D01*
X45885777Y29501350D02*
X45830411Y29718788D01*
X50388194Y50860858D02*
X50172204Y50800088D01*
X125246560Y24353363D02*
X125451080Y24445646D01*
X92498604Y6000000D02*
X92998603Y6000001D01*
X8346458Y63548016D02*
X8546124Y63445653D01*
X10050546Y24022366D02*
X10274295Y24005598D01*
X7277200Y40642074D02*
X7124585Y40477594D01*
X124825002Y50800087D02*
X124609012Y50860857D01*
X50388194Y54139163D02*
X50606945Y54089234D01*
X45395716Y65250013D02*
X45503025Y65447066D01*
X6718484Y35058549D02*
X6844880Y34873160D01*
X88011185Y19836289D02*
X88000001Y19612192D01*
X125246560Y72353373D02*
X125451080Y72445656D01*
X45986019Y76163730D02*
X45997203Y76387827D01*
X45152323Y25873159D02*
X45278718Y26058547D01*
X86885778Y57498667D02*
X86930237Y57718595D01*
X6166791Y27281223D02*
X6232927Y27066815D01*
X44033542Y14218076D02*
X43845060Y14339810D01*
X86278719Y92058561D02*
X86395717Y92250019D01*
X10050546Y80977655D02*
X9827911Y80949755D01*
X7781481Y23087101D02*
X7606057Y22947204D01*
X127986021Y10163716D02*
X127997205Y10387813D01*
X90750647Y54353368D02*
X90959513Y54271394D01*
X125037694Y23728620D02*
X124825002Y23800081D01*
X127278720Y35058549D02*
X127395718Y35250007D01*
X86395717Y83250017D02*
X86503026Y83447070D01*
X88494179Y48552958D02*
X88396826Y48350802D01*
X127997205Y58612200D02*
X127986021Y58836297D01*
X127997205Y46612198D02*
X127986021Y46836295D01*
X84037693Y14728618D02*
X83825001Y14800079D01*
X45600378Y78350807D02*
X45503025Y78552963D01*
X47844881Y73873168D02*
X47980360Y73694311D01*
X84451079Y81445658D02*
X84650745Y81548020D01*
X8152143Y98339829D02*
X7963661Y98218095D01*
X82498603Y63000013D02*
X82722909Y63005607D01*
X42825000Y54199934D02*
X43037692Y54271395D01*
X47718485Y48941468D02*
X47601487Y48750010D01*
X92498604Y99000020D02*
X92274297Y98994427D01*
X133631598Y226990D02*
X133704311Y292894D01*
X123946659Y50977648D02*
X123722910Y50994416D01*
X47309670Y60144046D02*
X47232928Y59933202D01*
X89963663Y42781934D02*
X90152145Y42660200D01*
X86885778Y36498663D02*
X86930237Y36718591D01*
X88033526Y47059556D02*
X88011185Y46836295D01*
X91606946Y81089240D02*
X91827913Y81050278D01*
X49152144Y98339829D02*
X48963662Y98218095D01*
X125845062Y15660195D02*
X126033544Y15781929D01*
X45687533Y65855979D02*
X45764275Y66066824D01*
X90346460Y98452017D02*
X90152145Y98339829D01*
X125451080Y14554361D02*
X125246560Y14646644D01*
X292893Y292894D02*
X365606Y226990D01*
X226989Y365607D02*
X292893Y292894D01*
X83825001Y54199934D02*
X84037693Y54271395D01*
X47066967Y20281420D02*
X47033525Y20059550D01*
X124609012Y33139160D02*
X124825002Y33199930D01*
X91172205Y80800094D02*
X90959513Y80728633D01*
X6980359Y31305710D02*
X6844880Y31126853D01*
X88066968Y75718599D02*
X88111427Y75498671D01*
X10050546Y90022380D02*
X10274295Y90005612D01*
X45963678Y75940469D02*
X45986019Y76163730D01*
X47601487Y83250017D02*
X47718485Y83058559D01*
X43650744Y6548004D02*
X43845060Y6660193D01*
X7963661Y32218081D02*
X7781481Y32087103D01*
X45600378Y60350803D02*
X45503025Y60552959D01*
X128997205Y54000010D02*
X127997205Y54000010D01*
X89963663Y72781940D02*
X90152145Y72660206D01*
X51998602Y51000010D02*
X51498603Y51000010D01*
X45830411Y9281219D02*
X45885777Y9498657D01*
X88232929Y93066829D02*
X88309671Y92855985D01*
X83609011Y6139154D02*
X83825001Y6199924D01*
X125451080Y33445648D02*
X125650746Y33548010D01*
X7277200Y61642078D02*
X7124585Y61477598D01*
X124825002Y6199924D02*
X125037694Y6271385D01*
X123946659Y23977642D02*
X123722910Y23994410D01*
X88601488Y83250017D02*
X88718486Y83058559D01*
X86600379Y60350803D02*
X86503026Y60552959D01*
X6232927Y68933204D02*
X6166791Y68718796D01*
X42609010Y71860861D02*
X42390259Y71910790D01*
X127016845Y88305722D02*
X126872619Y88477604D01*
X127687535Y8855967D02*
X127764277Y9066812D01*
X10050546Y72022376D02*
X10274295Y72005608D01*
X91827913Y50949749D02*
X91606946Y50910787D01*
X88718486Y74058557D02*
X88844882Y73873168D01*
X46498602Y54000010D02*
X40998601Y54000010D01*
X90152145Y6660192D02*
X90346460Y6548004D01*
X42169292Y62949750D02*
X41946657Y62977650D01*
X6601486Y83250017D02*
X6718484Y83058559D01*
X88166793Y66281231D02*
X88232929Y66066823D01*
X85720003Y91357954D02*
X85872618Y91522433D01*
X88011185Y67163728D02*
X88033526Y66940467D01*
X6309669Y26855971D02*
X6396824Y26649213D01*
X91172205Y54199933D02*
X91388195Y54139163D01*
X47000000Y94612208D02*
X47000000Y94387831D01*
X126391148Y55052812D02*
X126559381Y55201278D01*
X6066966Y84718601D02*
X6111425Y84498673D01*
X168530Y444430D02*
X226989Y365607D01*
X92274297Y14994409D02*
X92050548Y14977641D01*
X45687533Y83855983D02*
X45764275Y84066828D01*
X45885777Y36498663D02*
X45930236Y36718591D01*
X86930237Y57718595D02*
X86963679Y57940465D01*
X45503025Y39552955D02*
X45395716Y39750007D01*
X45997203Y67387825D02*
X45997203Y67612202D01*
X89124587Y91522433D02*
X89277202Y91357953D01*
X7277200Y97642086D02*
X7124585Y97477606D01*
X51998602Y63000012D02*
X51498603Y63000012D01*
X86395717Y65250013D02*
X86503026Y65447066D01*
X86503026Y60552959D02*
X86395717Y60750011D01*
X9606944Y72089238D02*
X9827911Y72050276D01*
X49546125Y81445657D02*
X49750646Y81353374D01*
X7437823Y43201275D02*
X7606057Y43052809D01*
X41498602Y33000007D02*
X41722908Y33005601D01*
X8546124Y14554362D02*
X8346458Y14451999D01*
X44033542Y62218086D02*
X43845060Y62339820D01*
X86687534Y74855981D02*
X86764276Y75066826D01*
X45830411Y18281221D02*
X45885777Y18498659D01*
X125037694Y80728632D02*
X124825002Y80800093D01*
X86764276Y29933195D02*
X86687534Y30144040D01*
X85720003Y7357936D02*
X85872618Y7522415D01*
X86687534Y56855977D02*
X86764276Y57066822D01*
X10274295Y90005612D02*
X10498602Y90000018D01*
X89277202Y49642076D02*
X89124587Y49477596D01*
X126215723Y98087116D02*
X126033544Y98218094D01*
X126720004Y34357942D02*
X126872619Y34522421D01*
X123722910Y50994416D02*
X123498604Y51000009D01*
X127016845Y55694307D02*
X127152325Y55873165D01*
X88166793Y86718800D02*
X88111427Y86501362D01*
X43451078Y90445660D02*
X43650744Y90548022D01*
X82946658Y23977642D02*
X82722909Y23994410D01*
X84451079Y6445642D02*
X84650745Y6548004D01*
X88066968Y27718589D02*
X88111427Y27498661D01*
X9388193Y98860868D02*
X9172203Y98800098D01*
X84650745Y81548020D02*
X84845061Y81660209D01*
X92998603Y90000018D02*
X92498604Y90000018D01*
X6396824Y96350812D02*
X6309669Y96144054D01*
X84845061Y41339816D02*
X84650745Y41452005D01*
X88011185Y58163726D02*
X88033526Y57940465D01*
X89124587Y34522421D02*
X89277202Y34357941D01*
X86278719Y69941472D02*
X86152324Y70126860D01*
X86503026Y21552951D02*
X86395717Y21750003D01*
X89606059Y34052807D02*
X89781483Y33912910D01*
X42825000Y23800081D02*
X42609010Y23860851D01*
X88033526Y86059564D02*
X88011185Y85836303D01*
X91606946Y80910793D02*
X91388195Y80860864D01*
X82722909Y81005611D02*
X82946658Y81022379D01*
X6494177Y8447053D02*
X6601486Y8250001D01*
X8546124Y72445655D02*
X8750645Y72353372D01*
X43037692Y6271385D02*
X43246558Y6353359D01*
X92998603Y100000020D02*
X92998603Y99000020D01*
X6232927Y66066823D02*
X6309669Y65855979D01*
X49959512Y15271386D02*
X50172204Y15199925D01*
X9827911Y50949749D02*
X9606944Y50910787D01*
X51274296Y23994411D02*
X51050547Y23977643D01*
X49346459Y15548006D02*
X49546125Y15445643D01*
X6066966Y95281436D02*
X6033524Y95059566D01*
X47111426Y20501348D02*
X47066967Y20281420D01*
X9606944Y6089224D02*
X9827911Y6050262D01*
X91172205Y81199939D02*
X91388195Y81139169D01*
X125650746Y89452015D02*
X125451080Y89554377D01*
X45687533Y8855967D02*
X45764275Y9066812D01*
X6844880Y16873156D02*
X6980359Y16694299D01*
X48781482Y89087115D02*
X48606058Y88947218D01*
X47844881Y88126865D02*
X47718485Y87941476D01*
X48277201Y64357947D02*
X48437824Y64201279D01*
X126215723Y50087106D02*
X126033544Y50218084D01*
X126391148Y88947217D02*
X126215723Y89087114D01*
X86830412Y59718794D02*
X86764276Y59933201D01*
X126215723Y63912917D02*
X126391148Y64052814D01*
X44720002Y55357946D02*
X44872617Y55522425D01*
X122998603Y24000005D02*
X123498604Y24000005D01*
X10050546Y63022374D02*
X10274295Y63005606D01*
X84845061Y15660195D02*
X85033543Y15781929D01*
X127963680Y11059548D02*
X127930238Y11281418D01*
X92998603Y90000019D02*
X92998603Y90000018D01*
X41946657Y81022379D02*
X42169292Y81050279D01*
X126559381Y31798739D02*
X126391148Y31947205D01*
X82722909Y6005595D02*
X82946658Y6022363D01*
X124825002Y41800085D02*
X124609012Y41860855D01*
X82946658Y54022373D02*
X83169293Y54050273D01*
X49152144Y81660208D02*
X49346459Y81548020D01*
X126872619Y97477606D02*
X126720004Y97642085D01*
X122998603Y72000014D02*
X122998603Y72000014D01*
X81998602Y42000009D02*
X82498603Y42000009D01*
X49959512Y71728631D02*
X49750646Y71646657D01*
X89963663Y14218077D02*
X89781483Y14087099D01*
X44215721Y63912917D02*
X44391146Y64052814D01*
X41722908Y23994410D02*
X41498602Y24000003D01*
X9388193Y33139159D02*
X9606944Y33089230D01*
X85559380Y31798739D02*
X85391147Y31947205D01*
X45687533Y35855973D02*
X45764275Y36066818D01*
X126559381Y97798753D02*
X126391148Y97947219D01*
X6066966Y57718595D02*
X6111425Y57498667D01*
X45830411Y45281227D02*
X45885777Y45498665D01*
X41722908Y72005609D02*
X41946657Y72022377D01*
X82722909Y23994410D02*
X82498603Y24000003D01*
X88718486Y78941474D02*
X88601488Y78750016D01*
X6033524Y86059564D02*
X6011183Y85836303D01*
X91388195Y6139153D02*
X91606946Y6089224D01*
X10998601Y33000006D02*
X10498602Y33000006D01*
X47011184Y46163724D02*
X47033525Y45940463D01*
X126391148Y43052810D02*
X126559381Y43201276D01*
X126559381Y61798745D02*
X126391148Y61947211D01*
X86963679Y75940469D02*
X86986020Y76163730D01*
X45764275Y47933199D02*
X45687533Y48144044D01*
X45503025Y17447056D02*
X45600378Y17649212D01*
X88601488Y78750016D02*
X88494179Y78552964D01*
X6396824Y69350806D02*
X6309669Y69144048D01*
X9606944Y23910781D02*
X9388193Y23860852D01*
X45016843Y40305712D02*
X44872617Y40477594D01*
X88000001Y76387827D02*
X88011185Y76163730D01*
X43650744Y23452001D02*
X43451078Y23554363D01*
X50388194Y41860856D02*
X50172204Y41800086D01*
X125037694Y54271395D02*
X125246560Y54353369D01*
X91388195Y98860868D02*
X91172205Y98800098D01*
X89606059Y25052805D02*
X89781483Y24912908D01*
X6309669Y92855985D02*
X6396824Y92649227D01*
X8152143Y6660192D02*
X8346458Y6548004D01*
X45395716Y92250019D02*
X45503025Y92447072D01*
X47000000Y10612190D02*
X47000000Y10387813D01*
X126872619Y25522419D02*
X127016845Y25694301D01*
X127764277Y59933201D02*
X127687535Y60144046D01*
X45278718Y92058561D02*
X45395716Y92250019D01*
X88033526Y57940465D02*
X88066968Y57718595D01*
X40998601Y33000006D02*
X40998601Y33000006D01*
X90546126Y71554374D02*
X90346460Y71452011D01*
X88718486Y8058543D02*
X88844882Y7873154D01*
X8750645Y42353366D02*
X8959511Y42271392D01*
X127016845Y64694309D02*
X127152325Y64873167D01*
X127152325Y64873167D02*
X127278720Y65058555D01*
X88033526Y93940473D02*
X88066968Y93718603D01*
X9606944Y90089242D02*
X9827911Y90050280D01*
X44559379Y55201278D02*
X44720002Y55357946D01*
X45986019Y67836299D02*
X45963678Y68059560D01*
X44033542Y81781943D02*
X44215721Y81912921D01*
X47166792Y68718796D02*
X47111426Y68501358D01*
X125650746Y90548022D02*
X125845062Y90660211D01*
X90346460Y41452005D02*
X90152145Y41339817D01*
X19214Y804910D02*
X43059Y709716D01*
X127600380Y92649228D02*
X127687535Y92855985D01*
X48963662Y15781928D02*
X49152144Y15660194D01*
X44033542Y32218080D02*
X43845060Y32339814D01*
X88000001Y19612192D02*
X88000001Y19387815D01*
X126033544Y14218076D02*
X125845062Y14339810D01*
X86764276Y59933201D02*
X86687534Y60144046D01*
X85215722Y15912907D02*
X85391147Y16052804D01*
X45395716Y21750003D02*
X45278718Y21941462D01*
X85559380Y22798737D02*
X85391147Y22947203D01*
X127930238Y9718585D02*
X127963680Y9940455D01*
X43451078Y41554367D02*
X43246558Y41646650D01*
X83390260Y42089233D02*
X83609011Y42139162D01*
X47718485Y60941470D02*
X47601487Y60750012D01*
X47066967Y75718599D02*
X47111426Y75498671D01*
X84451079Y41554367D02*
X84246559Y41646650D01*
X88000001Y28387817D02*
X88011185Y28163720D01*
X42825000Y24199928D02*
X43037692Y24271389D01*
X6066966Y66718597D02*
X6111425Y66498669D01*
X8750645Y90353376D02*
X8959511Y90271402D01*
X48277201Y70642080D02*
X48124586Y70477600D01*
X47111426Y18498659D02*
X47166792Y18281221D01*
X43845060Y81660209D02*
X44033542Y81781943D01*
X88033526Y29059552D02*
X88011185Y28836291D01*
X90959513Y6271384D02*
X91172205Y6199923D01*
X91827913Y42050270D02*
X92050548Y42022370D01*
X86930237Y38281424D02*
X86885778Y38501352D01*
X86503026Y92447072D02*
X86600379Y92649228D01*
X82946658Y90022381D02*
X83169293Y90050281D01*
X86016844Y88305722D02*
X85872618Y88477604D01*
X124169294Y80949754D02*
X123946659Y80977654D01*
X84037693Y33271391D02*
X84246559Y33353365D01*
X126391148Y79947215D02*
X126215723Y80087112D01*
X45885777Y47501354D02*
X45830411Y47718792D01*
X127016845Y7694297D02*
X127152325Y7873155D01*
X47309670Y74855981D02*
X47396825Y74649223D01*
X88066968Y20281420D02*
X88033526Y20059550D01*
X43037692Y33271391D02*
X43246558Y33353365D01*
X82498603Y42000007D02*
X81998602Y42000008D01*
X127930238Y18718587D02*
X127963680Y18940457D01*
X126559381Y82201284D02*
X126720004Y82357952D01*
X86764276Y75066826D02*
X86830412Y75281233D01*
X45830411Y20718786D02*
X45764275Y20933193D01*
X44720002Y91357954D02*
X44872617Y91522433D01*
X48277201Y40642074D02*
X48124586Y40477594D01*
X40998601Y100000020D02*
X51998602Y100000020D01*
X81998602Y33000007D02*
X82498603Y33000007D01*
X88111427Y47501354D02*
X88066968Y47281426D01*
X90152145Y33660198D02*
X90346460Y33548010D01*
X7277200Y88642084D02*
X7124585Y88477604D01*
X50172204Y6199923D02*
X50388194Y6139153D01*
X127986021Y10836287D02*
X127963680Y11059548D01*
X85215722Y81912921D02*
X85391147Y82052818D01*
X127600380Y12350793D02*
X127503027Y12552949D01*
X43650744Y14451999D02*
X43451078Y14554361D01*
X49346459Y81548020D02*
X49546125Y81445657D01*
X127764277Y9066812D02*
X127830413Y9281219D01*
X47601487Y39750008D02*
X47494178Y39552956D01*
X86503026Y30552953D02*
X86395717Y30750005D01*
X91172205Y42199931D02*
X91388195Y42139161D01*
X9388193Y89860866D02*
X9172203Y89800096D01*
X86278719Y96941478D02*
X86152324Y97126866D01*
X49346459Y42548012D02*
X49546125Y42445649D01*
X92998603Y33000006D02*
X92998603Y33000006D01*
X45764275Y9066812D02*
X45830411Y9281219D01*
X89124587Y22477590D02*
X88980361Y22305708D01*
X88309671Y87144052D02*
X88232929Y86933208D01*
X47011184Y67836299D02*
X47000000Y67612202D01*
X45764275Y95933209D02*
X45687533Y96144054D01*
X8546124Y98554380D02*
X8346458Y98452017D01*
X127687535Y48144044D02*
X127600380Y48350801D01*
X47718485Y39941466D02*
X47601487Y39750008D01*
X47111426Y77501360D02*
X47066967Y77281432D01*
X88011185Y37836293D02*
X88000001Y37612196D01*
X85391147Y70947213D02*
X85215722Y71087110D01*
X45764275Y68933203D02*
X45687533Y69144048D01*
X43037692Y81271401D02*
X43246558Y81353375D01*
X88309671Y60144046D02*
X88232929Y59933202D01*
X88494179Y65447065D02*
X88601488Y65250013D01*
X47309670Y78144050D02*
X47232928Y77933206D01*
X48437824Y16201269D02*
X48606058Y16052803D01*
X126215723Y23087100D02*
X126033544Y23218078D01*
X127016845Y25694301D02*
X127152325Y25873159D01*
X8959511Y33271390D02*
X9172203Y33199929D01*
X48781482Y14087099D02*
X48606058Y13947202D01*
X125037694Y14728618D02*
X124825002Y14800079D01*
X86986020Y10163716D02*
X86997204Y10387813D01*
X89277202Y31642072D02*
X89124587Y31477592D01*
X45986019Y58836297D02*
X45963678Y59059558D01*
X43246558Y15353361D02*
X43451078Y15445644D01*
X90346460Y63548016D02*
X90546126Y63445653D01*
X88033526Y20059550D02*
X88011185Y19836289D01*
X51498603Y72000014D02*
X51274296Y71994421D01*
X86503026Y56447064D02*
X86600379Y56649220D01*
X84246559Y89646660D02*
X84037693Y89728634D01*
X48963662Y41218083D02*
X48781482Y41087105D01*
X133379888Y104923900D02*
X133287489Y104956961D01*
X127963680Y45940463D02*
X127986021Y46163724D01*
X49546125Y6445641D02*
X49750646Y6353358D01*
X89781483Y42912912D02*
X89963663Y42781934D01*
X127997205Y28612194D02*
X127986021Y28836291D01*
X86278719Y78941474D02*
X86152324Y79126862D01*
X89606059Y13947202D02*
X89437825Y13798736D01*
X88601488Y39750008D02*
X88494179Y39552956D01*
X127600380Y8649210D02*
X127687535Y8855967D01*
X51498603Y24000004D02*
X51998602Y24000005D01*
X44872617Y40477594D02*
X44720002Y40642073D01*
X86930237Y86281434D02*
X86885778Y86501362D01*
X125451080Y50554369D02*
X125246560Y50646652D01*
X86687534Y65855979D02*
X86764276Y66066824D01*
X85720003Y31642071D02*
X85559380Y31798739D01*
X45997203Y58612200D02*
X45986019Y58836297D01*
X41722908Y62994418D02*
X41498602Y63000011D01*
X6844880Y55873164D02*
X6980359Y55694307D01*
X6033524Y18940457D02*
X6066966Y18718587D01*
X42169292Y14949740D02*
X41946657Y14977640D01*
X127885779Y93498675D02*
X127930238Y93718603D01*
X45600378Y96350811D02*
X45503025Y96552967D01*
X45278718Y96941478D02*
X45152323Y97126866D01*
X85720003Y73357950D02*
X85872618Y73522429D01*
X49346459Y89452015D02*
X49152144Y89339827D01*
X88494179Y83447069D02*
X88601488Y83250017D01*
X90546126Y72445655D02*
X90750647Y72353372D01*
X48963662Y62218087D02*
X48781482Y62087109D01*
X82722909Y14994408D02*
X82498603Y15000001D01*
X127930238Y36718591D02*
X127963680Y36940461D01*
X92498604Y51000010D02*
X92274297Y50994417D01*
X9606944Y54089234D02*
X9827911Y54050272D01*
X127152325Y73873169D02*
X127278720Y74058557D01*
X85559380Y88798751D02*
X85391147Y88947217D01*
X127830413Y93281237D02*
X127885779Y93498675D01*
X6494177Y69552962D02*
X6396824Y69350806D01*
X85559380Y13798735D02*
X85391147Y13947201D01*
X9606944Y81089240D02*
X9827911Y81050278D01*
X92498604Y24000004D02*
X92274297Y23994411D01*
X42390259Y6089225D02*
X42609010Y6139154D01*
X45764275Y38933197D02*
X45687533Y39144042D01*
X86986020Y94836305D02*
X86963679Y95059566D01*
X47601487Y60750012D02*
X47494178Y60552960D01*
X91388195Y24139157D02*
X91606946Y24089228D01*
X41498602Y63000013D02*
X41722908Y63005607D01*
X86016844Y13305706D02*
X85872618Y13477588D01*
X5999999Y67612202D02*
X5999999Y67387825D01*
X43650744Y80452013D02*
X43451078Y80554375D01*
X6309669Y39144042D02*
X6232927Y38933198D01*
X51050547Y50977649D02*
X50827912Y50949749D01*
X48963662Y63781938D02*
X49152144Y63660204D01*
X90750647Y90353376D02*
X90959513Y90271402D01*
X88396826Y12350794D02*
X88309671Y12144036D01*
X7606057Y64052813D02*
X7781481Y63912916D01*
X45016843Y91694315D02*
X45152323Y91873173D01*
X92274297Y23994411D02*
X92050548Y23977643D01*
X90346460Y71452011D02*
X90152145Y71339823D01*
X126033544Y54781937D02*
X126215723Y54912915D01*
X88066968Y84718601D02*
X88111427Y84498673D01*
X86687534Y17855969D02*
X86764276Y18066814D01*
X45687533Y44855975D02*
X45764275Y45066820D01*
X49152144Y24660196D02*
X49346459Y24548008D01*
X40998601Y63000012D02*
X40998601Y63000013D01*
X86830412Y57281229D02*
X86885778Y57498667D01*
X126720004Y88642083D02*
X126559381Y88798751D01*
X9606944Y63089236D02*
X9827911Y63050274D01*
X51998602Y81000017D02*
X51998602Y81000016D01*
X45885777Y75498671D02*
X45930236Y75718599D01*
X45152323Y22126850D02*
X45016843Y22305708D01*
X6232927Y47933200D02*
X6166791Y47718792D01*
X44720002Y70642079D02*
X44559379Y70798747D01*
X7963661Y33781932D02*
X8152143Y33660198D01*
X6601486Y35250007D02*
X6718484Y35058549D01*
X92274297Y80994423D02*
X92050548Y80977655D01*
X88718486Y30941464D02*
X88601488Y30750006D01*
X127997205Y85612206D02*
X127986021Y85836303D01*
X50827912Y71949753D02*
X50606945Y71910791D01*
X45764275Y20933193D02*
X45687533Y21144038D01*
X85872618Y43522423D02*
X86016844Y43694305D01*
X82498603Y72000013D02*
X81998602Y72000014D01*
X123722910Y32994412D02*
X123498604Y33000005D01*
X88111427Y75498671D02*
X88166793Y75281233D01*
X47033525Y95059566D02*
X47011184Y94836305D01*
X44391146Y73052816D02*
X44559379Y73201282D01*
X92498604Y33000006D02*
X92998603Y33000007D01*
X48437824Y13798736D02*
X48277201Y13642068D01*
X126033544Y23218078D02*
X125845062Y23339812D01*
X88011185Y46163724D02*
X88033526Y45940463D01*
X47494178Y83447069D02*
X47601487Y83250017D01*
X90546126Y6445641D02*
X90750647Y6353358D01*
X47718485Y17058545D02*
X47844881Y16873156D01*
X9827911Y62949751D02*
X9606944Y62910789D01*
X7277200Y22642070D02*
X7124585Y22477590D01*
X91606946Y90089242D02*
X91827913Y90050280D01*
X124825002Y80800093D02*
X124609012Y80860863D01*
X92050548Y50977649D02*
X91827913Y50949749D01*
X86963679Y47059556D02*
X86930237Y47281426D01*
X44391146Y22947203D02*
X44215721Y23087100D01*
X44872617Y25522419D02*
X45016843Y25694301D01*
X43451078Y80554375D02*
X43246558Y80646658D01*
X8750645Y14646645D02*
X8546124Y14554362D01*
X86687534Y96144054D02*
X86600379Y96350811D01*
X41946657Y54022373D02*
X42169292Y54050273D01*
X50827912Y14949741D02*
X50606945Y14910779D01*
X133879126Y528604D02*
X133921084Y617317D01*
X51998602Y72000014D02*
X51498603Y72000014D01*
X7781481Y62087109D02*
X7606057Y61947212D01*
X8346458Y90548022D02*
X8546124Y90445659D01*
X45152323Y7873155D02*
X45278718Y8058543D01*
X86963679Y38059554D02*
X86930237Y38281424D01*
X90346460Y90548022D02*
X90546126Y90445659D01*
X6980359Y40305712D02*
X6844880Y40126855D01*
X47111426Y66498669D02*
X47166792Y66281231D01*
X47309670Y17855969D02*
X47396825Y17649211D01*
X86152324Y73873169D02*
X86278719Y74058557D01*
X89124587Y61477598D02*
X88980361Y61305716D01*
X6166791Y66281231D02*
X6232927Y66066823D01*
X6980359Y55694307D02*
X7124585Y55522425D01*
X6396824Y12350794D02*
X6309669Y12144036D01*
X92498604Y54000010D02*
X87498603Y54000010D01*
X6033524Y45940463D02*
X6066966Y45718593D01*
X88601488Y21750004D02*
X88494179Y21552952D01*
X85033543Y14218076D02*
X84845061Y14339810D01*
X10998601Y24000005D02*
X10998601Y24000005D01*
X40998601Y5000000D02*
X40998601Y6000001D01*
X127600380Y96350811D02*
X127503027Y96552967D01*
X6718484Y87941476D02*
X6601486Y87750018D01*
X45997203Y94387831D02*
X45997203Y94612208D01*
X86687534Y83855983D02*
X86764276Y84066828D01*
X51274296Y41994415D02*
X51050547Y41977647D01*
X123946659Y62977650D02*
X123722910Y62994418D01*
X124609012Y62860859D02*
X124390261Y62910788D01*
X124825002Y32800083D02*
X124609012Y32860853D01*
X47844881Y43873162D02*
X47980360Y43694305D01*
X90750647Y81353374D02*
X90959513Y81271400D01*
X85391147Y97947219D02*
X85215722Y98087116D01*
X48437824Y73201281D02*
X48606058Y73052815D01*
X49152144Y14339811D02*
X48963662Y14218077D01*
X82946658Y80977654D02*
X82722909Y80994422D01*
X127830413Y59718794D02*
X127764277Y59933201D01*
X123722910Y71994420D02*
X123498604Y72000013D01*
X8750645Y71646657D02*
X8546124Y71554374D01*
X9172203Y81199939D02*
X9388193Y81139169D01*
X47718485Y96941478D02*
X47601487Y96750020D01*
X124825002Y98800097D02*
X124609012Y98860867D01*
X49346459Y50452007D02*
X49152144Y50339819D01*
X86152324Y25873159D02*
X86278719Y26058547D01*
X50827912Y6050262D02*
X51050547Y6022362D01*
X81998602Y6000001D02*
X82498603Y6000001D01*
X86600379Y8649210D02*
X86687534Y8855967D01*
X86930237Y47281426D02*
X86885778Y47501354D01*
X90152145Y15660194D02*
X90346460Y15548006D01*
X43650744Y50452007D02*
X43451078Y50554369D01*
X41498602Y51000009D02*
X40998601Y51000010D01*
X126391148Y13947201D02*
X126215723Y14087098D01*
X89124587Y7522415D02*
X89277202Y7357935D01*
X88066968Y59281428D02*
X88033526Y59059558D01*
X88111427Y86501362D02*
X88066968Y86281434D01*
X126391148Y91052820D02*
X126559381Y91201286D01*
X125650746Y15548006D02*
X125845062Y15660195D01*
X127395718Y12750001D02*
X127278720Y12941460D01*
X122998603Y81000017D02*
X123498604Y81000017D01*
X127278720Y12941460D02*
X127152325Y13126848D01*
X10498602Y6000000D02*
X10998601Y6000001D01*
X124825002Y33199930D02*
X125037694Y33271391D01*
X50606945Y50910787D02*
X50388194Y50860858D01*
X122998603Y51000010D02*
X122998603Y51000010D01*
X45963678Y57940465D02*
X45986019Y58163726D01*
X92998603Y42000008D02*
X92998603Y42000008D01*
X6232927Y38933198D02*
X6166791Y38718790D01*
X48277201Y61642078D02*
X48124586Y61477598D01*
X88844882Y61126859D02*
X88718486Y60941470D01*
X43650744Y15548006D02*
X43845060Y15660195D01*
X126033544Y33781933D02*
X126215723Y33912911D01*
X10998601Y81000016D02*
X10498602Y81000016D01*
X47232928Y95933210D02*
X47166792Y95718802D01*
X85033543Y15781929D02*
X85215722Y15912907D01*
X86395717Y17250003D02*
X86503026Y17447056D01*
X6033524Y20059550D02*
X6011183Y19836289D01*
X126033544Y98218094D02*
X125845062Y98339828D01*
X84037693Y6271385D02*
X84246559Y6353359D01*
X45278718Y39941466D02*
X45152323Y40126854D01*
X6011183Y58836297D02*
X5999999Y58612200D01*
X83609011Y90139172D02*
X83825001Y90199942D01*
X88309671Y83855983D02*
X88396826Y83649225D01*
X50172204Y23800082D02*
X49959512Y23728621D01*
X84845061Y23339812D02*
X84650745Y23452001D01*
X86930237Y66718597D02*
X86963679Y66940467D01*
X48606058Y7052801D02*
X48781482Y6912904D01*
X45764275Y36066818D02*
X45830411Y36281225D01*
X47111426Y86501362D02*
X47066967Y86281434D01*
X45830411Y75281233D02*
X45885777Y75498671D01*
X89437825Y34201273D02*
X89606059Y34052807D01*
X6601486Y78750016D02*
X6494177Y78552964D01*
X6309669Y65855979D02*
X6396824Y65649221D01*
X88844882Y91873172D02*
X88980361Y91694315D01*
X9606944Y41910785D02*
X9388193Y41860856D01*
X127930238Y84718601D02*
X127963680Y84940471D01*
X6011183Y67836299D02*
X5999999Y67612202D01*
X88166793Y45281227D02*
X88232929Y45066819D01*
X44559379Y64201280D02*
X44720002Y64357948D01*
X7963661Y90781944D02*
X8152143Y90660210D01*
X127764277Y68933203D02*
X127687535Y69144048D01*
X51498603Y24000004D02*
X51274296Y23994411D01*
X123498604Y15000003D02*
X123722910Y15005597D01*
X86600379Y35649216D02*
X86687534Y35855973D01*
X47396825Y96350812D02*
X47309670Y96144054D01*
X126033544Y6781927D02*
X126215723Y6912905D01*
X90546126Y80554376D02*
X90346460Y80452013D01*
X43246558Y89646660D02*
X43037692Y89728634D01*
X81998602Y15000002D02*
X81998602Y15000002D01*
X50172204Y42199931D02*
X50388194Y42139161D01*
X8959511Y71728631D02*
X8750645Y71646657D01*
X42825000Y6199924D02*
X43037692Y6271385D01*
X91388195Y33139159D02*
X91606946Y33089230D01*
X86395717Y48750009D02*
X86278719Y48941468D01*
X47232928Y20933194D02*
X47166792Y20718786D01*
X7437823Y88798752D02*
X7277200Y88642084D01*
X49152144Y54660202D02*
X49346459Y54548014D01*
X88033526Y18940457D02*
X88066968Y18718587D01*
X86963679Y93940473D02*
X86986020Y94163734D01*
X84037693Y42271393D02*
X84246559Y42353367D01*
X86395717Y87750017D02*
X86278719Y87941476D01*
X84650745Y32452003D02*
X84451079Y32554365D01*
X84037693Y50728626D02*
X83825001Y50800087D01*
X88033526Y59059558D02*
X88011185Y58836297D01*
X127395718Y39750007D02*
X127278720Y39941466D01*
X82722909Y62994418D02*
X82498603Y63000011D01*
X45830411Y36281225D02*
X45885777Y36498663D01*
X45278718Y44058551D02*
X45395716Y44250009D01*
X88718486Y92058561D02*
X88844882Y91873172D01*
X86016844Y82694313D02*
X86152324Y82873171D01*
X10498602Y81000016D02*
X10274295Y80994423D01*
X127152325Y91873173D02*
X127278720Y92058561D01*
X49346459Y54548014D02*
X49546125Y54445651D01*
X84650745Y80452013D02*
X84451079Y80554375D01*
X49152144Y50339819D02*
X48963662Y50218085D01*
X91606946Y14910779D02*
X91388195Y14860850D01*
X45152323Y16873157D02*
X45278718Y17058545D01*
X125650746Y72548018D02*
X125845062Y72660207D01*
X88000001Y37612196D02*
X88000001Y37387819D01*
X5999999Y58612200D02*
X5999999Y58387823D01*
X84650745Y90548022D02*
X84845061Y90660211D01*
X89437825Y70798748D02*
X89277202Y70642080D01*
X85872618Y70477600D02*
X85720003Y70642079D01*
X85033543Y32218080D02*
X84845061Y32339814D01*
X45016843Y49305714D02*
X44872617Y49477596D01*
X81998602Y99000020D02*
X81998602Y100000020D01*
X7606057Y55052811D02*
X7781481Y54912914D01*
X44215721Y98087116D02*
X44033542Y98218094D01*
X7124585Y16522417D02*
X7277200Y16357937D01*
X8546124Y23554364D02*
X8346458Y23452001D01*
X51998602Y24000004D02*
X51498603Y24000004D01*
X124169294Y98949758D02*
X123946659Y98977658D01*
X88396826Y78350808D02*
X88309671Y78144050D01*
X86830412Y77718798D02*
X86764276Y77933205D01*
X85872618Y25522419D02*
X86016844Y25694301D01*
X50388194Y62860860D02*
X50172204Y62800090D01*
X7963661Y54781936D02*
X8152143Y54660202D01*
X90346460Y6548004D02*
X90546126Y6445641D01*
X47980360Y40305712D02*
X47844881Y40126855D01*
X47601487Y8250001D02*
X47718485Y8058543D01*
X85391147Y43052810D02*
X85559380Y43201276D01*
X5999999Y76612204D02*
X5999999Y76387827D01*
X92998603Y24000004D02*
X92998603Y24000004D01*
X86764276Y77933205D02*
X86687534Y78144050D01*
X45997203Y58387823D02*
X45997203Y58612200D01*
X85391147Y91052820D02*
X85559380Y91201286D01*
X6166791Y77718798D02*
X6111425Y77501360D01*
X126391148Y61947211D02*
X126215723Y62087108D01*
X47232928Y93066829D02*
X47309670Y92855985D01*
X89124587Y79477602D02*
X88980361Y79305720D01*
X88011185Y19163718D02*
X88033526Y18940457D01*
X47309670Y83855983D02*
X47396825Y83649225D01*
X86395717Y92250019D02*
X86503026Y92447072D01*
X123722910Y14994408D02*
X123498604Y15000001D01*
X45600378Y8649210D02*
X45687533Y8855967D01*
X8750645Y15353360D02*
X8959511Y15271386D01*
X41946657Y62977650D02*
X41722908Y62994418D01*
X8152143Y72660206D02*
X8346458Y72548018D01*
X126391148Y7052802D02*
X126559381Y7201268D01*
X126872619Y22477590D02*
X126720004Y22642069D01*
X45885777Y95501364D02*
X45830411Y95718802D01*
X123946659Y33022369D02*
X124169294Y33050269D01*
X51998602Y42000008D02*
X51998602Y42000008D01*
X86885778Y66498669D02*
X86930237Y66718597D01*
X88066968Y68281430D02*
X88033526Y68059560D01*
X127687535Y12144036D02*
X127600380Y12350793D01*
X45395716Y8250001D02*
X45503025Y8447054D01*
X49152144Y72660206D02*
X49346459Y72548018D01*
X88980361Y7694297D02*
X89124587Y7522415D01*
X7437823Y79798750D02*
X7277200Y79642082D01*
X8346458Y6548004D02*
X8546124Y6445641D01*
X92274297Y89994425D02*
X92050548Y89977657D01*
X47000000Y76612204D02*
X47000000Y76387827D01*
X125451080Y41554367D02*
X125246560Y41646650D01*
X92050548Y15022364D02*
X92274297Y15005596D01*
X127503027Y65447066D02*
X127600380Y65649222D01*
X89781483Y14087099D02*
X89606059Y13947202D01*
X6718484Y96941478D02*
X6601486Y96750020D01*
X6396824Y8649209D02*
X6494177Y8447053D01*
X86930237Y75718599D02*
X86963679Y75940469D01*
X7606057Y88947218D02*
X7437823Y88798752D01*
X48124586Y70477600D02*
X47980360Y70305718D01*
X42169292Y6050263D02*
X42390259Y6089225D01*
X43650744Y72548018D02*
X43845060Y72660207D01*
X50388194Y6139153D02*
X50606945Y6089224D01*
X126033544Y15781929D02*
X126215723Y15912907D01*
X6232927Y93066829D02*
X6309669Y92855985D01*
X85215722Y41087104D02*
X85033543Y41218082D01*
X86016844Y34694303D02*
X86152324Y34873161D01*
X7437823Y70798748D02*
X7277200Y70642080D01*
X83825001Y41800085D02*
X83609011Y41860855D01*
X45764275Y29933195D02*
X45687533Y30144040D01*
X44872617Y61477598D02*
X44720002Y61642077D01*
X83390260Y41910784D02*
X83169293Y41949746D01*
X45930236Y86281434D02*
X45885777Y86501362D01*
X83169293Y23949742D02*
X82946658Y23977642D01*
X127764277Y86933207D02*
X127687535Y87144052D01*
X91172205Y98800098D02*
X90959513Y98728637D01*
X88000001Y37387819D02*
X88011185Y37163722D01*
X45830411Y84281235D02*
X45885777Y84498673D01*
X48437824Y25201271D02*
X48606058Y25052805D01*
X51050547Y41977647D02*
X50827912Y41949747D01*
X86395717Y96750019D02*
X86278719Y96941478D01*
X90546126Y62554372D02*
X90346460Y62452009D01*
X6309669Y17855969D02*
X6396824Y17649211D01*
X6980359Y88305722D02*
X6844880Y88126865D01*
X83169293Y72050277D02*
X83390260Y72089239D01*
X49152144Y23339813D02*
X48963662Y23218079D01*
X42169292Y32949744D02*
X41946657Y32977644D01*
X42169292Y50949748D02*
X41946657Y50977648D01*
X86503026Y35447060D02*
X86600379Y35649216D01*
X124609012Y14860849D02*
X124390261Y14910778D01*
X6718484Y44058551D02*
X6844880Y43873162D01*
X124609012Y23860851D02*
X124390261Y23910780D01*
X125037694Y32728622D02*
X124825002Y32800083D01*
X45986019Y85163732D02*
X45997203Y85387829D01*
X88033526Y45940463D02*
X88066968Y45718593D01*
X42390259Y81089241D02*
X42609010Y81139170D01*
X9827911Y80949755D02*
X9606944Y80910793D01*
X82946658Y42022371D02*
X83169293Y42050271D01*
X41498602Y15000001D02*
X40998601Y15000002D01*
X126720004Y40642073D02*
X126559381Y40798741D01*
X92050548Y33022368D02*
X92274297Y33005600D01*
X9172203Y80800094D02*
X8959511Y80728633D01*
X91388195Y89860866D02*
X91172205Y89800096D01*
X47844881Y7873154D02*
X47980360Y7694297D01*
X7781481Y54912914D02*
X7963661Y54781936D01*
X91388195Y90139171D02*
X91606946Y90089242D01*
X44215721Y23087100D02*
X44033542Y23218078D01*
X92274297Y32994413D02*
X92050548Y32977645D01*
X47494178Y8447053D02*
X47601487Y8250001D01*
X6011183Y58163726D02*
X6033524Y57940465D01*
X43451078Y14554361D02*
X43246558Y14646644D01*
X40998601Y24000004D02*
X40998601Y24000004D01*
X86830412Y68718796D02*
X86764276Y68933203D01*
X127278720Y60941470D02*
X127152325Y61126858D01*
X47033525Y75940469D02*
X47066967Y75718599D01*
X127152325Y43873163D02*
X127278720Y44058551D01*
X10498602Y81000016D02*
X10998601Y81000017D01*
X46498602Y51000010D02*
X51498603Y51000010D01*
X88844882Y13126849D02*
X88718486Y12941460D01*
X89277202Y25357939D02*
X89437825Y25201271D01*
X127986021Y85836303D02*
X127963680Y86059564D01*
X43451078Y63445654D02*
X43650744Y63548016D01*
X88066968Y66718597D02*
X88111427Y66498669D01*
X126215723Y42912913D02*
X126391148Y43052810D01*
X128997205Y5000000D02*
X122998603Y5000000D01*
X6844880Y88126865D02*
X6718484Y87941476D01*
X123946659Y15022365D02*
X124169294Y15050265D01*
X45930236Y75718599D02*
X45963678Y75940469D01*
X92998603Y24000004D02*
X92498604Y24000004D01*
X47066967Y27718589D02*
X47111426Y27498661D01*
X126559381Y73201282D02*
X126720004Y73357950D01*
X45016843Y70305718D02*
X44872617Y70477600D01*
X6033524Y57940465D02*
X6066966Y57718595D01*
X45830411Y47718792D02*
X45764275Y47933199D01*
X40998601Y72000014D02*
X40998601Y72000014D01*
X92050548Y14977641D02*
X91827913Y14949741D01*
X122998603Y54000011D02*
X122998603Y54000011D01*
X124825002Y15199926D02*
X125037694Y15271387D01*
X125246560Y42353367D02*
X125451080Y42445650D01*
X6011183Y37163722D02*
X6033524Y36940461D01*
X127278720Y74058557D02*
X127395718Y74250015D01*
X89606059Y73052815D02*
X89781483Y72912918D01*
X86687534Y78144050D02*
X86600379Y78350807D01*
X85033543Y62218086D02*
X84845061Y62339820D01*
X127963680Y57940465D02*
X127986021Y58163726D01*
X127503027Y78552963D02*
X127395718Y78750015D01*
X127503027Y21552951D02*
X127395718Y21750003D01*
X45503025Y21552951D02*
X45395716Y21750003D01*
X47309670Y65855979D02*
X47396825Y65649221D01*
X81998602Y81000017D02*
X82498603Y81000017D01*
X88011185Y76836301D02*
X88000001Y76612204D01*
X89437825Y55201277D02*
X89606059Y55052811D01*
X45152323Y70126860D02*
X45016843Y70305718D01*
X81998602Y72000015D02*
X82498603Y72000015D01*
X47011184Y19836289D02*
X47000000Y19612192D01*
X47232928Y29933196D02*
X47166792Y29718788D01*
X47601487Y26250005D02*
X47718485Y26058547D01*
X47033525Y47059556D02*
X47011184Y46836295D01*
X91172205Y50800088D02*
X90959513Y50728627D01*
X10998601Y15000003D02*
X10998601Y15000002D01*
X48781482Y90912922D02*
X48963662Y90781944D01*
X6844880Y70126861D02*
X6718484Y69941472D01*
X43845060Y62339820D02*
X43650744Y62452009D01*
X84451079Y62554371D02*
X84246559Y62646654D01*
X45997203Y28612194D02*
X45986019Y28836291D01*
X50172204Y63199935D02*
X50388194Y63139165D01*
X44033542Y98218094D02*
X43845060Y98339828D01*
X44559379Y25201272D02*
X44720002Y25357940D01*
X6232927Y36066817D02*
X6309669Y35855973D01*
X89277202Y79642082D02*
X89124587Y79477602D01*
X126872619Y34522421D02*
X127016845Y34694303D01*
X88396826Y30350798D02*
X88309671Y30144040D01*
X6066966Y18718587D02*
X6111425Y18498659D01*
X88309671Y48144044D02*
X88232929Y47933200D01*
X44391146Y97947219D02*
X44215721Y98087116D01*
X86997204Y58612200D02*
X86986020Y58836297D01*
X45830411Y38718790D02*
X45764275Y38933197D01*
X41722908Y50994416D02*
X41498602Y51000009D01*
X85559380Y25201272D02*
X85720003Y25357940D01*
X85559380Y73201282D02*
X85720003Y73357950D01*
X88011185Y76163730D02*
X88033526Y75940469D01*
X43650744Y89452015D02*
X43451078Y89554377D01*
X47601487Y17250003D02*
X47718485Y17058545D01*
X47980360Y49305714D02*
X47844881Y49126857D01*
X92498604Y51000010D02*
X92998603Y51000010D01*
X44559379Y34201274D02*
X44720002Y34357942D01*
X45764275Y66066824D02*
X45830411Y66281231D01*
X6066966Y77281432D02*
X6033524Y77059562D01*
X41498602Y33000005D02*
X40998601Y33000006D01*
X124609012Y90139172D02*
X124825002Y90199942D01*
X85559380Y79798749D02*
X85391147Y79947215D01*
X83169293Y71949752D02*
X82946658Y71977652D01*
X43246558Y63353371D02*
X43451078Y63445654D01*
X84845061Y24660197D02*
X85033543Y24781931D01*
X125845062Y54660203D02*
X126033544Y54781937D01*
X10498602Y54000010D02*
X10998601Y54000011D01*
X50606945Y62910789D02*
X50388194Y62860860D01*
X90152145Y50339819D02*
X89963663Y50218085D01*
X84650745Y89452015D02*
X84451079Y89554377D01*
X47396825Y48350802D02*
X47309670Y48144044D01*
X127963680Y93940473D02*
X127986021Y94163734D01*
X45997203Y67612202D02*
X45986019Y67836299D01*
X133552775Y168531D02*
X133631598Y226990D01*
X7437823Y40798742D02*
X7277200Y40642074D01*
X43650744Y32452003D02*
X43451078Y32554365D01*
X42390259Y24089229D02*
X42609010Y24139158D01*
X6033524Y59059558D02*
X6011183Y58836297D01*
X88111427Y66498669D02*
X88166793Y66281231D01*
X50606945Y33089230D02*
X50827912Y33050268D01*
X7124585Y70477600D02*
X6980359Y70305718D01*
X85391147Y13947201D02*
X85215722Y14087098D01*
X47011184Y94836305D02*
X47000000Y94612208D01*
X9827911Y23949743D02*
X9606944Y23910781D01*
X7781481Y6912904D02*
X7963661Y6781926D01*
X82946658Y41977646D02*
X82722909Y41994414D01*
X47166792Y45281227D02*
X47232928Y45066819D01*
X81998602Y100000020D02*
X92998603Y100000020D01*
X6396824Y30350798D02*
X6309669Y30144040D01*
X42390259Y63089237D02*
X42609010Y63139166D01*
X45395716Y60750011D02*
X45278718Y60941470D01*
X127503027Y12552949D02*
X127395718Y12750001D01*
X84037693Y90271403D02*
X84246559Y90353377D01*
X133954145Y709716D02*
X133977990Y804910D01*
X88718486Y83058559D02*
X88844882Y82873170D01*
X127503027Y35447060D02*
X127600380Y35649216D01*
X8346458Y42548012D02*
X8546124Y42445649D01*
X88066968Y18718587D02*
X88111427Y18498659D01*
X127885779Y18498659D02*
X127930238Y18718587D01*
X51050547Y33022368D02*
X51274296Y33005600D01*
X45997203Y10387813D02*
X45997203Y10612190D01*
X9388193Y54139163D02*
X9606944Y54089234D01*
X127687535Y92855985D02*
X127764277Y93066830D01*
X124169294Y72050277D02*
X124390261Y72089239D01*
X85391147Y16052804D02*
X85559380Y16201270D01*
X89437825Y25201271D02*
X89606059Y25052805D01*
X87498603Y54000010D02*
X81998602Y54000010D01*
X83825001Y71800091D02*
X83609011Y71860861D01*
X86278719Y60941470D02*
X86152324Y61126858D01*
X10998601Y99000020D02*
X10498602Y99000020D01*
X47309670Y12144036D02*
X47232928Y11933192D01*
X83390260Y98910796D02*
X83169293Y98949758D01*
X92998603Y54000011D02*
X92998603Y54000011D01*
X91172205Y6199923D02*
X91388195Y6139153D01*
X44033542Y15781929D02*
X44215721Y15912907D01*
X91827913Y80949755D02*
X91606946Y80910793D01*
X42825000Y72199938D02*
X43037692Y72271399D01*
X42169292Y23949742D02*
X41946657Y23977642D01*
X88396826Y56649219D02*
X88494179Y56447063D01*
X49152144Y42660200D02*
X49346459Y42548012D01*
X127278720Y65058555D02*
X127395718Y65250013D01*
X49346459Y33548010D02*
X49546125Y33445647D01*
X133921084Y104382704D02*
X133879126Y104471417D01*
X43451078Y62554371D02*
X43246558Y62646654D01*
X10274295Y50994417D02*
X10050546Y50977649D01*
X47232928Y59933202D02*
X47166792Y59718794D01*
X127885779Y20501348D02*
X127830413Y20718786D01*
X85033543Y50218084D02*
X84845061Y50339818D01*
X9388193Y90139171D02*
X9606944Y90089242D01*
X91172205Y32800084D02*
X90959513Y32728623D01*
X88844882Y55873164D02*
X88980361Y55694307D01*
X92998603Y5000000D02*
X81998602Y5000000D01*
X45830411Y68718796D02*
X45764275Y68933203D01*
X41722908Y98994426D02*
X41498602Y99000019D01*
X365606Y104773031D02*
X292893Y104707127D01*
X86930237Y45718593D02*
X86963679Y45940463D01*
X86930237Y20281420D02*
X86885778Y20501348D01*
X9827911Y90050280D02*
X10050546Y90022380D01*
X9172203Y98800098D02*
X8959511Y98728637D01*
X86830412Y38718790D02*
X86764276Y38933197D01*
X47232928Y27066815D02*
X47309670Y26855971D01*
X6111425Y86501362D02*
X6066966Y86281434D01*
X6980359Y79305720D02*
X6844880Y79126863D01*
X127830413Y95718802D02*
X127764277Y95933209D01*
X42609010Y63139166D02*
X42825000Y63199936D01*
X44215721Y42912913D02*
X44391146Y43052810D01*
X86687534Y12144036D02*
X86600379Y12350793D01*
X41722908Y81005611D02*
X41946657Y81022379D01*
X127687535Y65855979D02*
X127764277Y66066824D01*
X125845062Y6660193D02*
X126033544Y6781927D01*
X6601486Y17250003D02*
X6718484Y17058545D01*
X47066967Y9718585D02*
X47111426Y9498657D01*
X125845062Y72660207D02*
X126033544Y72781941D01*
X44559379Y88798751D02*
X44391146Y88947217D01*
X47011184Y67163728D02*
X47033525Y66940467D01*
X85872618Y31477592D02*
X85720003Y31642071D01*
X10498602Y42000008D02*
X10274295Y41994415D01*
X50172204Y98800098D02*
X49959512Y98728637D01*
X42390259Y42089233D02*
X42609010Y42139162D01*
X86600379Y21350795D02*
X86503026Y21552951D01*
X41946657Y72022377D02*
X42169292Y72050277D01*
X122998603Y54000011D02*
X123498604Y54000011D01*
X6494177Y30552954D02*
X6396824Y30350798D01*
X6980359Y49305714D02*
X6844880Y49126857D01*
X89277202Y40642074D02*
X89124587Y40477594D01*
X86963679Y11059548D02*
X86930237Y11281418D01*
X125845062Y80339824D02*
X125650746Y80452013D01*
X88494179Y60552960D02*
X88396826Y60350804D01*
X42825000Y80800093D02*
X42609010Y80860863D01*
X86963679Y95059566D02*
X86930237Y95281436D01*
X6111425Y59501356D02*
X6066966Y59281428D01*
X51998602Y54000011D02*
X51998602Y54000011D01*
X88396826Y44649217D02*
X88494179Y44447061D01*
X6601486Y60750012D02*
X6494177Y60552960D01*
X51274296Y90005612D02*
X51498603Y90000018D01*
X85215722Y62087108D02*
X85033543Y62218086D01*
X47718485Y74058557D02*
X47844881Y73873168D01*
X51498603Y90000018D02*
X51998602Y90000019D01*
X9172203Y24199927D02*
X9388193Y24139157D01*
X51498603Y15000002D02*
X51998602Y15000003D01*
X89437825Y88798752D02*
X89277202Y88642084D01*
X88309671Y96144054D02*
X88232929Y95933210D01*
X83825001Y32800083D02*
X83609011Y32860853D01*
X45687533Y21144038D02*
X45600378Y21350795D01*
X7781481Y24912908D02*
X7963661Y24781930D01*
X43650744Y81548020D02*
X43845060Y81660209D01*
X127930238Y27718589D02*
X127963680Y27940459D01*
X7124585Y22477590D02*
X6980359Y22305708D01*
X122998603Y63000012D02*
X122998603Y63000013D01*
X41498602Y90000017D02*
X40998601Y90000018D01*
X125246560Y89646660D02*
X125037694Y89728634D01*
X86395717Y12750001D02*
X86278719Y12941460D01*
X6309669Y56855977D02*
X6396824Y56649219D01*
X8959511Y90271402D02*
X9172203Y90199941D01*
X10998601Y81000016D02*
X10998601Y81000016D01*
X45963678Y9940455D02*
X45986019Y10163716D01*
X48606058Y31947206D02*
X48437824Y31798740D01*
X6980359Y25694301D02*
X7124585Y25522419D01*
X51498603Y15000002D02*
X51274296Y14994409D01*
X8546124Y71554374D02*
X8346458Y71452011D01*
X45395716Y17250003D02*
X45503025Y17447056D01*
X5999999Y94387831D02*
X6011183Y94163734D01*
X85215722Y32087102D02*
X85033543Y32218080D01*
X42169292Y98949758D02*
X41946657Y98977658D01*
X6166791Y57281229D02*
X6232927Y57066821D01*
X85033543Y23218078D02*
X84845061Y23339812D01*
X91606946Y24089228D02*
X91827913Y24050266D01*
X85033543Y24781931D02*
X85215722Y24912909D01*
X127986021Y28163720D02*
X127997205Y28387817D01*
X50172204Y14800080D02*
X49959512Y14728619D01*
X82722909Y32994412D02*
X82498603Y33000005D01*
X49152144Y90660210D02*
X49346459Y90548022D01*
X82722909Y50994416D02*
X82498603Y51000009D01*
X5999999Y37612196D02*
X5999999Y37387819D01*
X127986021Y46163724D02*
X127997205Y46387821D01*
X123722910Y90005613D02*
X123946659Y90022381D01*
X44033542Y63781939D02*
X44215721Y63912917D01*
X44033542Y50218084D02*
X43845060Y50339818D01*
X45016843Y22305708D02*
X44872617Y22477590D01*
X47166792Y84281235D02*
X47232928Y84066827D01*
X44215721Y50087106D02*
X44033542Y50218084D01*
X47166792Y77718798D02*
X47111426Y77501360D01*
X127885779Y95501364D02*
X127830413Y95718802D01*
X91827913Y15050264D02*
X92050548Y15022364D01*
X92050548Y6022362D02*
X92274297Y6005594D01*
X125037694Y50728626D02*
X124825002Y50800087D01*
X88166793Y95718802D02*
X88111427Y95501364D01*
X88718486Y26058547D02*
X88844882Y25873158D01*
X84650745Y71452011D02*
X84451079Y71554373D01*
X49546125Y72445655D02*
X49750646Y72353372D01*
X10998601Y90000018D02*
X10498602Y90000018D01*
X123722910Y62994418D02*
X123498604Y63000011D01*
X10998601Y24000004D02*
X10498602Y24000004D01*
X83390260Y80910792D02*
X83169293Y80949754D01*
X48606058Y25052805D02*
X48781482Y24912908D01*
X81998602Y51000010D02*
X81998602Y51000010D01*
X92998603Y81000016D02*
X92998603Y81000016D01*
X48124586Y40477594D02*
X47980360Y40305712D01*
X81998602Y33000006D02*
X81998602Y33000006D01*
X40998601Y42000008D02*
X40998601Y42000009D01*
X127764277Y75066826D02*
X127830413Y75281233D01*
X47232928Y84066827D02*
X47309670Y83855983D01*
X91606946Y6089224D02*
X91827913Y6050262D01*
X48963662Y14218077D02*
X48781482Y14087099D01*
X127503027Y8447054D02*
X127600380Y8649210D01*
X9388193Y32860854D02*
X9172203Y32800084D01*
X88111427Y59501356D02*
X88066968Y59281428D01*
X6011183Y28836291D02*
X5999999Y28612194D01*
X84037693Y80728632D02*
X83825001Y80800093D01*
X8546124Y89554378D02*
X8346458Y89452015D01*
X51498603Y6000000D02*
X51998602Y6000001D01*
X47980360Y43694305D02*
X48124586Y43522423D01*
X88033526Y77059562D02*
X88011185Y76836301D01*
X51998602Y24000004D02*
X51998602Y24000004D01*
X124390261Y50910786D02*
X124169294Y50949748D01*
X86997204Y46612198D02*
X86986020Y46836295D01*
X6844880Y13126849D02*
X6718484Y12941460D01*
X48963662Y80218091D02*
X48781482Y80087113D01*
X45503025Y74447068D02*
X45600378Y74649224D01*
X6033524Y68059560D02*
X6011183Y67836299D01*
X86963679Y66940467D02*
X86986020Y67163728D01*
X89781483Y98087117D02*
X89606059Y97947220D01*
X91827913Y32949745D02*
X91606946Y32910783D01*
X124169294Y15050265D02*
X124390261Y15089227D01*
X7277200Y7357935D02*
X7437823Y7201267D01*
X6066966Y38281424D02*
X6033524Y38059554D01*
X126215723Y41087104D02*
X126033544Y41218082D01*
X44872617Y73522429D02*
X45016843Y73694311D01*
X91827913Y54050272D02*
X92050548Y54022372D01*
X127152325Y55873165D02*
X127278720Y56058553D01*
X86152324Y7873155D02*
X86278719Y8058543D01*
X43037692Y14728618D02*
X42825000Y14800079D01*
X86600379Y56649220D02*
X86687534Y56855977D01*
X9606944Y50910787D02*
X9388193Y50860858D01*
X127600380Y39350799D02*
X127503027Y39552955D01*
X86395717Y78750015D02*
X86278719Y78941474D01*
X88601488Y69750014D02*
X88494179Y69552962D01*
X86016844Y97305724D02*
X85872618Y97477606D01*
X43845060Y98339828D02*
X43650744Y98452017D01*
X6166791Y59718794D02*
X6111425Y59501356D01*
X44391146Y43052810D02*
X44559379Y43201276D01*
X47494178Y17447055D02*
X47601487Y17250003D01*
X40998601Y24000005D02*
X41498602Y24000005D01*
X48963662Y6781926D02*
X49152144Y6660192D01*
X42609010Y89860865D02*
X42390259Y89910794D01*
X84451079Y72445656D02*
X84650745Y72548018D01*
X86016844Y16694299D02*
X86152324Y16873157D01*
X45687533Y60144046D02*
X45600378Y60350803D01*
X86503026Y78552963D02*
X86395717Y78750015D01*
X42169292Y72050277D02*
X42390259Y72089239D01*
X45963678Y59059558D02*
X45930236Y59281428D01*
X7124585Y79477602D02*
X6980359Y79305720D01*
X44391146Y13947201D02*
X44215721Y14087098D01*
X5000000Y54000010D02*
X5000000Y100000020D01*
X9172203Y90199941D02*
X9388193Y90139171D01*
X124825002Y90199942D02*
X125037694Y90271403D01*
X7606057Y31947206D02*
X7437823Y31798740D01*
X123946659Y89977656D02*
X123722910Y89994424D01*
X49346459Y14451999D02*
X49152144Y14339811D01*
X127963680Y29059552D02*
X127930238Y29281422D01*
X5999999Y10387813D02*
X6011183Y10163716D01*
X91172205Y62800090D02*
X90959513Y62728629D01*
X85033543Y41218082D02*
X84845061Y41339816D01*
X44215721Y6912905D02*
X44391146Y7052802D01*
X123498604Y24000003D02*
X122998603Y24000004D01*
X8959511Y42271392D02*
X9172203Y42199931D01*
X84650745Y33548010D02*
X84845061Y33660199D01*
X47166792Y18281221D02*
X47232928Y18066813D01*
X86278719Y56058553D02*
X86395717Y56250011D01*
X89781483Y80087113D02*
X89606059Y79947216D01*
X88033526Y27940459D02*
X88066968Y27718589D01*
X133095222Y104995205D02*
X132997205Y105000020D01*
X127687535Y74855981D02*
X127764277Y75066826D01*
X127687535Y56855977D02*
X127764277Y57066822D01*
X92274297Y71994421D02*
X92050548Y71977653D01*
X44033542Y33781933D02*
X44215721Y33912911D01*
X125650746Y23452001D02*
X125451080Y23554363D01*
X45930236Y47281426D02*
X45885777Y47501354D01*
X9606944Y14910779D02*
X9388193Y14860850D01*
X126559381Y55201278D02*
X126720004Y55357946D01*
X123946659Y90022381D02*
X124169294Y90050281D01*
X901982Y4816D02*
X1000000Y0D01*
X124609012Y24139158D02*
X124825002Y24199928D01*
X125451080Y6445642D02*
X125650746Y6548004D01*
X43845060Y71339822D02*
X43650744Y71452011D01*
X88232929Y47933200D02*
X88166793Y47718792D01*
X43845060Y24660197D02*
X44033542Y24781931D01*
X89437825Y40798742D02*
X89277202Y40642074D01*
X43037692Y90271403D02*
X43246558Y90353377D01*
X90750647Y89646661D02*
X90546126Y89554378D01*
X47844881Y82873170D02*
X47980360Y82694313D01*
X51998602Y54000010D02*
X51498603Y54000010D01*
X88166793Y20718786D02*
X88111427Y20501348D01*
X8152143Y62339821D02*
X7963661Y62218087D01*
X45278718Y35058549D02*
X45395716Y35250007D01*
X45016843Y88305722D02*
X44872617Y88477604D01*
X126215723Y71087110D02*
X126033544Y71218088D01*
X6033524Y84940471D02*
X6066966Y84718601D01*
X7277200Y70642080D02*
X7124585Y70477600D01*
X92050548Y80977655D02*
X91827913Y80949755D01*
X122998603Y15000002D02*
X122998603Y15000003D01*
X126215723Y6912905D02*
X126391148Y7052802D01*
X90959513Y33271390D02*
X91172205Y33199929D01*
X6396824Y92649227D02*
X6494177Y92447071D01*
X48963662Y23218079D02*
X48781482Y23087101D01*
X48963662Y54781936D02*
X49152144Y54660202D01*
X50172204Y41800086D02*
X49959512Y41728625D01*
X45687533Y78144050D02*
X45600378Y78350807D01*
X126033544Y90781945D02*
X126215723Y90912923D01*
X92274297Y50994417D02*
X92050548Y50977649D01*
X47309670Y39144042D02*
X47232928Y38933198D01*
X6718484Y69941472D02*
X6601486Y69750014D01*
X47980360Y55694307D02*
X48124586Y55522425D01*
X49750646Y15353360D02*
X49959512Y15271386D01*
X127152325Y13126848D02*
X127016845Y13305706D01*
X40998601Y81000017D02*
X41498602Y81000017D01*
X124825002Y81199940D02*
X125037694Y81271401D01*
X86016844Y55694307D02*
X86152324Y55873165D01*
X45152323Y88126864D02*
X45016843Y88305722D01*
X49346459Y80452013D02*
X49152144Y80339825D01*
X90152145Y89339827D02*
X89963663Y89218093D01*
X90152145Y32339815D02*
X89963663Y32218081D01*
X45830411Y66281231D02*
X45885777Y66498669D01*
X133997205Y104000020D02*
X133992389Y104098038D01*
X126215723Y33912911D02*
X126391148Y34052808D01*
X85391147Y55052812D02*
X85559380Y55201278D01*
X88396826Y17649211D02*
X88494179Y17447055D01*
X51050547Y6022362D02*
X51274296Y6005594D01*
X7437823Y13798736D02*
X7277200Y13642068D01*
X89437825Y16201269D02*
X89606059Y16052803D01*
X92998603Y33000006D02*
X92498604Y33000006D01*
X51050547Y32977645D02*
X50827912Y32949745D01*
X6601486Y87750018D02*
X6494177Y87552966D01*
X124169294Y50949748D02*
X123946659Y50977648D01*
X10498602Y33000006D02*
X10998601Y33000007D01*
X51998602Y90000019D02*
X51998602Y90000018D01*
X86016844Y61305716D02*
X85872618Y61477598D01*
X48124586Y31477592D02*
X47980360Y31305710D01*
X124609012Y50860857D02*
X124390261Y50910786D01*
X125845062Y62339820D02*
X125650746Y62452009D01*
X6033524Y38059554D02*
X6011183Y37836293D01*
X88980361Y97305724D02*
X88844882Y97126867D01*
X51498603Y42000008D02*
X51274296Y41994415D01*
X7277200Y91357953D02*
X7437823Y91201285D01*
X45152323Y79126862D02*
X45016843Y79305720D01*
X88844882Y79126863D02*
X88718486Y78941474D01*
X84246559Y54353369D02*
X84451079Y54445652D01*
X49152144Y63660204D02*
X49346459Y63548016D01*
X48606058Y79947216D02*
X48437824Y79798750D01*
X48277201Y16357937D02*
X48437824Y16201269D01*
X89781483Y32087103D02*
X89606059Y31947206D01*
X88111427Y36498663D02*
X88166793Y36281225D01*
X83169293Y80949754D02*
X82946658Y80977654D01*
X91827913Y62949751D02*
X91606946Y62910789D01*
X10998601Y15000002D02*
X10498602Y15000002D01*
X81998602Y51000010D02*
X87498603Y51000010D01*
X42169292Y80949754D02*
X41946657Y80977654D01*
X50606945Y54089234D02*
X50827912Y54050272D01*
X91388195Y15139155D02*
X91606946Y15089226D01*
X43451078Y54445652D02*
X43650744Y54548014D01*
X127152325Y25873159D02*
X127278720Y26058547D01*
X81998602Y90000019D02*
X82498603Y90000019D01*
X42169292Y41949746D02*
X41946657Y41977646D01*
X49346459Y72548018D02*
X49546125Y72445655D01*
X88011185Y28836291D02*
X88000001Y28612194D01*
X84845061Y6660193D02*
X85033543Y6781927D01*
X8750645Y32646649D02*
X8546124Y32554366D01*
X127930238Y45718593D02*
X127963680Y45940463D01*
X45930236Y95281436D02*
X45885777Y95501364D01*
X89124587Y16522417D02*
X89277202Y16357937D01*
X41946657Y42022371D02*
X42169292Y42050271D01*
X7437823Y82201283D02*
X7606057Y82052817D01*
X88033526Y9940455D02*
X88066968Y9718585D01*
X45278718Y12941460D02*
X45152323Y13126848D01*
X83169293Y32949744D02*
X82946658Y32977644D01*
X47601487Y35250007D02*
X47718485Y35058549D01*
X86764276Y47933199D02*
X86687534Y48144044D01*
X44215721Y24912909D02*
X44391146Y25052806D01*
X10498602Y72000014D02*
X10274295Y71994421D01*
X8346458Y81548020D02*
X8546124Y81445657D01*
X84845061Y89339826D02*
X84650745Y89452015D01*
X85559380Y97798753D02*
X85391147Y97947219D01*
X45986019Y37163722D02*
X45997203Y37387819D01*
X6011183Y76836301D02*
X5999999Y76612204D01*
X84451079Y24445646D02*
X84650745Y24548008D01*
X7437823Y25201271D02*
X7606057Y25052805D01*
X44559379Y79798749D02*
X44391146Y79947215D01*
X92050548Y42022370D02*
X92274297Y42005602D01*
X45986019Y28163720D02*
X45997203Y28387817D01*
X84037693Y54271395D02*
X84246559Y54353369D01*
X8346458Y89452015D02*
X8152143Y89339827D01*
X6309669Y35855973D02*
X6396824Y35649215D01*
X127986021Y58163726D02*
X127997205Y58387823D01*
X8959511Y24271388D02*
X9172203Y24199927D01*
X88718486Y56058553D02*
X88844882Y55873164D01*
X86930237Y9718585D02*
X86963679Y9940455D01*
X126720004Y49642075D02*
X126559381Y49798743D01*
X45503025Y78552963D02*
X45395716Y78750015D01*
X51998602Y90000018D02*
X51498603Y90000018D01*
X6232927Y18066813D02*
X6309669Y17855969D01*
X44720002Y16357938D02*
X44872617Y16522417D01*
X45986019Y10836287D02*
X45963678Y11059548D01*
X92050548Y98977659D02*
X92050548Y98977659D01*
X6166791Y20718786D02*
X6111425Y20501348D01*
X124609012Y80860863D02*
X124390261Y80910792D01*
X91172205Y15199925D02*
X91388195Y15139155D01*
X127997205Y37612196D02*
X127986021Y37836293D01*
X292893Y104707127D02*
X226989Y104634414D01*
X10998601Y6000001D02*
X10998601Y5000000D01*
X84246559Y98646662D02*
X84037693Y98728636D01*
X124169294Y41949746D02*
X123946659Y41977646D01*
X45395716Y83250017D02*
X45503025Y83447070D01*
X86395717Y21750003D02*
X86278719Y21941462D01*
X125451080Y23554363D02*
X125246560Y23646646D01*
X127885779Y29501350D02*
X127830413Y29718788D01*
X6844880Y79126863D02*
X6718484Y78941474D01*
X8546124Y63445653D02*
X8750645Y63353370D01*
X88980361Y16694299D02*
X89124587Y16522417D01*
X89124587Y43522423D02*
X89277202Y43357943D01*
X84845061Y54660203D02*
X85033543Y54781937D01*
X86687534Y48144044D02*
X86600379Y48350801D01*
X88232929Y95933210D02*
X88166793Y95718802D01*
X40998601Y24000004D02*
X40998601Y24000005D01*
X88718486Y87941476D02*
X88601488Y87750018D01*
X88033526Y84940471D02*
X88066968Y84718601D01*
X127963680Y47059556D02*
X127930238Y47281426D01*
X51998602Y100000020D02*
X51998602Y99000020D01*
X81998602Y72000014D02*
X81998602Y72000015D01*
X86016844Y64694309D02*
X86152324Y64873167D01*
X91388195Y42139161D02*
X91606946Y42089232D01*
X10274295Y50994417D02*
X10274295Y50994417D01*
X8959511Y32728623D02*
X8750645Y32646649D01*
X86997204Y10387813D02*
X86997204Y10612190D01*
X127930238Y75718599D02*
X127963680Y75940469D01*
X45830411Y86718800D02*
X45764275Y86933207D01*
X48606058Y73052815D02*
X48781482Y72912918D01*
X83825001Y80800093D02*
X83609011Y80860863D01*
X6844880Y43873162D02*
X6980359Y43694305D01*
X133921084Y617317D02*
X133954145Y709716D01*
X51498603Y33000006D02*
X51274296Y32994413D01*
X45600378Y74649224D02*
X45687533Y74855981D01*
X127503027Y87552965D02*
X127395718Y87750017D01*
X88601488Y12750002D02*
X88494179Y12552950D01*
X51498603Y63000012D02*
X51274296Y62994419D01*
X6396824Y39350800D02*
X6309669Y39144042D01*
X88033526Y66940467D02*
X88066968Y66718597D01*
X123498604Y99000019D02*
X122998603Y99000020D01*
X49546125Y23554364D02*
X49346459Y23452001D01*
X127687535Y21144038D02*
X127600380Y21350795D01*
X45016843Y82694313D02*
X45152323Y82873171D01*
X6309669Y12144036D02*
X6232927Y11933192D01*
X45930236Y9718585D02*
X45963678Y9940455D01*
X124825002Y89800095D02*
X124609012Y89860865D01*
X6494177Y74447067D02*
X6601486Y74250015D01*
X86986020Y37163722D02*
X86997204Y37387819D01*
X126215723Y62087108D02*
X126033544Y62218086D01*
X90959513Y63271396D02*
X91172205Y63199935D01*
X88980361Y70305718D02*
X88844882Y70126861D01*
X45930236Y29281422D02*
X45885777Y29501350D01*
X47166792Y38718790D02*
X47111426Y38501352D01*
X45930236Y57718595D02*
X45963678Y57940465D01*
X123498604Y51000009D02*
X122998603Y51000010D01*
X90152145Y24660196D02*
X90346460Y24548008D01*
X124169294Y89949756D02*
X123946659Y89977656D01*
X86963679Y45940463D02*
X86986020Y46163724D01*
X49750646Y62646655D02*
X49546125Y62554372D01*
X86600379Y83649226D02*
X86687534Y83855983D01*
X44720002Y34357942D02*
X44872617Y34522421D01*
X51998602Y15000003D02*
X51998602Y15000002D01*
X49152144Y33660198D02*
X49346459Y33548010D01*
X127016845Y97305724D02*
X126872619Y97477606D01*
X122998603Y5000000D02*
X122998603Y6000001D01*
X126872619Y49477596D02*
X126720004Y49642075D01*
X48963662Y32218081D02*
X48781482Y32087103D01*
X9388193Y63139165D02*
X9606944Y63089236D01*
X49959512Y72271398D02*
X50172204Y72199937D01*
X88844882Y82873170D02*
X88980361Y82694313D01*
X126033544Y42781935D02*
X126215723Y42912913D01*
X125246560Y71646656D02*
X125037694Y71728630D01*
X42825000Y33199930D02*
X43037692Y33271391D01*
X45016843Y64694309D02*
X45152323Y64873167D01*
X89963663Y89218093D02*
X89781483Y89087115D01*
X45997203Y85387829D02*
X45997203Y85612206D01*
X85215722Y14087098D02*
X85033543Y14218076D01*
X127764277Y93066830D02*
X127830413Y93281237D01*
X48437824Y91201285D02*
X48606058Y91052819D01*
X127963680Y68059560D02*
X127930238Y68281430D01*
X88000001Y28612194D02*
X88000001Y28387817D01*
X125845062Y50339818D02*
X125650746Y50452007D01*
X84246559Y6353359D02*
X84451079Y6445642D01*
X47111426Y27498661D02*
X47166792Y27281223D01*
X10498602Y15000002D02*
X10998601Y15000003D01*
X48606058Y13947202D02*
X48437824Y13798736D01*
X50606945Y14910779D02*
X50388194Y14860850D01*
X124825002Y23800081D02*
X124609012Y23860851D01*
X49959512Y90271402D02*
X50172204Y90199941D01*
X83169293Y54050273D02*
X83390260Y54089235D01*
X86395717Y39750007D02*
X86278719Y39941466D01*
X127885779Y38501352D02*
X127830413Y38718790D01*
X47000000Y28387817D02*
X47011184Y28163720D01*
X45764275Y93066830D02*
X45830411Y93281237D01*
X40998601Y33000006D02*
X40998601Y33000007D01*
X123498604Y42000009D02*
X123722910Y42005603D01*
X124169294Y14949740D02*
X123946659Y14977640D01*
X50172204Y32800084D02*
X49959512Y32728623D01*
X6601486Y12750002D02*
X6494177Y12552950D01*
X88980361Y13305706D02*
X88844882Y13126849D01*
X81998602Y42000008D02*
X81998602Y42000009D01*
X7963661Y81781942D02*
X8152143Y81660208D01*
X41946657Y6022363D02*
X42169292Y6050263D01*
X6166791Y29718788D02*
X6111425Y29501350D01*
X43246558Y32646648D02*
X43037692Y32728622D01*
X49750646Y81353374D02*
X49959512Y81271400D01*
X86885778Y38501352D02*
X86830412Y38718790D01*
X127930238Y38281424D02*
X127885779Y38501352D01*
X123722910Y6005595D02*
X123946659Y6022363D01*
X126559381Y22798737D02*
X126391148Y22947203D01*
X45930236Y36718591D02*
X45963678Y36940461D01*
X43246558Y6353359D02*
X43451078Y6445642D01*
X89781483Y62087109D02*
X89606059Y61947212D01*
X44391146Y34052808D02*
X44559379Y34201274D01*
X47601487Y78750016D02*
X47494178Y78552964D01*
X125451080Y42445650D02*
X125650746Y42548012D01*
X47033525Y29059552D02*
X47011184Y28836291D01*
X8546124Y24445645D02*
X8750645Y24353362D01*
X43037692Y54271395D02*
X43246558Y54353369D01*
X124390261Y98910796D02*
X124169294Y98949758D01*
X47396825Y92649227D02*
X47494178Y92447071D01*
X84037693Y72271399D02*
X84246559Y72353373D01*
X47494178Y12552950D02*
X47396825Y12350794D01*
X41498602Y72000013D02*
X40998601Y72000014D01*
X48277201Y97642086D02*
X48124586Y97477606D01*
X89606059Y97947220D02*
X89437825Y97798754D01*
X81998602Y90000018D02*
X81998602Y90000019D01*
X127986021Y37836293D02*
X127963680Y38059554D01*
X6111425Y95501364D02*
X6066966Y95281436D01*
X125246560Y15353361D02*
X125451080Y15445644D01*
X124169294Y63050275D02*
X124390261Y63089237D01*
X83609011Y71860861D02*
X83390260Y71910790D01*
X88111427Y57498667D02*
X88166793Y57281229D01*
X118078Y528604D02*
X168530Y444430D01*
X47111426Y11501346D02*
X47066967Y11281418D01*
X10998601Y81000017D02*
X10998601Y81000017D01*
X48437824Y82201283D02*
X48606058Y82052817D01*
X47111426Y84498673D02*
X47166792Y84281235D01*
X47033525Y66940467D02*
X47066967Y66718597D01*
X47844881Y22126851D02*
X47718485Y21941462D01*
X9827911Y15050264D02*
X10050546Y15022364D01*
X127830413Y11718784D02*
X127764277Y11933191D01*
X125650746Y50452007D02*
X125451080Y50554369D01*
X124609012Y63139166D02*
X124825002Y63199936D01*
X88494179Y69552962D02*
X88396826Y69350806D01*
X123498604Y42000007D02*
X122998603Y42000008D01*
X6601486Y48750010D02*
X6494177Y48552958D01*
X45600378Y21350795D02*
X45503025Y21552951D01*
X51274296Y15005596D02*
X51498603Y15000002D01*
X45600378Y30350797D02*
X45503025Y30552953D01*
X88494179Y8447053D02*
X88601488Y8250001D01*
X44720002Y73357950D02*
X44872617Y73522429D01*
X42825000Y42199932D02*
X43037692Y42271393D01*
X42609010Y42139162D02*
X42825000Y42199932D01*
X83825001Y6199924D02*
X84037693Y6271385D01*
X89277202Y64357947D02*
X89437825Y64201279D01*
X10998601Y51000010D02*
X10998601Y51000010D01*
X43037692Y62728628D02*
X42825000Y62800089D01*
X88111427Y93498675D02*
X88166793Y93281237D01*
X48781482Y24912908D02*
X48963662Y24781930D01*
X82946658Y89977656D02*
X82722909Y89994424D01*
X47033525Y36940461D02*
X47066967Y36718591D01*
X6718484Y56058553D02*
X6844880Y55873164D01*
X90546126Y14554362D02*
X90346460Y14451999D01*
X51498603Y54000010D02*
X51998602Y54000011D01*
X88232929Y18066813D02*
X88309671Y17855969D01*
X126215723Y81912921D02*
X126391148Y82052818D01*
X125650746Y62452009D02*
X125451080Y62554371D01*
X9388193Y71860862D02*
X9172203Y71800092D01*
X90750647Y23646647D02*
X90546126Y23554364D01*
X83825001Y15199926D02*
X84037693Y15271387D01*
X43451078Y50554369D02*
X43246558Y50646652D01*
X86885778Y95501364D02*
X86830412Y95718802D01*
X45016843Y79305720D02*
X44872617Y79477602D01*
X45278718Y87941476D02*
X45152323Y88126864D01*
X85559380Y34201274D02*
X85720003Y34357942D01*
X49546125Y62554372D02*
X49346459Y62452009D01*
X92998603Y54000010D02*
X92498604Y54000010D01*
X45963678Y36940461D02*
X45986019Y37163722D01*
X10274295Y80994423D02*
X10050546Y80977655D01*
X47980360Y91694315D02*
X48124586Y91522433D01*
X41946657Y14977640D02*
X41722908Y14994408D01*
X125246560Y32646648D02*
X125037694Y32728622D01*
X126872619Y40477594D02*
X126720004Y40642073D01*
X83390260Y54089235D02*
X83609011Y54139164D01*
X84246559Y15353361D02*
X84451079Y15445644D01*
X86885778Y68501358D02*
X86830412Y68718796D01*
X5999999Y85612206D02*
X5999999Y85387829D01*
X88000001Y85612206D02*
X88000001Y85387829D01*
X127152325Y88126864D02*
X127016845Y88305722D01*
X86395717Y35250007D02*
X86503026Y35447060D01*
X88494179Y74447067D02*
X88601488Y74250015D01*
X47494178Y78552964D02*
X47396825Y78350808D01*
X127885779Y68501358D02*
X127830413Y68718796D01*
X85033543Y42781935D02*
X85215722Y42912913D01*
X86986020Y85163732D02*
X86997204Y85387829D01*
X86885778Y29501350D02*
X86830412Y29718788D01*
X86503026Y83447070D02*
X86600379Y83649226D01*
X91827913Y63050274D02*
X92050548Y63022374D01*
X49959512Y50728627D02*
X49750646Y50646653D01*
X47232928Y18066813D02*
X47309670Y17855969D01*
X10498602Y33000006D02*
X10274295Y32994413D01*
X9827911Y24050266D02*
X10050546Y24022366D01*
X127600380Y21350795D02*
X127503027Y21552951D01*
X41946657Y23977642D02*
X41722908Y23994410D01*
X91606946Y33089230D02*
X91827913Y33050268D01*
X126720004Y7357936D02*
X126872619Y7522415D01*
X0Y104000020D02*
X0Y1000000D01*
X88718486Y69941472D02*
X88601488Y69750014D01*
X9606944Y24089228D02*
X9827911Y24050266D01*
X88309671Y44855975D02*
X88396826Y44649217D01*
X133704311Y292894D02*
X133770215Y365607D01*
X48781482Y42912912D02*
X48963662Y42781934D01*
X45997203Y19612192D02*
X45986019Y19836289D01*
X124609012Y72139168D02*
X124825002Y72199938D01*
X84246559Y80646658D02*
X84037693Y80728632D01*
X91606946Y50910787D02*
X91388195Y50860858D01*
X45963678Y47059556D02*
X45930236Y47281426D01*
X43845060Y63660205D02*
X44033542Y63781939D01*
X42169292Y33050269D02*
X42390259Y33089231D01*
X127152325Y61126858D02*
X127016845Y61305716D01*
X91172205Y41800086D02*
X90959513Y41728625D01*
X85215722Y50087106D02*
X85033543Y50218084D01*
X6033524Y9940455D02*
X6066966Y9718585D01*
X45016843Y34694303D02*
X45152323Y34873161D01*
X9827911Y72050276D02*
X10050546Y72022376D01*
X44033542Y89218092D02*
X43845060Y89339826D01*
X90959513Y90271402D02*
X91172205Y90199941D01*
X6232927Y45066819D02*
X6309669Y44855975D01*
X82722909Y15005597D02*
X82946658Y15022365D01*
X125650746Y41452005D02*
X125451080Y41554367D01*
X127885779Y11501346D02*
X127830413Y11718784D01*
X133704311Y104707127D02*
X133631598Y104773031D01*
X84650745Y41452005D02*
X84451079Y41554367D01*
X48606058Y82052817D02*
X48781482Y81912920D01*
X51050547Y71977653D02*
X50827912Y71949753D01*
X88000001Y58612200D02*
X88000001Y58387823D01*
X48124586Y73522429D02*
X48277201Y73357949D01*
X44720002Y13642067D02*
X44559379Y13798735D01*
X128997205Y51000010D02*
X128997205Y5000000D01*
X51050547Y54022372D02*
X51274296Y54005604D01*
X127395718Y56250011D02*
X127503027Y56447064D01*
X86687534Y26855971D02*
X86764276Y27066816D01*
X50827912Y63050274D02*
X51050547Y63022374D01*
X92050548Y81022378D02*
X92274297Y81005610D01*
X124390261Y15089227D02*
X124609012Y15139156D01*
X91388195Y14860850D02*
X91172205Y14800080D01*
X5999999Y76387827D02*
X6011183Y76163730D01*
X127830413Y75281233D02*
X127885779Y75498671D01*
X125451080Y71554373D02*
X125246560Y71646656D01*
X45930236Y66718597D02*
X45963678Y66940467D01*
X124390261Y80910792D02*
X124169294Y80949754D01*
X6718484Y78941474D02*
X6601486Y78750016D01*
X45016843Y43694305D02*
X45152323Y43873163D01*
X89437825Y97798754D02*
X89277202Y97642086D01*
X81998602Y90000018D02*
X81998602Y90000018D01*
X127503027Y39552955D02*
X127395718Y39750007D01*
X122998603Y15000003D02*
X123498604Y15000003D01*
X6601486Y65250013D02*
X6718484Y65058555D01*
X6980359Y7694297D02*
X7124585Y7522415D01*
X51998602Y15000002D02*
X51498603Y15000002D01*
X127986021Y76163730D02*
X127997205Y76387827D01*
X82498603Y33000005D02*
X81998602Y33000006D01*
X5999999Y54000010D02*
X5000000Y54000010D01*
X88111427Y18498659D02*
X88166793Y18281221D01*
X9388193Y14860850D02*
X9172203Y14800080D01*
X9827911Y81050278D02*
X10050546Y81022378D01*
X126872619Y88477604D02*
X126720004Y88642083D01*
X43037692Y98728636D02*
X42825000Y98800097D01*
X8346458Y98452017D02*
X8152143Y98339829D01*
X41498602Y63000011D02*
X40998601Y63000012D01*
X9388193Y41860856D02*
X9172203Y41800086D01*
X6601486Y21750004D02*
X6494177Y21552952D01*
X7963661Y72781940D02*
X8152143Y72660206D01*
X6011183Y46163724D02*
X6033524Y45940463D01*
X7606057Y61947212D02*
X7437823Y61798746D01*
X88844882Y31126853D02*
X88718486Y30941464D01*
X45016843Y73694311D02*
X45152323Y73873169D01*
X90959513Y81271400D02*
X91172205Y81199939D01*
X84037693Y41728624D02*
X83825001Y41800085D01*
X10274295Y42005602D02*
X10498602Y42000008D01*
X42609010Y6139154D02*
X42825000Y6199924D01*
X90959513Y98728637D02*
X90750647Y98646663D01*
X133977990Y104195111D02*
X133977990Y104195111D01*
X88396826Y60350804D02*
X88309671Y60144046D01*
X49546125Y50554370D02*
X49346459Y50452007D01*
X92498604Y15000002D02*
X92998603Y15000003D01*
X47844881Y13126849D02*
X47718485Y12941460D01*
X125037694Y41728624D02*
X124825002Y41800085D01*
X8346458Y71452011D02*
X8152143Y71339823D01*
X91388195Y41860856D02*
X91172205Y41800086D01*
X51274296Y14994409D02*
X51050547Y14977641D01*
X6718484Y48941468D02*
X6601486Y48750010D01*
X127016845Y70305718D02*
X126872619Y70477600D01*
X133770215Y104634414D02*
X133704311Y104707127D01*
X92998603Y15000003D02*
X92998603Y15000002D01*
X45600378Y35649216D02*
X45687533Y35855973D01*
X10998601Y42000008D02*
X10498602Y42000008D01*
X50388194Y89860866D02*
X50172204Y89800096D01*
X42169292Y15050265D02*
X42390259Y15089227D01*
X133192295Y19215D02*
X133287489Y43060D01*
X44559379Y82201284D02*
X44720002Y82357952D01*
X88033526Y68059560D02*
X88011185Y67836299D01*
X125845062Y42660201D02*
X126033544Y42781935D01*
X127997205Y94612208D02*
X127986021Y94836305D01*
X88232929Y27066815D02*
X88309671Y26855971D01*
X47309670Y56855977D02*
X47396825Y56649219D01*
X81998602Y72000014D02*
X81998602Y72000014D01*
X86764276Y84066828D02*
X86830412Y84281235D01*
X85033543Y98218094D02*
X84845061Y98339828D01*
X127764277Y77933205D02*
X127687535Y78144050D01*
X85872618Y73522429D02*
X86016844Y73694311D01*
X9172203Y32800084D02*
X8959511Y32728623D01*
X126391148Y40947207D02*
X126215723Y41087104D01*
X44215721Y62087108D02*
X44033542Y62218086D01*
X83169293Y50949748D02*
X82946658Y50977648D01*
X92998603Y63000012D02*
X92498604Y63000012D01*
X48277201Y31642072D02*
X48124586Y31477592D01*
X44391146Y79947215D02*
X44215721Y80087112D01*
X51998602Y54000011D02*
X51998602Y54000010D01*
X47011184Y85836303D02*
X47000000Y85612206D01*
X83609011Y98860867D02*
X83390260Y98910796D01*
X127278720Y17058545D02*
X127395718Y17250003D01*
X88000001Y10387813D02*
X88011185Y10163716D01*
X88601488Y56250011D02*
X88718486Y56058553D01*
X125037694Y71728630D02*
X124825002Y71800091D01*
X40998601Y42000008D02*
X40998601Y42000008D01*
X49346459Y71452011D02*
X49152144Y71339823D01*
X48437824Y7201267D02*
X48606058Y7052801D01*
X86997204Y28612194D02*
X86986020Y28836291D01*
X43650744Y98452017D02*
X43451078Y98554379D01*
X88066968Y29281422D02*
X88033526Y29059552D01*
X82722909Y63005607D02*
X82946658Y63022375D01*
X7606057Y13947202D02*
X7437823Y13798736D01*
X127503027Y69552961D02*
X127395718Y69750013D01*
X47980360Y22305708D02*
X47844881Y22126851D01*
X47601487Y69750014D02*
X47494178Y69552962D01*
X8750645Y33353364D02*
X8959511Y33271390D01*
X49959512Y89728635D02*
X49750646Y89646661D01*
X88601488Y30750006D02*
X88494179Y30552954D01*
X45152323Y64873167D02*
X45278718Y65058555D01*
X127930238Y47281426D02*
X127885779Y47501354D01*
X90346460Y89452015D02*
X90152145Y89339827D01*
X90959513Y80728633D02*
X90750647Y80646659D01*
X43246558Y41646650D02*
X43037692Y41728624D01*
X91172205Y89800096D02*
X90959513Y89728635D01*
X133379888Y76121D02*
X133468601Y118079D01*
X89781483Y6912904D02*
X89963663Y6781926D01*
X83169293Y24050267D02*
X83390260Y24089229D01*
X126215723Y32087102D02*
X126033544Y32218080D01*
X45600378Y92649228D02*
X45687533Y92855985D01*
X127687535Y60144046D02*
X127600380Y60350803D01*
X124609012Y41860855D02*
X124390261Y41910784D01*
X90152145Y14339811D02*
X89963663Y14218077D01*
X123498604Y63000013D02*
X123722910Y63005607D01*
X88844882Y64873166D02*
X88980361Y64694309D01*
X48781482Y50087107D02*
X48606058Y49947210D01*
X45963678Y45940463D02*
X45986019Y46163724D01*
X43246558Y54353369D02*
X43451078Y54445652D01*
X89963663Y24781930D02*
X90152145Y24660196D01*
X48124586Y91522433D02*
X48277201Y91357953D01*
X88011185Y46836295D02*
X88000001Y46612198D01*
X41498602Y24000003D02*
X40998601Y24000004D01*
X83825001Y98800097D02*
X83609011Y98860867D01*
X8346458Y80452013D02*
X8152143Y80339825D01*
X47111426Y36498663D02*
X47166792Y36281225D01*
X44720002Y25357940D02*
X44872617Y25522419D01*
X44559379Y40798741D02*
X44391146Y40947207D01*
X6011183Y10163716D02*
X6033524Y9940455D01*
X84246559Y63353371D02*
X84451079Y63445654D01*
X10498602Y63000012D02*
X10274295Y62994419D01*
X7606057Y49947210D02*
X7437823Y49798744D01*
X88166793Y75281233D02*
X88232929Y75066825D01*
X47718485Y26058547D02*
X47844881Y25873158D01*
X10274295Y62994419D02*
X10050546Y62977651D01*
X47033525Y9940455D02*
X47066967Y9718585D01*
X125037694Y72271399D02*
X125246560Y72353373D01*
X88718486Y44058551D02*
X88844882Y43873162D01*
X88396826Y8649209D02*
X88494179Y8447053D01*
X124825002Y24199928D02*
X125037694Y24271389D01*
X7963661Y62218087D02*
X7781481Y62087109D01*
M02*
